<svg viewBox="0 0 60 60" fill="none" xmlns="http://www.w3.org/2000/svg"><path d="M52.5 9.75C54.1569 9.75 55.5 11.0931 55.5 12.75V43.5C55.5 45.1569 54.1569 46.5 52.5 46.5H38.1875L30 52.5L21.8125 46.5H7.5C5.84315 46.5 4.5 45.1569 4.5 43.5V12.75C4.5 11.0931 5.84315 9.75 7.5 9.75H52.5ZM15.75 24.75C14.0931 24.75 12.75 26.0931 12.75 27.75C12.75 29.4069 14.0931 30.75 15.75 30.75C17.4069 30.75 18.75 29.4069 18.75 27.75C18.75 26.0931 17.4069 24.75 15.75 24.75ZM30 24.75C28.3431 24.75 27 26.0931 27 27.75C27 29.4069 28.3431 30.75 30 30.75C31.6569 30.75 33 29.4069 33 27.75C33 26.0931 31.6569 24.75 30 24.75ZM44.25 24.75C42.5931 24.75 41.25 26.0931 41.25 27.75C41.25 29.4069 42.5931 30.75 44.25 30.75C45.9069 30.75 47.25 29.4069 47.25 27.75C47.25 26.0931 45.9069 24.75 44.25 24.75Z" fill="#999999"/></svg>
