<svg width="24" height="24" viewBox="0 0 24 24" fill="none" xmlns="http://www.w3.org/2000/svg">
<path d="M6.67203 2.40004C6.11058 2.39846 5.55436 2.50787 5.03534 2.722C4.51632 2.93613 4.04475 3.25074 3.64775 3.64775C3.25074 4.04475 2.93613 4.51632 2.722 5.03534C2.50787 5.55436 2.39846 6.11058 2.40004 6.67203V17.328C2.39846 17.8895 2.50787 18.4457 2.722 18.9647C2.93613 19.4837 3.25074 19.9553 3.64775 20.3523C4.04475 20.7493 4.51632 21.0639 5.03534 21.278C5.55436 21.4922 6.11058 21.6016 6.67203 21.6H17.328C17.8895 21.6016 18.4457 21.4922 18.9647 21.278C19.4837 21.0639 19.9553 20.7493 20.3523 20.3523C20.7493 19.9553 21.0639 19.4837 21.278 18.9647C21.4922 18.4457 21.6016 17.8895 21.6 17.328V6.67203C21.6016 6.11058 21.4922 5.55436 21.278 5.03534C21.0639 4.51632 20.7493 4.04475 20.3523 3.64775C19.9553 3.25074 19.4837 2.93613 18.9647 2.722C18.4457 2.50787 17.8895 2.39846 17.328 2.40004H6.67203ZM11.8902 4.45264C13.7592 4.45264 15.4494 5.17504 16.7376 6.52443C17.7162 7.54023 18.2658 8.61783 18.5472 10.0374C18.6438 10.5096 18.6438 11.7966 18.5526 12.3276C18.2538 14.0161 17.3288 15.5295 15.9624 16.5654C15.4752 16.9344 14.2842 17.5752 14.0934 17.5752C14.0214 17.5752 14.016 17.5032 14.0472 17.2062C14.1066 16.731 14.1624 16.6344 14.4312 16.5216C14.859 16.344 15.5904 15.8214 16.0374 15.375C16.8189 14.5937 17.374 13.6153 17.6436 12.5436C17.8122 11.8836 17.79 10.4178 17.6058 9.74043C17.0244 7.58343 15.2616 5.90944 13.1058 5.45884C12.4812 5.33104 11.34 5.33104 10.7058 5.45884C8.52423 5.90944 6.71763 7.66863 6.16803 9.88143C6.02103 10.4838 6.02103 11.9502 6.16803 12.5502C6.53343 14.016 7.48083 15.3588 8.72103 16.1592C8.96523 16.3218 9.25863 16.4874 9.38103 16.5378C9.64923 16.653 9.70923 16.7508 9.75843 17.2218C9.78963 17.5128 9.78303 17.5938 9.71523 17.5938C9.67143 17.5938 9.34323 17.4528 8.99583 17.2872L8.96463 17.2626C6.98643 16.2906 5.72044 14.6442 5.25844 12.453C5.14624 11.8872 5.12404 10.5408 5.23684 10.0218C5.52424 8.62803 6.07443 7.54083 6.98943 6.57843C8.30883 5.18704 10.0056 4.45264 11.8926 4.45264H11.8902ZM12 6.70323C12.2966 6.70253 12.5926 6.73066 12.8838 6.78723C15.1128 7.28403 16.6902 9.51303 16.3836 11.7246C16.2618 12.618 15.9558 13.35 15.4122 14.031C15.1434 14.3748 14.49 14.9502 14.3748 14.9502C14.3556 14.9502 14.337 14.7312 14.337 14.4684V13.9836L14.6682 13.587C15.924 12.084 15.834 9.98403 14.4648 8.60943C13.9338 8.07183 13.3176 7.75563 12.5238 7.61283C12.012 7.51623 11.9052 7.51623 11.3676 7.60623C10.5492 7.73763 9.91743 8.05263 9.35463 8.60943C7.98003 9.97203 7.88883 12.084 9.14583 13.587L9.47703 13.9836V14.4714C9.47703 14.7402 9.45483 14.9556 9.42663 14.9556C9.40503 14.9556 9.21723 14.8278 9.01683 14.6682L8.98863 14.6586C8.32323 14.1276 7.73583 13.1868 7.49163 12.2616C7.34523 11.7024 7.34523 10.6434 7.49823 10.0866C7.90143 8.58363 9.01083 7.41783 10.5456 6.87123C10.8738 6.75543 11.451 6.69303 11.9952 6.70263L12 6.70323ZM11.8938 9.09363C12.144 9.09363 12.3906 9.14403 12.5724 9.23763C12.9594 9.44103 13.2822 9.83103 13.4034 10.2438C13.7754 11.5062 12.438 12.6126 11.2248 12.0468H11.2158C10.644 11.781 10.3374 11.2812 10.3308 10.6308C10.3308 10.0434 10.6554 9.53403 11.2212 9.23403C11.3994 9.14043 11.6466 9.09303 11.8962 9.09303L11.8938 9.09363ZM11.8872 12.8784C12.6786 12.8754 13.2498 13.1562 13.4622 13.653C13.6212 14.025 13.5624 15.1968 13.287 17.094C13.1028 18.4188 12.9996 18.753 12.744 18.9786C12.3906 19.2906 11.8938 19.3788 11.4186 19.2096H11.4162C10.8444 19.0032 10.722 18.7248 10.4844 17.0934C10.2132 15.1968 10.1532 14.0244 10.3134 13.6524C10.5222 13.1586 11.091 12.8814 11.8878 12.8778L11.8872 12.8784Z" fill="black"/>
</svg>
