<svg width="24" height="24" viewBox="0 0 24 24" fill="none" xmlns="http://www.w3.org/2000/svg">
<path d="M16.8102 16.2051C16.8102 15.9194 16.6765 15.692 16.4091 15.5228C14.6857 14.4965 12.6902 13.9834 10.4228 13.9834C9.23538 13.9834 7.95424 14.1354 6.57938 14.4394C6.20452 14.5194 6.0171 14.7514 6.0171 15.1354C6.0171 15.3137 6.0771 15.468 6.1971 15.5982C6.3171 15.7285 6.47538 15.7931 6.67195 15.792C6.71652 15.792 6.88167 15.7565 7.16738 15.6857C8.34567 15.4445 9.43024 15.324 10.4211 15.324C12.4394 15.324 14.212 15.784 15.7388 16.704C15.908 16.8022 16.0554 16.8514 16.1811 16.8514C16.3502 16.8514 16.4977 16.7914 16.6234 16.6714C16.7491 16.5514 16.8114 16.3971 16.8102 16.2085V16.2051ZM18.096 13.3251C18.096 12.9685 17.94 12.696 17.628 12.5074C15.5114 11.248 13.0651 10.6182 10.2891 10.6182C8.92338 10.6182 7.57081 10.8057 6.23138 11.1805C5.80281 11.2971 5.58852 11.5828 5.58852 12.0377C5.58852 12.2605 5.66681 12.4502 5.82338 12.6068C5.97995 12.7634 6.16967 12.8417 6.39252 12.8417C6.45538 12.8417 6.62052 12.8062 6.88795 12.7354C7.9771 12.4405 9.09767 12.2931 10.2497 12.2931C12.7411 12.2931 14.9194 12.8468 16.7845 13.9542C16.9982 14.0708 17.168 14.1291 17.2937 14.1291C17.5165 14.1291 17.7062 14.0508 17.8628 13.8942C18.0194 13.7377 18.0977 13.548 18.0977 13.3251H18.096ZM19.5411 10.0045C19.5411 9.5851 19.3628 9.27252 19.0062 9.06681C17.8817 8.41538 16.5737 7.92224 15.0822 7.58738C13.5908 7.25252 12.0594 7.0851 10.488 7.0851C8.66624 7.0851 7.0411 7.29481 5.61252 7.71424C5.40681 7.7771 5.23481 7.89081 5.09652 8.05538C4.95824 8.21995 4.8891 8.43652 4.8891 8.7051C4.8891 8.98167 4.98052 9.21367 5.16338 9.4011C5.34624 9.58852 5.57595 9.68224 5.85252 9.68224C5.95081 9.68224 6.1291 9.64681 6.38738 9.57595C7.57481 9.24567 8.9451 9.08052 10.4982 9.08052C11.9177 9.08052 13.2994 9.23252 14.6434 9.53652C15.9874 9.84052 17.1188 10.2645 18.0377 10.8085C18.2251 10.916 18.4034 10.9697 18.5725 10.9697C18.832 10.9697 19.0577 10.8782 19.2497 10.6954C19.4417 10.5125 19.5377 10.2828 19.5377 10.0062L19.5411 10.0045ZM22.2874 12C22.2874 13.8662 21.8274 15.5874 20.9074 17.1634C19.9874 18.7394 18.7394 19.9874 17.1634 20.9074C15.5874 21.8274 13.8662 22.2874 12 22.2874C10.1337 22.2874 8.41252 21.8274 6.83652 20.9074C5.26052 19.9874 4.01252 18.7394 3.09252 17.1634C2.17252 15.5874 1.71252 13.8662 1.71252 12C1.71252 10.1337 2.17252 8.41252 3.09252 6.83652C4.01252 5.26052 5.26052 4.01252 6.83652 3.09252C8.41252 2.17252 10.1337 1.71252 12 1.71252C13.8662 1.71252 15.5874 2.17252 17.1634 3.09252C18.7394 4.01252 19.9874 5.26052 20.9074 6.83652C21.8274 8.41252 22.2874 10.1337 22.2874 12Z" fill="black"/>
</svg>
