<svg width="24" height="24" viewBox="0 0 24 24" fill="none" xmlns="http://www.w3.org/2000/svg">
<path d="M22.6463 2.91707C22.8717 3.01089 23.0718 3.15621 23.2305 3.34157L23.2443 3.34844C23.364 3.51421 23.4475 3.70311 23.4892 3.90296C23.531 4.1028 23.5303 4.30915 23.4869 4.50867C23.4076 4.88856 23.2684 5.25356 23.0752 5.59111C22.5397 6.50085 21.9057 7.34957 21.1846 8.12212C18.9918 10.4822 16.5939 12.6451 14.0189 14.5858C11.4768 16.5876 8.76136 18.3612 5.90441 19.8858C4.97751 20.387 3.99655 20.784 2.98109 21.0724C2.60618 21.1754 2.21633 21.2154 1.82762 21.1948C1.62292 21.1864 1.42229 21.1352 1.2388 21.0445C1.05531 20.9539 0.893094 20.8257 0.762714 20.6685C0.589596 20.4366 0.504462 20.1513 0.522362 19.8629C0.536162 19.6272 0.589062 19.3938 0.678763 19.1753C0.885765 18.6855 1.15027 18.2221 1.46767 17.7953C2.20256 16.7924 3.00439 15.8398 3.86774 14.9439C3.57706 14.0636 3.42916 13.1428 3.42959 12.2161C3.4221 10.6672 3.83312 9.14464 4.61965 7.80786C5.40617 6.47108 6.53929 5.36916 7.90048 4.61738C9.26167 3.8656 10.8009 3.49158 12.3571 3.53445C13.9134 3.57733 15.4294 4.03552 16.7467 4.86109C17.9342 4.14646 19.19 3.55084 20.4958 3.08298C20.9582 2.92051 21.4422 2.82682 21.9321 2.80493C22.1759 2.78548 22.4209 2.82438 22.6463 2.91707ZM20.0473 7.11063C20.689 6.42589 21.2543 5.67394 21.7332 4.86796L21.7274 4.86109C21.824 4.69289 21.9022 4.51325 21.9574 4.32789C21.6239 4.35077 21.2973 4.41943 20.9834 4.53156C19.9714 4.88398 18.9915 5.32794 18.06 5.85656C18.3579 6.13347 18.635 6.43211 18.8915 6.74905C16.8939 8.8424 14.7324 10.7746 12.4273 12.5274C10.1371 14.3249 7.70501 15.9359 5.15461 17.3445C4.94166 17.0581 4.7473 16.7585 4.5727 16.4475C3.9195 17.1466 3.30769 17.8846 2.74418 18.6581C2.51188 18.9727 2.31293 19.3103 2.14963 19.665C2.31868 19.6536 2.48658 19.6249 2.64988 19.5815C3.55149 19.3206 4.4232 18.9636 5.24891 18.5185C8.00858 17.0411 10.6323 15.325 13.0897 13.3901C15.5887 11.5031 17.9168 9.40193 20.0473 7.11063ZM8.06184 19.8664C10.3434 18.5161 12.5366 17.0233 14.6284 15.3971L14.6169 15.3833C16.7119 13.7859 18.7038 12.0589 20.5809 10.2126C20.8801 11.4827 20.8879 12.8036 20.6036 14.0772C20.3194 15.3507 19.7505 16.5442 18.9391 17.5689C18.1277 18.5937 17.0946 19.4234 15.9167 19.9965C14.7388 20.5695 13.4463 20.8712 12.1352 20.879C10.7143 20.8814 9.31495 20.5339 8.06184 19.8675V19.8664Z" fill="black"/>
</svg>
