<svg viewBox="0 0 111 36" fill="none" xmlns="http://www.w3.org/2000/svg">
    <mask id="path-1-inside-1_19797_2504" fill="white">
        <path d="M111 36H0V9.13965L9.13965 0H111V36Z"/>
    </mask>
    <path d="M111 36V38H113V36H111ZM0 36H-2V38H0V36ZM0 9.13965L-1.41421 7.72543L-2 8.31122V9.13965H0ZM9.13965 0V-2H8.31122L7.72543 -1.41421L9.13965 0ZM111 0H113V-2H111V0ZM111 36V34H0V36V38H111V36ZM0 36H2V9.13965H0H-2V36H0ZM0 9.13965L1.41421 10.5539L10.5539 1.41421L9.13965 0L7.72543 -1.41421L-1.41421 7.72543L0 9.13965ZM9.13965 0V2H111V0V-2H9.13965V0ZM111 0H109V36H111H113V0H111Z"
          fill="none" mask="url(#path-1-inside-1_19797_2504)"/>
</svg>
