<svg xmlns="http://www.w3.org/2000/svg" fill="none" viewBox="0 0 32 32"><path fill="current" d="M26.998 16.864c-1.275-.044-6.507-.832-7.08-2.059-.327-.72 4.35-6.644 4.493-7.803.177-1.47-6.404-6.103-7.762-4.382-2.799 3.526-4.454 6.69-5.904 9.84-1.793 3.863-3.493 7.535-7.688 10.903a.776.776 0 0 0-.12 1.087c.267.334 6.48 5.184 6.904 5.22.12.01.45-.285.555-.374a28.7 28.7 0 0 0 4.53-4.852c.636-.846.921-1.222 1.33-1.133 3.29.704 6.44 1.758 9.82 2.185.182.03.369-.01.522-.112 1.02.033 1.411-8.485.4-8.522zM10.115 24.07c-1.118 0-2.024-.512-2.024-1.143 0-.63.906-1.143 2.024-1.143s2.026.512 2.026 1.143c0 .63-.907 1.143-2.026 1.143m2.65-4.885c-.822.44-1.688.42-1.94-.042s.22-1.2 1.042-1.64 1.688-.42 1.94.043c.253.461-.217 1.197-1.042 1.64m2.661 2.026c-.931 0-1.688-.427-1.688-.954 0-.528.755-.953 1.688-.953.934 0 1.687.427 1.687.953 0 .525-.753.954-1.687.954m1.634-6.192c-.328.873-.992 1.436-1.488 1.25-.497-.187-.623-1.044-.293-1.92s.991-1.436 1.482-1.251c.491.184.623 1.047.297 1.919zm-.582-3.742c-.932 0-1.688-.429-1.688-.954 0-.526.753-.955 1.688-.955s1.688.427 1.688.954c0 .528-.757.955-1.688.955m1.533-4.785c0-.524.757-.955 1.69-.955.934 0 1.689.43 1.689.955s-.748.958-1.689.958c-.94 0-1.69-.43-1.69-.956zM18.259 20c-.178-.498.389-1.152 1.27-1.467.88-.314 1.73-.165 1.91.33.178.495-.389 1.153-1.27 1.467s-1.735.165-1.91-.33m4.184 2.356c-.931 0-1.688-.425-1.688-.95 0-.526.757-.955 1.688-.955.932 0 1.689.425 1.689.954 0 .53-.759.951-1.689.951"/></svg>