<svg xmlns="http://www.w3.org/2000/svg" fill="none" viewBox="0 0 32 32"><path fill="current" d="M6.667 29.334q-1.667 0-2.834-1.167Q2.667 27 2.667 25.334q0-.567.383-.95A1.3 1.3 0 0 1 4 24q.567 0 .95.384.383.383.383.95 0 .566.384.95.383.383.95.383.5 0 1.116-.3t1.284-.867a14 14 0 0 0 1.316-1.283q.651-.717 1.284-1.55a21.4 21.4 0 0 0 2.133-3.5q.867-1.8.867-3.167V4q0-.566.383-.95a1.3 1.3 0 0 1 .95-.383q.567 0 .95.383.383.384.383.95v12q0 1.367.867 3.167a21.4 21.4 0 0 0 2.133 3.5q.634.833 1.284 1.55t1.316 1.283 1.284.867 1.116.3q.567 0 .95-.383a1.3 1.3 0 0 0 .384-.95q0-.567.383-.95A1.3 1.3 0 0 1 28 24q.567 0 .95.384.383.383.383.95 0 1.665-1.166 2.833-1.167 1.167-2.834 1.167-.8 0-1.816-.467t-2.084-1.3a19 19 0 0 1-2.116-1.95 24 24 0 0 1-1.984-2.417q-.5-.7-.783-.95T16 22t-.55.25-.783.95a24 24 0 0 1-1.984 2.417q-1.05 1.116-2.116 1.95t-2.084 1.3-1.816.467m.666-4.3-3-2.434a2.7 2.7 0 0 1-.733-.883 2.4 2.4 0 0 1-.267-1.117q0-.6.234-1.133.233-.534.7-.9.333-.267.733-.25a.87.87 0 0 1 .667.35q.265.333.25.75a.89.89 0 0 1-.35.683 1.2 1.2 0 0 0-.15.2.55.55 0 0 0-.084.3q0 .134.05.25.05.117.184.217l3.366 2.667q-.466.433-.866.766-.4.334-.734.534m3.534-3.4L6.333 18a2.6 2.6 0 0 1-.733-.9 2.5 2.5 0 0 1-.267-1.133q0-.6.234-1.15.233-.55.7-.917a1.03 1.03 0 0 1 .75-.233.94.94 0 0 1 .683.367q.267.333.233.733a.93.93 0 0 1-.366.667.5.5 0 0 0-.167.233.9.9 0 0 0-.067.333q0 .134.05.25.05.117.184.217L12 20q-.267.434-.55.834t-.583.8m2.3-4.3-4.834-3.9A2.54 2.54 0 0 1 7.6 12.5a2.7 2.7 0 0 1-.267-1.166q0-.634.267-1.167a3 3 0 0 1 .733-.933A.92.92 0 0 1 9.05 9a.94.94 0 0 1 .683.367q.267.334.234.733a.93.93 0 0 1-.367.667q-.066.066-.167.233a.7.7 0 0 0-.1.367q0 .066.267.5l3.733 3.033V16q0 .334-.05.667t-.116.667m.166-6.2-3.066-2.567a2.34 2.34 0 0 1-.7-.883A2.6 2.6 0 0 1 9.333 6.6q0-1.066.767-1.833A2.5 2.5 0 0 1 11.933 4q.534 0 .967.167t.433.833q0 .668-.433.834a2.7 2.7 0 0 1-.967.166.54.54 0 0 0-.433.2.66.66 0 0 0-.167.434q0 .133.05.233a.43.43 0 0 0 .15.167l1.8 1.5zm5.5 6.2a14 14 0 0 1-.116-.667 4.5 4.5 0 0 1-.05-.667v-1.1l3.733-3.033q.133-.1.267-.5a.7.7 0 0 0-.1-.367 1.3 1.3 0 0 0-.167-.233.93.93 0 0 1-.367-.667 1 1 0 0 1 .234-.733A.94.94 0 0 1 22.95 9a1.03 1.03 0 0 1 .75.234q.466.4.717.95t.25 1.15-.267 1.15a2.6 2.6 0 0 1-.733.916zm-.166-6.2v-2.6l1.8-1.5a.43.43 0 0 0 .15-.167.5.5 0 0 0 .05-.233.65.65 0 0 0-.167-.45.56.56 0 0 0-.433-.184q-.534 0-.967-.166-.433-.167-.433-.834t.433-.833.967-.167q1.066 0 1.833.767t.767 1.833q0 .567-.234 1.084a2.34 2.34 0 0 1-.7.883zm2.466 10.5A22 22 0 0 1 20 19.967l4.4-3.533q.1-.068.233-.5 0-.067-.2-.5a.94.94 0 0 1-.366-.684A1.03 1.03 0 0 1 24.3 14a.93.93 0 0 1 .667-.366q.399-.034.733.233.466.366.717.917.25.55.25 1.15t-.267 1.15a2.6 2.6 0 0 1-.733.916zm3.534 3.4a6 6 0 0 1-.734-.534 22 22 0 0 1-.866-.766l3.366-2.667q.1-.066.234-.467a.66.66 0 0 0-.067-.3.8.8 0 0 0-.133-.2.94.94 0 0 1-.367-.683 1.03 1.03 0 0 1 .233-.75.87.87 0 0 1 .667-.35q.4-.017.733.25.467.366.7.9.234.534.234 1.133 0 .6-.25 1.117a2.5 2.5 0 0 1-.717.883z"/></svg>