<svg xmlns="http://www.w3.org/2000/svg" fill="none" viewBox="0 0 32 32"><path fill="current" d="M10.784 19.408c2.592-2.384 5.328-2.768 8.336-.848-.544-.496-1.104-.992-1.712-1.552 1.296-1.968 3.088-3.12 5.472-3.248 2.4-.128 4.288.832 5.536 2.88 1.888 3.104 1.04 7.056-1.856 8.704-1.344.768-2.864.992-4.384.928-1.44-.064-2.736.288-4.032.864-4.208 1.872-8.448 1.456-12.656.032-.448-.16-.88-.4-1.296-.656-1.584-.992-1.856-1.664-1.504-3.488.672-3.344 1.872-6.48 3.92-9.264a140 140 0 0 0 3.568-5.12c.928-1.376 2.112-2.304 3.792-2.496 1.328-.16 2.656-.368 3.984-.416.384-.016.88.304 1.168.624.48.512.816 1.168 1.232 1.728.384.528.352.976-.192 1.296-1.472.864-2.96 1.456-4.704.688-.496-.224-1.184-.016-1.76-.08-.864-.112-.944.608-1.184 1.104-1.264 2.592-2.032 5.296-1.728 8.32"/></svg>