<svg xmlns="http://www.w3.org/2000/svg" fill="none" viewBox="0 0 32 32"><path fill="current" d="M6.666 28q-1.7 0-2.85-1.15T2.666 24v-5.566l3.5-9.367a3.44 3.44 0 0 1 1.4-1.75 3.9 3.9 0 0 1 2.167-.65q.867 0 1.633.433.767.434 1.267 1.167V12l-3.4 3.4 1.433 1.4 4-4V2.667h2.667V12.8l4 4 1.4-1.4-3.4-3.4V8.267A3.74 3.74 0 0 1 20.6 7.1a3.27 3.27 0 0 1 1.633-.433 3.8 3.8 0 0 1 2.15.65 3.66 3.66 0 0 1 1.417 1.75l3.5 9.367V24q0 1.701-1.167 2.85T25.3 28h-4q-1.666 0-2.817-1.15-1.15-1.149-1.15-2.85v-2.666l.5-4.234L16 15.234 14.133 17.1l.533 4.234V24q0 1.701-1.166 2.85Q12.333 28 10.666 28z"/></svg>