<svg xmlns="http://www.w3.org/2000/svg" fill="none" viewBox="0 0 32 32"><path fill="current" fill-rule="evenodd" d="M5.676 12.434A24 24 0 0 0 4.638 6c-.904-2.79.44-1.914 1.038-1.525.114.075.202.131.24.141q.45.113.897.233c.552.147 1.104.293 1.665.407 1.377.215 2.767.344 4.16.387 2.319.143 4.562.876 6.517 2.129a12.15 12.15 0 0 1 5.551 7.926q.465 2.606.659 5.246c.12 1.38.446 2.734.965 4.018.876 2.17.17 2.038-1.334 1.42a14.8 14.8 0 0 0-4.25-.971 45 45 0 0 1-4.714-.57 11.8 11.8 0 0 1-4.93-2.082 13.38 13.38 0 0 1-5.426-10.325m1.247.459a55 55 0 0 0-.282-.625c1.6 8.642 9.603 11.523 12.163 12.163-8.474-3.907-10.596-8.66-11.88-11.538m3.813-2.144c.887 1.92 4.01 6.197 9.113 9.477-1.773-.443-6.926-3.645-9.113-9.477m-.352-3.626c6.67 2.68 9.806 5.366 13.514 13.63-.757-3.172-2.86-11.54-13.514-13.63" clip-rule="evenodd"/></svg>