<svg width="32" height="32" viewBox="0 0 32 32" fill="none" xmlns="http://www.w3.org/2000/svg">
<path d="M26.998 16.8643C25.7231 16.8197 20.4911 16.0318 19.9186 14.8053C19.5907 14.0854 24.2676 8.16065 24.4112 7.00209C24.5878 5.5311 18.0071 0.89883 16.6487 2.62016C13.8503 6.14628 12.195 9.30949 10.7453 12.4591C8.95218 16.3229 7.25219 19.9946 3.05656 23.3635C2.8972 23.4921 2.79514 23.6785 2.7726 23.8821C2.75006 24.0856 2.80888 24.2899 2.93624 24.4502C3.20405 24.784 9.41793 29.6337 9.84099 29.6705C9.9613 29.6802 10.2912 29.3853 10.396 29.296C12.0882 27.8593 13.6082 26.2312 14.9254 24.4444C15.5619 23.5983 15.8472 23.2218 16.2567 23.3111C19.546 24.0155 22.6957 25.0693 26.0763 25.4962C26.2582 25.5256 26.4446 25.4855 26.5983 25.3837C27.6171 25.4167 28.0091 16.8993 26.998 16.8624V16.8643ZM10.1146 24.0699C8.99681 24.0699 8.09054 23.5576 8.09054 22.9269C8.09054 22.2962 8.99681 21.7838 10.1146 21.7838C11.2324 21.7838 12.1406 22.2962 12.1406 22.9269C12.1406 23.5576 11.2344 24.0699 10.1146 24.0699ZM12.7655 19.1853C11.9427 19.6259 11.0772 19.6045 10.8249 19.1426C10.5726 18.6808 11.0442 17.9433 11.867 17.5028C12.6898 17.0623 13.5553 17.0836 13.8076 17.5455C14.0599 18.0074 13.5903 18.7429 12.7655 19.1853ZM15.4261 21.2113C14.4946 21.2113 13.7378 20.7844 13.7378 20.2566C13.7378 19.7287 14.4927 19.3037 15.4261 19.3037C16.3595 19.3037 17.1125 19.7306 17.1125 20.2566C17.1125 20.7825 16.3595 21.2113 15.4261 21.2113ZM17.0601 15.0188C16.7321 15.8921 16.0684 16.4549 15.5716 16.2686C15.0748 16.0823 14.9487 15.2245 15.2786 14.3493C15.6085 13.4741 16.2703 12.9132 16.7613 13.0976C17.2522 13.282 17.3842 14.1455 17.0582 15.0169L17.0601 15.0188ZM16.4779 11.2773C15.5464 11.2773 14.7896 10.8484 14.7896 10.3225C14.7896 9.79659 15.5425 9.36771 16.4779 9.36771C17.4133 9.36771 18.1663 9.79465 18.1663 10.3225C18.1663 10.8504 17.4094 11.2773 16.4779 11.2773ZM18.011 6.49171C18.011 5.96774 18.7679 5.53692 19.7013 5.53692C20.6347 5.53692 21.3896 5.96774 21.3896 6.49171C21.3896 7.01568 20.6425 7.45038 19.7013 7.45038C18.7601 7.45038 18.011 7.01956 18.011 6.49365V6.49171ZM18.2594 20.0004C18.0809 19.5017 18.6475 18.8477 19.5286 18.5333C20.4096 18.2189 21.2596 18.3683 21.4382 18.8632C21.6167 19.358 21.05 20.0159 20.169 20.3303C19.2879 20.6447 18.4341 20.4953 18.2594 20.0004ZM22.4434 22.3563C21.5119 22.3563 20.7551 21.9313 20.7551 21.4054C20.7551 20.8795 21.5119 20.4506 22.4434 20.4506C23.3749 20.4506 24.1317 20.8756 24.1317 21.4054C24.1317 21.9352 23.373 22.3563 22.4434 22.3563Z" fill="current"/>
</svg>
