<svg xmlns="http://www.w3.org/2000/svg" fill="none" viewBox="0 0 42 42"><path fill="current" stroke="#00000000" d="M21.553 16.037c2.505 0 4.42-1.915 4.42-4.42s-1.915-4.422-4.42-4.422-4.421 1.916-4.421 4.421 1.915 4.421 4.42 4.421Zm0-5.894c.884 0 1.473.59 1.473 1.473 0 .885-.59 1.474-1.473 1.474-.885 0-1.474-.59-1.474-1.474s.59-1.473 1.474-1.473Zm1.473 11.347v-1.768h8.106c.884 0 1.473-.59 1.473-1.474s-.59-1.474-1.473-1.474H11.974c-.885 0-1.474.59-1.474 1.474s.59 1.474 1.474 1.474h8.105v1.768c-2.063.59-3.684 2.653-3.684 4.863v7.369c0 .884.59 1.473 1.473 1.473.885 0 1.474-.59 1.474-1.473v-7.369c0-1.179 1.032-2.21 2.21-2.21 1.18 0 2.211 1.031 2.211 2.21v7.369c0 .884.59 1.473 1.474 1.473s1.474-.59 1.474-1.473v-7.369c0-2.358-1.621-4.274-3.685-4.863Z"/><path fill="#00000000" stroke="current" stroke-width="2" d="M41 36v5h-5m5-35V1h-5M6 1H1v5m0 30v5h5"/></svg>