<svg xmlns="http://www.w3.org/2000/svg" fill="none" viewBox="0 0 32 32"><path fill="current" d="m26.521 9.203-.013-.003-.032-.01-.019-.011-.024-.01-.024-.014-.016-.01c-.006-.006-.016-.012-.022-.017l-.016-.01q-.008-.008-.021-.017c-.008-.002-.01-.01-.016-.013l-.016-.016c-.008-.008-.01-.014-.016-.016-.003-.008-.011-.011-.014-.016l-.016-.024-.01-.017-.016-.026c-.006-.006-.009-.008-.009-.016l-.013-.027-.008-.019-.01-.027c-.003-.01-.009-.016-.009-.026l-.005-.02q-.006-.018-.008-.037.001-.005-.005-.01c-.389-2.96-3.113-5.04-6.077-4.645a5.417 5.417 0 0 0-3.71 2.247 5.4 5.4 0 0 0-.977 3.514.49.49 0 0 1-.453.525h-.04a.49.49 0 0 1-.49-.458 7 7 0 0 1-.016-.46v-.022l-.054.043a3.5 3.5 0 0 1-2.025.637.492.492 0 1 1 0-.986 2.56 2.56 0 0 0 2.376-1.635q.015-.037.035-.073c.198-.586.477-1.14.84-1.652a6.4 6.4 0 0 1 2.047-1.862 7.9 7.9 0 0 0-3.064-.618 7.8 7.8 0 0 0-3.605.87 8 8 0 0 0-2.692 2.271.5.5 0 0 1-.53.25l-.016-.003-.024-.008A4.24 4.24 0 0 0 2.49 9.723a4.26 4.26 0 0 0 .074 2.456c.054.12.054.26.006.38a3.88 3.88 0 0 0 2.528 5.177l.016.008a.5.5 0 0 1 .164.086 4.46 4.46 0 0 1 1.756-2.984.493.493 0 1 1 .587.795 3.43 3.43 0 0 0-.546 5.025 6.17 6.17 0 0 0 4.245 1.687 6.2 6.2 0 0 0 1.7-.238q.01-.004.016-.003a6.3 6.3 0 0 0 2.194-1.149.55.55 0 0 1 .217-.187 6.2 6.2 0 0 0 1.55-2.14q.056-.164.13-.316a6 6 0 0 0 .369-1.733.493.493 0 0 1 .522-.458h.003c.27.019.474.252.458.522v.003c-.003.067-.011.128-.016.193a3.34 3.34 0 0 1 3.382-.008.493.493 0 0 1-.49.854q-.002 0-.003-.003a2.36 2.36 0 0 0-3.315 1.01c-.038.105-.083.206-.123.305v.008c-.22.51-.504.994-.839 1.441a7.2 7.2 0 0 1 5.094 1.588c.742.523 1.629.801 2.537.799.43 0 .849-.065 1.258-.183a.5.5 0 0 1 .308-.101 4.4 4.4 0 0 0 2.001-1.516c.568-.76.87-1.687.868-2.636a4.4 4.4 0 0 0-.364-1.767l-.009-.016a4.43 4.43 0 0 0-4.518-2.628.492.492 0 0 1-.099-.977 5.43 5.43 0 0 1 5.102 2.445c.305-.61.463-1.283.463-1.98 0-.98-.313-1.909-.905-2.683a4.4 4.4 0 0 0-2.29-1.596m-4.957 13.61q-.007-.005-.01-.007a6.18 6.18 0 0 0-5.617-1.165q-.737.617-1.607 1.02c1.221.501 2.611.37 3.712-.356a.495.495 0 0 1 .683.142.495.495 0 0 1-.142.683 5 5 0 0 1-.648.356q.627.437 1.342.702h.002a6.22 6.22 0 0 0 4.018.11 6 6 0 0 0 1.154-.496 5.36 5.36 0 0 1-2.868-.98zm1.4 2.593a7.4 7.4 0 0 1-2.257.124c.627.707 1.331 1.655 1.738 2.718a.636.636 0 0 0 .76.388.638.638 0 0 0 .4-.926 5.8 5.8 0 0 1-.64-2.304"/></svg>