<svg xmlns="http://www.w3.org/2000/svg" fill="none" viewBox="0 0 32 32"><path fill="current" d="M23.672 17.353c-1.163-2.046-2.448-3.787-3.903-4.708.122-.486.267-1.024.485-1.535-.218-1.33-1.14-1.612-1.794-1.664 1.454-1.15 2.812-1.484 2.812-1.484.17-1.586-1.236-1.305-1.236-1.305-1.406.333-2.522.948-3.394 1.69C18.896 5.839 21.587 5.2 21.587 5.2c.243-2.022-1.575-1.664-1.575-1.664-5.697 1.356-7.587 6.397-8.096 8.163a3.9 3.9 0 0 0-1.189-.41V8.962s1.14-2.252 3.322-3.864c.776-1.97-1.285-2.764-1.285-2.764l-2.036 1.868V1.745c-1.188-1.356-2.375 0-2.375 0v10.133c-.728.536-1.212 1.381-1.551 2.405-1.189 3.66-.558 7.344 1.842 10.26 0 0 .897 3.71 6.714 5.322 5.84 1.612 7.708.998 8.604 0 .898-.998 2.23-8.034-.29-12.512M20.181 6.888c-.097.614.654 1.074.654 1.074-.993-.178-.702-.997-.653-1.074zm.025-3.045c-.122.768.823 1.357.823 1.357-1.26-.231-.872-1.28-.823-1.357m-7.443-1.228c-.581 1.228.85 2.457.85 2.457-1.94-1.535-.85-2.457-.85-2.457M8.45 2.053c.8.536 2.182.178 2.182.178-.97.895-2.182-.178-2.182-.178m8.653 9.825a4.4 4.4 0 0 0-.8.127 8.2 8.2 0 0 1 1.26-1.714zm.8-2.15c.12 1.356 1.963 1.587 1.963 1.587-2.4-.18-1.963-1.587-1.963-1.587"/></svg>