<svg xmlns="http://www.w3.org/2000/svg" width="20" height="20" fill="none" viewBox="0 0 20 20"><path fill="#c11111" d="m12.75 13.917 1.167-1.167-3.084-3.083V5.834H9.167v4.5zM10 18.334a8.1 8.1 0 0 1-3.25-.657 8.4 8.4 0 0 1-2.646-1.78 8.4 8.4 0 0 1-1.781-2.647A8.1 8.1 0 0 1 1.667 10q0-1.729.656-3.25a8.4 8.4 0 0 1 1.781-2.646 8.4 8.4 0 0 1 2.646-1.78A8.1 8.1 0 0 1 10 1.666q1.73 0 3.25.656a8.4 8.4 0 0 1 2.646 1.781 8.4 8.4 0 0 1 1.781 2.646 8.1 8.1 0 0 1 .656 3.25 8.1 8.1 0 0 1-.656 3.25 8.4 8.4 0 0 1-1.781 2.646 8.4 8.4 0 0 1-2.646 1.781 8.1 8.1 0 0 1-3.25.657m0-1.667q2.77 0 4.719-1.948 1.947-1.947 1.948-4.719 0-2.77-1.948-4.718T10 3.334 5.281 5.282 3.333 10t1.948 4.72T10 16.666"/></svg>