<svg width="403" height="242" viewBox="0 0 403 242" fill="none" xmlns="http://www.w3.org/2000/svg">
<path d="M350.681 38.3008V121.101H402.761V107.781H365.321V38.3008H350.681Z" fill="#BB1212"/>
<path d="M350.681 38.3008V121.101H402.761V107.781H365.321V38.3008H350.681Z" fill="black"/>
<path d="M0.879883 171.621V158.301H67.7199V171.621H41.6799V241.101H26.9199V171.621H0.879883Z" fill="#BB1212"/>
<path d="M0.879883 171.621V158.301H67.7199V171.621H41.6799V241.101H26.9199V171.621H0.879883Z" fill="black"/>
<path d="M71.3762 158.301L69.3362 161.181L86.6162 241.101H110.136L122.376 192.381L134.736 241.101H158.376L175.536 161.181L173.496 158.301H161.496L146.736 227.781H145.296L129.696 166.701H115.176L99.4562 227.781H98.1362L83.3762 158.301H71.3762Z" fill="#BB1212"/>
<path d="M71.3762 158.301L69.3362 161.181L86.6162 241.101H110.136L122.376 192.381L134.736 241.101H158.376L175.536 161.181L173.496 158.301H161.496L146.736 227.781H145.296L129.696 166.701H115.176L99.4562 227.781H98.1362L83.3762 158.301H71.3762Z" fill="black"/>
<path d="M184.459 241.101V158.301H199.099V241.101H184.459Z" fill="#BB1212"/>
<path d="M184.459 241.101V158.301H199.099V241.101H184.459Z" fill="black"/>
<path d="M214.698 241.101V158.301H230.658L267.378 217.341V158.301H282.018V241.101H266.178L229.338 182.061V241.101H214.698Z" fill="#BB1212"/>
<path d="M214.698 241.101V158.301H230.658L267.378 217.341V158.301H282.018V241.101H266.178L229.338 182.061V241.101H214.698Z" fill="black"/>
<path fill-rule="evenodd" clip-rule="evenodd" d="M269.163 118.221L294.723 38.3008H317.523L342.963 118.221L341.163 121.101H328.803L323.163 102.861H288.963L283.203 121.101H271.083L269.163 118.221ZM293.043 89.5408H319.203L307.203 51.6208H304.923L293.043 89.5408Z" fill="#BB1212"/>
<path fill-rule="evenodd" clip-rule="evenodd" d="M269.163 118.221L294.723 38.3008H317.523L342.963 118.221L341.163 121.101H328.803L323.163 102.861H288.963L283.203 121.101H271.083L269.163 118.221ZM293.043 89.5408H319.203L307.203 51.6208H304.923L293.043 89.5408Z" fill="black"/>
<path d="M207.883 38.3008V51.6208H233.923V121.101H248.683V51.6208H274.723V38.3008H207.883Z" fill="#BB1212"/>
<path d="M207.883 38.3008V51.6208H233.923V121.101H248.683V51.6208H274.723V38.3008H207.883Z" fill="black"/>
<path d="M184.964 121.101V38.3008H199.604V121.101H184.964Z" fill="#BB1212"/>
<path d="M184.964 121.101V38.3008H199.604V121.101H184.964Z" fill="black"/>
<path d="M107.587 57.8608V101.541C107.587 114.581 114.107 121.101 127.147 121.101H171.787V71.5408H139.627V84.8608H157.147V107.781H127.507C123.987 107.781 122.227 106.061 122.227 102.621V56.7808C122.227 53.3408 123.987 51.6208 127.507 51.6208H169.387V43.8208L162.307 38.3008H127.147C114.107 38.3008 107.587 44.8208 107.587 57.8608Z" fill="#BB1212"/>
<path d="M107.587 57.8608V101.541C107.587 114.581 114.107 121.101 127.147 121.101H171.787V71.5408H139.627V84.8608H157.147V107.781H127.507C123.987 107.781 122.227 106.061 122.227 102.621V56.7808C122.227 53.3408 123.987 51.6208 127.507 51.6208H169.387V43.8208L162.307 38.3008H127.147C114.107 38.3008 107.587 44.8208 107.587 57.8608Z" fill="black"/>
<path d="M78.5483 121.101V38.3008H93.1883V121.101H78.5483Z" fill="#BB1212"/>
<path d="M78.5483 121.101V38.3008H93.1883V121.101H78.5483Z" fill="black"/>
<path fill-rule="evenodd" clip-rule="evenodd" d="M1.19995 38.3008V121.101H33C54.6 121.101 65.4 110.261 65.4 88.5808V70.8208C65.4 49.1408 54.6 38.3008 33 38.3008H1.19995ZM33.84 107.781H15.84V51.6208H33.84C45.12 51.6208 50.76 57.2608 50.76 68.5408V90.8608C50.76 102.141 45.12 107.781 33.84 107.781Z" fill="#BB1212"/>
<path fill-rule="evenodd" clip-rule="evenodd" d="M1.19995 38.3008V121.101H33C54.6 121.101 65.4 110.261 65.4 88.5808V70.8208C65.4 49.1408 54.6 38.3008 33 38.3008H1.19995ZM33.84 107.781H15.84V51.6208H33.84C45.12 51.6208 50.76 57.2608 50.76 68.5408V90.8608C50.76 102.141 45.12 107.781 33.84 107.781Z" fill="black"/>
<path fill-rule="evenodd" clip-rule="evenodd" d="M1.09985 5.24369V15.4357C1.09985 18.4784 2.62119 19.9997 5.66385 19.9997H12.0759C15.1185 19.9997 16.6399 18.4784 16.6399 15.4357V5.24369C16.6399 2.20102 15.1185 0.679688 12.0759 0.679688H5.66385C2.62119 0.679688 1.09985 2.20102 1.09985 5.24369ZM5.74785 16.8917C4.92652 16.8917 4.51585 16.4904 4.51585 15.6877V4.99169C4.51585 4.18902 4.92652 3.78769 5.74785 3.78769H11.9919C12.8132 3.78769 13.2239 4.18902 13.2239 4.99169V15.6877C13.2239 16.4904 12.8132 16.8917 11.9919 16.8917H5.74785Z" fill="#C11111"/>
<path d="M21.1221 19.9997V0.679688H24.8461L33.4141 14.4557V0.679688H36.8301V19.9997H33.1341L24.5381 6.22369V19.9997H21.1221Z" fill="#C11111"/>
<path d="M39.8945 0.679688V3.78769H45.9705V19.9997H49.4145V3.78769H55.4905V0.679688H39.8945Z" fill="#C11111"/>
<path fill-rule="evenodd" clip-rule="evenodd" d="M58.2756 15.4357V5.24369C58.2756 2.20102 59.797 0.679688 62.8396 0.679688H69.2516C72.2943 0.679688 73.8156 2.20102 73.8156 5.24369V15.4357C73.8156 18.4784 72.2943 19.9997 69.2516 19.9997H62.8396C59.797 19.9997 58.2756 18.4784 58.2756 15.4357ZM61.6916 15.6877C61.6916 16.4904 62.1023 16.8917 62.9236 16.8917H69.1676C69.989 16.8917 70.3996 16.4904 70.3996 15.6877V4.99169C70.3996 4.18902 69.989 3.78769 69.1676 3.78769H62.9236C62.1023 3.78769 61.6916 4.18902 61.6916 4.99169V15.6877Z" fill="#C11111"/>
<path d="M78.2979 0.679688V19.9997H90.4499V16.8917H81.7139V0.679688H78.2979Z" fill="#C11111"/>
<path fill-rule="evenodd" clip-rule="evenodd" d="M93.2209 15.4357V5.24369C93.2209 2.20102 94.7423 0.679688 97.785 0.679688H104.197C107.24 0.679688 108.761 2.20102 108.761 5.24369V15.4357C108.761 18.4784 107.24 19.9997 104.197 19.9997H97.785C94.7423 19.9997 93.2209 18.4784 93.2209 15.4357ZM96.6369 15.6877C96.6369 16.4904 97.0476 16.8917 97.8689 16.8917H104.113C104.934 16.8917 105.345 16.4904 105.345 15.6877V4.99169C105.345 4.18902 104.934 3.78769 104.113 3.78769H97.8689C97.0476 3.78769 96.6369 4.18902 96.6369 4.99169V15.6877Z" fill="#C11111"/>
<path d="M112.963 5.24369V15.4357C112.963 18.4784 114.484 19.9997 117.527 19.9997H127.943V8.43569H120.439V11.5437H124.527V16.8917H117.611C116.79 16.8917 116.379 16.4904 116.379 15.6877V4.99169C116.379 4.18902 116.79 3.78769 117.611 3.78769H127.383V1.96769L125.731 0.679688H117.527C114.484 0.679688 112.963 2.20102 112.963 5.24369Z" fill="#C11111"/>
<path d="M130.71 0.679688L130.29 1.35169L136.478 13.0557V19.9997H139.922V13.0557L146.11 1.35169L145.718 0.679688H142.778L138.186 9.44369L133.622 0.679688H130.71Z" fill="#C11111"/>
</svg>
