<svg xmlns="http://www.w3.org/2000/svg" width="640" height="241" fill="none" viewBox="0 0 640 241"><path fill="#bb1212" d="m573.661 38.2-1.8 2.88 26.52 50.16V121h14.76V91.24l26.52-50.16-1.68-2.88h-12.6l-19.68 37.56-19.56-37.56z"/><path fill="#000" d="m573.661 38.2-1.8 2.88 26.52 50.16V121h14.76V91.24l26.52-50.16-1.68-2.88h-12.6l-19.68 37.56-19.56-37.56z"/><path fill="#bb1212" d="M0 241v-82.8h14.64v33.24h34.92V158.2H64.2V241H49.56v-36.24H14.64V241z"/><path fill="#000" d="M0 241v-82.8h14.64v33.24h34.92V158.2H64.2V241H49.56v-36.24H14.64V241z"/><path fill="#bb1212" fill-rule="evenodd" d="m97.45 158.2-25.56 79.92 1.92 2.88h12.12l5.76-18.24h34.199l5.64 18.24h12.36l1.8-2.88-25.44-79.92zm24.479 51.24h-26.16l11.88-37.92h2.28z" clip-rule="evenodd"/><path fill="#000" fill-rule="evenodd" d="m97.45 158.2-25.56 79.92 1.92 2.88h12.12l5.76-18.24h34.199l5.64 18.24h12.36l1.8-2.88-25.44-79.92zm24.479 51.24h-26.16l11.88-37.92h2.28z" clip-rule="evenodd"/><path fill="#bb1212" fill-rule="evenodd" d="M153.408 241v-82.8h38.64q19.56 0 19.56 19.56v7.56q0 4.08-2.4 6.96l-4.2 5.04 5.04 4.2q3.96 3.24 3.96 9.6v10.32q0 19.56-19.56 19.56zm14.64-13.32h26.04q5.28 0 5.28-5.16v-12.6q0-5.16-5.28-5.16h-26.04zm0-36.24h23.64q5.28 0 5.28-5.28v-9.48q0-5.16-5.28-5.16h-23.64z" clip-rule="evenodd"/><path fill="#000" fill-rule="evenodd" d="M153.408 241v-82.8h38.64q19.56 0 19.56 19.56v7.56q0 4.08-2.4 6.96l-4.2 5.04 5.04 4.2q3.96 3.24 3.96 9.6v10.32q0 19.56-19.56 19.56zm14.64-13.32h26.04q5.28 0 5.28-5.16v-12.6q0-5.16-5.28-5.16h-26.04zm0-36.24h23.64q5.28 0 5.28-5.28v-9.48q0-5.16-5.28-5.16h-23.64z" clip-rule="evenodd"/><path fill="#bb1212" d="M226.538 158.2V241h14.64v-82.8z"/><path fill="#000" d="M226.538 158.2V241h14.64v-82.8z"/><path fill="#bb1212" d="M249.457 171.52V158.2h66.84v13.32h-26.04V241h-14.76v-69.48z"/><path fill="#000" d="M249.457 171.52V158.2h66.84v13.32h-26.04V241h-14.76v-69.48z"/><path fill="#bb1212" d="M321.033 227.68v7.8l7.08 5.52h30.36q19.56 0 19.56-19.56v-7.8q0-15.84-13.92-18.72l-24.36-4.8q-4.08-.84-4.08-5.4v-8.04q0-5.16 5.28-5.16h34.68v-7.8l-7.08-5.52h-27.96q-19.56 0-19.56 19.56v6.6q0 15.96 13.92 18.72l24.36 4.92q4.08.84 4.08 5.4v9.12q0 5.16-5.28 5.16z"/><path fill="#000" d="M321.033 227.68v7.8l7.08 5.52h30.36q19.56 0 19.56-19.56v-7.8q0-15.84-13.92-18.72l-24.36-4.8q-4.08-.84-4.08-5.4v-8.04q0-5.16 5.28-5.16h34.68v-7.8l-7.08-5.52h-27.96q-19.56 0-19.56 19.56v6.6q0 15.96 13.92 18.72l24.36 4.92q4.08.84 4.08 5.4v9.12q0 5.16-5.28 5.16z"/><path fill="#bb1212" d="M414.056 241v-82.8h18l24.84 53.04 24.84-53.04h18V241h-14.76v-57.84l-21.84 46.56h-12.6l-21.84-46.56V241z"/><path fill="#000" d="M414.056 241v-82.8h18l24.84 53.04 24.84-53.04h18V241h-14.76v-57.84l-21.84 46.56h-12.6l-21.84-46.56V241z"/><path fill="#bb1212" d="M515.311 241v-82.8h55.68v13.32h-41.04v19.92h37.44v13.32h-37.44v22.92h41.04V241z"/><path fill="#000" d="M515.311 241v-82.8h55.68v13.32h-41.04v19.92h37.44v13.32h-37.44v22.92h41.04V241z"/><path fill="#bb1212" d="M499.972 121V38.2h14.64v33.24h34.92V38.2h14.64V121h-14.64V84.76h-34.92V121z"/><path fill="#000" d="M499.972 121V38.2h14.64v33.24h34.92V38.2h14.64V121h-14.64V84.76h-34.92V121z"/><path fill="#bb1212" d="M424.795 38.2v13.32h26.04V121h14.76V51.52h26.04V38.2z"/><path fill="#000" d="M424.795 38.2v13.32h26.04V121h14.76V51.52h26.04V38.2z"/><path fill="#bb1212" d="M382.54 121V38.2h14.64v69.48h37.44V121z"/><path fill="#000" d="M382.54 121V38.2h14.64v69.48h37.44V121z"/><path fill="#bb1212" fill-rule="evenodd" d="m326.582 38.2-25.56 79.92 1.92 2.88h12.12l5.76-18.24h34.2l5.64 18.24h12.36l1.8-2.88-25.44-79.92zm24.48 51.24h-26.16l11.88-37.92h2.28z" clip-rule="evenodd"/><path fill="#000" fill-rule="evenodd" d="m326.582 38.2-25.56 79.92 1.92 2.88h12.12l5.76-18.24h34.2l5.64 18.24h12.36l1.8-2.88-25.44-79.92zm24.48 51.24h-26.16l11.88-37.92h2.28z" clip-rule="evenodd"/><path fill="#bb1212" d="M241.906 121V38.2h55.68v13.32h-41.04v19.92h37.44v13.32h-37.44v22.92h41.04V121z"/><path fill="#000" d="M241.906 121V38.2h55.68v13.32h-41.04v19.92h37.44v13.32h-37.44v22.92h41.04V121z"/><path fill="#bb1212" d="M162.097 38.2V121h14.64V84.76h34.92V121h14.64V38.2h-14.64v33.24h-34.92V38.2z"/><path fill="#000" d="M162.097 38.2V121h14.64V84.76h34.92V121h14.64V38.2h-14.64v33.24h-34.92V38.2z"/><path fill="#bb1212" d="M79.123 121V38.2h15.96l36.72 59.04V38.2h14.64V121h-15.84l-36.84-59.04V121z"/><path fill="#000" d="M79.123 121V38.2h15.96l36.72 59.04V38.2h14.64V121h-15.84l-36.84-59.04V121z"/><path fill="#bb1212" d="M0 38.2v63.24Q0 121 19.56 121h25.08q19.56 0 19.56-19.56V38.2H49.56v64.32q0 5.16-5.28 5.16H19.92q-5.28 0-5.28-5.16V38.2z"/><path fill="#000" d="M0 38.2v63.24Q0 121 19.56 121h25.08q19.56 0 19.56-19.56V38.2H49.56v64.32q0 5.16-5.28 5.16H19.92q-5.28 0-5.28-5.16V38.2z"/><path fill="#c11111" d="M.1 5.244v10.192Q.1 19.999 4.664 20h7.616l1.652-1.288v-1.82H4.748q-1.232 0-1.232-1.204V4.992q0-1.204 1.232-1.204h9.184v-1.82L12.28.68H4.664Q.1.68.1 5.244M17.716 20V.68h3.416v16.212h8.736V20z"/><path fill="#c11111" fill-rule="evenodd" d="M32.639 15.436V5.244q0-4.564 4.564-4.564h6.412q4.564 0 4.564 4.564v10.192q0 4.563-4.564 4.564h-6.412q-4.564 0-4.564-4.564m3.416.252q0 1.203 1.232 1.204h6.244q1.232 0 1.232-1.204V4.992q0-1.204-1.232-1.204h-6.244q-1.232 0-1.232 1.204z" clip-rule="evenodd"/><path fill="#c11111" d="M52.661 20V.68h3.724l8.568 13.776V.68h3.416V20h-3.696L56.077 6.224V20zM73.142 20V.68h12.992v3.108h-9.576v4.648h8.736v3.108h-8.736v5.348h9.576V20z"/><path fill="#c11111" fill-rule="evenodd" d="M106.333 5.244v10.192q0 4.563 4.564 4.564h3.92q4.564 0 4.564-4.564V5.244q0-4.564-4.564-4.564h-3.92q-4.563 0-4.564 4.564m4.648 11.648q-1.203 0-1.204-1.204V4.992q0-1.204 1.204-1.204h3.752q1.204 0 1.204 1.204v10.696q0 1.203-1.204 1.204z" clip-rule="evenodd"/><path fill="#c11111" d="M123.305 20v-3.108h4.48V3.788h-3.668v-1.82L125.769.68h5.432v16.212h4.032V20zM103 17H89v3h14z"/></svg>