<svg xmlns="http://www.w3.org/2000/svg" width="1205" height="482" fill="none" viewBox="0 0 1205 482"><path fill="#bb1212" fill-rule="evenodd" d="M0 .2v131.1h50.35q51.3 0 51.3-51.49V51.69Q101.65.2 50.35.2zm51.68 110.01h-28.5V21.29h28.5q26.79 0 26.79 26.79v35.34q0 26.79-26.79 26.79" clip-rule="evenodd"/><path fill="#bb1212" d="M130.068 131.3V.2h23.18v131.1zM183.647 31.17v69.16q0 30.97 30.97 30.97h70.68V52.83h-50.92v21.09h27.74v36.29h-46.93q-8.36 0-8.36-8.17V29.46q0-8.17 8.36-8.17h66.31V8.94L270.287.2h-55.67q-30.97 0-30.97 30.97M313.76 131.3V.2h23.18v131.1zM357.648.2v21.09h41.23V131.3h23.37V21.29h41.23V.2z"/><path fill="#bb1212" fill-rule="evenodd" d="M462.274 126.74 502.744.2h36.1l40.28 126.54-2.85 4.56h-19.57l-8.93-28.88h-54.15l-9.12 28.88h-19.19zm37.81-45.41h41.42l-19-60.04h-3.61z" clip-rule="evenodd"/><path fill="#bb1212" d="M598.945.2v131.1h82.46v-21.09h-59.28V.2zM736.164 21.29V.2h105.83v21.09h-41.23V131.3h-23.37V21.29zM855.383.2l-3.23 4.56 27.36 126.54h37.24l19.38-77.14 19.57 77.14h37.43L1020.3 4.76 1017.07.2h-18.997l-23.37 110.01h-2.28l-24.7-96.71h-22.99l-24.89 96.71h-2.09L874.383.2zM1042.03 131.3V.2h23.18v131.1zM1097.51 131.3V.2h25.27l58.14 93.48V.2h23.18v131.1h-25.08l-58.33-93.48v93.48z"/><path fill="#000" fill-rule="evenodd" d="M854.389 201.381v115.92h20.496v-42.336h24.528l21.504 42.336h17.472l2.52-4.368-20.16-39.48q16.8-4.536 16.8-25.704v-18.984q0-27.384-27.384-27.384zm55.272 54.936h-34.776v-36.288h34.776q7.392 0 7.392 7.224v21.672q0 7.392-7.392 7.392" clip-rule="evenodd"/><path fill="#000" d="m0 369.413 2.688-4.032h17.808l28.728 97.272h3.192l28.728-97.272H99.12l2.52 4.032-34.272 111.888H34.104zM119.041 365.381v115.92h20.496v-115.92zM163.056 473.573v-10.92h51.912q7.392 0 7.392-7.224v-12.768q0-6.384-5.712-7.56l-34.104-6.888q-19.488-3.864-19.488-26.208v-9.24q0-27.384 27.384-27.384h39.144l9.912 7.728v10.92h-48.552q-7.392 0-7.392 7.224v11.256q0 6.384 5.712 7.56l34.104 6.72q19.488 4.032 19.488 26.208v10.92q0 27.384-27.384 27.384h-42.504zM265.361 365.381v88.536q0 27.384 27.384 27.384h35.112q27.384 0 27.384-27.384v-88.536h-20.496v90.048q0 7.224-7.392 7.224h-34.104q-7.392 0-7.392-7.224v-90.048z"/><path fill="#000" fill-rule="evenodd" d="m371.766 477.269 35.784-111.888h31.92l35.616 111.888-2.52 4.032h-17.304l-7.896-25.536h-47.88l-8.064 25.536h-16.968zm33.432-40.152h36.624l-16.8-53.088h-3.192z" clip-rule="evenodd"/><path fill="#000" d="M492.611 365.381v115.92h72.912v-18.648h-52.416v-97.272zM583.83 481.301v-115.92h20.496v115.92zM626.165 465.341v15.96h86.52v-18.648h-60.648l58.968-81.312v-15.96h-83.16v18.648h57.288z"/><path fill="#000" fill-rule="evenodd" d="M723.516 477.269 759.3 365.381h31.92l35.616 111.888-2.52 4.032h-17.304l-7.896-25.536h-47.88l-8.064 25.536h-16.968zm33.432-40.152h36.624l-16.8-53.088h-3.192z" clip-rule="evenodd"/><path fill="#000" d="M825.746 365.381v18.648h36.456v97.272h20.664v-97.272h36.456v-18.648zM937.713 481.301v-115.92h20.496v115.92z"/><path fill="#000" fill-rule="evenodd" d="M985.088 392.765v61.152q0 27.384 27.382 27.384h38.47q27.39 0 27.39-27.384v-61.152q0-27.384-27.39-27.384h-38.47q-27.381 0-27.382 27.384m27.892 69.888c-4.93 0-7.4-2.408-7.4-7.224v-64.176c0-4.816 2.47-7.224 7.4-7.224h37.46c4.93 0 7.39 2.408 7.39 7.224v64.176c0 4.816-2.46 7.224-7.39 7.224z" clip-rule="evenodd"/><path fill="#000" d="M1105.22 365.381v115.92h20.5v-82.656l51.57 82.656h22.18v-115.92h-20.5v82.656l-51.41-82.656zM753.819 317.301v-115.92h77.952v18.648h-57.456v27.888h52.416v18.648h-52.416v32.088h57.456v18.648zM643.405 201.381v115.92h20.496v-37.8l14.448-15.456 35.448 53.256h18.816l2.016-4.2-43.008-64.008 38.976-43.512-2.016-4.2h-19.152l-45.528 50.736v-50.736z"/><path fill="#000" fill-rule="evenodd" d="M535.124 317.301v-115.92H590.9q27.384 0 27.384 27.384v18.984q0 21.168-16.8 25.704l20.159 39.48-2.519 4.368h-17.473l-21.503-42.336H555.62v42.336zm20.496-60.984h34.776q7.391 0 7.392-7.392v-21.672q0-7.224-7.392-7.224H555.62zM450.062 201.381l-35.784 111.888 2.688 4.032h16.968l8.064-25.536h47.88l7.896 25.536h17.304l2.52-4.032-35.616-111.888zm34.272 71.736H447.71l16.632-53.088h3.192z" clip-rule="evenodd"/><path fill="#000" d="M276.889 317.301v-115.92h25.2l34.776 74.256 34.776-74.256h25.2v115.92h-20.664v-80.976l-30.576 65.184h-17.64l-30.576-65.184v80.976z"/><path fill="#000" fill-rule="evenodd" d="M156.756 228.765v61.152q0 27.384 27.384 27.384h38.472q27.384 0 27.384-27.384v-61.152q0-27.384-27.384-27.384H184.14q-27.384 0-27.384 27.384m27.888 69.888q-7.392 0-7.392-7.224v-64.176q0-7.224 7.392-7.224h37.464q7.392 0 7.392 7.224v64.176q0 7.224-7.392 7.224z" clip-rule="evenodd"/><path fill="#000" d="M109.381 317.301v-115.92h20.496v115.92z"/><path fill="#000" fill-rule="evenodd" d="M.28 201.381v115.92h57.456q27.384 0 27.384-27.384v-14.448q0-8.904-5.544-13.44l-7.056-5.88 5.88-7.056q3.36-4.032 3.36-9.744v-10.584q0-27.384-27.384-27.384zm56.952 97.272H20.776v-32.088h36.456q7.392 0 7.392 7.224v17.64q0 7.224-7.392 7.224m-3.36-50.736H20.776v-27.888h33.096q7.392 0 7.392 7.224v13.272q0 7.392-7.392 7.392" clip-rule="evenodd"/></svg>