<svg xmlns="http://www.w3.org/2000/svg" width="569" height="235" fill="none" viewBox="0 0 569 235"><path fill="#bb1212" fill-rule="evenodd" d="M0 112.6 21.3 46h19l21.2 66.6L60 115H49.7L45 99.8H16.5L11.7 115H1.6zm19.9-23.9h21.8l-10-31.6h-1.9z" clip-rule="evenodd"/><path fill="#000" fill-rule="evenodd" d="M0 112.6 21.3 46h19l21.2 66.6L60 115H49.7L45 99.8H16.5L11.7 115H1.6zm19.9-23.9h21.8l-10-31.6h-1.9z" clip-rule="evenodd"/><path fill="#bb1212" d="M87.956 46v69h12.2V84.8h29.1V115h12.2V46h-12.2v27.7h-29.1V46z"/><path fill="#000" d="M87.956 46v69h12.2V84.8h29.1V115h12.2V46h-12.2v27.7h-29.1V46z"/><path fill="#bb1212" d="M154.463 46v69h46.4v-11.1h-34.2V84.8h31.2V73.7h-31.2V57.1h34.2V46z"/><path fill="#000" d="M154.463 46v69h46.4v-11.1h-34.2V84.8h31.2V73.7h-31.2V57.1h34.2V46z"/><path fill="#bb1212" fill-rule="evenodd" d="m225.027 46-21.3 66.6 1.6 2.4h10.1l4.8-15.2h28.5l4.7 15.2h10.3l1.5-2.4-21.2-66.6zm20.4 42.7h-21.8l9.9-31.6h1.9z" clip-rule="evenodd"/><path fill="#000" fill-rule="evenodd" d="m225.027 46-21.3 66.6 1.6 2.4h10.1l4.8-15.2h28.5l4.7 15.2h10.3l1.5-2.4-21.2-66.6zm20.4 42.7h-21.8l9.9-31.6h1.9z" clip-rule="evenodd"/><path fill="#bb1212" d="M271.659 46v69h43.4v-11.1h-31.2V46z"/><path fill="#000" d="M271.659 46v69h43.4v-11.1h-31.2V46z"/><path fill="#bb1212" d="M306.871 46v11.1h21.7V115h12.3V57.1h21.7V46z"/><path fill="#000" d="M306.871 46v11.1h21.7V115h12.3V57.1h21.7V46z"/><path fill="#bb1212" d="M369.518 46v69h12.2V84.8h29.1V115h12.2V46h-12.2v27.7h-29.1V46z"/><path fill="#000" d="M369.518 46v69h12.2V84.8h29.1V115h12.2V46h-12.2v27.7h-29.1V46z"/><path fill="#bb1212" d="M436.026 46v69h12.2V46z"/><path fill="#000" d="M436.026 46v69h12.2V46z"/><path fill="#bb1212" d="M461.225 46v69h46.4v-11.1h-34.2V84.8h31.2V73.7h-31.2V57.1h34.2V46z"/><path fill="#000" d="M461.225 46v69h46.4v-11.1h-34.2V84.8h31.2V73.7h-31.2V57.1h34.2V46z"/><path fill="#bb1212" fill-rule="evenodd" d="M517.088 115V46h33.2q16.3 0 16.3 16.3v11.3q0 12.6-10 15.3l12 23.5-1.5 2.6h-10.4l-12.8-25.2h-14.6V115zm12.2-36.3h20.7q4.4 0 4.4-4.4V61.4q0-4.3-4.4-4.3h-20.7z" clip-rule="evenodd"/><path fill="#000" fill-rule="evenodd" d="M517.088 115V46h33.2q16.3 0 16.3 16.3v11.3q0 12.6-10 15.3l12 23.5-1.5 2.6h-10.4l-12.8-25.2h-14.6V115zm12.2-36.3h20.7q4.4 0 4.4-4.4V61.4q0-4.3-4.4-4.3h-20.7z" clip-rule="evenodd"/><path fill="#bb1212" d="M0 235v-82.8h14.64v69.48h37.44V235z"/><path fill="#000" d="M0 235v-82.8h14.64v69.48h37.44V235z"/><path fill="#bb1212" d="M60.356 152.2V235h14.64v-82.8z"/><path fill="#000" d="M60.356 152.2V235h14.64v-82.8z"/><path fill="#bb1212" d="M90.596 152.2V235h14.639v-32.64h37.44v-13.32h-37.44v-23.52h41.04V152.2z"/><path fill="#000" d="M90.596 152.2V235h14.639v-32.64h37.44v-13.32h-37.44v-23.52h41.04V152.2z"/><path fill="#bb1212" d="M155.288 235v-82.8h55.68v13.32h-41.04v19.92h37.44v13.32h-37.44v22.92h41.04V235z"/><path fill="#000" d="M155.288 235v-82.8h55.68v13.32h-41.04v19.92h37.44v13.32h-37.44v22.92h41.04V235z"/><path fill="#c11111" d="M.1 5.244v10.192Q.1 19.999 4.664 20h7.616l1.652-1.288v-1.82H4.748q-1.232 0-1.232-1.204V4.992q0-1.204 1.232-1.204h9.184v-1.82L12.28.68H4.664Q.1.68.1 5.244M17.716 20V.68h3.416v16.212h8.736V20z"/><path fill="#c11111" fill-rule="evenodd" d="M32.64 15.436V5.244Q32.64.68 37.202.68h6.412q4.564 0 4.564 4.564v10.192q0 4.563-4.564 4.564h-6.412q-4.564 0-4.564-4.564m3.415.252q0 1.203 1.232 1.204h6.244q1.233 0 1.232-1.204V4.992q0-1.204-1.232-1.204h-6.244q-1.232 0-1.232 1.204z" clip-rule="evenodd"/><path fill="#c11111" d="M52.661 20V.68h3.724l8.568 13.776V.68h3.416V20h-3.696L56.077 6.224V20zM73.142 20V.68h12.992v3.108h-9.576v4.648h8.736v3.108h-8.736v5.348h9.576V20z"/><path fill="#c11111" fill-rule="evenodd" d="M106.334 5.244v10.192q0 4.563 4.564 4.564h3.92q4.564 0 4.564-4.564V5.244q0-4.564-4.564-4.564h-3.92q-4.564 0-4.564 4.564m4.648 11.648q-1.204 0-1.204-1.204V4.992q0-1.204 1.204-1.204h3.752q1.204 0 1.204 1.204v10.696q0 1.203-1.204 1.204z" clip-rule="evenodd"/><path fill="#c11111" d="M122.521 20v-6.132q0-3.724 3.276-4.396l5.376-1.092q.952-.197.952-1.26V4.992q0-1.204-1.204-1.204h-7.84v-1.82L124.733.68h6.272q4.564 0 4.564 4.564v1.792q0 3.724-3.276 4.396l-5.376 1.092q-.952.195-.952 1.26v3.108h9.604V20zM103 17H89v3h14z"/></svg>