<svg xmlns="http://www.w3.org/2000/svg" width="403" height="242" fill="none" viewBox="0 0 403 242"><path fill="#bb1212" d="M350.681 38.3v82.8h52.08v-13.32h-37.44V38.3z"/><path fill="#000" d="M350.681 38.3v82.8h52.08v-13.32h-37.44V38.3z"/><path fill="#bb1212" d="M.88 171.62V158.3h66.84v13.32H41.68v69.48H26.92v-69.48z"/><path fill="#000" d="M.88 171.62V158.3h66.84v13.32H41.68v69.48H26.92v-69.48z"/><path fill="#bb1212" d="m71.376 158.3-2.04 2.88 17.28 79.92h23.52l12.24-48.72 12.36 48.72h23.64l17.16-79.92-2.04-2.88h-12l-14.76 69.48h-1.44l-15.6-61.08h-14.52l-15.72 61.08h-1.32l-14.76-69.48z"/><path fill="#000" d="m71.376 158.3-2.04 2.88 17.28 79.92h23.52l12.24-48.72 12.36 48.72h23.64l17.16-79.92-2.04-2.88h-12l-14.76 69.48h-1.44l-15.6-61.08h-14.52l-15.72 61.08h-1.32l-14.76-69.48z"/><path fill="#bb1212" d="M184.459 241.1v-82.8h14.64v82.8z"/><path fill="#000" d="M184.459 241.1v-82.8h14.64v82.8z"/><path fill="#bb1212" d="M214.698 241.1v-82.8h15.96l36.72 59.04V158.3h14.64v82.8h-15.84l-36.84-59.04v59.04z"/><path fill="#000" d="M214.698 241.1v-82.8h15.96l36.72 59.04V158.3h14.64v82.8h-15.84l-36.84-59.04v59.04z"/><path fill="#bb1212" fill-rule="evenodd" d="m269.163 118.22 25.56-79.92h22.8l25.44 79.92-1.8 2.88h-12.36l-5.64-18.24h-34.2l-5.76 18.24h-12.12zm23.88-28.68h26.16l-12-37.92h-2.28z" clip-rule="evenodd"/><path fill="#000" fill-rule="evenodd" d="m269.163 118.22 25.56-79.92h22.8l25.44 79.92-1.8 2.88h-12.36l-5.64-18.24h-34.2l-5.76 18.24h-12.12zm23.88-28.68h26.16l-12-37.92h-2.28z" clip-rule="evenodd"/><path fill="#bb1212" d="M207.883 38.3v13.32h26.04v69.48h14.76V51.62h26.04V38.3z"/><path fill="#000" d="M207.883 38.3v13.32h26.04v69.48h14.76V51.62h26.04V38.3z"/><path fill="#bb1212" d="M184.964 121.1V38.3h14.64v82.8z"/><path fill="#000" d="M184.964 121.1V38.3h14.64v82.8z"/><path fill="#bb1212" d="M107.587 57.86v43.68q0 19.56 19.56 19.56h44.64V71.54h-32.16v13.32h17.52v22.92h-29.64q-5.28 0-5.28-5.16V56.78q0-5.16 5.28-5.16h41.88v-7.8l-7.08-5.52h-35.16q-19.56 0-19.56 19.56"/><path fill="#000" d="M107.587 57.86v43.68q0 19.56 19.56 19.56h44.64V71.54h-32.16v13.32h17.52v22.92h-29.64q-5.28 0-5.28-5.16V56.78q0-5.16 5.28-5.16h41.88v-7.8l-7.08-5.52h-35.16q-19.56 0-19.56 19.56"/><path fill="#bb1212" d="M78.548 121.1V38.3h14.64v82.8z"/><path fill="#000" d="M78.548 121.1V38.3h14.64v82.8z"/><path fill="#bb1212" fill-rule="evenodd" d="M1.2 38.3v82.8H33q32.4 0 32.4-32.52V70.82Q65.4 38.3 33 38.3zm32.64 69.48h-18V51.62h18q16.92 0 16.92 16.92v22.32q0 16.92-16.92 16.92" clip-rule="evenodd"/><path fill="#000" fill-rule="evenodd" d="M1.2 38.3v82.8H33q32.4 0 32.4-32.52V70.82Q65.4 38.3 33 38.3zm32.64 69.48h-18V51.62h18q16.92 0 16.92 16.92v22.32q0 16.92-16.92 16.92" clip-rule="evenodd"/><path fill="#c11111" fill-rule="evenodd" d="M1 .68V20h3.416v-6.496h5.88q4.564 0 4.564-4.536V5.244Q14.86.68 10.296.68zm9.212 9.716H4.416V3.788h5.796q1.232 0 1.232 1.204v4.172q0 1.232-1.232 1.232M18.773 20V.68h9.296q4.564 0 4.564 4.564v3.164q0 3.528-2.8 4.284l3.36 6.58-.42.728h-2.912l-3.584-7.056H22.19V20zM22.19 9.836h5.796q1.232 0 1.232-1.232V4.992q0-1.204-1.232-1.204H22.19z" clip-rule="evenodd"/><path fill="#c11111" d="M36.82.68V20h12.992v-3.108h-9.576v-5.348h8.736V8.436h-8.736V3.788h9.576V.68z"/><path fill="#c11111" fill-rule="evenodd" d="M53.582 20V.68h7.42q7.56 0 7.56 7.588v4.144q0 7.587-7.56 7.588zm3.416-3.108h4.2q3.948 0 3.948-3.948V7.736q0-3.948-3.948-3.948h-4.2z" clip-rule="evenodd"/><path fill="#c11111" d="M72.75.68V20h3.416V.68zM80.646 15.436V5.244Q80.646.68 85.21.68h7.616l1.652 1.288v1.82h-9.184q-1.233 0-1.232 1.204v10.696q0 1.203 1.232 1.204h9.184v1.82L92.826 20H85.21q-4.564 0-4.564-4.564M96.554.68v3.108h6.076V20h3.444V3.788h6.076V.68zM115.215 20V.68h3.416V20zM121.991.68l-.448.672L127.227 20h5.544l5.712-18.648-.42-.672h-2.996l-4.788 16.212h-.532L124.959.68zM141.383 20V.68h12.992v3.108h-9.576v4.648h8.736v3.108h-8.736v5.348h9.576V20zM164.871.68V20h3.416V6.504l5.096 10.864h2.94l5.096-10.864V20h3.444V.68h-4.2l-5.796 12.376L169.071.68z"/><path fill="#c11111" fill-rule="evenodd" d="M189.337 15.436V5.244q0-4.564 4.564-4.564h6.412q4.564 0 4.564 4.564v10.192q0 4.563-4.564 4.564h-6.412q-4.564 0-4.564-4.564m3.416.252q0 1.203 1.232 1.204h6.244q1.232 0 1.232-1.204V4.992q0-1.204-1.232-1.204h-6.244q-1.232 0-1.232 1.204zM209.359.68V20h7.42q7.56 0 7.56-7.588V8.268q0-7.588-7.56-7.588zm7.616 16.212h-4.2V3.788h4.2q3.948 0 3.948 3.948v5.208q0 3.948-3.948 3.948" clip-rule="evenodd"/><path fill="#c11111" d="M228.527 20V.68h12.992v3.108h-9.576v4.648h8.736v3.108h-8.736v5.348h9.576V20zM245.289.68V20h12.152v-3.108h-8.736V.68zM259.652 16.892v1.82L261.304 20h7.084q4.564 0 4.564-4.564v-1.82q0-3.696-3.248-4.368l-5.684-1.12q-.952-.197-.952-1.26V4.992q0-1.204 1.232-1.204h8.092v-1.82L270.74.68h-6.524q-4.564 0-4.564 4.564v1.54q0 3.723 3.248 4.368l5.684 1.148q.952.195.952 1.26v2.128q0 1.203-1.232 1.204z"/></svg>