<svg xmlns="http://www.w3.org/2000/svg" width="900" height="241" fill="none" viewBox="0 0 900 241"><path fill="#bb1212" d="M374.792 107.68v7.8l7.08 5.52h30.36q19.56 0 19.56-19.56v-7.8q0-15.84-13.92-18.72l-24.36-4.8q-4.08-.84-4.08-5.4v-8.04q0-5.16 5.28-5.16h34.68v-7.8l-7.08-5.52h-27.96q-19.56 0-19.56 19.56v6.6q0 15.96 13.92 18.72l24.36 4.92q4.08.84 4.08 5.4v9.12q0 5.16-5.28 5.16z"/><path fill="#000" d="M374.792 107.68v7.8l7.08 5.52h30.36q19.56 0 19.56-19.56v-7.8q0-15.84-13.92-18.72l-24.36-4.8q-4.08-.84-4.08-5.4v-8.04q0-5.16 5.28-5.16h34.68v-7.8l-7.08-5.52h-27.96q-19.56 0-19.56 19.56v6.6q0 15.96 13.92 18.72l24.36 4.92q4.08.84 4.08 5.4v9.12q0 5.16-5.28 5.16z"/><path fill="#bb1212" d="M.2 241v-82.8h55.68v13.32H14.84v23.52h37.44v13.32H14.84V241z"/><path fill="#000" d="M.2 241v-82.8h55.68v13.32H14.84v23.52h37.44v13.32H14.84V241z"/><path fill="#bb1212" d="M64.892 158.2V241h14.64v-82.8z"/><path fill="#000" d="M64.892 158.2V241h14.64v-82.8z"/><path fill="#bb1212" d="M87.811 171.52V158.2h66.84v13.32h-26.04V241h-14.76v-69.48z"/><path fill="#000" d="M87.811 171.52V158.2h66.84v13.32h-26.04V241h-14.76v-69.48z"/><path fill="#bb1212" d="M162.988 158.2V241h14.64v-59.04l36.84 59.04h15.84v-82.8h-14.64v59.04l-36.72-59.04z"/><path fill="#000" d="M162.988 158.2V241h14.64v-59.04l36.84 59.04h15.84v-82.8h-14.64v59.04l-36.72-59.04z"/><path fill="#bb1212" d="M245.961 241v-82.8h55.68v13.32h-41.04v19.92h37.44v13.32h-37.44v22.92h41.04V241z"/><path fill="#000" d="M245.961 241v-82.8h55.68v13.32h-41.04v19.92h37.44v13.32h-37.44v22.92h41.04V241z"/><path fill="#bb1212" d="M309.397 227.68v7.8l7.08 5.52h30.36q19.56 0 19.56-19.56v-7.8q0-15.84-13.92-18.72l-24.36-4.8q-4.08-.84-4.08-5.4v-8.04q0-5.16 5.28-5.16h34.68v-7.8l-7.08-5.52h-27.96q-19.56 0-19.56 19.56v6.6q0 15.96 13.92 18.72l24.36 4.92q4.08.84 4.08 5.4v9.12q0 5.16-5.28 5.16z"/><path fill="#000" d="M309.397 227.68v7.8l7.08 5.52h30.36q19.56 0 19.56-19.56v-7.8q0-15.84-13.92-18.72l-24.36-4.8q-4.08-.84-4.08-5.4v-8.04q0-5.16 5.28-5.16h34.68v-7.8l-7.08-5.52h-27.96q-19.56 0-19.56 19.56v6.6q0 15.96 13.92 18.72l24.36 4.92q4.08.84 4.08 5.4v9.12q0 5.16-5.28 5.16z"/><path fill="#bb1212" d="M374.792 235.48v-7.8h37.08q5.28 0 5.28-5.16v-9.12q0-4.56-4.08-5.4l-24.36-4.92q-13.92-2.76-13.92-18.72v-6.6q0-19.56 19.56-19.56h27.96l7.08 5.52v7.8h-34.68q-5.28 0-5.28 5.16v8.04q0 4.56 4.08 5.4l24.36 4.8q13.92 2.88 13.92 18.72v7.8q0 19.56-19.56 19.56h-30.36z"/><path fill="#000" d="M374.792 235.48v-7.8h37.08q5.28 0 5.28-5.16v-9.12q0-4.56-4.08-5.4l-24.36-4.92q-13.92-2.76-13.92-18.72v-6.6q0-19.56 19.56-19.56h27.96l7.08 5.52v7.8h-34.68q-5.28 0-5.28 5.16v8.04q0 4.56 4.08 5.4l24.36 4.8q13.92 2.88 13.92 18.72v7.8q0 19.56-19.56 19.56h-30.36z"/><path fill="#bb1212" d="M467.816 158.2V241h14.64v-32.64h37.44v-13.32h-37.44v-23.52h41.04V158.2z"/><path fill="#000" d="M467.816 158.2V241h14.64v-32.64h37.44v-13.32h-37.44v-23.52h41.04V158.2z"/><path fill="#bb1212" d="M532.508 241v-82.8h14.64V241z"/><path fill="#000" d="M532.508 241v-82.8h14.64V241z"/><path fill="#bb1212" d="M555.427 158.2v13.32h26.04V241h14.76v-69.48h26.04V158.2z"/><path fill="#000" d="M555.427 158.2v13.32h26.04V241h14.76v-69.48h26.04V158.2z"/><path fill="#bb1212" d="M630.603 241v-82.8h15.96l36.72 59.04V158.2h14.64V241h-15.84l-36.84-59.04V241z"/><path fill="#000" d="M630.603 241v-82.8h15.96l36.72 59.04V158.2h14.64V241h-15.84l-36.84-59.04V241z"/><path fill="#bb1212" d="M713.576 158.2V241h55.68v-13.32h-41.04v-22.92h37.44v-13.32h-37.44v-19.92h41.04V158.2z"/><path fill="#000" d="M713.576 158.2V241h55.68v-13.32h-41.04v-22.92h37.44v-13.32h-37.44v-19.92h41.04V158.2z"/><path fill="#bb1212" d="M777.012 235.48v-7.8h37.08q5.28 0 5.28-5.16v-9.12q0-4.56-4.08-5.4l-24.36-4.92q-13.92-2.76-13.92-18.72v-6.6q0-19.56 19.56-19.56h27.96l7.08 5.52v7.8h-34.68q-5.28 0-5.28 5.16v8.04q0 4.56 4.08 5.4l24.36 4.8q13.92 2.88 13.92 18.72v7.8q0 19.56-19.56 19.56h-30.36z"/><path fill="#000" d="M777.012 235.48v-7.8h37.08q5.28 0 5.28-5.16v-9.12q0-4.56-4.08-5.4l-24.36-4.92q-13.92-2.76-13.92-18.72v-6.6q0-19.56 19.56-19.56h27.96l7.08 5.52v7.8h-34.68q-5.28 0-5.28 5.16v8.04q0 4.56 4.08 5.4l24.36 4.8q13.92 2.88 13.92 18.72v7.8q0 19.56-19.56 19.56h-30.36z"/><path fill="#bb1212" d="M842.408 235.48v-7.8h37.08q5.28 0 5.28-5.16v-9.12q0-4.56-4.08-5.4l-24.36-4.92q-13.92-2.76-13.92-18.72v-6.6q0-19.56 19.56-19.56h27.96l7.08 5.52v7.8h-34.68q-5.28 0-5.28 5.16v8.04q0 4.56 4.08 5.4l24.36 4.8q13.92 2.88 13.92 18.72v7.8q0 19.56-19.56 19.56h-30.36z"/><path fill="#000" d="M842.408 235.48v-7.8h37.08q5.28 0 5.28-5.16v-9.12q0-4.56-4.08-5.4l-24.36-4.92q-13.92-2.76-13.92-18.72v-6.6q0-19.56 19.56-19.56h27.96l7.08 5.52v7.8h-34.68q-5.28 0-5.28 5.16v8.04q0 4.56 4.08 5.4l24.36 4.8q13.92 2.88 13.92 18.72v7.8q0 19.56-19.56 19.56h-30.36z"/><path fill="#bb1212" d="M309.397 115.48v-7.8h37.08q5.28 0 5.28-5.16V93.4q0-4.56-4.08-5.4l-24.36-4.92q-13.92-2.76-13.92-18.72v-6.6q0-19.56 19.56-19.56h27.96l7.08 5.52v7.8h-34.68q-5.28 0-5.28 5.16v8.04q0 4.56 4.08 5.4l24.36 4.8q13.92 2.88 13.92 18.72v7.8q0 19.56-19.56 19.56h-30.36z"/><path fill="#000" d="M309.397 115.48v-7.8h37.08q5.28 0 5.28-5.16V93.4q0-4.56-4.08-5.4l-24.36-4.92q-13.92-2.76-13.92-18.72v-6.6q0-19.56 19.56-19.56h27.96l7.08 5.52v7.8h-34.68q-5.28 0-5.28 5.16v8.04q0 4.56 4.08 5.4l24.36 4.8q13.92 2.88 13.92 18.72v7.8q0 19.56-19.56 19.56h-30.36z"/><path fill="#bb1212" d="M245.961 38.2V121h55.68v-13.32h-41.04V84.76h37.44V71.44h-37.44V51.52h41.04V38.2z"/><path fill="#000" d="M245.961 38.2V121h55.68v-13.32h-41.04V84.76h37.44V71.44h-37.44V51.52h41.04V38.2z"/><path fill="#bb1212" d="M162.988 121V38.2h15.96l36.72 59.04V38.2h14.64V121h-15.84l-36.84-59.04V121z"/><path fill="#000" d="M162.988 121V38.2h15.96l36.72 59.04V38.2h14.64V121h-15.84l-36.84-59.04V121z"/><path fill="#bb1212" d="M87.811 38.2v13.32h26.04V121h14.76V51.52h26.04V38.2z"/><path fill="#000" d="M87.811 38.2v13.32h26.04V121h14.76V51.52h26.04V38.2z"/><path fill="#bb1212" d="M64.892 121V38.2h14.64V121z"/><path fill="#000" d="M64.892 121V38.2h14.64V121z"/><path fill="#bb1212" d="M.2 38.2V121h14.64V88.36h37.44V75.04H14.84V51.52h41.04V38.2z"/><path fill="#000" d="M.2 38.2V121h14.64V88.36h37.44V75.04H14.84V51.52h41.04V38.2z"/><path fill="#c11111" d="M.1 5.244v10.192Q.1 19.999 4.664 20h7.616l1.652-1.288v-1.82H4.748q-1.232 0-1.232-1.204V4.992q0-1.204 1.232-1.204h9.184v-1.82L12.28.68H4.664Q.1.68.1 5.244M17.716 20V.68h3.416v16.212h8.736V20z"/><path fill="#c11111" fill-rule="evenodd" d="M32.64 5.244v10.192q0 4.563 4.563 4.564h6.412q4.564 0 4.564-4.564V5.244Q48.18.68 43.615.68h-6.412q-4.564 0-4.564 4.564m4.647 11.648q-1.232 0-1.232-1.204V4.992q0-1.204 1.232-1.204h6.244q1.233 0 1.232 1.204v10.696q0 1.203-1.232 1.204z" clip-rule="evenodd"/><path fill="#c11111" d="M52.661 20V.68h3.724l8.568 13.776V.68h3.416V20h-3.696L56.077 6.224V20zM73.142.68V20h12.992v-3.108h-9.576v-5.348h8.736V8.436h-8.736V3.788h9.576V.68z"/><path fill="#c11111" fill-rule="evenodd" d="M106.334 5.244v10.192q0 4.563 4.564 4.564h3.92q4.564 0 4.564-4.564V5.244q0-4.564-4.564-4.564h-3.92q-4.564 0-4.564 4.564m4.648 11.648q-1.204 0-1.204-1.204V4.992q0-1.204 1.204-1.204h3.752q1.204 0 1.204 1.204v10.696q0 1.203-1.204 1.204z" clip-rule="evenodd"/><path fill="#c11111" d="M122.801 16.892v1.82L124.453 20h6.552q4.564 0 4.564-4.564V12.72q0-1.12-.7-1.82l-.98-.98.98-.98q.7-.7.7-1.82V5.244q0-4.564-4.564-4.564h-6.272l-1.652 1.288v1.82h7.84q1.204 0 1.204 1.204v2.212q0 1.232-1.204 1.232h-6.048v3.108h6.048q1.204 0 1.204 1.204v2.94q0 1.203-1.204 1.204zM89 17h14v3H89z"/></svg>