<svg xmlns="http://www.w3.org/2000/svg" width="1em" height="1em" fill="current" viewBox="0 0 30 30"><path d="M8.017 10.735a1.79 1.79 0 0 0-1.19-2.008 1.84 1.84 0 0 0-2.21.826 1.78 1.78 0 0 0 .47 2.275 1.85 1.85 0 0 0 2.364-.085l2.486 1.342a.6.6 0 0 0 .188.063l.098.01h2.64v-1.149H10.36zm4.67 4.205h-6.13a1.82 1.82 0 0 0-1.726-1.222 1.81 1.81 0 0 0-1.82 1.594 1.795 1.795 0 0 0 1.418 1.95 1.833 1.833 0 0 0 2.128-1.172h5.596q.03 0 .06-.003h.474a.177.177 0 0 0 .177-.177v-.793a.177.177 0 0 0-.177-.177M8.43 7.598a1.85 1.85 0 0 0 3.037.198 1.78 1.78 0 0 0 .134-1.999A1.85 1.85 0 0 0 9.1 5.143a1.78 1.78 0 0 0-.737 2.325zm17.444 8.972-1.751-2.884.022-.254.014-.248.006-.205v-.362l-.01-.273-.017-.295-.012-.155-.034-.325c-.167-1.385-.673-3.188-2.075-4.564A10.64 10.64 0 0 0 14.505 4a.65.65 0 0 0-.455.186.63.63 0 0 0-.19.448v21.6c0 .422.351.766.783.766h3.716a.885.885 0 0 0 .884-.885v-2.114h4.038a.885.885 0 0 0 .885-.885v-3.892q.002-.054-.006-.106l-.004-.319 1.456-1.03a.9.9 0 0 0 .263-1.198zm-14.942 6.213a1.86 1.86 0 0 0-1.385-.184 1.82 1.82 0 0 0-1.113.832 1.774 1.774 0 0 0 .66 2.452 1.846 1.846 0 0 0 2.415-.523l.083-.125a1.775 1.775 0 0 0-.66-2.452m1.753-4.906h-.355l-.037-.004-2.067-.001a.6.6 0 0 0-.285.07l-2.487 1.341a1.85 1.85 0 0 0-2.143-.235 1.777 1.777 0 0 0-.743 2.264 1.84 1.84 0 0 0 2.197.999 1.793 1.793 0 0 0 1.278-2.02l2.342-1.27h.072l.024.002h2.204a.177.177 0 0 0 .177-.177v-.792a.177.177 0 0 0-.177-.177"/></svg>