<svg xmlns="http://www.w3.org/2000/svg" width="1em" height="1em" fill="current" viewBox="0 0 30 30"><path d="M14.5 12.866c-1.375 0-2.5 1.11-2.5 2.466s1.125 2.467 2.5 2.467 2.5-1.11 2.5-2.467-1.125-2.466-2.5-2.466m7.5 2.466c0-4.082-3.363-7.399-7.5-7.399S7 11.25 7 15.333c0 2.737 1.512 5.117 3.75 6.4L12 19.587c-1.488-.863-2.5-2.43-2.5-4.255 0-2.725 2.238-4.933 5-4.933s5 2.208 5 4.933c0 1.826-1.012 3.392-2.5 4.255l1.25 2.146c2.238-1.283 3.75-3.663 3.75-6.4M14.5 3C7.6 3 2 8.525 2 15.332 2 19.895 4.513 23.866 8.238 26l1.25-2.134C6.513 22.153 4.5 18.984 4.5 15.332c0-5.45 4.475-9.866 10-9.866s10 4.416 10 9.866c0 3.65-2.012 6.82-5 8.534L20.75 26C24.488 23.866 27 19.895 27 15.332 27 8.525 21.4 3 14.5 3"/></svg>