<svg xmlns="http://www.w3.org/2000/svg" width="1em" height="1em" fill="current" viewBox="0 0 30 30"><path d="M21.879 3.732c1.069-.962 2.817-.966 3.923-.069.726.584 1.167 1.505 1.198 2.442v.113c-.017.999-.54 1.938-1.314 2.534-.816.587-1.913.755-2.851.388-.246-.075-.562-.258-.771-.008-.449.431-.87.893-1.318 1.326-.152.132-.242.315-.33.494.15.324.383.594.594.877.834 1.24 1.036 2.835.782 4.292-.273 1.374-1.182 2.495-2.19 3.396.103.466.403.843.62 1.258.182.29.302.629.55.869.55.05 1.128-.051 1.654.175 1.305.454 2.233 1.833 2.12 3.24-.07 1.599-1.517 2.933-3.076 2.941h-.124c-1.195-.056-2.365-.812-2.788-1.973-.515-1.216-.174-2.72.816-3.58-.375-.65-.732-1.31-1.121-1.948-.174-.349-.59-.177-.878-.139-1.966.371-4.068-.484-5.262-2.106a5.9 5.9 0 0 1-.942-2.023c-.079-.215-.127-.543-.415-.542-.711-.04-1.426-.01-2.14-.016-.309-.04-.531.235-.612.507-.246.704-.82 1.225-1.431 1.606-1.096.607-2.564.43-3.484-.43-.676-.588-1.051-1.48-1.089-2.376v-.123c.036-1.195.806-2.292 1.855-2.796.813-.326 1.764-.37 2.561.03.768.304 1.291 1.01 1.64 1.741.139.328.544.238.824.253.702-.025 1.41.046 2.109-.048.221-.49.257-1.047.531-1.514.758-1.634 2.338-2.85 4.095-3.125 1.06-.178 2.152.027 3.134.45.37.16.596-.256.834-.463.488-.548 1.085-1.008 1.505-1.613-.01-.387-.267-.715-.297-1.102-.157-1.075.24-2.256 1.088-2.938"/></svg>