<svg width="1em" height="1em" viewBox="0 0 48 48" fill="none" xmlns="http://www.w3.org/2000/svg">
<path d="M26.8508 40.4295C24.8252 40.267 22.9787 39.5295 21.3149 38.4296C19.9914 37.5548 18.7144 36.6017 17.4984 35.5905C16.4936 34.7548 15.4808 33.8756 14.6973 32.8522C12.8033 30.3797 11.9822 27.5832 12.489 24.4834C12.815 22.4914 13.8018 20.819 15.154 19.3352C16.0978 18.2987 17.2046 17.4361 18.3929 16.6733C19.3735 16.0443 20.3585 15.4371 21.1107 14.5188C22.3796 12.9715 22.6456 11.2575 22.2229 9.38529C21.4967 9.60509 20.7902 9.7884 20.1078 10.0325C19.1872 10.3626 18.4664 10.9178 18.1744 11.8821C18.0186 12.3964 18.1386 12.9124 18.4691 13.1236C18.5156 12.6388 18.6768 12.2096 19.0708 11.8812C19.3636 11.6371 19.7218 11.6371 19.9609 11.8456C20.1445 12.0055 20.277 12.3573 20.2376 12.5936C20.1266 13.266 19.746 13.8055 19.129 14.1669C18.3634 14.6161 17.0058 14.5327 16.6817 13.3242C16.4721 12.5432 16.6315 11.8274 17.0506 11.1558C17.8001 9.9578 18.9195 9.15507 20.1651 8.51045C21.2988 7.92317 22.5346 7.59391 23.8026 7.48098C24.6667 7.40366 25.5514 7.48184 26.421 7.55569C26.9815 7.60347 27.5305 7.77027 28.0857 7.88408C28.1054 7.85802 28.1251 7.83282 28.1457 7.80676C27.8376 7.56959 27.5493 7.30201 27.217 7.10133C25.7502 6.21259 24.1679 5.85292 22.428 6.05448C21.1931 6.19782 20.0218 6.50536 18.9007 7.00577C16.7954 7.94663 15.2426 9.50605 13.843 11.2488C12.6493 12.7352 11.4359 14.2095 10.1706 15.6386C8.80857 17.1763 7.36147 18.6428 6.35763 20.4463C6.31644 20.4454 6.27525 20.4437 6.23316 20.4428C6.18928 19.6054 6.1454 18.7679 6.10063 17.9208C6.05048 17.946 6.00929 17.9521 6.00212 17.9712C5.3914 19.5732 5.00635 21.2325 5.00008 22.9353C4.9965 24.0273 5.11739 25.1428 5.36006 26.2088C6.18212 29.8246 8.12084 32.7097 11.4511 34.6427C12.1657 35.0571 12.8678 35.5097 13.5081 36.0223C14.1224 36.514 14.6427 37.116 15.2176 37.6555C16.6781 39.0256 18.3141 40.1385 20.2108 40.8804C22.5695 41.803 24.9962 42.1696 27.5385 41.9272C29.2292 41.7656 30.7999 41.2913 32.2962 40.5424C32.5434 40.4191 32.7914 40.2931 33.0287 40.1532C33.2499 40.0229 33.4586 39.8717 33.6717 39.7293C30.6387 40.585 29.9975 40.6832 26.8508 40.4295Z" fill="current"/>
<path d="M30.4442 26.2089C29.2192 26.42 28.0094 26.685 26.8757 27.2132C24.4722 28.3339 22.4771 29.9585 20.7309 31.8889C20.4381 32.2129 20.19 32.5761 19.9214 32.921C19.9402 32.9435 19.9581 32.9661 19.976 32.9896C20.1094 32.947 20.2464 32.9114 20.3772 32.8601C22.1986 32.1504 24.0737 31.9627 26.0384 32.0774C27.9942 32.1912 29.9723 32.219 31.911 31.7629C34.6333 31.1218 36.9678 29.8812 38.7194 27.7093C40.3957 25.6303 41.1175 23.2248 41.1694 20.6341C41.1999 19.1346 40.8641 17.6647 40.3035 16.2582C40.1253 15.8108 39.8996 15.3807 39.6955 14.942C39.6006 15.0376 39.5889 15.0975 39.6023 15.1523C39.8585 16.1991 39.8584 17.2616 39.6686 18.3058C39.4071 19.7445 38.8098 21.0642 37.9081 22.2457C37.0717 23.3412 36.0482 24.2299 34.8142 24.8858C33.4495 25.613 31.9603 25.9474 30.4442 26.2089Z" fill="current"/>
<path d="M20.3871 25.6475C19.4021 26.9985 18.7806 28.5005 18.7063 30.2763C18.932 30.0287 19.1057 29.8289 19.2893 29.6386C20.9038 27.9602 22.8936 26.9307 25.1977 26.4694C27.3352 26.0411 29.4288 25.5051 31.3622 24.4764C32.9839 23.6138 34.3325 22.474 35.3148 20.9493C36.5246 19.0719 36.9258 17.0321 36.5596 14.8471C36.1548 12.4329 34.8026 10.5642 32.9687 8.9752C32.7976 8.82665 32.5926 8.71457 32.4027 8.586C32.3938 8.71892 32.4341 8.79016 32.4896 8.84923C33.8883 10.3296 34.354 12.1218 34.1158 14.0479C33.8579 16.1355 32.5908 17.6758 30.9064 18.9277C29.6563 19.8573 28.2011 20.3768 26.7549 20.9067C24.1347 21.865 21.9999 23.4348 20.3871 25.6475Z" fill="current"/>
<path d="M42.8102 25.7987C42.6042 26.2609 42.4027 26.7248 42.1914 27.1844C41.3765 28.9575 40.1148 30.3623 38.4151 31.377C36.5454 32.4934 34.4983 32.9147 32.3062 32.8279C31.0471 32.7783 29.7657 32.7514 28.5236 32.9199C27.0846 33.1154 25.6572 33.4707 24.262 33.8756C22.6716 34.3369 21.1108 34.8781 19.4157 34.8025C19.3816 34.8008 19.3449 34.8321 19.2607 34.8694C19.5339 35.064 19.7676 35.2473 20.0183 35.4055C21.5702 36.3854 23.2161 37.1812 25.008 37.6512C27.2314 38.235 29.4791 38.4522 31.7707 38.0161C34.8225 37.4349 37.4033 36.0814 39.4485 33.7809C40.6843 32.3909 41.6138 30.8375 42.1717 29.0931C42.5111 28.0306 42.7278 26.9307 43 25.8474C42.9364 25.8309 42.8729 25.8144 42.8102 25.7987Z" fill="current"/>
<path d="M26.1477 15.5282C25.0338 16.416 23.8052 17.0563 22.4216 17.4594C20.0683 18.1448 18.0311 19.3498 16.5741 21.2941C14.7805 23.6875 14.1921 26.372 14.9184 29.2728C15.1181 30.0703 15.3858 30.8626 15.8962 31.5446C16.001 30.7879 16.0315 30.0416 16.215 29.3327C16.9887 26.3424 18.94 24.2123 21.5861 22.6311C23.2455 21.6399 25.0481 20.8788 26.5346 19.6113C27.4193 18.8564 28.1984 18.0224 28.7608 17.0259C29.6267 15.4908 30.0556 13.8532 29.7565 12.0896C29.6159 11.2582 29.3383 10.4755 28.8396 9.72137C28.7679 10.4268 28.7661 11.0784 28.6264 11.7004C28.2772 13.2546 27.4193 14.5143 26.1477 15.5282Z" fill="current"/>
</svg>
