<svg width="1em" height="1em" viewBox="0 0 48 48" fill="current" xmlns="http://www.w3.org/2000/svg">
<path d="M34.3963 5.92617C34.3963 5.92617 33.6962 5.41375 33.1872 5.15051C32.5741 4.83485 32.3139 4.59782 30.6384 4.06807C28.8597 3.50664 27.3894 3.20736 25.343 3.06208C23.6721 2.94412 21.9824 2.96706 20.3049 3.37229C16.4694 4.29963 13.1325 6.20456 10.5345 9.6627C9.36318 11.2214 8.52682 13.0051 7.90428 14.9318C6.98845 17.7641 6.84748 20.6838 7.13131 23.6569C7.31959 25.6307 7.78223 27.517 8.53439 29.2964C9.9299 32.5994 12.0161 35.1979 14.7011 37.1607C14.967 37.3552 15.2489 37.5223 15.5233 37.7014C13.966 35.5464 13.1817 31.8719 13.5526 30.2816C14.2063 32.7021 15.6832 34.3536 17.2641 35.9123C18.7685 37.3945 20.2993 38.8439 21.7667 40.3742C22.5661 41.2087 23.1338 42.2726 23.4867 43.4686C23.622 43.9263 23.7649 44.3818 23.955 45C24.3836 42.5347 25.4423 40.6506 26.9097 39.1159C28.275 37.6883 29.7916 36.454 31.1966 35.0734C32.2572 34.0314 33.2941 32.9435 33.8996 31.4372C34.0775 30.9948 34.2743 30.5623 34.4909 30.0599C34.5477 32.9959 33.7161 35.4896 32.1938 37.7091C32.3537 37.6468 32.4767 37.5671 32.5968 37.4819C35.3755 35.5256 37.6859 33.021 39.2111 29.6699C40.6974 26.404 41.2395 22.9186 40.9046 19.2289C40.6974 16.9471 40.1723 14.7997 39.283 12.7604C38.4901 10.9407 37.3728 9.41148 36.0785 8.05051C35.9195 7.88339 35.6584 7.77198 35.4418 7.76652C34.3272 7.73812 33.4748 7.72828 32.3622 7.78836C31.6914 7.8255 30.7614 8.00572 30.0943 8.13243C30.0906 8.18377 30.0868 8.23619 30.0839 8.28753C31.4605 8.45683 32.7548 8.89156 33.8968 9.80579C35.0491 10.7277 35.9489 11.8964 36.5033 13.395C37.0085 14.7604 37.2394 16.7243 37.0549 17.9815C36.5411 14.5572 33.9147 12.3421 31.7813 12.5627C35.7095 14.9755 35.8703 19.5402 34.6801 23.1436C34.9015 21.9006 34.7965 20.6816 34.4114 19.5205C34.0226 18.3474 33.3859 17.3742 32.313 16.6555C35.0974 20.675 33.383 25.4516 30.9458 28.0271C32.0121 26.0075 32.5334 24.0196 31.7453 21.8383C31.5258 25.8721 28.309 29.4176 26.4935 30.1254C28.5541 27.3215 29.2958 25.1151 28.6903 23.4636C28.432 25.0081 27.7092 26.1823 26.7035 27.1042C25.8075 27.9245 24.8217 28.6148 23.9144 29.4209C22.5065 30.6737 21.7894 32.3143 22.0174 34.4049C22.077 34.95 22.2038 35.4852 22.3258 36.1679C21.7998 35.495 21.34 34.9216 20.8944 34.335C19.4336 32.4137 18.5121 30.2991 18.8915 27.6186C19.1289 25.9387 19.6455 24.4292 20.7364 23.2998C21.7364 22.2643 22.8377 21.3511 23.9314 20.4456C25.1717 19.4189 26.1973 18.2316 26.7129 16.5156C27.2191 14.8303 26.5786 14.0253 25.5114 13.7118C24.5104 13.4179 23.5208 13.6943 22.7137 14.5648C22.0921 15.2355 21.4393 15.869 20.8035 16.5222C20.7704 16.5561 20.7629 16.6227 20.7402 16.6795C21.2217 16.7286 21.6834 16.7756 22.1451 16.8226C20.5869 17.0672 19.2765 17.7991 18.1753 19.0464C17.548 19.7564 17.3048 20.9437 18.5263 21.5827C18.6549 21.6504 18.7836 21.7171 18.9965 21.8285C17.8829 21.8995 17.2869 21.7094 16.3171 20.9962C16.6511 21.3249 16.986 21.6526 17.2774 21.9399C15.722 21.74 14.5422 20.5243 14.4287 18.8127C14.4145 18.603 14.4712 18.3856 14.5015 18.1125C14.6557 18.2786 14.757 18.3878 14.8582 18.4959C15.423 17.798 15.7447 16.1617 15.3483 15.6626C14.8932 15.0902 15.073 14.65 15.3388 14.0897C15.6217 13.4933 15.9188 12.8467 15.9935 12.1891C16.2442 9.97619 17.1733 8.20233 18.4856 6.65021C18.7845 6.29631 19.1535 6.02106 19.4903 5.70976C18.6795 7.22474 18.0229 8.73209 18.0532 10.5278C18.9142 9.41148 19.7117 8.29955 20.5831 7.27171C21.4611 6.23733 22.4346 5.31982 23.5019 4.55523C23.5387 4.59782 23.5747 4.64152 23.6116 4.68411C22.903 5.72833 22.1953 6.77254 21.5065 7.78836C22.7166 6.93966 23.8964 6.04072 25.1358 5.27067C25.9788 4.74637 26.7801 4.43829 27.9769 4.47331C27.0564 5.0391 26.1576 6.06366 25.6921 7.27171C26.2768 6.93639 27.1586 6.47702 27.8681 6.17416C29.2873 5.56842 30.8011 5.15051 34.3963 5.92617Z" fill="current"/>
<path d="M18.0381 13.9226C17.3304 14.7353 17.1081 15.6692 17.2821 16.7898C17.7079 16.3245 18.0967 15.8625 18.5206 15.4474C18.9747 15.0018 19.1516 14.4677 19.1375 13.7828C19.1261 13.2509 19.2254 12.7156 19.2737 12.2034C18.8725 12.7681 18.4979 13.395 18.0381 13.9226Z" fill="current"/>
</svg>
