<svg width="1em" height="1em" viewBox="0 0 48 48" fill="none" xmlns="http://www.w3.org/2000/svg">
<path d="M42.7512 26.0711C42.3167 25.9682 41.9853 25.6955 41.7217 25.3408C41.3452 24.8333 41.1332 24.2493 41.0123 23.6412C40.8059 22.6052 40.4407 21.6392 39.9481 20.7022C39.212 19.301 38.9137 17.7904 39.0855 16.2123C39.2217 14.9584 39.5934 13.8114 40.7817 13.0875C40.4503 13.1108 40.1134 13.1357 39.8094 13.2491C39.3813 13.4084 38.9766 13.6328 38.563 13.8315C38.1229 14.043 37.8068 13.9996 37.4924 13.6264C37.3215 13.4237 37.178 13.1856 37.0748 12.9419C36.9087 12.551 36.787 12.1415 36.6306 11.6967C36.4621 12.3949 36.4823 13.0569 36.5967 13.7181C36.741 14.5489 36.8072 15.3839 36.6774 16.2196C36.6 16.7199 36.4669 17.2113 36.3589 17.706C36.3275 17.7004 36.2952 17.6939 36.2638 17.6883C36.4129 16.6571 36.2452 15.642 36.1493 14.6205C36.055 13.6191 35.9913 12.6129 35.9752 11.6075C35.9631 10.8361 36.1082 10.0728 36.4742 9.38024C36.6403 9.06655 36.8733 8.78744 37.0716 8.49868C36.6564 8.51799 36.313 8.67403 35.8687 9.07057C35.564 9.34324 35.281 9.64246 34.9682 9.90548C34.5345 10.2707 34.1306 10.2843 33.7436 9.87652C33.4195 9.53468 33.1712 9.11803 32.9068 8.72229C32.7867 8.54292 32.7093 8.3346 32.6133 8.13914C32.5787 8.1488 32.544 8.15845 32.5093 8.1673C32.6085 8.81479 32.6496 9.47676 32.8197 10.1058C33.1228 11.2294 33.2268 12.3587 33.139 13.513C33.0753 14.3463 32.9116 15.157 32.6004 15.9397C32.7601 14.2256 32.4448 12.5606 32.1216 10.8956C31.7459 8.9644 31.8491 7.08465 32.731 5.28856C32.748 5.25397 32.7447 5.20893 32.7536 5.15182C32.3287 5.36658 31.9668 5.7044 31.5226 6.26583C31.2065 6.66478 30.8994 7.07259 30.5503 7.44098C30.2044 7.80615 29.84 7.86084 29.4103 7.59943C29.0733 7.39513 28.7678 7.12969 28.4816 6.85541C28.2397 6.62376 28.0479 6.34064 27.7794 6.01568C27.8157 6.18701 27.8237 6.28433 27.8576 6.372C28.06 6.90207 28.2284 7.44982 28.4816 7.95495C29.4571 9.90146 29.4015 11.889 28.7799 13.998C28.763 13.8492 28.7533 13.7848 28.7492 13.7205C28.6412 12.0901 28.3284 10.4991 27.8036 8.95153C27.3158 7.51497 26.6773 6.15564 25.6454 5.01749C25.3157 4.65393 24.9327 4.33782 24.574 4C24.5562 4.02011 24.5377 4.03941 24.52 4.05952C25.7301 5.47597 25.1069 7.50854 23.3107 7.4458C23.33 7.47315 23.3429 7.49969 23.3631 7.51739C24.5885 8.54936 25.0037 9.88859 24.8126 11.4321C24.732 12.0788 24.5603 12.7142 24.4305 13.3545C24.3668 13.2692 24.3426 13.1848 24.3297 13.0995C24.0564 11.2857 23.4969 9.57007 22.5512 7.99114C21.7418 6.63824 20.693 5.52262 19.2684 4.7963C19.0725 4.69656 18.8653 4.61934 18.663 4.53087C18.7557 4.69978 18.8718 4.82284 18.9758 4.95636C19.0854 5.09793 19.1991 5.2403 19.2845 5.39714C20.5478 7.72812 20.5873 10.072 19.3579 12.4311C19.3144 12.514 19.2805 12.6515 19.32 12.7207C20.1431 14.1685 20.4285 15.7595 20.6115 17.3851C20.7712 18.8007 20.959 20.2131 21.1525 21.6247C21.1944 21.9304 21.3153 22.2248 21.4048 22.5433C21.7338 22.2988 22.0248 22.1041 22.2884 21.8781C22.465 21.7269 22.648 21.554 22.7479 21.3513C22.9946 20.8518 23.2107 20.3354 23.4114 19.815C23.7694 18.8852 24.0725 17.9328 24.4611 17.0159C24.8707 16.049 25.4761 15.2061 26.3436 14.5811C26.7193 14.3101 27.1336 14.1307 27.5577 14.1082C27.1788 14.3567 26.7467 14.5876 26.3774 14.894C25.4689 15.6469 24.9102 16.6515 24.4998 17.7341C24.1499 18.6559 23.8557 19.5994 23.5308 20.5308C23.4437 20.7802 23.3381 21.0231 23.2276 21.3014C23.6364 21.1614 24.008 21.0529 24.3628 20.9057C24.5845 20.8132 24.8303 20.7038 24.9811 20.53C25.5156 19.9115 26.0066 19.2552 26.5282 18.6254C27.3304 17.6585 28.2325 16.8011 29.3402 16.185C30.1875 15.7136 31.0824 15.523 32.0426 15.7796C31.9587 15.8069 31.8724 15.8182 31.7862 15.8214C30.8978 15.8552 30.0843 16.1271 29.3168 16.5686C27.989 17.3336 26.9764 18.4227 26.0856 19.642C25.8373 19.9823 25.5898 20.3225 25.331 20.678C25.9413 20.6266 26.5105 20.5936 27.074 20.5236C27.3449 20.4898 27.6367 20.4375 27.8665 20.3048C28.3228 20.0402 28.7444 19.7168 29.1773 19.4128C30.1407 18.7363 31.1936 18.3495 32.386 18.4959C32.8584 18.5538 33.3204 18.6977 33.7872 18.8031C33.7799 18.8353 33.7726 18.8667 33.7654 18.8988C33.7178 18.8908 33.6694 18.8852 33.6227 18.8747C31.3484 18.372 29.545 19.3195 27.881 20.744C27.9374 20.744 27.985 20.7448 28.0317 20.744C28.821 20.7327 29.6111 20.6949 30.4003 20.7158C31.3323 20.74 32.2417 20.8976 32.9697 21.5467C33.2236 21.7735 33.4155 22.0703 33.6348 22.335C33.6195 22.3398 33.605 22.3446 33.5896 22.3486C33.1003 22.0607 32.6101 21.7735 32.1208 21.4856C32.1014 21.5121 32.0812 21.5395 32.0619 21.566C32.0893 21.6255 32.1191 21.6843 32.1449 21.7438C32.3602 22.2457 32.2151 22.6776 31.7265 22.9254C31.5604 23.0098 31.371 23.0878 31.1896 23.0967C30.4818 23.1305 29.7731 23.1361 29.0645 23.1514C28.975 23.153 28.8863 23.1514 28.7968 23.1514C29.9327 23.5825 31.0614 23.9879 32.0498 24.6941C32.4634 24.9893 32.9237 25.1606 33.4244 25.2539C34.5006 25.455 35.5471 25.7655 36.4927 26.3285C37.6279 27.0042 38.6783 27.7635 38.6662 29.3022C38.9387 29.2226 39.1209 29.0553 39.2064 28.8107C39.2894 28.5743 39.3297 28.3233 39.3942 28.0579C39.9989 28.5212 40.0666 29.1301 39.8925 29.8274C40.5503 29.6464 40.7906 29.1944 40.88 28.5992C41.3823 29.0882 41.2759 29.5901 40.9994 30.1186C41.1808 30.0534 41.3573 30.0052 41.4718 29.8926C41.8193 29.5531 42.207 29.2298 42.4618 28.826C42.9334 28.0764 43.3276 27.2777 43.7412 26.4918C43.8525 26.2803 43.9154 26.043 44 25.8178C43.6074 26.125 43.1874 26.1749 42.7512 26.0711ZM38.3559 23.6026C38.0092 23.5166 37.7601 23.2905 37.569 22.9961C37.1337 22.3245 36.974 21.5741 36.9216 20.8268C37.4602 21.2998 37.9955 21.7719 38.5332 22.2417C39.0016 22.6511 39.4361 23.0903 39.7046 23.6605C39.811 23.8857 39.8747 24.1311 39.9191 24.3941C39.4869 23.9244 38.9323 23.7458 38.3559 23.6026Z" fill="current"/>
<path d="M34.158 30.9519C34.083 30.1894 34.0113 29.426 33.9379 28.6627C33.9145 28.6651 33.892 28.6667 33.8686 28.6692C33.6122 29.2402 33.3695 29.8178 33.0954 30.38C32.4626 31.6782 31.6338 32.8252 30.4664 33.7076C30.3125 33.8242 30.1867 33.9915 30.0803 34.1564C29.05 35.7554 27.8777 37.2354 26.5403 38.5939C24.4361 40.7319 21.9232 42.0124 18.9298 42.3277C18.4018 42.3832 17.8697 42.4073 17.3344 42.4467C17.3456 42.4652 17.3489 42.4773 17.3553 42.4797C21.2323 44.0015 25.2092 44.468 29.2862 43.4795C32.1401 42.787 34.528 41.3134 36.3379 38.9671C36.4685 38.7982 36.504 38.6663 36.3912 38.4636C35.0843 36.127 34.4184 33.599 34.158 30.9519Z" fill="current"/>
<path d="M9.66375 16.0668C9.21954 16.415 8.66166 16.6298 8.1336 16.8534C7.79339 16.9974 7.41286 17.0481 7.00977 17.1502C7.13069 17.2813 7.22663 17.3931 7.33063 17.4953C7.85708 18.0141 8.47462 18.4058 9.16069 18.6648C10.0193 18.9889 10.8964 19.2616 11.7671 19.5544C14.0196 20.3113 15.8102 21.6513 17.0316 23.708C17.5661 24.6081 18.0901 25.5138 18.6286 26.4114C18.752 26.6173 18.9197 26.7975 19.064 26.9857C19.2268 26.3744 19.3808 25.8017 19.5275 25.2274C19.542 25.1703 19.5275 25.0859 19.4921 25.0384C18.8914 24.2172 18.5891 23.2664 18.3053 22.3109C17.8595 20.8116 17.4451 19.3018 16.7591 17.8862C15.8448 15.9984 14.6791 14.2964 13.0224 12.9741C11.9284 12.1006 10.6957 11.6123 9.27033 11.7933C8.55201 11.8842 7.84176 12.0322 7.08797 12.1617C7.18632 12.1802 7.25324 12.1931 7.32015 12.2059C8.19648 12.3764 9.01558 12.6797 9.6952 13.2749C10.6634 14.1219 10.6747 15.2745 9.66375 16.0668Z" fill="current"/>
<path d="M15.2394 35.3884C17.8088 35.4696 20.3249 35.1664 22.7733 34.3653C23.1159 34.2535 23.4481 34.1119 23.8012 33.9776C23.752 33.9156 23.7431 33.8939 23.7278 33.8859C23.6037 33.8215 23.4795 33.758 23.3538 33.6968C22.4831 33.2754 21.6938 32.7357 21.0239 32.0375C20.84 31.8453 20.6587 31.7833 20.4015 31.7801C18.5319 31.7576 16.7027 31.4873 14.9186 30.9082C13.4956 30.4457 12.0711 29.9784 10.5716 29.7676C10.4732 30.2261 10.4127 30.6741 10.2797 31.098C9.94434 32.1614 9.18329 32.7115 8.06913 32.7332C7.32744 32.7477 6.62363 32.5724 5.94159 32.2965C5.83195 32.2523 5.7223 32.2088 5.55139 32.1404C6.31486 33.1837 7.53463 34.0041 8.97449 34.4747C11.0101 35.1398 13.1159 35.3208 15.2394 35.3884Z" fill="current"/>
<path d="M4.80638 21.98C5.57549 22.9284 6.60741 23.4488 7.75946 23.7544C9.81687 24.2998 11.7146 25.1781 13.4883 26.3516C14.6863 27.1439 15.9101 27.9008 17.1524 28.6215C17.8715 29.039 18.6503 29.3559 19.4025 29.7186C19.2953 28.9263 19.2034 28.2201 19.0986 27.5155C19.0857 27.4287 19.0059 27.349 18.9494 27.2702C18.5915 26.7675 18.2053 26.2825 17.878 25.7613C17.5233 25.1966 17.2572 24.5765 16.8928 24.0182C15.869 22.4506 14.5895 21.1451 12.907 20.262C11.9033 19.7351 10.9689 19.7866 10.0353 20.4317C9.51938 20.788 8.97924 21.1202 8.41732 21.3977C7.52164 21.8417 6.57597 22.1329 5.55453 21.9599C5.2385 21.9069 4.93295 21.7902 4.61047 21.6993C4.63063 21.7379 4.64111 21.7661 4.65804 21.7894C4.70641 21.8554 4.75639 21.9181 4.80638 21.98Z" fill="current"/>
<path d="M15.015 9.89508C15.4245 11.2922 15.6261 12.703 15.0924 14.1243C15.0658 14.1943 15.1085 14.3174 15.1601 14.3849C16.4411 16.0539 17.3086 17.9248 17.9092 19.9292C18.2615 21.1036 18.605 22.2803 18.9887 23.4442C19.1459 23.9212 19.4015 24.3652 19.6143 24.8309C20.065 24.1898 20.4745 23.6155 20.8712 23.0324C20.9179 22.964 20.9155 22.845 20.901 22.7541C20.8252 22.2715 20.7172 21.7929 20.6607 21.3087C20.4721 19.6847 20.3262 18.0551 20.1182 16.4336C19.811 14.0423 19.1088 11.778 17.7496 9.75673C16.629 8.09013 15.1722 6.87879 13.139 6.48386C13.0116 6.45893 12.8826 6.43962 12.7536 6.42434C12.6359 6.40986 12.5166 6.40504 12.3981 6.39539C13.7081 7.26408 14.5829 8.42152 15.015 9.89508Z" fill="current"/>
<path d="M17.5613 39.0791C20.6676 38.5515 23.5513 37.4688 26.1126 35.6044C26.5254 35.3036 26.9188 34.9754 27.3203 34.6601C26.6157 34.5628 25.9312 34.5306 25.2838 34.3609C24.5873 34.1783 23.9343 34.0737 23.2877 34.4711C23.2796 34.4759 23.2683 34.4759 23.2587 34.4791C20.6514 35.3285 17.9797 35.7435 15.2354 35.6736C14.447 35.6534 13.6593 35.6116 12.8088 35.577C12.8088 35.8119 12.8257 36.0411 12.8056 36.2672C12.7306 37.1133 12.2146 37.7319 11.3794 37.8919C10.9344 37.9772 10.4652 37.9877 10.0113 37.9635C9.54613 37.9394 9.08499 37.8316 8.60046 37.7568C9.65577 38.6335 10.8659 39.0824 12.1888 39.2577C13.9891 39.4958 15.7796 39.3816 17.5613 39.0791Z" fill="current"/>
<path d="M10.5958 29.5348C11.905 29.6715 13.1514 30.0737 14.3921 30.4951C15.7941 30.9705 17.2106 31.4016 18.7069 31.4443C19.2914 31.4612 19.8783 31.4209 20.5345 31.4049C20.3894 31.2158 20.2918 31.104 20.2112 30.981C19.9847 30.6343 19.8331 30.1967 19.5252 29.957C19.2132 29.7141 18.7432 29.682 18.3546 29.5275C16.8325 28.9218 15.4619 28.0443 14.1148 27.1282C12.8063 26.2386 11.4608 25.423 9.94355 24.9299C9.40582 24.7554 9.40743 24.7554 9.02852 25.1929C8.76731 25.4945 8.50691 25.7978 8.23926 26.0938C7.10575 27.3486 5.76505 28.0314 4.0011 27.5882C4.02609 27.647 4.03012 27.6679 4.04141 27.6824C4.0664 27.7137 4.09462 27.7419 4.12203 27.7708C4.99917 28.6886 6.09962 29.1374 7.34035 29.2605C8.42388 29.3683 9.51304 29.4221 10.5958 29.5348Z" fill="current"/>
<path d="M29.8974 34.139C29.8965 34.1399 29.8965 34.1417 29.8956 34.1427C29.891 34.1491 29.8864 34.1546 29.8818 34.161C29.8873 34.1601 29.8919 34.1583 29.8974 34.1573C29.8974 34.15 29.8974 34.1445 29.8974 34.139Z" fill="current"/>
<path d="M29.8956 34.1414C29.8975 34.1037 29.9039 34.1258 29.8956 34.1414V34.1414Z" fill="current"/>
<path d="M18.4219 42.1438C21.2419 41.8598 23.6976 40.8013 25.7986 38.8974C27.3577 37.4842 28.6202 35.8233 29.8819 34.1583C29.2531 34.303 28.6194 34.4478 27.9866 34.5966C27.9027 34.6159 27.814 34.6441 27.7455 34.6931C27.4222 34.9272 27.1046 35.1693 26.7861 35.4106C24.8892 36.8432 22.8261 37.954 20.5389 38.6344C19.1813 39.0382 17.8027 39.3414 16.4153 39.4629C16.6644 39.6736 16.9498 39.8619 17.1658 40.1096C17.5359 40.5359 17.4109 41.0539 16.8958 41.2896C16.6821 41.3877 16.4411 41.4416 16.2065 41.477C15.3567 41.6024 14.5135 41.5156 13.6541 41.3998C13.6976 41.4215 13.7387 41.4472 13.7838 41.4649C15.2777 42.0489 16.8095 42.3062 18.4219 42.1438Z" fill="current"/>
</svg>
