<svg width="48" height="48" viewBox="0 0 48 48" fill="none" xmlns="http://www.w3.org/2000/svg">
<path d="M24.0184 16.1508C25.5954 18.1007 27.2271 20.0911 28.8314 22.0976C29.4695 22.8905 29.9708 23.7481 30.1076 24.7433C30.217 25.52 30.0529 26.2401 29.4786 26.8712C28.0657 28.4327 26.6528 30.0023 25.2399 31.5639C25.2034 31.6043 25.1578 31.6367 25.0758 31.7014C24.7294 31.1917 24.3192 30.771 24.301 30.1075C24.2281 26.8793 24.0913 23.651 23.9728 20.4228C23.9728 20.3823 23.9546 20.3419 23.909 20.3014C23.8726 21.2804 23.8361 22.2594 23.8087 23.2384C23.7449 25.6576 23.7085 28.0848 23.6082 30.504C23.59 30.9166 23.2983 31.313 23.0977 31.8228C22.405 31.0703 21.8307 30.4311 21.2473 29.792C20.5271 29.0072 19.8253 28.2143 19.0869 27.4456C17.7013 26.0055 17.519 24.6624 18.5947 23.0038C19.096 22.2351 19.6885 21.515 20.2628 20.795C21.5299 19.2253 22.7969 17.6719 24.0184 16.1508Z" fill="black"/>
<path d="M30.7094 31.5559C30.5362 30.6174 30.3721 29.687 30.1989 28.7484C30.1078 28.2468 30.1898 27.818 30.5544 27.3892C31.074 26.7904 31.311 26.0704 31.3019 25.3098C31.3019 24.9781 31.4569 24.8001 31.7486 24.6302C33.0885 23.8535 34.6017 23.5298 36.1331 23.2386C37.7466 22.9311 39.36 22.6237 40.9917 22.3162C40.9917 22.2919 41.0099 22.3486 40.9917 22.389C40.4812 23.368 40.4083 24.4198 40.3992 25.4716C40.381 27.3487 40.3354 29.2177 39.9161 31.0624C39.6517 32.2598 39.2142 33.4087 38.2753 34.3473C37.1085 35.5124 35.5771 35.9655 33.8907 36.0545C32.7604 36.1111 31.6209 36.0625 30.4724 36.014C31.8944 34.768 33.6719 34.323 35.5771 34.1612C33.3894 33.8618 30.9646 34.2664 28.8407 36.1839C28.9136 36.0059 28.941 35.9169 28.9957 35.836C29.9346 34.3877 30.8826 32.9476 31.8124 31.4993C31.9947 31.2161 32.2317 31.1109 32.5963 31.0543C34.2006 30.8278 35.7867 30.5689 37.382 30.31C37.5552 30.2857 37.7192 30.2048 37.9015 30.1481C36.1331 30.2533 34.3921 30.3504 32.5234 30.4556C34.0001 28.7161 35.6135 27.2193 37.2452 25.7386C34.8478 27.4458 32.6236 29.3067 30.8826 31.5802C30.8279 31.5721 30.7732 31.564 30.7094 31.5559Z" fill="black"/>
<path d="M15.5777 30.4555C13.6635 30.3422 11.8677 30.2371 10.0719 30.1319C10.0628 30.1562 10.0537 30.1804 10.0446 30.2047C10.9653 30.3746 11.8768 30.5769 12.7975 30.7144C13.7728 30.8601 14.7482 30.941 15.7236 31.0623C15.8603 31.0785 16.0426 31.1351 16.1064 31.2241C17.1729 32.7857 18.2303 34.3472 19.2422 35.9654C17.2823 34.2582 14.8941 33.886 12.2961 34.1045C14.2651 34.2906 16.1611 34.6466 17.7472 35.9816C17.2914 36.0058 16.9359 36.0544 16.5895 36.0463C15.4866 36.022 14.3654 36.0867 13.2806 35.933C10.5459 35.5447 8.95984 34.064 8.31264 31.4992C7.89332 29.8082 7.75659 28.093 7.72013 26.3696C7.69278 24.9861 7.73836 23.5945 7 22.2514C7.72924 22.4213 8.39468 22.5912 9.06011 22.7207C10.7283 23.0524 12.4237 23.3194 14.0737 23.7078C14.8758 23.8938 15.6233 24.2903 16.3981 24.6058C16.6625 24.711 16.781 24.889 16.7719 25.1803C16.7445 26.0865 17.1182 26.8875 17.7108 27.6156C17.8201 27.7451 17.9204 27.9312 17.9022 28.0849C17.7654 29.2176 17.5923 30.3503 17.4191 31.5721C16.234 30.3746 15.1949 29.2419 14.0554 28.2063C12.916 27.1706 11.6672 26.2321 10.4183 25.3017C12.205 26.9279 13.9734 28.5542 15.5777 30.4555Z" fill="black"/>
<path d="M27.6287 6.13442C28.3123 6.90305 28.9595 7.71213 29.4609 8.57785C30.2813 9.97757 30.1445 11.3368 28.9504 12.5909C27.8383 13.7641 26.79 14.9858 25.687 16.2318C25.2222 15.6331 24.7481 15.0829 24.3653 14.4842C24.2194 14.2657 24.2833 13.934 24.2741 13.6508C24.1648 10.8918 24.0645 8.13286 23.9186 5.37388C23.8731 6.70887 23.8275 8.04386 23.7819 9.37075C23.7272 11.0375 23.6816 12.7042 23.6269 14.379C23.6269 14.468 23.6269 14.5813 23.5722 14.6541C23.1894 15.1719 22.7974 15.6816 22.3872 16.2237C21.8768 15.6654 21.3845 15.1395 20.8923 14.6055C20.2724 13.9259 19.689 13.2139 19.0418 12.5585C17.8842 11.3773 17.7474 10.0666 18.5131 8.73158C19.0509 7.80922 19.7528 6.95159 20.4638 6.11824C21.658 4.72661 22.9159 3.38353 24.1648 2L27.6287 6.13442Z" fill="black"/>
<path d="M30.91 23.2141C30.0167 21.4341 28.5856 20.0991 27.4279 18.5942C27.1544 18.2382 26.8901 17.8742 26.5984 17.5343C26.4161 17.324 26.4434 17.1703 26.6166 16.9761C27.8563 15.6006 29.096 14.2171 30.3084 12.8174C30.9738 12.0407 31.5755 11.2154 32.2135 10.4063C32.2318 10.4306 32.2956 10.5196 32.3594 10.6005C33.0978 11.5876 33.8179 12.5827 34.5745 13.5536C35.4404 14.6621 36.2426 15.8029 36.7622 17.0813C37.5553 19.015 36.9172 20.6736 35.5134 22.1785C35.4222 22.2756 35.2764 22.3484 35.1396 22.3808C34.0913 22.6316 33.0431 22.8662 32.0312 23.1008C32.168 22.4374 32.405 21.7092 32.4506 20.9649C32.5052 20.2124 32.8425 19.646 33.4168 19.1363C33.9273 18.6832 34.383 18.1816 34.8297 17.6638C34.1369 18.1412 33.435 18.6185 32.724 19.1121C32.5782 17.1136 32.4323 15.1475 32.2865 13.1896C32.2227 16.5473 32.4961 19.9373 30.91 23.2141Z" fill="black"/>
<path d="M15.9516 23.0524C15.0036 22.842 13.9735 22.6317 12.9526 22.3889C12.7885 22.3485 12.6244 22.2433 12.515 22.13C10.938 20.4067 10.4276 18.5377 11.5852 16.4664C11.959 15.7949 12.3509 15.1153 12.8158 14.4923C13.8459 13.1088 14.9398 11.7495 16.0063 10.3821C17.2916 12.7528 19.4793 14.5651 21.2204 16.6768C21.6579 17.2108 21.6853 17.2108 21.2477 17.7529C20.1538 19.1283 19.0235 20.4795 17.9388 21.863C17.6197 22.2676 17.3827 22.7207 17.091 23.1818C16.5714 22.3647 16.3435 21.4747 16.1612 20.5766C15.6963 18.3112 15.7419 16.0215 15.8422 13.7317C15.8513 13.5537 15.8422 13.3838 15.751 13.1978C15.587 15.1315 15.432 17.0571 15.2679 19.0393C14.5934 18.5539 13.9279 18.0846 13.2625 17.6153C13.2443 17.6315 13.226 17.6396 13.2078 17.6558C13.8459 18.3112 14.4931 18.9665 15.1038 19.6381C15.2588 19.808 15.3682 20.0507 15.4138 20.2691C15.6234 21.2158 15.7875 22.1705 15.9516 23.0524Z" fill="black"/>
<path d="M18.695 38.3198C20.7906 39.2696 22.5983 40.5291 24.0584 42.2195C25.5185 40.5291 27.3262 39.2696 29.4218 38.3198C29.4175 38.3141 29.4127 38.3079 29.4076 38.3014C29.3912 38.2802 29.3719 38.2555 29.358 38.2308C28.9021 38.4268 28.4463 38.625 27.983 38.8265L27.9825 38.8267C27.5473 39.0159 27.1054 39.208 26.6507 39.404C26.7227 39.2624 26.7904 39.124 26.8566 38.9887C27.0249 38.6446 27.1836 38.3201 27.3799 38.0123C27.5258 37.7858 27.7536 37.5673 28.0089 37.4541C29.2641 36.897 30.5987 36.9818 31.978 37.0694L32.0471 37.0738C31.8218 37.3229 31.6055 37.5641 31.3939 37.8L31.3937 37.8002C31.0831 38.1465 30.7828 38.4813 30.4792 38.8133C30.4448 38.8503 30.4103 38.8876 30.3758 38.9249C30.063 39.2631 29.7429 39.6093 29.3489 39.8571C29.0773 40.03 28.7598 40.1418 28.441 40.2541C28.2676 40.3152 28.0938 40.3764 27.9268 40.4477C27.8796 40.4669 27.829 40.4853 27.7776 40.5041C27.5907 40.5722 27.3928 40.6444 27.307 40.7713C26.5139 41.9283 25.7391 43.1015 24.9916 44.2827C24.7549 44.6599 24.5504 45.0551 24.338 45.4658C24.2473 45.6411 24.1551 45.8192 24.0584 46C23.9616 45.8192 23.8695 45.6411 23.7788 45.4658C23.5663 45.0551 23.3619 44.6599 23.1251 44.2827C22.3777 43.1015 21.6028 41.9283 20.8098 40.7713C20.724 40.6444 20.5261 40.5722 20.3391 40.5041C20.2877 40.4853 20.2371 40.4669 20.1899 40.4477C20.0229 40.3764 19.8491 40.3152 19.6757 40.2541C19.357 40.1418 19.0395 40.03 18.7679 39.8571C18.3738 39.6093 18.0537 39.2631 17.741 38.9249C17.7064 38.8876 17.672 38.8503 17.6376 38.8133C17.3339 38.4813 17.0335 38.1463 16.7229 37.8C16.5113 37.5641 16.295 37.3229 16.0697 37.0738L16.1388 37.0694C17.5181 36.9818 18.8527 36.897 20.1079 37.4541C20.3631 37.5673 20.591 37.7858 20.7369 38.0123C20.9331 38.3201 21.0918 38.6446 21.2602 38.9887C21.3264 39.124 21.3941 39.2624 21.4661 39.404C21.0114 39.208 20.5695 39.0159 20.1343 38.8267C19.6708 38.6252 19.2148 38.4269 18.7588 38.2308C18.7449 38.2555 18.7256 38.2802 18.7092 38.3014C18.7041 38.3079 18.6993 38.3141 18.695 38.3198Z" fill="black"/>
<path d="M24.1192 32.3488C25.2039 33.9427 26.1246 35.5365 26.0061 37.4298C25.9605 38.1742 25.6233 38.8052 25.0307 39.3312C24.7117 39.6143 24.42 39.9218 24.1283 40.205C23.7819 39.8813 23.4173 39.5334 23.0527 39.1855C22.3052 38.4573 22.0864 37.5916 22.1867 36.6369C22.3143 35.3909 23.1894 33.4329 24.1192 32.3488ZM24.1557 39.6224C24.1557 39.4525 24.1374 39.2745 24.1557 39.1046C24.2833 38.1337 23.8275 37.09 24.6205 36.1919C24.5841 36.1757 24.5567 36.1595 24.5203 36.1434C24.4109 36.2728 24.2924 36.3942 24.1374 36.5722C24.0918 35.8845 24.0554 35.2695 24.0189 34.6546C24.0098 34.6546 23.9916 34.6546 23.9825 34.6546C23.9825 35.2534 23.9825 35.844 23.9825 36.4589C23.8731 36.4185 23.5822 36.1093 23.5366 36.0931C24.1749 37.1746 23.9095 38.5463 24.1557 39.6224Z" fill="black"/>
<path d="M20.172 33.5381C20.491 33.9183 20.8101 34.3067 21.1382 34.687C21.3205 34.8973 21.3752 35.0915 21.275 35.3585C21.1382 35.7145 21.0653 36.0867 20.9377 36.5236C20.8101 36.3618 20.7189 36.2485 20.6369 36.1271C19.7709 34.9135 18.9049 33.6918 18.0481 32.4701C17.9569 32.3406 17.8749 32.1626 17.9113 32.0251C18.203 30.8924 18.1483 29.7516 18.0754 28.6108C18.0663 28.4489 18.0754 28.2871 18.0754 27.9958C19.5795 29.6787 21.0106 31.2807 22.4417 32.8665C22.1227 33.4491 21.8128 34.0154 21.4846 34.6303C21.0653 34.2339 20.6642 33.8536 20.2723 33.4733C20.2267 33.4895 20.1993 33.5138 20.172 33.5381Z" fill="black"/>
<path d="M27.2729 36.5398C27.1271 36.0058 26.9994 35.577 26.9174 35.1401C26.8901 35.0187 26.9903 34.8569 27.0724 34.7355C27.3641 34.3553 27.6831 33.9831 27.9201 33.5543C27.5464 33.9103 27.1726 34.2663 26.7807 34.6465C26.4434 34.064 26.1243 33.5057 25.8144 32.9474C25.778 32.8908 25.8326 32.7614 25.8873 32.6966C27.2364 31.1756 28.5855 29.6545 29.9438 28.1334C29.962 28.1172 29.9985 28.1172 29.9711 28.1253C29.9711 28.9668 29.962 29.8163 29.9802 30.6658C29.9893 30.9976 29.9893 31.3536 30.1078 31.661C30.3084 32.1545 30.1443 32.5186 29.8435 32.9232C28.9957 34.0963 28.1753 35.2695 27.2729 36.5398Z" fill="black"/>
</svg>
