<svg width="1em" height="1em" viewBox="0 0 48 48" fill="current" xmlns="http://www.w3.org/2000/svg">
    <g id="Group">
        <g id="Group_2">
            <path id="Vector" d="M16.2236 36.1382L16.5991 35.2173C17.9563 31.8886 19.4977 28.4894 23.5019 27.4048C23.4706 27.3061 23.4396 27.208 23.4087 27.1103C23.3789 27.0161 23.3492 26.9222 23.3195 26.8281L23.171 26.3584L23.6027 26.1213C25.3695 25.1508 27.4609 25.7107 28.5801 27.2918C29.2719 26.3439 30.1122 25.5776 31.0158 24.9064M16.2236 36.1382L38.0969 17.068C37.5065 19.2778 36.1549 20.9847 34.365 22.4202C33.6577 22.9875 32.9336 23.5112 32.1958 24.0448C31.8062 24.3266 31.4127 24.6112 31.0158 24.9064M16.2236 36.1382L17.2134 36.0409C17.3407 36.0284 17.4661 36.0161 17.5898 36.0039M16.2236 36.1382L17.5898 36.0039M31.0158 24.9064L31.3736 25.3881L31.0155 24.9067C31.0156 24.9066 31.0157 24.9065 31.0158 24.9064ZM17.5898 36.0039C17.2289 36.2608 16.8605 36.4429 16.4364 36.5215L15.9694 36.6079L15.9464 37.0823L15.9416 37.181L15.9367 37.2801L15.9126 37.7774L16.3969 37.8928C16.4881 37.9146 16.5793 37.9363 16.6704 37.9581C16.4119 38.0546 16.0803 38.1531 15.6448 38.2607L14.6965 38.4948L14.8201 38.0549C14.8529 37.9384 14.869 37.821 14.8789 37.7484C14.8797 37.7429 14.8804 37.7376 14.8811 37.7326C14.8822 37.7248 14.8832 37.7174 14.8842 37.7105C14.9857 37.6772 15.06 37.623 15.1062 37.581C15.1692 37.5239 15.2074 37.4656 15.2275 37.4314C15.2675 37.3636 15.2885 37.2999 15.2984 37.2678C15.3204 37.1963 15.3337 37.1217 15.3422 37.0662C15.36 36.9493 15.371 36.8138 15.3731 36.7111L15.3732 36.7098C15.3735 36.6921 15.3736 36.6742 15.3737 36.6562C15.3835 36.6572 15.3933 36.6583 15.4032 36.6594L15.9387 36.7186L16.055 36.1926C16.168 35.6812 16.0949 35.2355 15.9626 34.8405C15.9454 34.7892 15.9266 34.7373 15.9065 34.685C15.9478 34.6868 15.99 34.6887 16.0331 34.6906L16.5624 34.7144L16.6514 34.192L16.6888 33.9724C16.7906 33.3749 16.8957 32.7584 17.0161 32.048L17.3016 30.3625L16.0253 31.4998C15.8154 31.6869 15.6068 31.8688 15.401 32.0483C14.8643 32.5163 14.3469 32.9676 13.8752 33.4495C13.638 33.6915 13.5904 34.0164 13.5729 34.1844C13.5671 34.2404 13.5633 34.3014 13.5607 34.3619C13.5101 34.3487 13.4578 34.3377 13.4051 34.3298C13.3306 34.3187 13.2359 34.311 13.1339 34.3214C13.0378 34.3312 12.8846 34.3621 12.7406 34.4711L12.7374 34.4735C12.5313 34.6317 12.4432 34.8622 12.4056 34.9965C12.3816 35.0824 12.3634 35.1825 12.3592 35.2879L12.2187 35.2245L11.9299 35.4657C11.7679 35.6011 11.608 35.7349 11.44 35.8754C11.2676 36.0196 11.0867 36.1709 10.8866 36.3381L10.4961 36.6645L10.5167 36.6996C10.51 36.6979 10.5033 36.6961 10.4966 36.6944L9.28688 36.383L9.67865 37.2526L9.60007 37.2332L9.36424 37.5705C9.35267 37.5871 9.34178 37.6031 9.3334 37.6155L9.3327 37.6165C9.32347 37.6301 9.31695 37.6397 9.31061 37.6488L9.04084 38.0347C8.61805 37.8669 8.1987 37.5807 7.81882 37.1878C7.27356 36.6237 6.86285 35.8881 6.68992 35.1001C6.82941 35.1433 6.97746 35.1651 7.1328 35.1555C7.62744 35.125 7.97456 34.7975 8.19919 34.4141L8.1994 34.4137C8.89377 33.2266 9.52291 31.7629 8.66284 30.1126L8.66268 30.1123C8.16638 29.1613 7.95197 28.0223 7.93766 26.9178C7.93352 26.5984 7.94617 26.2858 7.9726 25.9857C8.00205 26.0632 8.0315 26.1407 8.06094 26.2182L8.23857 26.6858L8.73055 26.5952C8.75644 26.5904 8.78309 26.5858 8.81338 26.5806C8.8426 26.5755 8.87546 26.5698 8.90854 26.5637L9.37544 26.4777L9.39909 26.0035C9.52976 23.3845 10.1049 20.9413 11.2454 18.7049C11.2155 19.633 11.2718 20.5595 11.388 21.4834L12.5661 21.5511C12.8868 20.2399 13.4232 19.012 14.0244 17.7698C14.1817 17.4446 14.3447 17.1164 14.5091 16.7851C14.9643 15.8682 15.431 14.928 15.8232 13.965C16.5871 12.0901 17.1215 10.1506 17.1518 8.11901C17.1773 8.18557 17.2026 8.25288 17.2275 8.32087C17.6667 9.51749 17.9963 10.876 18.0744 11.9912L18.0745 11.9914C18.2368 14.3011 17.7323 16.5236 16.9385 18.7697L17.9701 19.3477C18.0857 19.2053 18.1888 19.0721 18.2868 18.9457C18.4811 18.6947 18.6549 18.4703 18.8644 18.2532L18.8647 18.2529C20.3079 16.756 21.7653 15.2706 23.2246 13.7855L17.5898 36.0039ZM26.8179 8.84819C25.905 10.7253 24.6516 12.3341 23.2248 13.7854L26.8179 8.84819ZM26.8179 8.84819C27.3481 7.75928 27.6853 6.84667 27.8658 5.78542C27.9484 5.30019 27.9971 4.78984 28.019 4.22433C30.1501 8.62582 29.4087 13.3452 25.8833 17.252C24.931 18.3072 23.9841 19.3667 23.0415 20.4305C22.8087 20.6931 22.6189 20.9812 22.4554 21.2424L23.3078 22.0525C26.6023 19.7501 29.5483 17.0044 30.7579 12.7973L30.758 12.7972C30.8106 12.6139 30.8605 12.5376 30.902 12.4938C30.944 12.4495 31.0236 12.3898 31.2201 12.3223C33.811 11.4333 35.4819 9.6394 36.5062 7.30983C36.5217 7.63223 36.5145 7.95084 36.4839 8.26974L36.4838 8.26995C36.0262 13.0433 33.4527 16.2339 29.2293 18.258C28.8502 18.4395 28.4551 18.5986 28.0419 18.7605C27.9774 18.7858 27.9123 18.8111 27.8468 18.8367C27.4983 18.9727 27.1369 19.1137 26.7827 19.2681L27.0883 20.4145C30.2134 20.0693 33.0601 18.9535 35.462 16.8266L35.4621 16.8266C36.9981 15.4658 38.0841 13.8569 38.7722 12.0482C38.742 13.7483 38.5354 15.4242 38.0969 17.0678L26.8179 8.84819ZM14.2593 33.9267C14.1627 34.0828 14.1588 34.3427 14.1553 34.5745C14.155 34.5941 14.1547 34.6134 14.1544 34.6324L14.2593 33.9267ZM14.2593 33.9267L14.182 33.7506L14.2593 33.9267ZM14.7517 33.4321L14.0281 33.3996L14.1819 33.7502L14.7517 33.4321ZM14.7517 33.4321C15.0556 33.1471 15.3746 32.8677 15.7094 32.5757M14.7517 33.4321L15.7094 32.5757M15.7094 32.5757C15.749 32.3426 15.79 32.1011 15.8329 31.8475L16.4245 31.9478L15.7094 32.5757ZM11.6825 32.7464L11.931 31.0296C11.9671 30.7798 11.9999 30.5351 12.032 30.295C12.1075 29.732 12.1795 29.194 12.2839 28.6737L12.2842 28.6722C12.3687 28.2567 12.6012 27.8785 12.8286 27.6076L12.8289 27.6072C13.3584 26.9773 13.9055 26.3582 14.4515 25.7405C14.6477 25.5185 14.8437 25.2968 15.0387 25.0747L16.3846 23.542L16.0829 25.5594C16.0738 25.6204 16.0642 25.6857 16.0543 25.7539C16.0304 25.9168 16.0042 26.096 15.9757 26.2722L11.6825 32.7464ZM11.6825 32.7464L12.9386 31.55M11.6825 32.7464L12.9386 31.55M12.9386 31.55C13.1172 31.38 13.29 31.193 13.4338 31.0376C13.4989 30.9671 13.5581 30.9031 13.6091 30.8501C13.7968 30.655 13.924 30.5507 14.0414 30.4949L14.0421 30.4946M12.9386 31.55L14.0421 30.4946M14.0421 30.4946C14.6254 30.2162 15.0281 29.8225 15.2937 29.3414C15.5514 28.8746 15.6628 28.3562 15.722 27.8512C15.7623 27.5082 15.8196 27.1806 15.8801 26.8351C15.9117 26.6541 15.9443 26.4681 15.9757 26.2725L14.0421 30.4946ZM28.9157 27.8566C28.7797 28.0554 28.6509 28.2622 28.53 28.4778C28.4444 28.2454 28.339 28.029 28.2167 27.8296L28.9157 27.8566ZM15.4874 39.3621C15.5062 39.373 15.5249 39.3838 15.5435 39.3946C15.3439 39.3916 15.1314 39.3695 14.9088 39.3264C14.5717 39.2611 14.2254 39.1497 13.8864 38.9945C13.9261 38.9586 13.964 38.9172 13.9989 38.8695C14.0907 38.7438 14.1349 38.61 14.1538 38.4861L14.496 38.5443L14.2033 38.6166L15.4874 39.3621ZM13.576 35.0013C13.573 35 13.57 34.9986 13.567 34.9973C13.4255 34.9343 13.196 34.8789 13.1027 34.9495C12.9966 35.031 12.9365 35.2689 12.9655 35.4166C12.9763 35.4711 12.9897 35.525 13.0052 35.5792L13.576 35.0013ZM27.5714 2.25246C27.6652 2.38769 27.7374 2.49186 27.8041 2.59969L27.4308 3.13876C27.4296 3.03999 27.4278 2.93925 27.4255 2.8364C27.4255 2.83567 27.4255 2.83493 27.4255 2.83419C27.4195 2.57063 27.4102 2.29327 27.3978 2C27.4637 2.09693 27.5207 2.17925 27.5714 2.25246Z" fill="current" stroke="current" stroke-width="1.2"/>
            <path id="Vector_2" d="M23.4531 44.956C23.0091 43.7789 22.7914 42.5422 22.8009 41.2388C22.818 38.8775 23.677 36.7877 25.1083 34.9599L25.1083 34.9599C26.0948 33.6999 27.161 32.5275 28.2443 31.3363C28.7878 30.7386 29.3356 30.1363 29.8798 29.5157C30.3136 29.0212 30.7399 28.5209 31.1628 28.0245L31.2212 27.956C31.6643 27.436 32.1042 26.9204 32.5517 26.4132C32.7414 26.1983 32.947 26.0235 33.1419 25.9277L33.1424 25.9275C36.4995 24.2729 38.9697 21.7509 40.1022 18.0309C40.4132 17.0093 40.6078 15.9796 40.7042 14.9424C41.333 17.1593 41.6221 19.37 41.2039 21.6227C40.694 24.3644 39.3428 26.6838 37.4781 28.7677C35.7228 30.7287 33.6687 32.3562 31.555 34.0038L31.555 34.0038C29.5857 35.5391 27.7373 37.2454 26.1996 39.2825L26.1995 39.2826C24.9103 40.9918 23.9161 42.8544 23.4531 44.956Z" fill="current" stroke="current" stroke-width="1.2"/>
            <path id="Vector_3" d="M20.9978 13.2995L20.9976 13.2999C20.6072 13.8316 20.1714 14.3123 19.7014 14.8068C19.7277 14.5529 19.744 14.2952 19.7416 14.0341L19.7415 14.0336C19.7311 12.9872 20.0063 12.1674 20.6755 11.3328L20.6756 11.3327C21.4505 10.3655 21.9811 9.27241 22.3169 8.10779C22.5537 8.98344 22.5396 9.88105 22.2487 10.7951C21.9643 11.6859 21.5372 12.5662 20.9978 13.2995Z" fill="current" stroke="current" stroke-width="1.2"/>
        </g>
    </g>
</svg>
