<svg width="1em" height="1em" viewBox="0 0 48 48" fill="current" xmlns="http://www.w3.org/2000/svg">
<path d="M34.4376 25.6398C34.2274 25.8514 34.1222 26.063 33.912 26.1688C33.912 24.7935 33.912 23.5239 33.5966 22.1486L33.4915 21.5139L32.7556 22.466C32.5454 22.7834 32.3351 22.995 32.1249 23.3123C30.6531 25.2166 30.3378 27.1209 30.9685 29.2368C31.2839 30.2947 31.389 31.2469 31.2839 32.3048C31.2839 32.4106 31.2839 32.5164 31.389 32.5164L31.4941 32.6222L31.9146 32.8338L32.0198 32.6222C32.4403 31.9874 32.9659 31.2469 33.3864 30.6121C34.4376 29.0252 35.594 27.3325 36.6452 25.7456C37.5914 24.2645 38.3272 22.6776 38.8529 20.8791C39.2733 19.398 39.6938 17.4937 38.958 15.5894C38.7477 14.9547 38.4324 14.1083 37.6965 13.4736L37.276 13.0504L37.1709 13.5794C37.1709 13.7909 37.0657 14.0025 37.0657 14.2141H37.3811L37.0657 14.3199C36.9606 14.8489 36.9606 15.272 36.8555 15.6952C36.435 17.5995 35.9094 19.8212 35.6991 22.0428C35.4889 23.5239 35.1735 24.6877 34.4376 25.6398Z" fill="current"/>
<path d="M27.0789 3.63476C27.3943 3.84635 27.3943 4.37531 27.3943 4.37531C27.3943 4.6927 27.2891 5.01008 27.2891 5.32746C27.184 5.85642 27.184 6.2796 27.0789 6.70277C27.0789 7.02015 27.0789 7.23174 27.0789 7.54912C27.0789 7.54912 27.0789 7.54912 27.0789 7.65491C27.184 7.54912 27.2891 7.44333 27.3943 7.33753C27.6045 6.91436 27.7096 6.38539 27.7096 5.85642C27.7096 5.64484 27.7096 5.32746 27.7096 5.01008C27.7096 4.79849 27.7096 4.6927 27.7096 4.48111V3.74055L28.2353 4.05793C28.4455 4.16373 28.6558 4.37531 28.866 4.48111C30.3378 5.43325 31.8095 6.2796 32.23 8.28967C32.5454 9.55919 32.1249 10.8287 31.9146 11.6751C31.5993 12.6272 31.2839 13.5793 30.8634 14.8489C30.8634 15.0605 30.7583 15.1662 30.7583 15.3778C30.7583 15.5894 30.7583 15.6952 30.6531 15.801C30.4429 16.6474 30.1275 17.2821 29.4968 18.0227L29.3916 18.1285C28.9711 18.5516 28.6558 18.9748 28.1301 19.398L27.6045 19.8212V19.1864C27.4994 17.8111 27.7096 16.6474 28.2353 15.4836C28.4455 14.9547 28.7609 14.4257 28.9711 13.8967C29.1814 13.4736 29.2865 13.1562 29.4968 12.733C30.0224 11.4635 30.1275 10.194 29.6019 8.92443L28.5506 10.5113C27.9199 11.4635 27.2891 12.5214 26.6584 13.4736C25.7123 14.9547 25.502 16.4358 25.9225 18.0227C26.4482 20.1385 25.7123 22.2544 24.0303 23.4181L23.82 23.6297L23.6098 23.4181C22.3483 21.7254 21.9278 19.927 22.3483 18.1285C22.6637 16.6474 22.3483 15.272 21.5073 14.1083C21.2971 13.7909 20.9817 13.4736 20.7714 13.1562C20.5612 12.8388 20.2458 12.5214 20.0356 12.204C19.7202 11.6751 19.2997 11.1461 18.8792 10.5113C18.4587 9.77078 18.1433 8.92443 18.0382 8.07809C17.7228 8.92443 17.6177 9.66499 17.7228 10.4055C17.8279 10.9345 18.0382 11.4635 18.4587 12.204L18.9843 12.9446C19.4048 13.6851 19.9304 14.4257 20.3509 15.1662C20.9817 16.33 20.9817 17.5995 20.1407 18.9748L19.9304 19.2922L19.7202 18.7632C19.6151 18.5516 19.5099 18.4458 19.5099 18.2343C19.4048 17.9169 19.1946 17.5995 18.9843 17.2821C18.3536 16.4358 17.8279 15.4836 17.1972 14.6373L16.5664 13.6851C15.6203 12.5214 15.1998 11.3577 15.1998 10.0882C15.1998 8.71285 15.6203 7.65491 16.5664 6.80856C17.1972 6.1738 17.8279 5.64484 18.5638 5.11587L18.6689 5.01008C18.8792 4.79849 19.1946 4.5869 19.4048 4.37531L19.7202 4.16373L19.9304 4.48111C20.3509 5.22166 20.5612 5.96222 20.5612 6.80856C20.5612 7.33753 20.7714 7.8665 21.0868 8.18388C21.0868 8.07809 21.0868 7.97229 21.0868 7.8665C21.1919 7.23174 21.2971 6.59698 21.2971 6.06801C21.2971 5.75063 21.0868 5.43325 20.9817 5.11587C20.8766 5.01008 20.8766 4.79849 20.7714 4.6927C20.7714 4.5869 20.6663 4.5869 20.6663 4.48111L20.3509 4.05793L20.6663 3.74055C21.6124 3.21159 22.5585 3 23.3995 3H23.82L23.7149 3.52897C23.7149 3.63476 23.7149 3.63476 23.7149 3.74055C23.5047 4.5869 23.5047 5.32746 23.6098 6.06801C23.82 7.02015 23.7149 8.07809 23.3995 9.34761C22.8739 11.0403 22.8739 12.6272 23.1893 14.0025C23.2944 14.4257 23.5047 14.7431 23.6098 15.1662C23.6098 15.272 23.7149 15.272 23.7149 15.3778C25.0815 13.7909 25.502 12.0982 24.9764 10.194V10.0882C24.661 9.03023 24.3457 7.8665 24.661 6.70277C24.9764 5.53904 24.8713 4.48111 24.4508 3.52897L24.3457 3.10579C24.2405 3 25.9225 3 27.0789 3.63476Z" fill="current"/>
<path d="M38.2221 25.4282C37.4862 27.9673 36.3299 29.9773 34.5427 31.67C34.2274 31.9874 33.912 32.4106 33.5966 32.728L33.8069 32.9395L33.5966 32.8338C33.4915 32.9395 33.3864 33.1511 33.1761 33.2569L32.1249 34.4207L33.8069 33.6801C34.0171 33.5743 34.2274 33.4685 34.4376 33.3627C36.1196 32.5164 38.0119 31.4584 39.2733 29.4484C40.64 27.3325 41.1656 25.3224 40.9553 23.2066C40.8502 22.3602 40.5348 21.6196 40.0092 20.8791L39.5887 20.3501L38.958 22.7834C38.7477 23.6297 38.5375 24.5819 38.2221 25.4282Z" fill="current"/>
<path d="M22.2431 42.2494C21.9277 41.932 21.5072 41.6146 21.1918 41.2972L21.0867 41.1914C20.6662 40.7682 20.1406 40.3451 19.7201 39.9219C17.4073 37.5944 14.7792 35.6902 12.046 34.2091C11.3101 33.7859 10.5742 33.3627 9.94349 32.9395L9.73324 32.8337C9.52299 32.7279 9.31274 32.5164 9.10249 32.3048C8.99737 32.199 8.89224 32.0932 8.78712 31.9874L8.15637 31.3526L8.36662 32.199C9.41787 37.7002 17.1971 44.1536 23.5046 44.7884L24.0302 44.8942L23.8199 44.3652C23.2943 43.5189 22.7687 42.8841 22.2431 42.2494Z" fill="current"/>
<path d="M24.9763 41.5088C25.3968 40.8741 25.8173 40.2393 26.2378 39.6046C26.448 39.2872 26.6583 38.9698 26.9736 38.6524C27.1839 38.335 27.3941 38.1234 27.6044 37.8061C29.3915 35.267 29.9171 32.6222 29.1812 29.8716C28.971 29.2368 28.8659 28.4962 28.8659 27.8615C28.7608 26.2746 29.2864 24.7935 30.4427 23.2066C31.9145 21.3023 33.2811 19.6096 34.6477 17.9169C36.0143 16.2242 36.54 14.4257 36.2246 12.3098C35.9092 10.6171 35.1733 9.24183 33.7016 8.28969L33.0709 7.86652L33.2811 9.34762C33.3862 9.7708 33.3862 10.194 33.4914 10.5114C33.7016 11.5693 33.8067 12.6272 33.5965 13.6852C33.176 15.6952 32.0196 17.4937 30.3376 19.1864C30.0222 19.5038 29.6017 19.8212 29.2864 20.2444C28.6556 20.7733 28.0249 21.4081 27.4993 22.0428C26.0275 23.6297 25.2916 25.4282 25.2916 27.2267C25.2916 28.0731 25.5019 29.0252 25.7121 29.8716L25.8173 30.4005C26.0275 31.4585 26.2378 32.6222 26.1326 33.8917C26.0275 34.8438 25.607 35.6902 25.0814 36.4307C24.5558 36.1134 24.2404 35.6902 23.925 34.9496C23.084 32.728 22.8738 30.6121 23.2943 28.4962C23.7148 26.1688 23.1892 24.2645 21.7174 22.7834C21.402 22.466 21.1918 22.2544 20.8764 21.937C19.9303 21.0907 18.9842 20.1386 18.2483 19.0806C18.1432 18.9748 18.0381 18.869 17.9329 18.7632H17.8278C17.0919 18.0227 16.2509 17.1763 15.6202 16.1184C15.1997 15.2721 14.5689 14.2141 14.4638 13.0504C14.3587 12.3098 14.4638 11.4635 14.4638 10.7229C14.4638 10.2998 14.4638 9.98239 14.4638 9.55921V8.92445L13.9382 9.34762C13.8331 9.34762 13.8331 9.45342 13.8331 9.45342C12.3613 10.8287 11.7306 12.6272 12.1511 14.8489C12.4665 16.4358 13.2023 17.8111 14.5689 19.398C15.0946 19.927 15.6202 20.4559 16.0407 20.9849L16.1458 21.0907C16.7766 21.7255 17.3022 22.2544 17.9329 22.8892C19.1944 24.2645 19.8252 25.534 19.8252 27.0151C19.8252 28.1789 19.72 29.3426 19.6149 30.5063L19.5098 31.2469C19.4047 32.3048 19.2995 33.2569 19.5098 34.3149C19.8252 36.0076 20.561 37.5945 21.9277 39.1814C22.6635 40.0277 23.3994 40.9799 23.8199 42.0378L24.0301 42.3552H24.4506L24.9763 41.5088Z" fill="current"/>
<path d="M39.6937 31.0353C38.4322 32.6222 36.8553 33.8917 35.1734 34.738C32.8606 36.0075 30.8632 37.7002 29.1813 39.8161L28.6556 40.4509C27.7095 41.7204 26.6583 42.9899 25.3968 43.9421L24.0302 45L25.607 44.5768C29.4966 43.6247 32.9657 41.5088 35.8041 38.5466C38.0117 36.2191 39.4835 33.7859 40.3245 31.141L40.5347 30.5063L39.904 30.7179C39.7988 30.8237 39.6937 30.9295 39.6937 31.0353Z" fill="current"/>
<path d="M11.3102 25.6398C12.0461 26.8035 12.8871 27.8614 13.623 29.0252C13.9383 29.5541 14.3588 29.9773 14.6742 30.5063L16.6716 33.3627L17.1972 33.1511V32.8337C17.1972 32.7279 17.1972 32.7279 17.1972 32.6221V31.67C17.1972 30.9295 17.1972 30.1889 17.1972 29.4483C17.1972 29.0252 17.3023 28.7078 17.3023 28.2846C17.3023 27.9672 17.4074 27.5441 17.4074 27.2267C17.5126 25.7456 16.7767 24.5818 16.0408 23.4181C15.9357 23.2065 15.8306 22.9949 15.7255 22.8892L15.0947 21.8312V26.9093C14.8845 26.8035 14.6742 26.6977 14.464 26.5919C13.8332 26.063 13.4127 25.4282 13.2025 24.5818C12.9922 23.8413 12.8871 22.9949 12.6768 22.1486C12.6768 21.3023 12.5717 20.6675 12.3615 20.0327C12.1512 18.7632 11.8358 17.4937 11.5205 16.2242C11.4153 15.6952 11.2051 15.1662 11.1 14.6373L10.9948 14.0025L10.5743 14.4257C9.31286 15.9068 8.68211 17.5995 8.99748 19.5038C9.20773 21.6196 9.9436 23.5239 11.3102 25.6398Z" fill="current"/>
<path d="M14.1485 34.2091C14.3587 34.3149 14.569 34.4207 14.7792 34.5265L16.1458 35.1612L15.41 34.1033C15.41 33.9975 15.3048 33.9975 15.3048 33.9975C15.0946 33.6801 14.7792 33.2569 14.569 32.9396C14.0433 32.199 13.4126 31.3527 12.887 30.6121C11.0999 28.3904 9.94349 26.2746 9.31274 23.9471C9.10249 23.3124 8.89224 22.6776 8.68199 22.1486C8.57687 21.8313 8.47174 21.6197 8.36662 21.3023L8.26149 21.0907H7.73587L7.63075 21.3023C7.63075 21.5139 7.52562 21.6197 7.4205 21.8313C7.31537 22.2544 7.21025 22.5718 7.10512 22.995C6.68463 25.9572 7.52562 28.602 9.62811 31.2469C10.9947 32.5164 12.5716 33.3627 14.1485 34.2091Z" fill="current"/>
</svg>
