<svg xmlns="http://www.w3.org/2000/svg" width="1em" height="1em" fill="current" viewBox="0 0 48 48"><path d="M5.945 38.368c-.906-2.099-1.14-4.292-.834-6.571.308-2.293 1.263-4.285 2.398-6.217-1.495.542-2.633 1.556-3.509 2.957.408-2.098 1.44-3.778 2.82-5.232 1.379-1.453 3.042-2.413 4.773-3.278-1.482-.44-2.894-.217-4.28.421 2.18-2.583 4.92-3.865 8.163-4.189-.137-.113-.185-.17-.244-.199-.262-.125-.52-.287-.795-.352-1.513-.354-3.031-.683-4.441-.997a.8.8 0 0 1 .191-.072 15.8 15.8 0 0 1 5.499-.46c2.202.206 4.32.74 6.17 2.161.972.746.994 1.4.124 2.27-.328.326-.61.71-.913 1.066l.089.106c1.353-.976 2.865-1.107 4.39-.853 1.358.227 2.694.62 4.037.96.56.142 1.108.338 1.663.509-.214-.342-.463-.6-.755-.77-1.19-.68-2.38-1.361-3.591-1.991-2.065-1.074-4.044-2.284-5.708-4.033a8 8 0 0 1-.405-.47c-.118-.146-.228-.299-.34-.448 2.026 1.27 4.054 2.44 6.32 3.014l.109-.124-1.485-1.972.108-.153 5.852 4.1c-.154-.217-.244-.38-.366-.508-.71-.745-1.366-1.571-2.153-2.205-1.918-1.543-3.896-2.997-5.853-4.483-2.29-1.738-4.208-3.835-5.414-6.631-.562-1.302-.918-2.902-.808-3.724 1.116 5.213 6.73 9.292 9.043 10.653-.55-1.698-.589-1.926-.41-2.612.436 1.385 1.25 2.425 2.185 3.348 1.076 1.064 2.207 2.061 3.293 3.112.681.66 1.325 1.367 1.985 2.054-.517-1.106-1.132-2.133-1.751-3.156-1.11-1.833-2.197-3.678-2.64-5.869-.234-1.157-.223-2.244.062-3.022.053.47.08.876.148 1.275.373 2.237 1.414 4.14 2.605 5.937 1.313 1.982 2.71 3.9 4.08 5.837.314.442.668.849 1.003 1.272-.667-1.673-1.142-3.35-.916-5.19.308 1.723 1.031 3.245 1.88 4.703a15 15 0 0 1 1.645 4.064c.294 1.223.934 2.242 1.788 3.09.356.354.774.828 1.26.566.329-.18.496-.713.725-1.07.455 1.266.293 2.597-.367 3.863-.7 1.342-1.76 2.146-3.299 2.43.264-.255.428-.4.578-.562 1.557-1.655 1.147-3.592-.886-4.376-.39-.151-.764-.51-1.018-.879-.285-.41-.422-.942-.624-1.42l-.061-.154-.24.252c-.263-.41-.506-.8-.758-1.178-.068-.103-.162-.253-.25-.258-.657-.039-.924-.556-1.231-1.079-.277-.47-.568-1.004-.98-1.29-1.103-.765-2.274-1.413-3.417-2.107l-.108.176c.304.295.593.61.915.878.313.26.656.48.993.702.793.523 1.279 1.208 1.204 2.3-.06.884.297 1.582.975 2.098.961.73 1.675 1.7 2.207 2.837.114.243.238.49.4.694.16.198.357.433.57.482.126.03.315-.272.507-.453.016.6.193 1.203-.322 1.647-.712.615-2.554.565-3.286-.09.134-.026.26-.036.378-.075.443-.147.84-.367.98-.903.147-.57-.006-1.096-.42-1.42-.393-.31-.864-.533-1.329-.69-.526-.18-1.102-.188-1.626-.37-1.314-.459-2.612-.966-4.066-.343.434-1.108 1.204-1.71 2.069-2.315-2.494-1.322-4.92-1.534-7.394-.163.916-1.298 2.266-1.88 3.652-2.672-1.204-.17-3.177.77-4.078 1.227-1.83.929-4.257 2.98-5.188 5.004-.78 1.693-1.416 3.886-.972 5.651.487 1.94 1.338 3.33 2.791 4.546.42.352.871.658 1.308.985-1.15-.206-2.231-.626-3.17-1.353-.938-.726-1.807-1.563-2.725-2.368.075 1.29.489 2.474 1.093 3.596 2.722 5.054 8.27 7.145 13.16 6.098 4.033-.863 6.934-3.489 8.94-7.348.374-.718.673-1.482 1.007-2.225-.828 6.115-3.925 10.351-9.176 12.437-5.665 2.251-11.105 1.246-16.103-2.36-3.17-2.287-5.408-5.398-6.338-9.51-.058-.258-.113-.514-.202-.92-.867 1.42-1.034 2.842-.89 4.353m17.536-26.101-.107.14c-2.969-1.358-5.962-2.667-8.527-4.867-1.383-1.186-2.552-2.588-3.34-4.318-.367-.806-.612-1.68-.914-2.523l.157-.077c1.104 2.6 2.84 4.597 4.996 6.16 1.341.973 2.75 1.836 4.104 2.791 1.228.868 2.422 1.794 3.631 2.694M8.55 7.703c.043.023.096.035.129.069 1.466 1.53 3.226 2.5 5.114 3.236.875.342 1.759.664 2.608 1.07.843.404 1.58 1.005 2.25 1.75-.835-.267-1.602-.616-2.4-.749-1.557-.259-2.94-.948-4.272-1.807-1.386-.896-2.58-2.024-3.43-3.569"/></svg>