<svg xmlns="http://www.w3.org/2000/svg" width="1em" height="1em" fill="current" viewBox="0 0 40 48"><path d="m21.505 42.996-.17-.318-.15.023q-.539 2.645-1.075 5.29l-.091.009-1.07-5.34-.327.196-.876-3.627-.14.007-.252.505c-.209-.606-.371-1.16-.59-1.691a20 20 0 0 0-.826-1.733c-.084-.158-.287-.253-.517-.316-.17-.452-.344-.903-.508-1.358-.378-1.045-1.351-1.56-2.097-2.276-.051-.05-.2-.041-.287-.013-.713.221-1.139.85-1.05 1.589.205 1.712.988 3.195 1.936 4.6.47.697 1.018 1.343 1.451 2.1-.973-.831-1.99-1.618-2.907-2.505-1.026-.99-1.969-2.064-2.932-3.117-.122-.134-.233-.379-.196-.538.38-1.61-.264-2.86-1.447-3.868-.504-.429-.686-.786-.463-1.432.275-.8.203-1.625-.057-2.446-.87-2.757-2.199-5.264-4.087-7.481-.7-.82-1.498-1.413-2.777-1.18C1.474 10.571 5.915 5.045 11.243.06l.124.067q-.149.284-.3.567C9.566 3.478 8.579 6.4 8.54 9.59c-.024 2.057.43 4.004 1.535 5.738 1.024 1.606 2.183 3.13 3.325 4.659.259.346.66.637 1.06.819.703.32 1.126-.049 1.013-.81-.015-.1-.036-.2.019-.342.138.166.287.323.412.498 1.686 2.362 2.77 5 3.572 7.752.248.852.37 1.757.408 2.645.096 2.209.11 4.422.271 6.635 0-.547-.006-1.094.001-1.642.022-1.624.067-3.25.068-4.874 0-1.011.13-1.985.445-2.955.863-2.659 1.858-5.254 3.48-7.573.125-.18.27-.344.487-.478-.012.09-.045.185-.03.27.052.29.03.713.208.831.218.145.64.11.922.01.296-.106.596-.334.783-.587 1.23-1.658 2.543-3.27 3.612-5.024 1.718-2.819 1.698-5.89.918-8.993A22.6 22.6 0 0 0 28.892.728c-.108-.196-.206-.399-.305-.6-.004-.008.015-.027.074-.128 5.32 5.054 9.73 10.61 11.339 17.974-.261.021-.416.044-.57.046-.61.01-1.138.22-1.55.66-2.402 2.57-4.102 5.517-4.82 8.953-.123.597.025 1.275.161 1.892.09.407-.01.616-.298.88a8.4 8.4 0 0 0-1.148 1.272c-.573.796-.742 1.699-.571 2.667.031.18.01.43-.096.563-1.634 2.048-3.454 3.912-5.614 5.435-.052.038-.113.062-.301.165.49-.625.904-1.126 1.288-1.648 1.072-1.46 1.887-3.035 2.15-4.844.07-.471.076-.923-.35-1.282-.666-.563-.8-.54-1.495-.028-1.074.792-1.794 1.784-2.035 3.094-.01.05-.017.121-.05.143-1.154.725-1.234 2.017-1.697 3.106-.079.186-.136.38-.232.652l-.218-.481-.147-.016zm-4.323-10.35c.007-1.052-.096-1.913-.914-2.57-1.028-.826-1.996-1.724-3.009-2.572-.318-.265-.692-.467-1.043-.694-.33-.214-.664-.424-.887-.565.878 1.287 1.792 2.648 2.737 3.987.129.183.4.316.632.37 1.04.248 1.992.58 2.299 1.753.018.063.071.115.185.29zm11.384-6.412a24.3 24.3 0 0 0-4.733 3.786c-.733.757-.898 1.57-.9 2.605.097-.155.174-.23.194-.319.22-.963.96-1.334 1.821-1.574.169-.046.35-.071.502-.148.162-.082.343-.186.44-.33.918-1.36 1.821-2.73 2.676-4.02"/></svg>