<svg width="48" height="48" viewBox="0 0 48 48" fill="none" xmlns="http://www.w3.org/2000/svg">
<path d="M41.4054 29.189C41.7046 28.8892 41.9041 28.6893 42.1036 28.3894C42.5026 27.7897 42.8018 27.1899 43.101 26.5902L43.4003 26.0904C43.4003 25.9905 43.4003 25.9905 43.5 25.8905C43.2008 25.9905 42.9016 25.9905 42.6023 25.8905C42.2033 25.7906 41.8044 25.4907 41.5051 25.0909C41.1062 24.5911 40.9067 23.9914 40.8069 23.2917C40.6074 22.2921 40.3082 21.3925 39.8095 20.393C39.0115 18.9936 38.7123 17.3943 38.9118 15.795C39.0115 14.8954 39.211 13.7959 40.1087 12.9962C40.009 12.9962 40.009 12.9962 39.9092 13.0962C39.61 13.1961 39.3108 13.3961 39.0115 13.496C38.9118 13.596 38.812 13.596 38.7123 13.6959C38.2136 13.9958 37.8146 13.8958 37.4156 13.3961C37.0166 13.2961 36.9169 12.9962 36.8171 12.6964C36.7174 12.4965 36.7174 12.3965 36.6177 12.1966C36.6177 12.5964 36.6177 12.8963 36.7174 13.2961C36.9169 14.2957 36.9169 15.0953 36.8171 15.8949C36.7174 16.2948 36.7174 16.5946 36.6177 16.8945C36.6177 17.0944 36.5179 17.1944 36.5179 17.3943V17.5942L36.1189 17.4942V17.2943C36.2187 16.4947 36.1189 15.695 36.0192 14.8954C36.0192 14.6955 36.0192 14.4956 35.9194 14.2957C35.8197 13.1961 35.72 12.1966 35.72 11.297C35.72 10.3974 35.9194 9.6977 36.2187 8.99801C36.3184 8.7981 36.4182 8.69814 36.5179 8.49823C36.3184 8.59819 36.1189 8.69814 35.9194 8.89805C35.8197 8.99801 35.72 9.09796 35.5205 9.19792C35.321 9.39783 35.2212 9.49779 35.0217 9.6977C34.3235 10.2974 33.8248 9.99756 33.5256 9.6977C33.2263 9.39783 33.0269 9.09796 32.8274 8.69814H32.7276C32.7276 9.09796 32.8274 9.49779 32.9271 9.79765C33.2263 10.8972 33.3261 12.0966 33.2263 13.2961C33.1266 14.1957 33.0269 14.9953 32.6279 15.795L32.1292 17.0944L32.2289 15.8949H32.0294C31.9297 15.8949 31.7302 15.8949 31.6304 15.8949C30.8325 15.8949 30.0345 16.1948 29.2366 16.5946C28.1394 17.2943 27.1419 18.1939 26.0447 19.5933L25.546 20.293H25.6458C26.0447 20.293 26.4437 20.193 26.8427 20.193C27.0422 20.193 27.3414 20.0931 27.5409 19.9931C27.8401 19.7932 28.2391 19.5933 28.5384 19.3934L28.8376 19.1935C29.9348 18.3938 31.032 18.094 32.1292 18.1939C32.4284 18.1939 32.7276 18.2939 33.0269 18.3938L33.5256 18.5937L34.0243 18.7937H33.9246C33.8248 18.7937 33.5256 18.7937 33.1266 18.7937C31.3312 18.6937 29.9348 18.9936 28.2391 20.393C28.3389 20.393 28.4386 20.393 28.5384 20.393C29.0371 20.393 29.6355 20.393 30.1343 20.393C30.9322 20.393 32.0294 20.4929 32.8274 21.2926C33.0269 21.4925 33.0661 21.5924 33.2656 21.7923L33.5256 22.0922L33.7251 22.2921L33.1266 22.0922L32.1292 21.7923C32.2289 22.2921 32.0294 22.7919 31.5307 22.9918C31.3312 23.0918 31.1317 23.1917 30.9322 23.1917C30.4335 23.1917 30.0345 23.1917 29.5358 23.1917C30.3338 23.4916 31.1317 23.8914 31.8299 24.3912C32.2289 24.691 32.6279 24.791 33.1266 24.891C34.4233 25.0909 35.4207 25.4907 36.2187 25.9905C37.3159 26.5902 38.3133 27.3898 38.5128 28.7892C38.6125 28.6893 38.6125 28.6893 38.7123 28.5893C38.812 28.3894 38.812 28.2894 38.812 28.0895C38.812 27.9896 38.812 27.8896 38.9118 27.8896L39.0115 27.5898L39.211 27.7897C39.7097 28.1895 39.9092 28.6893 39.8095 29.389C40.1087 29.189 40.3082 28.8892 40.3082 28.4894L40.4079 28.0895L40.7072 28.3894C41.1062 28.7892 41.2059 29.289 41.1062 29.5889C41.3056 29.389 41.4054 29.289 41.4054 29.189ZM39.7097 24.1913C39.3108 23.7914 38.812 23.5915 38.2136 23.4916C37.8146 23.3916 37.5154 23.1917 37.3159 22.7919C36.9169 22.1922 36.7174 21.4925 36.6177 20.4929V19.9931L37.4156 20.6928C37.8146 20.9927 38.2136 21.3925 38.5128 21.6924C39.0115 22.0922 39.4105 22.592 39.7097 23.1917C39.8095 23.3916 39.9092 23.6915 39.9092 23.9914L40.009 24.691L39.7097 24.1913Z" fill="black"/>
<path d="M24.748 20.0931C25.0473 19.6933 25.3465 19.3934 25.6457 18.9936C25.8452 18.6937 26.0447 18.4938 26.2442 18.1939C27.1419 17.0944 28.0396 16.2948 29.1368 15.695C30.1342 15.1953 31.0319 15.0953 32.0294 15.0953H32.3286C32.4284 13.6959 32.1291 12.0966 31.8299 10.4973C31.4309 8.49822 31.6304 6.79898 32.2289 5.19969C32.0294 5.3996 31.8299 5.59951 31.5307 5.89938L31.3312 6.09929C31.0319 6.39916 30.8325 6.79898 30.5332 7.09885C30.1342 7.49867 29.6355 7.59862 29.1368 7.29876C28.7378 7.09885 28.4386 6.79898 28.1394 6.49911C28.1394 6.49911 28.1394 6.49911 28.0396 6.39916C28.1394 6.69902 28.2391 6.99889 28.4386 7.29876C29.3363 9.09796 29.436 11.0971 28.7378 13.496L28.6381 14.6955L28.5383 13.596C28.5383 13.496 28.5383 13.496 28.5383 13.396C28.4386 11.7968 28.1394 10.1975 27.6406 8.69814C27.0422 6.99889 26.4437 5.79942 25.546 4.79987C25.4463 4.69991 25.3465 4.59996 25.2468 4.5C25.4463 5.09973 25.4463 5.69947 25.147 6.19925C24.8478 6.79898 24.3491 7.09885 23.7506 7.1988C24.748 8.19836 25.147 9.49778 24.9475 10.9971C24.8478 11.4969 24.748 11.8967 24.6483 12.2965C24.6483 12.4964 24.5486 12.6964 24.5486 12.8963L24.4488 13.2961L24.1496 12.8963C24.0498 12.7963 24.0498 12.5964 24.0498 12.5964C23.7506 10.6972 23.1521 9.09796 22.2544 7.59862C21.4565 6.19925 20.3593 5.19969 19.1624 4.5C19.2621 4.59996 19.2621 4.69991 19.3618 4.79987C20.6585 7.1988 20.6585 9.59774 19.4616 11.9967V12.0966C20.2595 13.596 20.5588 15.1953 20.7583 16.7945C20.9578 18.1939 21.1572 19.6933 21.257 20.9927C21.257 21.1926 21.3567 21.3925 21.4565 21.5924H21.5562C21.7557 21.3925 21.9552 21.2925 22.1547 21.1926C22.3542 21.0926 22.4539 20.8927 22.5537 20.6928C22.7532 20.293 22.9526 19.7932 23.2519 19.1935C23.3516 18.7937 23.5511 18.4938 23.6509 18.094C23.8503 17.4942 24.0498 16.9945 24.3491 16.3947C24.8478 15.2952 25.2468 14.6955 26.1445 14.0957C26.5434 13.7959 27.0422 13.596 27.6406 13.496L28.4386 13.396C28.3388 13.496 27.6596 13.8934 27.5 14C27.2008 14.1999 26.9323 14.2782 26.6432 14.4956C25.8452 15.0953 25.3465 15.9949 24.8478 17.2943C24.6483 17.8941 24.4488 18.4938 24.2493 19.0935C24.1496 19.3934 24.0498 19.7932 23.9501 20.0931C23.9501 20.193 23.8503 20.3929 23.8503 20.4929C24.0498 20.3929 24.3491 20.293 24.5486 20.193C24.4488 20.293 24.6483 20.193 24.748 20.0931Z" fill="black"/>
<path d="M33.9245 30.6884L33.725 28.9891C33.5255 29.3889 33.4258 29.7888 33.2263 30.0886C32.5281 31.588 31.6304 32.6875 30.5332 33.4871C30.4335 33.5871 30.234 33.787 30.234 33.8869C29.1368 35.4862 28.0396 36.9856 26.6432 38.3849C24.4488 40.584 21.8554 41.8834 18.9629 42.1832C18.7634 42.1832 18.4641 42.1832 18.2646 42.2832C22.0549 43.5826 25.6457 43.8825 29.2365 42.9829C32.1291 42.2832 34.4232 40.7839 36.1189 38.5848C36.2186 38.4849 36.2186 38.3849 36.1189 38.285C34.922 36.086 34.124 33.5871 33.9245 30.6884Z" fill="black"/>
<path d="M9.1881 18.1939C9.78657 18.3939 10.385 18.5938 11.0832 18.7937C11.2827 18.8936 11.582 18.9936 11.7815 18.9936C14.1753 19.7932 15.9707 21.1926 17.1677 23.1917C17.3671 23.5915 17.5666 23.9914 17.8659 24.2912C18.1651 24.791 18.4643 25.3907 18.7636 25.8905C18.8633 25.9905 18.8633 26.0904 18.9631 26.0904C19.0628 25.5907 19.1625 25.1908 19.362 24.6911C18.7636 23.8914 18.4643 22.8919 18.1651 21.8923L17.9656 21.5924C17.5666 20.293 17.1677 18.8936 16.5692 17.6942C15.5717 15.5951 14.3748 13.9958 12.8786 12.8963C11.6817 11.8967 10.5845 11.4969 9.28784 11.6968C8.88887 11.6968 8.48989 11.7968 8.09091 11.8967C8.78912 12.0967 9.38759 12.3965 9.78657 12.7963C10.2853 13.2961 10.5845 13.7959 10.5845 14.3956C10.5845 14.9954 10.2853 15.4951 9.78657 15.895C9.38759 16.1948 8.88887 16.3947 8.39014 16.5947L8.19066 16.6946C7.89142 16.7946 7.69193 16.8945 7.3927 16.8945L7.49244 16.9945C7.99117 17.4943 8.58963 17.8941 9.1881 18.1939Z" fill="black"/>
<path d="M20.858 31.8879C20.6585 31.688 20.5588 31.688 20.3593 31.688C18.4641 31.688 16.569 31.3881 14.8733 30.7884H14.7736C13.4769 30.3885 12.0805 29.8888 10.6841 29.6888C10.6841 29.7888 10.6841 29.8888 10.6841 29.8888C10.5843 30.1886 10.5843 30.4885 10.4846 30.7884C10.0856 31.8879 9.28763 32.5876 8.0907 32.5876C7.49223 32.5876 6.89377 32.4876 6.19556 32.2877C6.89377 32.9874 7.89121 33.5871 8.9884 33.9869C11.083 34.6866 13.2774 34.7866 15.1726 34.8865C17.8657 34.9865 20.2595 34.6866 22.6534 33.887C22.8529 33.787 23.0524 33.6871 23.3516 33.6871C23.3516 33.6871 23.2519 33.6871 23.2519 33.5871C22.2544 33.0873 21.4565 32.5876 20.858 31.8879Z" fill="black"/>
<path d="M8.48982 21.2926C7.39263 21.8923 6.39519 21.9922 5.49749 21.8923C5.39774 21.8923 5.298 21.7923 5.09851 21.7923C5.69698 22.492 6.59468 22.9918 7.79161 23.2917C9.7865 23.7914 11.7814 24.691 13.5768 25.8905C14.7737 26.6902 15.9707 27.3898 17.2673 28.1895C17.7661 28.4894 18.2648 28.6893 18.7635 28.9891C18.8632 29.0891 19.0627 29.0891 19.1625 29.189V29.0891C19.0627 28.4894 18.963 27.8896 18.963 27.3898C18.963 27.3898 18.963 27.2899 18.8632 27.2899V27.1899C18.7635 26.99 18.6638 26.8901 18.564 26.6902C18.3645 26.3903 18.0653 25.9905 17.8658 25.6906C17.6663 25.3907 17.5666 25.0909 17.3671 24.891C17.1676 24.5911 17.0678 24.2912 16.8684 23.9914C15.7712 22.2921 14.4745 21.0926 12.9783 20.293C11.8811 19.5933 10.9834 19.6933 10.0857 20.293C9.58701 20.6928 8.98854 20.9927 8.48982 21.2926Z" fill="black"/>
<path d="M15.2724 13.9958C16.4693 15.5951 17.367 17.3943 18.0652 19.5933L18.2647 20.1931C18.5639 21.0927 18.8632 22.0922 19.1624 23.0918C19.2622 23.3917 19.3619 23.6915 19.5614 23.9914C19.5614 23.9914 19.5614 24.0913 19.6611 24.0913L19.7609 23.8914C20.0601 23.3917 20.3593 22.9918 20.6586 22.592V22.4921C20.6586 22.2921 20.5588 22.0922 20.5588 21.8923C20.4591 21.5925 20.4591 21.2926 20.4591 20.9927C20.3593 20.293 20.3593 19.6933 20.2596 18.9936C20.1599 17.9941 20.0601 17.0945 19.9604 16.0949C19.6611 13.496 18.8632 11.397 17.6662 9.49782C16.3696 7.79858 14.8734 6.69907 13.078 6.3992C14.0754 7.19885 14.7737 8.29836 15.1726 9.59778C15.5716 10.6973 15.8708 12.2966 15.2724 13.9958Z" fill="black"/>
<path d="M11.3823 37.7852C10.9834 37.8852 10.4846 37.8852 9.98592 37.8852C9.78643 37.8852 9.58694 37.8852 9.38745 37.7852C10.1854 38.285 11.0831 38.5849 12.1803 38.7848C13.7762 38.9847 15.5716 38.9847 17.4668 38.5849C20.7583 37.9851 23.5512 36.8856 25.945 35.1864C26.2443 34.9865 26.4438 34.7866 26.743 34.5866C26.6432 34.5866 26.6432 34.5866 26.5435 34.5866C26.0448 34.4867 25.5461 34.4867 25.1471 34.3867C24.3491 34.1868 23.8504 34.1868 23.3517 34.4867H23.2519C20.6586 35.3863 17.8657 35.7861 15.1726 35.6862C14.6739 35.6862 14.0754 35.6862 13.5767 35.5862H12.9783C12.9783 35.7861 12.9783 35.8861 12.9783 36.086C12.8785 36.8856 12.28 37.5853 11.3823 37.7852Z" fill="black"/>
<path d="M19.3619 29.7888C19.1624 29.6888 18.9629 29.5889 18.6637 29.4889C18.4642 29.4889 18.3645 29.389 18.165 29.389C16.5691 28.7892 15.1727 27.7897 13.876 26.99C12.679 26.1904 11.2826 25.2908 9.78646 24.791C9.48722 24.6911 9.48722 24.6911 9.18799 24.9909L9.08824 25.0909C8.88875 25.3907 8.68927 25.5907 8.39003 25.8905C7.1931 27.1899 5.99617 27.6897 4.5 27.5898C5.29796 28.2895 6.19566 28.6893 7.29284 28.7892C7.79157 28.8892 8.29029 28.8892 8.88876 28.8892C9.48722 28.8892 9.98594 28.9891 10.5844 28.9891C11.8811 29.0891 13.1778 29.4889 14.3747 29.9887C15.6714 30.4885 17.1675 30.8883 18.6637 30.8883C19.0627 30.8883 19.4617 30.8883 19.8606 30.8883C19.9604 30.8883 19.9604 30.8883 20.0601 30.8883L19.9604 30.7884C19.8606 30.6884 19.8606 30.5884 19.7609 30.3885C19.6612 30.1886 19.5614 29.9887 19.3619 29.7888Z" fill="black"/>
<path d="M29.8351 34.0869H29.4362L29.7354 33.687L30.0346 33.3872V33.9869L29.8351 34.0869Z" fill="white"/>
<path d="M18.3645 41.5836C21.1574 41.2837 23.5512 40.2841 25.6459 38.385C27.0423 37.0856 28.2392 35.5862 29.3364 34.0869C28.8377 34.1868 28.4387 34.2868 27.94 34.3868C27.8403 34.3868 27.8403 34.3868 27.7405 34.4867C27.4413 34.6866 27.142 34.8865 26.9426 35.0864L26.8428 35.1864C24.8479 36.6857 22.7533 37.7852 20.5589 38.4849C19.2622 38.8848 18.0653 39.1846 16.8684 39.2846C16.9681 39.3845 17.1676 39.4845 17.2673 39.6844C17.4668 39.9843 17.5666 40.1842 17.4668 40.484C17.3671 40.7839 17.1676 40.9838 16.8684 41.1837C16.6689 41.2837 16.4694 41.3836 16.1702 41.3836C15.8709 41.3836 15.5717 41.4836 15.2725 41.4836C16.2699 41.6835 17.3671 41.6835 18.3645 41.5836Z" fill="black"/>
</svg>
