<svg xmlns="http://www.w3.org/2000/svg" width="1em" height="1em" fill="current" viewBox="0 0 48 48"><path d="m6.221 11.659-.171.03c.08 1.314.092 2.634.257 3.938.337 2.664 1.332 5.166 2.548 7.595 1.104 2.206.805 4.394-.032 6.577-.235.614-.761.833-1.448.636-.484-.139-.935-.37-1.375-.55.377 1.437 3.11 5.177 4.466 5.895l-.34-.982 1.995 1.751.103-.08-.32-.917c.761.51 1.507.918 2.458 1.038-.03-.222-.05-.389-.074-.557-.197-1.367-.045-2.701.536-3.98.471-1.033 1.068-1.897 2.401-2.308 1.682-.518 2.856-1.66 3.593-3.123.423-.841.721-1.723.509-2.665-.286-1.268-.351-2.553.015-3.792a66 66 0 0 1 1.84-5.332c1.498-3.839 2.155-7.766 1.704-11.824-.087-.782-.255-1.557-.386-2.335l-.13.014c.104 1.61-.037 3.2-.483 4.76-1.165 4.07-3.303 7.725-5.93 11.166-.963 1.26-1.874 2.536-2.1 4.16-.077-.1-.125-.146-.148-.199-.117-.275-.24-.55-.341-.83-.953-2.627-1.138-5.333-.9-8.063.31-3.555 1.324-6.97 2.706-10.303L17.745 0a.36.36 0 0 0-.221.141c-2.323 3.128-4.254 6.428-5.48 10.041-.852 2.511-1.442 5.055-1.274 7.7.05.782.146 1.563.233 2.472-2.232-2.7-3.888-5.524-4.782-8.695M44 2.838c-.153.06-.31.11-.456.183-1.522.76-3.085 1.464-4.555 2.3C34.74 7.74 30.939 10.62 27.9 14.26c-1.557 1.864-2.855 3.85-3.472 6.144-.2.743-.35 1.496.06 2.233.038.07.046.192.003.253-.627.913-1.25 1.827-2.31 2.411-.184.102-.363.319-.407.507-.633 2.676-2.108 4.77-4.978 5.92-.088.035-.166.087-.286.15 1.469.271 1.82.56 1.884 1.764.071 1.35-.35 2.622-1.104 3.778-.508.778-1.297.758-2.002-.052 0 .368-.062.668.013.94.18.658.348 1.333.655 1.947 1.16 2.313 2.99 4.165 5.132 5.775.93.699 1.935 1.317 2.905 1.971l.12-.118c-.105-.153-.219-.301-.315-.458-.66-1.07-1.443-2.096-1.95-3.223-1.422-3.163-1.563-6.33.49-9.352 1.004-1.478 1.724-3.04 2.1-4.73.245-1.104.765-2.093 1.467-3.006 2.452-3.19 5.794-5.413 9.605-7.122q.227-.101.456-.198l-.06-.136c-.942.244-1.888.472-2.82.736-.966.274-1.16.174-1.304-.752-.015-.092-.015-.186-.017-.28-.04-1.332.367-2.581.932-3.791 1.305-2.797 3.262-5.214 5.45-7.493 1.797-1.873 3.774-3.583 5.852-5.24M31.104 30.7c.809-2.957 3.3-4.314 6.144-5.488-3.534-.078-6.576.67-8.868 3.128 1.213-.817 2.548-1.416 4.117-1.87-.137.143-.172.198-.224.231-1.747 1.142-3.05 2.64-4.264 4.22-.715.931-1.46 1.846-2.26 2.719-1.024 1.12-2 2.261-2.634 3.607-1.102 2.34-1.118 4.746-.434 7.17.232.824.6 1.615.907 2.42l.173-.05c-.013-.074-.018-.15-.04-.22a8.76 8.76 0 0 1-.266-4.201c.291-1.636.993-3.1 2.363-4.254.526-.444 1.114-.796 1.91-.919-.231.968-.007 1.802.539 2.655.332-1.12.841-2.067 1.782-2.788 1.003-.767 2.117-.938 3.367-.444l.068-.158-1.426-1.527c.79-.744 1.837-.978 2.985-1-1.088-.607-2.228-.891-3.549-.678.553-1.21 1.617-1.92 2.659-2.649l-.067-.117zm4.913-10.695a22.8 22.8 0 0 0-7.067 7.134c1.028-.754 2.093-1.416 3.421-1.656.113-.02.2-.223.27-.354.505-.947.934-1.935 1.522-2.838.528-.81 1.23-1.528 1.854-2.286"/></svg>