<svg xmlns="http://www.w3.org/2000/svg" width="1em" height="1em" fill="current" viewBox="0 0 48 48"><path stroke="current" stroke-width="1.2" d="m14.495 38.544-.292.072 1.284.746.052.03a3.6 3.6 0 0 1-.63-.066 4.6 4.6 0 0 1-1.022-.335 1 1 0 0 0 .112-.122.86.86 0 0 0 .153-.384zM28.017 4.223c2.059 4.25 1.44 8.798-1.78 12.624l-.354.405q-.713.79-1.424 1.586l-1.418 1.593c-.233.262-.423.55-.586.811l.853.81c3.191-2.23 6.056-4.876 7.332-8.864l.118-.391c.052-.183.103-.259.144-.303a.6.6 0 0 1 .192-.123l.126-.049c2.59-.888 4.258-2.683 5.283-5.011q.016.288.007.574l-.027.385c-.443 4.624-2.872 7.763-6.863 9.795l-.39.193c-.38.181-.775.34-1.188.503-.408.16-.839.324-1.26.508l.306 1.145c2.93-.324 5.615-1.324 7.919-3.2l.455-.388a12 12 0 0 0 3.308-4.78c-.03 1.701-.235 3.378-.673 5.021-.554 2.072-1.776 3.702-3.402 5.08l-.33.273c-.54.433-1.09.842-1.65 1.248l-1.7 1.238c-.903.672-1.743 1.439-2.435 2.387-1.119-1.582-3.21-2.142-4.977-1.172l-.432.237.148.47.183.578c-3.74 1.014-5.332 4.046-6.632 7.154l-.271.657-.375.922.99-.098.374-.037c-.36.256-.728.44-1.152.518l-.466.086-.024.474-.005.099-.005.1-.024.496.484.116.27.064a9 9 0 0 1-1.021.304l-.95.233.125-.44c.035-.125.051-.251.06-.322l.005-.023a.62.62 0 0 0 .342-.277.8.8 0 0 0 .072-.164c.022-.072.034-.146.043-.202a3 3 0 0 0 .021-.182l.01-.173v-.056l.03.004.535.06.117-.527c.113-.51.04-.956-.092-1.351-.017-.052-.04-.104-.06-.156l.13.005.53.025.088-.523.365-2.144.286-1.686-1.277 1.138c-.663.59-1.313 1.13-1.902 1.702l-.248.247c-.237.242-.284.568-.302.736q-.008.085-.01.177a2 2 0 0 0-.158-.032 1 1 0 0 0-.271-.009.8.8 0 0 0-.284.082l-.11.068-.003.003a1 1 0 0 0-.332.522c-.024.086-.04.187-.045.292l-.141-.063-.29.24-1.042.873-.39.326.02.035-.02-.005-1.21-.311.392.869-.08-.019-.235.337-.031.046-.022.032-.27.384a3.55 3.55 0 0 1-1.223-.844 4.4 4.4 0 0 1-1.128-2.09c.14.043.287.067.443.057.433-.026.753-.28.976-.6l.09-.14c.651-1.114 1.245-2.47.608-3.995l-.144-.308c-.496-.95-.711-2.09-.726-3.194q-.005-.479.037-.928l.087.228.177.468.492-.091.083-.015.095-.016.467-.087.024-.473c.131-2.618.707-5.06 1.847-7.296-.03.927.026 1.853.142 2.775l1.178.068c.321-1.311.857-2.54 1.458-3.781.52-1.072 1.099-2.178 1.593-3.316l.206-.49c.764-1.874 1.296-3.814 1.326-5.846q.04.1.078.203c.385 1.047.685 2.218.806 3.242l.041.428c.163 2.31-.342 4.532-1.136 6.779l1.032.578c.259-.32.456-.592.67-.846l.224-.25h.001q1.083-1.12 2.174-2.237l2.186-2.23c1.426-1.451 2.68-3.06 3.593-4.936v-.001c.53-1.09.868-2.002 1.048-3.063.083-.485.129-.996.15-1.562ZM15.039 25.075c-.553.63-1.115 1.258-1.665 1.894l-.545.638a2.6 2.6 0 0 0-.507.912l-.038.153v.002c-.149.742-.232 1.52-.353 2.355l-.248 1.717 1.255-1.196c.26-.247.508-.53.671-.7.141-.146.248-.241.342-.303l.09-.052h.001c.583-.28.986-.672 1.252-1.153.193-.35.304-.73.372-1.11l.056-.38c.061-.523.162-1.01.254-1.58.04-.25.076-.505.107-.712l.302-2.018z"/><path stroke="current" stroke-width="1.2" d="M40.703 14.941c.585 2.063.878 4.12.579 6.21l-.078.472c-.479 2.57-1.696 4.77-3.382 6.751l-.344.394c-1.316 1.47-2.8 2.754-4.352 3.999l-1.57 1.237c-1.847 1.44-3.587 3.029-5.064 4.9l-.292.378c-1.29 1.71-2.282 3.573-2.745 5.674a10.2 10.2 0 0 1-.65-3.352l-.004-.366c.016-2.213.772-4.188 2.046-5.932l.262-.346c1.296-1.656 2.73-3.16 4.16-4.755l.611-.69c.454-.517.9-1.04 1.341-1.559l.664-.776.667-.767c.142-.161.294-.3.443-.4l.147-.085c3.252-1.603 5.673-4.02 6.85-7.552l.11-.345a15.5 15.5 0 0 0 .6-3.09ZM22.315 8.108a4.64 4.64 0 0 1 .013 2.409l-.08.278a9 9 0 0 1-1.053 2.223l-.197.281v.001c-.391.532-.828 1.012-1.299 1.507q.024-.216.036-.436l.006-.337c-.009-.916.2-1.658.702-2.388l.232-.313h.001c.775-.968 1.303-2.061 1.639-3.225Z"/></svg>