<svg width="35" height="48" viewBox="0 0 35 48" fill="none" xmlns="http://www.w3.org/2000/svg"><path d="M22.139 0c3.304.9 6.22 2.36 7.971 5.444.754 1.34 1.242 2.766 1.398 4.292.01.11.022.23.077.307.444.626 1.907 1.131 2.794.923-.599.867-1.353 1.36-2.284 1.558-.344.077-.532.187-.51.549 0 .088-.022.176-.044.274-.222 1.34-.222 1.34 1.009 1.987.765.406 1.552.68 2.45.34-.499 1.416-2.151 1.998-4.357 1.559-.2.395-.4.79-.621 1.251 1.053.79 2.04 1.68 3.625 1.58-1.064.901-2.184 1.197-3.426 1.066a7.994 7.994 0 0 1-.543-.088c-1.086-.209-1.086-.209-1.663.67.665.548 1.375 1.042 1.974 1.646.765.78.665 1.141-.256 1.701-.265.165-.432.176-.698-.077-.266-.252-.665-.373-1.02-.526-.2-.088-.421-.121-.643-.165-1.608-.34-1.896-.253-3.104.889.62.472 1.286.9 1.851 1.438.488.46.876 1.032 1.264 1.58.388.55.333 1.098-.133 1.592-.277.286-.554.582-.887.933-.144-.746-.588-1.13-1.13-1.427-1.82-.966-3.737-1.383-5.755-.79-.577.165-1.076.582-1.674.922.754.406 1.408.67 1.962 1.065.665.483 1.297 1.02 1.84 1.635.655.736.6.966-.066 1.778-.732-1.196-1.818-1.712-3.193-1.57-1.031.11-2.018.945-2.517 2.13.876-.439 1.73-.516 2.595-.209.876.319 1.463.955 1.862 1.823-.388-.066-.731-.143-1.075-.176-1.563-.11-2.827.691-3.348 2.162-.522 1.46-.566 2.975-.455 4.49.11 1.492.3 2.985-.166 4.456-.089.297-.2.582-.344.988-.687-1.701-1.83-2.81-3.537-3.403.233.494.466.977.743 1.559-.787-.318-1.43-.757-1.951-1.328-.51-.571-.943-1.208-1.453-1.866-.088.22-.177.428-.31.768-.355-.505-.688-.922-.976-1.383-.355-.56-.654-1.141-.998-1.701-.388-.626-.665-1.273-.71-2.042-.077-1.087-.565-2.02-1.319-2.832a.603.603 0 0 1-.1-.527c.366-.955.832-1.866 1.154-2.832 1.153-3.534 3.392-6.18 6.696-7.88 2.34-1.208 4.768-2.24 7.13-3.381 2.538-1.23 4.811-2.81 6.374-5.192 2.306-3.513 2.927-7.256 1.253-11.207-.842-1.987-2.35-3.425-4.224-4.5-.21-.077-.366-.165-.532-.253zm-9.657 31.436c-.976.538-1.796 1.11-2.694 1.482-1.708.703-2.151 2.086-2.295 3.831.654-.834 1.485-1.152 2.372-1.394.643-.175 1.198-.56 1.486-1.152.41-.867.732-1.79 1.131-2.767z" fill="#000"/><path d="M4.727 31.794c-2.184-1.57-3.376-3.354-4.13-5.846-.91-2.996-.677-6.004.01-8.99.91-3.918 2.75-7.31 6.01-9.823.72-.56 1.519-1.032 2.317-1.482.566-.33 1.198-.56 1.818-.801-5.222 3.72-7.228 8.638-5.81 14.928.755-.418 1.398-.769 2.04-1.109.012.033.034.066.045.11-.366.636-.72 1.284-1.097 1.91-.267.45-.233.845.077 1.262.21.274.377.57.554.834.533-.175 1.032-.33 1.675-.538l-.222.385c-.81 1.317-.82.9.277 2.02.344.35.882.807.882.807-2.04 1.701-3.603 3.72-4.446 6.333z" fill="#000"/></svg>