<svg xmlns="http://www.w3.org/2000/svg" width="1em" height="1em" fill="current" viewBox="0 0 48 48"><path fill-rule="evenodd" d="M42.176 17.11c.141.718.031 1.4-.275 2.058-.302.648-1.127 1.227-1.69 1.181.666-.369.974-.963 1.13-1.616.219-.915.234-1.835.13-2.782-.226-2.075-.95-3.957-2.11-5.702a11 11 0 0 0-.391-.54l-.108-.144-.114-.155a9 9 0 0 0-.4-.517 7 7 0 0 0-.383-.404l-.179-.181-.05.04-.05.04a10 10 0 0 1 1.459 3.543c.265 1.319.058 2.576-.604 3.762.203-1.204-.722-3.925-2.029-5.729C35.124 8.048 32.614 6.182 31.7 6l.06.066c.039.044.075.086.12.115 1.377.884 2.29 2.153 3.036 3.52.797 1.459 1.241 3.027 1.425 4.682.152 1.37.07 2.719-.151 4.055-.307 1.846-.931 3.614-1.782 5.3-.722 1.433-1.572 2.79-2.762 3.922-.324.308-.659.605-.973.884q-.204.18-.392.35c.838 1.957-.093 3.448-1.232 4.901 1.272-.691 2.199-1.681 2.912-2.86.655-1.085 1.473-1.518 2.516-1.269.143.034.28.093.448.164q.13.055.292.12c-.585-.892-1.283-1.446-2.247-1.68 1.14-.036 2.033.363 2.698 1.268.813 1.106.801 2.335.52 3.542-.587 2.526-2.099 4.517-4.17 6.139q-.3.231-.605.457l-.291.218c4.016-1.465 8.46-5.232 10.578-10.897 1.65-4.41 1.638-9.798.476-11.887m-24.6 12.068q-.312-.359-.611-.7c-.405-.462-.794-.905-1.176-1.356-1.17-1.381-2.05-2.922-2.757-4.566a18.3 18.3 0 0 1-1.455-5.87 12.3 12.3 0 0 1 .27-3.63c.575-2.585 1.737-4.841 3.86-6.589q.193-.157.39-.311l.18-.143c-1.979.927-3.595 2.262-4.823 3.995-1.213 1.71-2.006 3.577-2.039 5.718-1.362-2.64-.477-5.015.853-7.345l-.05-.054-.05-.053-.365.444q-.08.098-.162.193l-.23.279c-1.976 2.443-3.06 5.19-2.963 8.298.034 1.089.232 2.183 1.277 2.899-1.718-.5-2.09-1.756-2.02-3.286-1.496 5.523-.574 10.714 2.42 15.56 2.05 3.32 4.985 5.76 8.71 7.284a.45.45 0 0 0-.167-.234c-1.933-1.257-3.376-2.912-4.313-4.957-.588-1.285-.908-2.626-.593-4.036.323-1.445 1.703-2.642 3.325-2.42-1.054.2-1.738.767-2.231 1.514q.23-.034.457-.08c.336-.063.666-.125.99-.107.763.044 1.204.597 1.622 1.145q.178.233.354.469c.381.51.762 1.02 1.194 1.488.275.298.608.547.942.795q.225.166.442.338l.035-.034.07-.069c-1.187-1.433-2.113-2.927-1.386-4.579m11.064 2.879c-.49.702-1.004 1.374-1.777 1.834-.135.08-.223.233-.311.387-.04.068-.079.137-.122.199l.121.106.851-.787.01-.009.876-.81q-.06.187-.114.37c-.15.505-.294.99-.73 1.392-.93.855-1.688 1.837-1.889 3.105-.03.185-.01.377.008.568q.014.13.02.259l.148.018.365-.553.004-.005.361-.547c.162.54-.14 1.426-.647 2.004-.488.556-.976 1.112-1.439 1.687-.102.127-.171.278-.25.45q-.057.13-.13.275a5 5 0 0 1-.117-.246c-.072-.159-.138-.304-.236-.426a56 56 0 0 0-1.463-1.728c-.502-.576-.73-1.233-.648-2.003l.36.55.36.549.069-.005.068-.005q.009-.132.027-.266c.024-.19.048-.38.018-.562-.198-1.23-.905-2.212-1.815-3.04-.532-.482-.7-1.072-.88-1.699l-.042-.147.753.705.001.001.003.003.003.002.967.906.049-.038.022-.018.07-.057a4 4 0 0 1-.17-.219c-.117-.158-.234-.316-.388-.428-1.18-.859-1.98-1.939-2.239-3.355-.011-.06-.008-.124-.005-.193q.003-.053.003-.11l.622.624.002.002.321.323c-.325-2.536-1.969-4.254-3.61-5.97a55 55 0 0 1-.99-1.053l.083-.082 1.846 1.533c.335.28.67.561 1.014.832.372.292.752.574 1.055.798q.166.123.294.22c-.63-3.307.43-6.538 2.533-9.52-1.086 2.884-1.67 5.808-.855 8.853-.175-1.63.374-3.03 1.417-4.314-.82 2.896-.34 5.554 1.504 7.93 1.786-2.366 2.331-5.017 1.473-7.93 1.078 1.28 1.595 2.702 1.43 4.333.816-3.055.232-5.977-.876-8.863 1.157 1.367 1.819 2.969 2.292 4.646.482 1.708.591 3.444.166 5.165l4.274-3.722.112.1-.311.341q-.39.432-.787.857-.246.264-.497.524c-.928.972-1.857 1.944-2.393 3.193-.197.46-.373.928-.549 1.397l-.235.62.088.052.087.052.405-.404.002-.003.467-.467c.11.333-.142 1.291-.51 1.819M15.297 18.593c.262 1.608.73 3.127 1.7 4.473.49.68 1.014 1.348 1.771 1.774l.094-.492c.102-.53.2-1.05.288-1.57a.5.5 0 0 0-.096-.34c-1.668-2.248-2.667-4.7-2.34-7.5.107-.92.362-1.851.717-2.713.621-1.51 1.657-2.763 2.966-3.821a3.6 3.6 0 0 0-.756.338 8.7 8.7 0 0 0-3.5 3.779c-.936 1.918-1.19 3.955-.844 6.072m13.662 3.811a11.2 11.2 0 0 0 2.314-5.377c.382-2.634-.398-4.993-2.146-7.048-.32-.376-.672-.728-1.048-1.104q-.264-.261-.541-.546.188.094.357.171c.228.106.432.201.616.325 1.627 1.095 2.839 2.498 3.587 4.287a9.3 9.3 0 0 1 .744 3.666c-.02 2.385-.567 4.67-2.096 6.63-.29.371-.639.7-1 1.042-.17.16-.341.321-.511.492l-.115-.602a55 55 0 0 1-.285-1.558c-.02-.119.044-.277.124-.378" clip-rule="evenodd"/></svg>