<svg xmlns="http://www.w3.org/2000/svg" width="1em" height="1em" fill="current" viewBox="0 0 48 48"><path fill-rule="evenodd" d="M34.269 30.078c1.238.074 2.323-.34 3.328-.942 1.26-.757 2.248-1.742 2.88-2.999.01-.02.027-.038.055-.067l.062-.068a11.8 11.8 0 0 1-1.662 4.209c-1.854 2.94-4.648 4.691-8.238 5.481-.749.165-1.469.464-2.176.757l-.135.056c-.443.183-.78.52-1.06.941 1.032.322 1.948.18 2.805-.363l.07.072q-.155.123-.306.251c-.224.188-.447.375-.698.525-1.064.637-2.28.931-3.495 1.225l-.022.005c-.845.204-1.688.418-2.517.67-.596.18-1.078.525-1.38 1.078.604.462 1.185.332 1.775-.029-.355.667-.972 1.003-1.72 1.134-.396.07-.814.068-1.22.052-.547-.02-.845.18-.91.683a2 2 0 0 0-.004.252l.002.132c.458.093.735-.136 1.018-.475-.081.595-.315 1.035-.813 1.337-.114.069-.23.136-.353.189-1.237.529-1.471 1.565-1.18 2.497.096.31.253.603.413.903q.111.205.216.416c-1.188-.371-2.229-.961-3.094-1.796-.913-.881-1.438-1.915-1.505-3.147-.06-1.087-.513-2.068-1.098-3.009l-.3-.482c-.585-.937-1.17-1.875-1.697-2.839-.646-1.183-.848-2.49-1.014-3.786l-.073-.57c-.17-1.313-.34-2.628-.374-3.944a4.22 4.22 0 0 0-.702-2.306c-1.742-2.72-2.325-5.68-1.912-8.802.053-.398.118-.795.183-1.191.11-.67.22-1.339.27-2.012.145-1.894-.403-3.631-1.648-5.17A.15.15 0 0 1 6 8.84a6.2 6.2 0 0 1 1.48 1.635c.995 1.58 1.44 3.304 1.562 5.102l.027.395c.1 1.502.201 3.004.591 4.476.228.859.524 1.695 1.034 2.456.021.032.046.063.079.105q.027.035.064.084c.526-1.113.58-2.238.527-3.378l.082-.011q.031.15.065.3c.049.226.099.452.127.68.133 1.056-.082 2.086-.313 3.112-.32 1.423-.602 2.851-.506 4.314.07 1.074.252 2.134.62 3.172l.001-.084v-.167c-.084-3.383.708-6.577 2.442-9.578 1.05-1.817 2.026-3.663 2.554-5.677.519-1.977.501-3.942-.122-5.898a.27.27 0 0 1-.005-.149c.436.748.695 1.548.864 2.374.451 2.215.176 4.398-.385 6.563-.228.88-.498 1.75-.768 2.62l-.034.11c-.06.194-.185.377-.31.548-1.165 1.603-1.98 3.328-2.225 5.254a5 5 0 0 0-.028.279.32.32 0 0 0 .043.197l.086-.239.16-.435c.505-1.315 1.326-2.465 2.188-3.604l.998-1.313c1.424-1.87 2.849-3.74 4.173-5.666 1.59-2.313 2.466-4.87 2.417-7.632-.013-.704-.09-1.407-.167-2.121a54 54 0 0 1-.102-.993c1.338 3.527.932 7.055.23 10.637 1.019-.838 1.417-1.882 1.449-3.076.246 1.016.203 1.994-.477 2.87-.875 1.126-1.744 2.253-2.364 3.52-.476.97-.862 1.962-.954 3.031a4.46 4.46 0 0 0 .344 2.154c.628-.58.78-1.3.934-2.03l.008-.036c.072.411.17.82.268 1.23.348 1.452.697 2.906-.108 4.43.656-.33 1.07-1.497 1.275-2.48l.036.185c.027.137.055.274.07.412.268 2.475-.338 4.786-1.674 6.929-.535.857-1.196 1.654-1.85 2.443l-.028.033c-.513.619-1.086 1.2-1.668 1.768-1.24 1.21-1.74 2.647-1.634 4.275.032.48.118.958.226 1.44.067-1.575.866-2.65 2.498-3.192l-.145.162c-.344.382-.694.77-.73 1.387.785-1.126 1.768-1.964 2.842-2.716a18 18 0 0 1 1.035-.654q.228-.137.455-.276c1.805-1.119 3.187-2.54 3.966-4.43.353-.857.961-1.59 1.59-2.308.418-.476.803-.977 1.188-1.478l.37-.48c.082-.104.125-.234.162-.37-.968 1.072-2.12 1.853-3.751 2.096q.032-.19.06-.368c.037-.247.072-.478.136-.703.236-.834.754-1.517 1.52-2.008 1.367-.88 2.529-1.955 3.659-3.065.921-.906 1.556-1.96 1.886-3.16a1.1 1.1 0 0 0 .047-.312c-1.232 2.1-2.983 3.598-5.704 4.168q.073-.138.127-.255c.076-.158.14-.291.23-.41.239-.313.484-.631.776-.904 1.498-1.395 2.33-3.096 2.792-4.968.078-.317.236-.565.448-.817 1.39-1.652 2.246-3.523 2.642-5.565.869-4.487-.476-8.421-3.645-11.886q-.118-.128-.24-.255a7 7 0 0 1-.561-.64q.185.147.372.291c.272.21.543.421.8.647 2.259 1.99 3.928 4.348 5.102 6.989.857 1.927 1.712 3.865 2.182 5.91.772 3.36.007 6.435-2.182 9.223q-.1.125-.196.253-.002.003 0 .023l.005.05c1.763-1.027 3.021-2.408 3.853-4.127l.109.035q-.092.333-.176.668c-.124.487-.248.973-.417 1.446-.866 2.427-2.472 4.41-4.508 6.13-.683.576-1.366 1.156-2.038 1.745-.123.109-.23.234-.358.383q-.094.112-.21.242.184.034.345.069c.225.047.427.09.63.101m-5.497-17.653c-.205-3.01-1.534-5.614-3.523-7.973-.966-1.146-2.076-2.17-3.254-3.134l-.218-.18.053-.048.053-.049q.444.34.895.673c.649.484 1.298.969 1.912 1.487 2.27 1.92 4.058 4.159 5.23 6.786a16.5 16.5 0 0 1 1.375 5.33c.019.216-.042.444-.1.66l-.003.011c-.74 2.75-2.429 4.847-5.167 6.22a4 4 0 0 1-.358.151l-.188.075c-.153-.567-.072-1.101.016-1.631.216-1.295.746-2.453 1.697-3.466 1.324-1.41 1.703-3.106 1.58-4.912m-6.66 23.911c0 .517-.159.995-.518 1.416.223-.089.437-.186.65-.282l.353-.158q.779-.34.935-1.112l.038-.177q.045-.201.079-.402a2.53 2.53 0 0 1 1.06-1.714c.146-.105.3-.201.453-.297q.107-.066.211-.133a5.1 5.1 0 0 0-2.407 1.191c-.513.453-.855.986-.854 1.668m-11.84 1.836c-.1-.31-.2-.619-.613-1.167.984.289 2.1 1.592 2.52 2.517-.57.178-1.118.074-1.419-.357a3.2 3.2 0 0 1-.488-.993" clip-rule="evenodd"/></svg>