<svg width="131" height="60" viewBox="0 0 131 60" fill="none" xmlns="http://www.w3.org/2000/svg">
<g filter="url(#filter0_b_910_2172)">
<path d="M0 12C0 5.37258 5.37258 0 12 0H119C125.627 0 131 5.37258 131 12V48C131 54.6274 125.627 60 119 60H12C5.37258 60 0 54.6274 0 48V12Z" fill="white" fill-opacity="0.5"/>
</g>
<path d="M54.2 27.035C54.2 28.89 60.755 27.95 60.755 32.285C60.755 34.995 58.225 36.2 55.425 36.2C53.555 36.2 52.075 35.655 50.94 35.025C50.725 34.895 50.675 34.715 50.77 34.505L51.48 32.95C51.575 32.74 51.74 32.655 51.975 32.765C53.035 33.295 53.895 33.76 55.4 33.76C56.675 33.76 57.44 33.415 57.44 32.65C57.44 30.52 51.07 31.625 51.07 27.36C51.07 25.16 52.86 23.555 56.025 23.555C58.045 23.555 59.44 24.165 60.22 24.605C60.365 24.685 60.525 24.835 60.395 25.115L59.715 26.595C59.61 26.825 59.43 26.89 59.155 26.745C58.595 26.445 57.535 25.86 56.195 25.86C54.725 25.86 54.2 26.48 54.2 27.035ZM74.0594 32.605C74.2744 32.705 74.3594 32.895 74.2344 33.14C73.1044 35.34 71.0444 36.245 68.8594 36.245C65.3144 36.245 62.2144 33.845 62.2144 29.9C62.2144 25.955 65.3144 23.555 68.8594 23.555C71.0444 23.555 73.1044 24.46 74.2344 26.66C74.3594 26.905 74.2744 27.095 74.0594 27.195L72.2144 28.07C71.9994 28.17 71.8194 28.11 71.6844 27.885C71.0344 26.69 70.0194 26.125 68.8594 26.125C66.8344 26.125 65.4844 27.675 65.4844 29.9C65.4844 32.125 66.8344 33.675 68.8594 33.675C70.0194 33.675 71.0344 33.11 71.6844 31.915C71.8194 31.69 71.9994 31.63 72.2144 31.73L74.0594 32.605ZM86.3719 35.27C86.5869 35.635 86.3669 36 85.9569 36H83.5669C83.4469 36 83.3269 35.925 83.2719 35.82L81.0319 31.98H78.9369V35.655C78.9369 35.845 78.7769 36 78.5919 36H76.1519C75.9619 36 75.8069 35.845 75.8069 35.655V24.145C75.8069 23.955 75.9619 23.8 76.1519 23.8H78.5919H81.3669C84.6169 23.8 86.3419 25.565 86.3419 27.89C86.3419 29.46 85.5569 30.775 84.0469 31.46L86.3719 35.27ZM78.9369 26.195V29.59H80.7519C82.4869 29.59 83.1119 28.93 83.1119 27.89C83.1119 26.85 82.4869 26.195 80.7519 26.195H78.9369ZM94.3281 23.555C97.8731 23.555 100.973 25.955 100.973 29.9C100.973 33.845 97.8731 36.245 94.3281 36.245C90.7781 36.245 87.6781 33.845 87.6781 29.9C87.6781 25.955 90.7781 23.555 94.3281 23.555ZM94.3281 33.675C96.3481 33.675 97.7031 32.125 97.7031 29.9C97.7031 27.675 96.3481 26.125 94.3281 26.125C92.3031 26.125 90.9531 27.675 90.9531 29.9C90.9531 32.125 92.3031 33.675 94.3281 33.675ZM111.659 33.43C111.874 33.43 112.004 33.56 112.004 33.775V35.655C112.004 35.87 111.874 36 111.659 36H104.484H102.929C102.739 36 102.584 35.845 102.584 35.655V24.145C102.584 23.955 102.739 23.8 102.929 23.8H105.369C105.554 23.8 105.714 23.955 105.714 24.145V33.43H111.659ZM122.265 33.43C122.48 33.43 122.61 33.56 122.61 33.775V35.655C122.61 35.87 122.48 36 122.265 36H115.09H113.535C113.345 36 113.19 35.845 113.19 35.655V24.145C113.19 23.955 113.345 23.8 113.535 23.8H115.975C116.16 23.8 116.32 23.955 116.32 24.145V33.43H122.265Z" fill="#222222"/>
<path d="M9 16C9 12.134 12.134 9 16 9H32C35.866 9 39 12.134 39 16V44C39 47.866 35.866 51 32 51H16C12.134 51 9 47.866 9 44V16Z" stroke="#222222" stroke-width="2"/>
<path d="M22 18C22 16.8954 22.8954 16 24 16C25.1046 16 26 16.8954 26 18V26C26 27.1046 25.1046 28 24 28C22.8954 28 22 27.1046 22 26V18Z" fill="#222222"/>
<defs>
<filter id="filter0_b_910_2172" x="-50" y="-50" width="231" height="160" filterUnits="userSpaceOnUse" color-interpolation-filters="sRGB">
<feFlood flood-opacity="0" result="BackgroundImageFix"/>
<feGaussianBlur in="BackgroundImageFix" stdDeviation="25"/>
<feComposite in2="SourceAlpha" operator="in" result="effect1_backgroundBlur_910_2172"/>
<feBlend mode="normal" in="SourceGraphic" in2="effect1_backgroundBlur_910_2172" result="shape"/>
</filter>
</defs>
</svg>
