<svg width="100%" height="100%" viewBox="0 0 24 24" fill="none" xmlns="http://www.w3.org/2000/svg">
<path fill-rule="evenodd" clip-rule="evenodd" d="M15.8327 2.19251C15.9893 2.08736 16.0156 1.9195 16.4792 2.29895C16.9424 2.68097 16.6686 3.01868 16.6686 3.01868L14.9597 4.67591C17.3124 4.68802 19.1227 4.70032 19.1227 4.70032C19.1779 4.71279 21.4374 5.23912 21.4997 7.87317C21.4696 10.5283 21.4994 15.8248 21.4997 15.8712C21.4977 15.9098 21.3546 18.4774 19.153 18.8878C18.222 18.8557 17.8979 18.8865 17.8845 18.8878C17.8826 18.9174 17.8077 19.9823 16.8864 19.9991C15.9499 20.0133 15.8089 19.238 15.7761 18.9513C15.211 18.9513 8.44838 18.9841 8.35613 18.9845C8.35255 19.0148 8.22814 19.9988 7.30828 19.9991C6.37296 19.999 6.32426 19.1602 6.26141 18.9845C5.67014 18.9845 4.86406 18.9685 4.83465 18.9679C4.83465 18.9679 2.76785 18.5403 2.50067 15.8575C2.53569 13.1887 2.50394 7.93033 2.5036 7.87317C2.50255 7.85928 2.32085 5.39729 4.78777 4.70032C6.07518 4.65048 9.90163 4.65274 13.277 4.66614C13.6409 4.30709 15.6898 2.28828 15.8327 2.19251ZM12.1286 13.1271C11.1755 15.1764 10.315 13.6815 10.2897 13.6368L9.63836 14.0538C9.66464 14.0895 10.9344 15.7961 12.1423 14.4786C13.5784 15.8036 14.6701 14.0653 14.6804 14.049L14.0944 13.6671C14.0803 13.6874 13.0567 15.1431 12.1286 13.1271ZM14.0944 10.6671L18.028 11.4298L18.361 9.93763L14.3962 9.17493L14.0944 10.6671ZM6.02508 9.93763L6.35711 11.4288L10.2888 10.6671L9.98895 9.17493L6.02508 9.93763ZM7.51922 2.23548C7.98542 1.85597 8.0089 2.02488 8.1657 2.13001C8.32772 2.24036 10.7761 4.65833 10.7761 4.65833H9.08465L7.32977 2.9552C7.32788 2.95287 7.05688 2.61635 7.51922 2.23548Z" fill="black"/>
</svg>
