<svg xmlns="http://www.w3.org/2000/svg" fill="none" viewBox="0 0 64 64"><g filter="url(#a)"><path fill="#fff" fill-opacity=".5" d="M2 32C2 15.432 15.432 2 32 2c16.569 0 30 13.432 30 30 0 16.569-13.431 30-30 30C15.432 62 2 48.569 2 32"/><path stroke="#000" stroke-width="2" d="M32 1C14.88 1 1 14.88 1 32s13.88 31 31 31 31-13.88 31-31S49.12 1 32 1Z"/></g><path fill="#222" d="M41.9 20.687a1 1 0 0 1 1.414 1.414L22.1 43.314a1 1 0 0 1-1.415-1.414z"/><path fill="#222" d="M20.686 22.1a1 1 0 1 1 1.415-1.414L43.314 41.9a1 1 0 0 1-1.414 1.414z"/><defs><filter id="a" width="164" height="164" x="-50" y="-50" color-interpolation-filters="sRGB" filterUnits="userSpaceOnUse"><feFlood flood-opacity="0" result="BackgroundImageFix"/><feGaussianBlur in="BackgroundImageFix" stdDeviation="25"/><feComposite in2="SourceAlpha" operator="in" result="effect1_backgroundBlur_910_2951"/><feBlend in="SourceGraphic" in2="effect1_backgroundBlur_910_2951" result="shape"/></filter></defs></svg>