<svg xmlns="http://www.w3.org/2000/svg" width="1em" height="1em" fill="none" viewBox="0 0 24 24"><path fill="current" d="M7.002 4.926q0 .813-.589 1.381-.589.57-1.524.57-.894 0-1.462-.57a1.88 1.88 0 0 1-.57-1.381q0-.853.57-1.402.569-.549 1.503-.548.934 0 1.483.548.548.549.59 1.402M2.98 20.976V8.42h3.9v12.556zm6.216-8.533q0-1.748-.081-4.023h3.373l.203 1.748h.08q1.22-2.032 3.86-2.032 2.033 0 3.272 1.361 1.24 1.361 1.24 4.043v7.436H17.24v-6.948q0-2.723-1.99-2.723-1.423 0-1.992 1.463-.12.243-.121.975v7.233H9.196z"/></svg>