<svg xmlns="http://www.w3.org/2000/svg" fill="none" viewBox="0 0 106 62"><path fill="currentColor" d="M98.604 18.943c-3.826-3.84-8.52-6.144-13.467-7.014-7.6-1.28-20.762-1.126-20.762-1.126 6.683-2.304 14.538-1.23 14.538-1.23-6.529-2.917-19.537-.87-19.537-.87 6.02-1.638 9.794-1.843 15.405-1.177 0 0-6.478-2.918-18.72-.973-1.174.154-2.194 1.485-2.857 1.946-1.632 1.075-2.908 1.536-4.795.819-.918-.358-1.887-.666-3.01-1.075.97-.922 2.04-1.075 3.214-.922.867.103 1.837 0 2.653-.153 1.428-.308 2.142-1.28 3.979-1.383 0 0 3.417 0 6.58-.204 3.162-.154 5.764-1.792 6.835-2.51-4.642-.05-8.876 1.537-13.722 1.486C59.835 4.249 62.59 2.765 66.058 0c-3.417 1.28-5.457 2.918-9.283 2.97-2.143.05-4.336.563-6.376.972-1.684.307-3.01 2.15-4.592 2.867-1.683.717-3.366.307-4.488-.87-1.48 1.536-1.53 3.328-.306 5.017.459-.614 1.02-1.28 1.734-2.099.459.768.765 1.126.97 1.434 1.427-.768 3.417-.256 4.386 1.024.663.819 0 1.177-.46 1.536-1.886 1.382-2.856 1.023-3.723.153l-.663 1.536-2.04-.051 3.723 3.788.153-1.484 1.735-.052c.663-1.535 2.346-1.689 3.52-1.177 1.224.563 2.04 1.997 2.958 2.97.051-.103.102-.41.153-.768.561-1.792 1.887-2.15 3.265-.922l2.091 2.048c1.224 1.177 1.276 3.174.102 4.403L45.45 36.81l-.102.102-10.1 10.035c-5.61 5.632-14.742 5.632-20.302 0-5.611-5.632-5.611-14.796 0-20.377 2.806-2.815 6.478-4.198 10.151-4.198s7.346 1.383 10.151 4.198l7.805 7.834 7.55-7.578-7.805-7.833c-9.794-9.83-25.71-9.83-35.452 0C2.602 23.756 0 30.053 0 36.811c0 6.707 2.602 13.055 7.346 17.817A24.98 24.98 0 0 0 25.097 62a24.98 24.98 0 0 0 17.752-7.372L60.6 36.81l.102-.102 10.049-10.086c5.61-5.632 14.742-5.632 20.302 0 5.611 5.631 5.611 14.796 0 20.376-2.806 2.816-6.478 4.198-10.151 4.198S73.557 49.815 70.752 47l-7.805-7.833-7.55 7.577 7.805 7.833c9.794 9.83 25.71 9.83 35.453 0C103.398 49.815 106 43.518 106 36.76c-.051-6.707-2.653-13.056-7.397-17.817"/></svg>