<svg viewBox="0 0 131 78" fill="none" xmlns="http://www.w3.org/2000/svg">
    <path
        d="M121.859 24.235C117.131 19.4729 111.331 16.6157 105.216 15.5363C95.8229 13.949 79.5582 14.1394 79.5582 14.1394C87.8167 11.2822 97.525 12.6156 97.525 12.6156C89.4557 8.99642 73.3802 11.5362 73.3802 11.5362C80.8191 9.50437 85.4841 9.25039 92.4187 10.0758C92.4187 10.0758 84.4124 6.45665 69.2825 8.86943C67.8325 9.05991 66.5717 10.7108 65.7522 11.2822C63.7348 12.6156 62.1588 13.187 59.8263 12.2981C58.6915 11.8537 57.4937 11.4727 56.1068 10.9647C57.3046 9.82184 58.6285 9.63136 60.0784 9.82184C61.1501 9.94883 62.3479 9.82184 63.3566 9.63136C65.1217 9.25039 66.0043 8.04401 68.2738 7.91702C68.2738 7.91702 72.4976 7.91702 76.4062 7.66304C80.3147 7.47256 83.5298 5.44075 84.8537 4.55183C79.1169 4.48834 73.8845 6.45665 67.8956 6.39316C73.9475 6.0122 77.3518 4.17087 81.6386 0.742188C77.4148 2.32954 74.8932 4.36135 70.1651 4.42484C67.5173 4.48834 64.8065 5.12328 62.2849 5.63123C60.2045 6.01219 58.5654 8.29798 56.6112 9.1869C54.5308 10.0758 52.4504 9.56786 51.0635 8.1075C49.2353 10.0123 49.1723 12.2346 50.6853 14.3299C51.2526 13.568 51.9461 12.7426 52.8287 11.7267C53.396 12.6791 53.7743 13.1235 54.0265 13.5045C55.7916 12.5521 58.2502 13.187 59.448 14.7744C60.2676 15.7903 59.448 16.2347 58.8807 16.6792C56.5481 18.3935 55.3503 17.9491 54.2786 16.8697L53.4591 18.7745L50.9374 18.711L55.5395 23.4096L55.7286 21.5682L57.872 21.5047C58.6915 19.5999 60.7719 19.4094 62.2218 20.0444C63.7348 20.7428 64.7435 22.5207 65.8782 23.727C65.9413 23.6 66.0043 23.2191 66.0674 22.7746C66.7608 20.5523 68.3999 20.1079 70.102 21.6317L72.6867 24.1715C74.1997 25.6319 74.2627 28.1081 72.8128 29.632L56.1699 46.3944L56.0438 46.5214L43.5616 58.9662C36.627 65.9506 25.3426 65.9506 18.4711 58.9662C11.5366 51.9819 11.5366 40.6165 18.4711 33.6956C21.9384 30.2034 26.4774 28.4891 31.0164 28.4891C35.5553 28.4891 40.0943 30.2034 43.5616 33.6956L53.2069 43.4102L62.5371 34.0131L52.8917 24.2985C40.7878 12.1076 21.1189 12.1076 9.07796 24.2985C3.21511 30.2034 0 38.0132 0 46.3944C0 54.7121 3.21511 62.5854 9.07796 68.4903C15.1299 74.5858 23.0731 77.6335 31.0164 77.6335C38.9596 77.6335 46.9028 74.5858 52.9548 68.4903L74.8932 46.3944L75.0192 46.2674L87.4384 33.7591C94.373 26.7747 105.657 26.7747 112.529 33.7591C119.463 40.7434 119.463 52.1089 112.529 59.0297C109.062 62.5219 104.523 64.2362 99.9836 64.2362C95.4447 64.2362 90.9057 62.5219 87.4384 59.0297L77.7931 49.3151L68.4629 58.7123L78.1083 68.4268C90.2122 80.6177 109.881 80.6177 121.922 68.4268C127.785 62.5219 131 54.7121 131 46.3309C130.937 38.0132 127.722 30.1399 121.859 24.235Z"
        fill="#C11111" />
</svg>