<svg xmlns="http://www.w3.org/2000/svg" fill="none" viewBox="0 0 663 121"><path fill="#222" d="M289 49h44V38H232v11h36.403l-31.025 39.244 8.63 6.822L278 54.598V110h11z"/><path fill="#222" d="m295.815 65.57 25.305 29.655 8.368-7.14-25.305-29.655zM365 110V49h-23V38h23v-6h11v6h67v11h-32v18h25v22.5c0 11.322-9.178 20.5-20.5 20.5H400V99h15.5a9.5 9.5 0 0 0 9.5-9.5V78h-25V49h-24v61z"/><path fill="#222" d="M348 55v36h11V55zM382 87V55h11v32z"/><path fill="#222" fill-rule="evenodd" d="M498 49v6h-41v23h66.5v4H452v11h101V82h-5v-7.5c0-10.77-8.73-19.5-19.5-19.5H509v-6h44V38h-44v-6h-11v6h-46v11zm41 33v-7.5c0-5.799-4.701-10.5-10.5-10.5H466v5h66.5v13z" clip-rule="evenodd"/><path fill="#222" d="M553 99h-32v11h32zM452 99h31v11h-31zM652 33h-11V22h11zM584 49h-22V38h22v-6h11v6h68v11h-68v41.5c0 10.77-8.73 19.5-19.5 19.5H562V99h13.5a8.5 8.5 0 0 0 8.5-8.5z"/><path fill="#222" d="M612.5 71V55h11v16h4c7.456 0 13.5-6.044 13.5-13.5V55h11v2.5c0 13.531-10.969 24.5-24.5 24.5h-4v7.5A9.5 9.5 0 0 0 633 99h30v11h-30c-11.322 0-20.5-9.178-20.5-20.5V82H601V71z"/><path fill="#c11111" d="M193.486 36.97c-7.507-7.494-16.716-11.99-26.425-13.69-14.915-2.497-40.74-2.197-40.74-2.197 13.113-4.497 28.528-2.398 28.528-2.398-12.812-5.696-38.337-1.699-38.337-1.699 11.811-3.197 19.218-3.597 30.229-2.298 0 0-12.712-5.695-36.735-1.899-2.302.3-4.304 2.898-5.606 3.797-3.203 2.099-5.705 2.998-9.409 1.599-1.801-.7-3.703-1.299-5.905-2.098 1.901-1.799 4.004-2.099 6.306-1.799 1.701.2 3.603 0 5.205-.3 2.802-.6 4.204-2.497 7.807-2.697 0 0 6.707 0 12.913-.4 6.206-.3 11.311-3.497 13.413-4.896-9.109-.1-17.417 2.998-26.926 2.898 9.609-.6 15.014-3.497 21.821-8.893-6.707 2.498-10.711 5.695-18.218 5.795-4.204.1-8.508 1.1-12.512 1.899-3.303.6-5.906 4.196-9.009 5.595-3.303 1.399-6.606.6-8.808-1.699-2.903 2.998-3.003 6.495-.6 9.792.9-1.199 2.001-2.498 3.403-4.096.9 1.499 1.501 2.198 1.901 2.797 2.803-1.498 6.707-.5 8.609 1.999 1.301 1.598 0 2.298-.901 2.997-3.704 2.698-5.605 1.999-7.307.3l-1.301 2.998-4.004-.1 7.307 7.393.3-2.897 3.403-.1c1.302-2.998 4.605-3.297 6.907-2.298 2.402 1.099 4.004 3.897 5.806 5.795.1-.2.2-.8.3-1.499 1.101-3.497 3.703-4.196 6.406-1.798l4.104 3.997c2.402 2.298 2.502 6.194.2 8.592L89.186 71.841l-.2.2-19.82 19.583c-11.01 10.991-28.927 10.991-39.838 0-11.01-10.99-11.01-28.876 0-39.767 5.506-5.495 12.712-8.193 19.92-8.193 7.206 0 14.413 2.698 19.919 8.193L84.48 67.144l14.815-14.787L83.98 37.069c-19.219-19.184-50.449-19.184-69.567 0C5.104 46.362 0 58.651 0 71.841 0 84.93 5.105 97.32 14.414 106.612 24.024 116.204 36.635 121 49.247 121s25.225-4.796 34.834-14.388l34.833-34.771.201-.2 19.718-19.684c11.011-10.99 28.928-10.99 39.839 0 11.01 10.991 11.01 28.876 0 39.767-5.506 5.496-12.712 8.193-19.919 8.193s-14.414-2.697-19.92-8.193l-15.314-15.287-14.814 14.788 15.314 15.287c19.219 19.184 50.449 19.184 69.567 0C202.895 97.22 208 84.93 208 71.741c-.1-13.09-5.205-25.48-14.514-34.772"/></svg>