<svg xmlns="http://www.w3.org/2000/svg" width="277" height="48" fill="none" viewBox="0 0 277 48"><path fill="#c11111" d="M261.766 29.385V33.3h-13.577c-1.682 0-2.63.83-2.843 2.54h16.491v3.157c0 4.652-2.512 7.002-7.535 7.002h-12.795v-3.94h13.648c1.635 0 2.559-.879 2.82-2.493h-16.468v-3.18c0-4.653 2.512-7.003 7.559-7.003zM238.206 29.385V46h-4.265c-4.549-6.219-8.933-10.278-13.245-11.916-.308-.095-.687-.26-1.09-.403.048.593.071.997.071 1.163V46h-3.933V29.385h3.483c5.308 1.708 10.236 5.554 14.382 10.064l.735.783a13 13 0 0 1-.071-1.092v-9.756zM208.374 37.669V33.3h-9.62c-3.317 0-4.336 1.02-4.336 4.439v4.32h9.62c3.246 0 4.336-.95 4.336-4.392m-9.691-8.284h13.719v8.355c0 5.174-3.009 8.26-8.269 8.26H190.39v-8.331c0-5.08 3.057-8.284 8.293-8.284M173.865 29.385h13.411V33.3h-13.34c-3.364 0-4.336.997-4.336 4.51v4.249h13.742v-2.493h-3.009v-3.726h7.037V46h-21.774v-8.331c0-5.199 2.985-8.284 8.269-8.284M158.265 35.912v-2.611h-7.298c-4.833 0-5.615 1.068-5.947 2.611zm4.052-6.527V46h-4.052v-6.433H144.76V46h-4.028v-8.331c0-5.199 3.009-8.284 8.269-8.284zM121.675 39.567v-3.726h9.43c1.635 0 2.559-.902 2.796-2.54h-14.098V46h-4.028V29.385h22.035v3.18c0 4.202-2.037 6.504-6.113 6.931L138 46h-4.881l-6.397-6.433zM108.894 37.669V33.3H92v-3.917h20.922v8.356c0 5.174-3.009 8.26-8.27 8.26H92V35.84h4.028v6.22h8.53c2.89 0 4.336-1.448 4.336-4.392M256.102 10h4.028v12.675h8.648q3.199 0 4.052-2.492H277c-.711 4.249-3.673 6.432-8.151 6.432h-12.747zM248.548 16.528v-2.611h-7.298c-4.833 0-5.615 1.068-5.947 2.61zM252.6 10v16.615h-4.052v-6.432h-13.505v6.432h-4.028v-8.331c0-5.198 3.009-8.284 8.269-8.284zM227.849 10v3.916h-7.63v12.7h-4.028v-12.7h-2.795c-1.754 0-2.702.831-2.844 2.54h-3.814c.355-4.32 2.772-6.456 7.297-6.456zM187.338 20.183v-3.727h9.43c1.635 0 2.559-.902 2.796-2.54h-14.098v12.7h-4.028V10h22.035v3.18c0 4.202-2.038 6.504-6.113 6.932l6.303 6.503h-4.881l-6.398-6.432zM173.987 18.284v-4.367h-9.62c-3.317 0-4.336 1.02-4.336 4.438v4.32h9.62c3.246 0 4.336-.95 4.336-4.391M164.296 10h13.718v8.355c0 5.175-3.009 8.26-8.269 8.26h-13.742v-8.331c0-5.08 3.056-8.284 8.293-8.284M137.915 26.615V15.958h4.051v10.657zm-10.165 0V10h16.633c4.928 0 8.293 3.133 8.293 7.62v8.995h-4.028v-8.307c0-2.944-1.422-4.392-4.265-4.392h-12.629v12.7zM109.614 26.615V15.958h4.052v10.657zm-10.164 0V10h16.633c4.928 0 8.293 3.133 8.293 7.62v8.995h-4.028v-8.307c0-2.944-1.422-4.392-4.265-4.392h-12.629v12.7zM96.028 10v16.615H92V10z"/><path fill="url(#a)" d="M76.278 14.666a19.3 19.3 0 0 0-10.418-5.43c-5.88-.992-16.06-.873-16.06-.873 5.17-1.783 11.246-.95 11.246-.95-5.05-2.26-15.113-.675-15.113-.675 4.656-1.268 7.576-1.427 11.917-.911 0 0-5.012-2.26-14.482-.754-.908.12-1.697 1.15-2.21 1.507-1.263.832-2.25 1.189-3.71.634-.71-.278-1.46-.515-2.328-.833.75-.713 1.579-.832 2.486-.713.671.08 1.42 0 2.052-.119 1.105-.238 1.658-.99 3.078-1.07 0 0 2.644 0 5.09-.159 2.447-.119 4.46-1.387 5.288-1.942-3.59-.04-6.866 1.19-10.614 1.15C46.287 3.29 48.418 2.14 51.102 0c-2.644.99-4.222 2.26-7.182 2.299-1.657.04-3.354.436-4.933.753-1.302.238-2.328 1.665-3.551 2.22-1.302.555-2.604.237-3.473-.674-1.144 1.189-1.183 2.576-.236 3.884.355-.475.789-.99 1.341-1.625.355.595.592.872.75 1.11 1.105-.595 2.644-.198 3.394.793.513.634 0 .911-.355 1.189-1.46 1.07-2.21.793-2.881.119l-.513 1.189-1.579-.04 2.881 2.933.118-1.15 1.342-.039c.513-1.189 1.815-1.308 2.723-.912.947.437 1.578 1.546 2.289 2.3.04-.08.079-.318.118-.595.434-1.387 1.46-1.665 2.526-.713l1.618 1.585c.947.912.986 2.457.078 3.409L35.16 28.499l-.08.079-7.812 7.769c-4.341 4.36-11.405 4.36-15.706 0-4.34-4.36-4.34-11.455 0-15.776a11.03 11.03 0 0 1 7.853-3.25c2.841 0 5.682 1.07 7.853 3.25l6.037 6.065 5.84-5.866-6.037-6.065c-7.577-7.61-19.889-7.61-27.426 0C2.012 18.391 0 23.267 0 28.5c0 5.192 2.013 10.107 5.682 13.793A19.32 19.32 0 0 0 19.415 48c4.972 0 9.944-1.903 13.732-5.708L46.88 28.5l.079-.08 7.773-7.808c4.341-4.36 11.405-4.36 15.706 0 4.34 4.36 4.34 11.455 0 15.775a11.03 11.03 0 0 1-7.853 3.25c-2.841 0-5.682-1.07-7.853-3.25l-6.037-6.064-5.84 5.866 6.037 6.065c7.577 7.61 19.889 7.61 27.426 0C79.988 38.566 82 33.69 82 28.459c-.04-5.192-2.052-10.107-5.722-13.793"/><defs><linearGradient id="a" x1="25.919" x2="25.919" y1="47.752" y2="1.377" gradientUnits="userSpaceOnUse"><stop stop-color="#c11111"/><stop offset="1" stop-color="#e63f16"/></linearGradient></defs></svg>