<svg xmlns="http://www.w3.org/2000/svg" fill="none" viewBox="0 0 277 58"><path fill="#c11111" d="M136.399 8.742a11.8 11.8 0 0 0-6.321-3.237c-3.568-.59-9.746-.52-9.746-.52 3.137-1.063 6.825-.567 6.825-.567-3.065-1.346-9.172-.401-9.172-.401 2.826-.756 4.598-.85 7.232-.544 0 0-3.041-1.347-8.788-.449-.551.071-1.03.685-1.341.898-.766.496-1.365.709-2.251.378-.431-.165-.886-.307-1.412-.496.454-.425.957-.496 1.508-.425.407.047.862 0 1.245-.071.671-.142 1.006-.59 1.868-.638 0 0 1.604 0 3.089-.095 1.484-.07 2.706-.827 3.209-1.157-2.179-.024-4.167.708-6.442.685 2.299-.142 3.592-.827 5.22-2.103-1.604.59-2.562 1.347-4.358 1.37-1.005.024-2.035.26-2.993.45-.79.141-1.413.992-2.155 1.322-.79.331-1.58.142-2.107-.401-.695.709-.718 1.536-.144 2.315.216-.283.479-.59.814-.968.216.354.36.52.455.661.671-.354 1.605-.118 2.06.473.311.378 0 .543-.216.708-.886.638-1.341.473-1.748.071l-.311.71-.958-.024 1.748 1.748.072-.685.814-.024c.311-.709 1.101-.78 1.652-.543.575.26.958.921 1.389 1.37.024-.047.048-.189.072-.354.263-.827.886-.993 1.532-.426l.982.945c.575.544.599 1.465.048 2.032l-6.322 6.238-.047.047-4.742 4.631c-2.634 2.6-6.92 2.6-9.53 0-2.634-2.599-2.634-6.828 0-9.403a6.75 6.75 0 0 1 4.765-1.938c1.724 0 3.448.638 4.765 1.938l3.664 3.614 3.544-3.496-3.664-3.615c-4.597-4.537-12.068-4.537-16.642 0-2.227 2.197-3.448 5.103-3.448 8.222 0 3.095 1.222 6.025 3.448 8.222a11.83 11.83 0 0 0 8.333 3.403c3.017 0 6.035-1.134 8.333-3.403l8.333-8.222.048-.047 4.717-4.655c2.634-2.599 6.92-2.599 9.53 0 2.634 2.6 2.634 6.829 0 9.404a6.75 6.75 0 0 1-4.765 1.937 6.75 6.75 0 0 1-4.765-1.937l-3.663-3.615-3.544 3.497 3.663 3.615c4.598 4.536 12.069 4.536 16.642 0 2.227-2.198 3.448-5.104 3.448-8.223a11.6 11.6 0 0 0-3.472-8.222"/><path fill="#222" fill-rule="evenodd" d="M25.859 40.212H0V34.8h31.344v12.373c0 5.98-4.912 10.827-10.97 10.827H0V43.306h5.485v9.28h14.888c3.03 0 5.486-2.424 5.486-5.414zM252.709 23.2V5.413h-5.485v23.2h20.765c4.977 0 9.011-3.982 9.011-8.893h-5.485c0 1.922-1.579 3.48-3.526 3.48zM143.789 45.626c0-5.98 4.912-10.827 10.971-10.827h18.806v12.373c0 5.98-4.912 10.827-10.97 10.827h-18.807zm10.971-5.414c-3.03 0-5.486 2.424-5.486 5.414v6.96h13.322c3.029 0 5.485-2.424 5.485-5.414v-6.96zM183.752 34.8h-5.485v23.199h5.485v-17.28l.131.057c8.018 3.494 14.6 9.564 18.676 17.222l.001.002.003-.001h5.481v-23.2h-5.485v13.42a44.2 44.2 0 0 0-16.46-12.395zM77.544 43.692a5.485 5.485 0 0 1 5.125-3.48h14.888v3.48zm-.36 5.413V58h-5.485V45.626c0-5.98 4.911-10.827 10.97-10.827h20.373V58h-5.485v-8.894zM218.591 14.306a5.485 5.485 0 0 1 5.125-3.48h13.321v3.48zm-.36 5.414v8.893h-5.486V16.24c0-5.98 4.912-10.827 10.971-10.827h18.806v23.2h-5.485V19.72zM107.744 45.626c0-5.98 4.912-10.827 10.97-10.827h20.374v5.413h-20.374c-3.029 0-5.485 2.424-5.485 5.414v6.96h20.374v-3.48h-3.526v-5.414h9.011V58h-31.344zM212.745 45.626c0-5.98 4.912-10.827 10.971-10.827h18.806v5.413h-18.806a5.48 5.48 0 0 0-5.125 3.48h23.931v3.48c0 5.98-4.912 10.827-10.97 10.827h-18.807v-5.414h18.807a5.49 5.49 0 0 0 5.125-3.48h-23.932zM5.485 5.413v23.2H0v-23.2zM187.083 5.413c-4.869 0-8.816 3.895-8.816 8.7h5.485c0-1.815 1.491-3.286 3.331-3.286h4.897v17.786h5.485V10.827h10.579V5.413zM34.87 5.413c6.059 0 10.97 4.848 10.97 10.827v12.373h-5.485V16.24c0-2.99-2.456-5.413-5.485-5.413H15.672v17.786h-5.485v-23.2zm-3.918 23.2V13.92h-5.485v14.693zM75.225 5.413c6.059 0 10.97 4.848 10.97 10.827v12.373H80.71V16.24c0-2.99-2.456-5.413-5.485-5.413H56.027v17.786h-5.485v-23.2zm-3.918 23.2V13.92h-5.485v14.693zM67.39 34.8H36.044v23.199h5.486V40.212h20.373c0 1.922-1.579 3.48-3.526 3.48H44.665v5.413h6.703L60.415 58h7.758l-9.067-8.922c4.636-.366 8.283-4.195 8.283-8.865zM173.566 5.413h-29.777v23.2h5.485V10.827h18.807c0 1.922-1.579 3.48-3.526 3.48h-12.146v5.413h5.136l9.047 8.892h7.757l-9.065-8.92c4.635-.367 8.282-4.196 8.282-8.865z" clip-rule="evenodd"/></svg>