<svg viewBox="0 0 1069 27" fill="none" xmlns="http://www.w3.org/2000/svg">
    <path d="M0.806203 25.028L8.1862 1.16H16.1062L23.4862 25.028L22.8382 26H18.5182L17.0062 20.96H7.2862L5.7742 26H1.4542L0.806203 25.028ZM8.6902 16.28H15.6022L12.4342 5.84H11.8582L8.6902 16.28ZM35.7352 26V1.16H47.8312C51.8632 1.16 53.8792 3.176 53.8792 7.208V12.032C53.8792 16.064 51.8632 18.08 47.8312 18.08H40.9192V26H35.7352ZM40.9192 13.4H47.6152C48.3352 13.4 48.6952 13.04 48.6952 12.32V6.92C48.6952 6.2 48.3352 5.84 47.6152 5.84H40.9192V13.4ZM58.4762 19.952V1.16H63.6602V20.24C63.6602 20.96 64.0202 21.32 64.7402 21.32H71.7962C72.5162 21.32 72.8762 20.96 72.8762 20.24V1.16H78.0602V19.952C78.0602 23.984 76.0442 26 72.0122 26H64.5242C60.4922 26 58.4762 23.984 58.4762 19.952ZM83.7586 26V1.16H95.8546C99.8866 1.16 101.903 3.176 101.903 7.208V11.312C101.903 14.312 100.787 16.184 98.5546 16.928L102.623 24.92L102.011 26H97.5466L93.1546 17.36H88.9426V26H83.7586ZM88.9426 12.68H95.6386C96.3586 12.68 96.7186 12.32 96.7186 11.6V6.92C96.7186 6.2 96.3586 5.84 95.6386 5.84H88.9426V12.68ZM107.102 26V1.16H119.198C123.23 1.16 125.246 3.176 125.246 7.208V12.032C125.246 16.064 123.23 18.08 119.198 18.08H112.286V26H107.102ZM112.286 13.4H118.982C119.702 13.4 120.062 13.04 120.062 12.32V6.92C120.062 6.2 119.702 5.84 118.982 5.84H112.286V13.4ZM129.699 19.952V7.208C129.699 3.176 131.715 1.16 135.747 1.16H143.955C147.987 1.16 150.003 3.176 150.003 7.208V19.952C150.003 23.984 147.987 26 143.955 26H135.747C131.715 26 129.699 23.984 129.699 19.952ZM134.883 20.24C134.883 20.96 135.243 21.32 135.963 21.32H143.739C144.459 21.32 144.819 20.96 144.819 20.24V6.92C144.819 6.2 144.459 5.84 143.739 5.84H135.963C135.243 5.84 134.883 6.2 134.883 6.92V20.24ZM154.468 24.128V21.32H165.628C166.348 21.32 166.708 20.96 166.708 20.24V17.648C166.708 16.952 166.408 16.556 165.808 16.46L158.788 15.02C155.908 14.444 154.468 12.512 154.468 9.224V7.208C154.468 3.176 156.484 1.16 160.516 1.16H168.76L171.172 3.032V5.84H160.732C160.012 5.84 159.652 6.2 159.652 6.92V9.26C159.652 9.932 159.952 10.328 160.552 10.448L167.572 11.852C170.452 12.428 171.892 14.36 171.892 17.648V19.952C171.892 23.984 169.876 26 165.844 26H156.88L154.468 24.128ZM176.712 26V1.16H193.704V5.84H181.896V10.88H192.624V15.56H181.896V21.32H193.704V26H176.712ZM196.926 17.144V12.896H207.726V17.144H196.926ZM212.114 26V1.16H221.546C228.314 1.16 231.698 4.544 231.698 11.312V15.848C231.698 22.616 228.314 26 221.546 26H212.114ZM217.298 21.32H221.834C224.954 21.32 226.514 19.76 226.514 16.64V10.52C226.514 7.4 224.954 5.84 221.834 5.84H217.298V21.32ZM236.899 26V1.16H248.995C253.027 1.16 255.043 3.176 255.043 7.208V11.312C255.043 14.312 253.927 16.184 251.695 16.928L255.763 24.92L255.151 26H250.687L246.295 17.36H242.083V26H236.899ZM242.083 12.68H248.779C249.499 12.68 249.859 12.32 249.859 11.6V6.92C249.859 6.2 249.499 5.84 248.779 5.84H242.083V12.68ZM260.243 26V1.16H265.427V26H260.243ZM269.013 2.132L269.661 1.16H274.233L279.885 21.32H280.461L286.149 1.16H290.685L291.333 2.132L284.277 26H276.069L269.013 2.132ZM294.942 26V1.16H311.934V5.84H300.126V10.88H310.854V15.56H300.126V21.32H311.934V26H294.942ZM316.669 26V1.16H322.285L332.149 17.468V1.16H337.333V26H331.717L321.853 9.692V26H316.669ZM351.895 26V1.16H357.079V21.32H367.807V26H351.895ZM371.258 19.952V7.208C371.258 3.176 373.274 1.16 377.306 1.16H385.514C389.546 1.16 391.562 3.176 391.562 7.208V19.952C391.562 23.984 389.546 26 385.514 26H377.306C373.274 26 371.258 23.984 371.258 19.952ZM376.442 20.24C376.442 20.96 376.802 21.32 377.522 21.32H385.298C386.018 21.32 386.378 20.96 386.378 20.24V6.92C386.378 6.2 386.018 5.84 385.298 5.84H377.522C376.802 5.84 376.442 6.2 376.442 6.92V20.24ZM397.106 26V1.16H402.722L412.586 17.468V1.16H417.77V26H412.154L402.29 9.692V26H397.106ZM423.324 19.952V7.208C423.324 3.176 425.34 1.16 429.372 1.16H439.776L442.188 3.032V5.84H429.588C428.868 5.84 428.508 6.2 428.508 6.92V20.24C428.508 20.96 428.868 21.32 429.588 21.32H437.724V15.56H432.972V10.88H442.908V26H429.372C425.34 26 423.324 23.984 423.324 19.952ZM448.083 26V1.16H465.075V5.84H453.267V10.88H463.995V15.56H453.267V21.32H465.075V26H448.083ZM467.505 2.132L468.153 1.16H472.725L478.377 21.32H478.953L484.641 1.16H489.177L489.825 2.132L482.769 26H474.561L467.505 2.132ZM493.434 26V1.16H498.618V26H493.434ZM502.421 5.84V1.16H522.725V5.84H515.165V26H509.981V5.84H502.421ZM524.248 2.132L524.86 1.16H529.288L534.688 11.708L540.088 1.16H544.516L545.128 2.132L537.28 17.216V26H532.096V17.216L524.248 2.132ZM557.384 26V1.16H574.376V5.84H562.568V11.96H573.296V16.64H562.568V26H557.384ZM578.191 19.952V1.16H583.375V20.24C583.375 20.96 583.735 21.32 584.455 21.32H591.511C592.231 21.32 592.591 20.96 592.591 20.24V1.16H597.775V19.952C597.775 23.984 595.759 26 591.727 26H584.239C580.207 26 578.191 23.984 578.191 19.952ZM603.473 26V1.16H609.089L618.953 17.468V1.16H624.137V26H618.521L608.657 9.692V26H603.473ZM630.052 26V1.16H639.484C646.252 1.16 649.636 4.544 649.636 11.312V15.848C649.636 22.616 646.252 26 639.484 26H630.052ZM635.236 21.32H639.772C642.892 21.32 644.452 19.76 644.452 16.64V10.52C644.452 7.4 642.892 5.84 639.772 5.84H635.236V21.32ZM663.485 26V1.16H675.221C679.253 1.16 681.269 3.176 681.269 7.208V9.368C681.269 10.184 681.029 10.88 680.549 11.456L679.289 12.968L680.801 14.228C681.593 14.876 681.989 15.836 681.989 17.108V19.952C681.989 23.984 679.973 26 675.941 26H663.485ZM668.669 21.32H675.725C676.445 21.32 676.805 20.96 676.805 20.24V16.64C676.805 15.92 676.445 15.56 675.725 15.56H668.669V21.32ZM668.669 10.88H675.005C675.725 10.88 676.085 10.52 676.085 9.8V6.92C676.085 6.2 675.725 5.84 675.005 5.84H668.669V10.88ZM684.666 25.028L692.046 1.16H699.966L707.346 25.028L706.698 26H702.378L700.866 20.96H691.146L689.634 26H685.314L684.666 25.028ZM692.55 16.28H699.462L696.294 5.84H695.718L692.55 16.28ZM710.586 19.952V7.208C710.586 3.176 712.602 1.16 716.634 1.16H726.246L728.658 3.032V5.84H716.85C716.13 5.84 715.77 6.2 715.77 6.92V20.24C715.77 20.96 716.13 21.32 716.85 21.32H728.658V24.128L726.246 26H716.634C712.602 26 710.586 23.984 710.586 19.952ZM733.411 26V1.16H738.595V10.988L747.379 1.16H752.239L752.743 2.204L744.499 11.384L753.643 24.956L753.175 26H748.387L741.151 15.128L738.595 17.9V26H733.411ZM757.598 26V1.16H762.782V26H757.598ZM768.673 26V1.16H774.289L784.153 17.468V1.16H789.337V26H783.721L773.857 9.692V26H768.673ZM794.891 19.952V7.208C794.891 3.176 796.907 1.16 800.939 1.16H811.343L813.755 3.032V5.84H801.155C800.435 5.84 800.075 6.2 800.075 6.92V20.24C800.075 20.96 800.435 21.32 801.155 21.32H809.291V15.56H804.539V10.88H814.475V26H800.939C796.907 26 794.891 23.984 794.891 19.952ZM828.226 26V21.32H833.734V5.84H829.126V3.032L831.538 1.16H838.918V21.32H843.85V26H828.226ZM848.03 19.952V7.208C848.03 3.176 850.046 1.16 854.078 1.16H859.046C863.078 1.16 865.094 3.176 865.094 7.208V19.952C865.094 23.984 863.078 26 859.046 26H854.078C850.046 26 848.03 23.984 848.03 19.952ZM853.214 20.24C853.214 20.96 853.574 21.32 854.294 21.32H858.83C859.55 21.32 859.91 20.96 859.91 20.24V6.92C859.91 6.2 859.55 5.84 858.83 5.84H854.294C853.574 5.84 853.214 6.2 853.214 6.92V20.24ZM869.131 16.064V11.816H875.143V5.48H879.607V11.816H885.619V16.064H879.607V22.4H875.143V16.064H869.131ZM899.384 26V1.16H911.48C915.512 1.16 917.528 3.176 917.528 7.208V12.032C917.528 16.064 915.512 18.08 911.48 18.08H904.568V26H899.384ZM904.568 13.4H911.264C911.984 13.4 912.344 13.04 912.344 12.32V6.92C912.344 6.2 911.984 5.84 911.264 5.84H904.568V13.4ZM922.341 26V1.16H927.525V26H922.341ZM933.055 19.952V7.208C933.055 3.176 935.071 1.16 939.103 1.16H947.311C951.343 1.16 953.359 3.176 953.359 7.208V19.952C953.359 23.984 951.343 26 947.311 26H939.103C935.071 26 933.055 23.984 933.055 19.952ZM938.239 20.24C938.239 20.96 938.599 21.32 939.319 21.32H947.095C947.815 21.32 948.175 20.96 948.175 20.24V6.92C948.175 6.2 947.815 5.84 947.095 5.84H939.319C938.599 5.84 938.239 6.2 938.239 6.92V20.24ZM958.903 26V1.16H964.519L974.383 17.468V1.16H979.567V26H973.951L964.087 9.692V26H958.903ZM985.481 26V1.16H1002.47V5.84H990.665V10.88H1001.39V15.56H990.665V21.32H1002.47V26H985.481ZM1007.21 26V1.16H1024.2V5.84H1012.39V10.88H1023.12V15.56H1012.39V21.32H1024.2V26H1007.21ZM1028.93 26V1.16H1041.03C1045.06 1.16 1047.08 3.176 1047.08 7.208V11.312C1047.08 14.312 1045.96 16.184 1043.73 16.928L1047.8 24.92L1047.19 26H1042.72L1038.33 17.36H1034.12V26H1028.93ZM1034.12 12.68H1040.81C1041.53 12.68 1041.89 12.32 1041.89 11.6V6.92C1041.89 6.2 1041.53 5.84 1040.81 5.84H1034.12V12.68ZM1051.2 24.128V21.32H1062.36C1063.08 21.32 1063.44 20.96 1063.44 20.24V17.648C1063.44 16.952 1063.14 16.556 1062.54 16.46L1055.52 15.02C1052.64 14.444 1051.2 12.512 1051.2 9.224V7.208C1051.2 3.176 1053.21 1.16 1057.25 1.16H1065.49L1067.9 3.032V5.84H1057.46C1056.74 5.84 1056.38 6.2 1056.38 6.92V9.26C1056.38 9.932 1056.68 10.328 1057.28 10.448L1064.3 11.852C1067.18 12.428 1068.62 14.36 1068.62 17.648V19.952C1068.62 23.984 1066.61 26 1062.57 26H1053.61L1051.2 24.128Z"
          fill="#222222"/>
</svg>
