<svg xmlns="http://www.w3.org/2000/svg" fill="none" viewBox="0 0 287 35"><path fill="#222" d="M6.92 33.88a7.4 7.4 0 0 0-.396-1.26 34 34 0 0 0-.612-1.368 5.7 5.7 0 0 0-.648-1.044 4.6 4.6 0 0 0 1.188-.936q.576-.648.576-1.8V.544h4.536v29.7l-.468.252q-.468.216-1.152.576a32 32 0 0 0-1.404.864q-.684.468-1.152.972t-.468.972m0 0-.396-3.996 2.052-1.476 10.728-2.34q0 .972.108 2.196.144 1.224.288 1.98-3.708.9-6.048 1.476t-3.672.972q-1.296.396-1.98.648-.648.288-1.08.54M.836 13.972H33.2v4.32H.836zm18.828 2.196q1.116 3.168 3.096 5.688a19.2 19.2 0 0 0 4.788 4.32q2.844 1.8 6.516 2.736a10 10 0 0 0-1.08 1.224q-.576.72-1.08 1.476a29 29 0 0 0-.864 1.44q-3.96-1.296-6.912-3.492a21.6 21.6 0 0 1-5.004-5.328q-2.088-3.132-3.492-7.092zm6.408-15.12 4.392 1.944Q28.7 4.9 26.36 6.7a54 54 0 0 1-4.788 3.276 50 50 0 0 1-4.86 2.556q-.36-.468-1.008-1.152t-1.296-1.332a8 8 0 0 0-1.224-1.08 38.5 38.5 0 0 0 4.824-2.088 39 39 0 0 0 4.5-2.736q2.088-1.476 3.564-3.096m12.6 1.944h28.584v3.6H38.672zm1.476 5.544H65.96v3.492H40.148zm-3.456 5.544h32.652v3.708H36.692zm.648 6.336h31.392v3.78H37.34zm21.528-3.024h4.392v12.096q0 1.548-.36 2.448-.36.936-1.476 1.44-1.08.504-2.592.612-1.512.144-3.456.108-.144-.9-.612-2.124a28 28 0 0 0-.828-2.052q1.296.036 2.556.036h1.656q.396 0 .54-.108.18-.144.18-.468zM50.264.364l4.752.432q-.9 7.704-2.664 13.86-1.728 6.12-4.788 10.728-3.024 4.608-7.776 7.668-.36-.432-1.08-1.08a44 44 0 0 0-1.476-1.26 16 16 0 0 0-1.368-1.08q4.752-2.592 7.632-6.732t4.464-9.792T50.264.364M45.98 27.472l3.492-2.196a55 55 0 0 1 1.584 1.656q.828.9 1.548 1.8.756.864 1.188 1.62l-3.708 2.412a16 16 0 0 0-1.08-1.656 29 29 0 0 0-1.476-1.872 30 30 0 0 0-1.548-1.764M82.952 3.964h22.932v3.888H82.952zm4.68 9.936v3.564h13.14V13.9zm-3.924-3.492h21.24v10.584h-21.24zm3.384 10.98q1.656 2.556 4.392 4.428Q94.22 27.652 98 28.768t8.46 1.548q-.468.468-.972 1.152-.468.684-.9 1.404-.396.72-.684 1.296-4.86-.648-8.748-2.124-3.852-1.44-6.732-3.816-2.844-2.412-4.86-5.796zM92.024.652h4.284v16.416q0 2.196-.288 4.32a17.8 17.8 0 0 1-1.044 4.032 12.5 12.5 0 0 1-2.088 3.564q-1.368 1.656-3.528 2.988t-5.256 2.232q-.216-.468-.72-1.152-.468-.648-.972-1.332a9 9 0 0 0-.972-1.08q2.916-.648 4.824-1.656 1.944-1.044 3.096-2.376t1.728-2.844a13.3 13.3 0 0 0 .756-3.24q.18-1.692.18-3.492zM80.216.328l3.996 1.296a54 54 0 0 1-2.916 6.12 58 58 0 0 1-3.6 5.76q-1.908 2.7-3.96 4.752-.18-.54-.576-1.368a38 38 0 0 0-.864-1.692 13 13 0 0 0-.828-1.368 31 31 0 0 0 3.348-3.816 37 37 0 0 0 3.024-4.644 44 44 0 0 0 2.376-5.04m-3.528 10.008 4.104-4.104v28.08h-4.104zm48.168-5.904q-1.512 1.908-3.852 3.888a52 52 0 0 1-5.148 3.816 50 50 0 0 1-5.724 3.204q-.288-.54-.756-1.188-.432-.648-.936-1.296-.504-.684-.972-1.152 3.06-1.296 5.94-3.168 2.916-1.908 5.22-4.032 2.34-2.124 3.78-4.104h4.536a33 33 0 0 0 3.348 3.492 39 39 0 0 0 3.852 3.06 42 42 0 0 0 4.176 2.52q2.16 1.08 4.356 1.872a14 14 0 0 0-1.584 1.908q-.72 1.044-1.296 2.016a64 64 0 0 1-4.14-2.196 58 58 0 0 1-4.14-2.7 48 48 0 0 1-3.744-2.952q-1.692-1.512-2.916-2.988m-7.164 5.256h14.544v3.852h-14.544zm-4.392 6.048h10.044v12.996H113.3v-3.744h6.12V19.48h-6.12zm12.384.036h10.368v3.744h-6.264v14.832h-4.104zm9.144 0h4.14v10.8q0 1.368-.324 2.232-.288.864-1.26 1.368-.9.468-2.232.576a56 56 0 0 1-3.06.072q-.108-.864-.468-1.98a14 14 0 0 0-.684-1.908l2.016.072q.972 0 1.296-.036.324 0 .432-.108.144-.108.144-.432zm-23.364-.036h3.852v15.912h-3.852zm42.696 1.368h3.708l-.036.612q0 .576-.036.936-.216 4.5-.468 7.308t-.612 4.32-.9 2.16q-.576.684-1.224.972a5.4 5.4 0 0 1-1.512.396q-.72.072-1.908.072-1.188.036-2.484-.036-.036-.792-.36-1.764a7.3 7.3 0 0 0-.72-1.692q1.224.108 2.232.144 1.044.036 1.512.036t.756-.072q.288-.108.54-.36.36-.432.612-1.728.288-1.332.504-3.924t.396-6.768zm-10.62 7.812q1.8-.324 4.176-.792 2.412-.504 4.968-1.044l.324 3.168-4.536 1.08q-2.232.504-4.212.936zm1.332-23.112h9.468v3.6h-9.468zm8.028-.108h3.672a139 139 0 0 1-.216 4.104 252 252 0 0 1-.252 4.248 159 159 0 0 1-.324 3.996q-.18 1.872-.36 3.384l-3.672-.036a161 161 0 0 0 .684-7.488q.18-2.088.288-4.212t.18-3.996m-7.02 6.048 3.708.216a189 189 0 0 1-.288 4.356q-.18 2.304-.36 4.464a74 74 0 0 1-.396 3.708h-3.672q.216-1.656.432-3.852t.36-4.5q.18-2.34.216-4.392m.324 9.396h8.676v3.348h-8.676zm31.104-14.832v3.888h-14.112V29.02h14.76v3.888h-18.792v-30.6zm-13.788 7.92 3.06-1.944a119 119 0 0 1 3.096 4.176 91 91 0 0 1 3.024 4.464 110 110 0 0 1 2.7 4.356q1.224 2.052 1.944 3.744l-3.42 2.376q-.72-1.728-1.872-3.852a84 84 0 0 0-2.592-4.428 94 94 0 0 0-2.952-4.608 119 119 0 0 0-2.988-4.284m8.856-2.628 3.888.972a70 70 0 0 1-2.736 7.272 71 71 0 0 1-3.42 6.732q-1.8 3.168-3.78 5.508-.324-.36-.936-.9-.576-.54-1.188-1.044-.612-.54-1.08-.864 1.944-2.088 3.672-4.932a50 50 0 0 0 3.132-6.084 57 57 0 0 0 2.448-6.66m24.768.648h14.148v4.14h-14.148zm11.916 0h4.212v.36q0 .36-.036.828v.756a354 354 0 0 1-.288 9.324q-.144 3.816-.36 6.3t-.54 3.924q-.324 1.404-.756 2.016-.648.936-1.332 1.296-.684.396-1.656.576-.864.144-2.16.144-1.296.036-2.7-.036-.036-.936-.396-2.124a9.3 9.3 0 0 0-.9-2.088q1.296.108 2.376.144h1.656q.468 0 .756-.108.288-.144.576-.468.324-.432.54-1.656.252-1.26.432-3.564.18-2.34.288-5.94.144-3.636.288-8.784zm-7.848-7.2h4.284q0 4.212-.108 8.172a93 93 0 0 1-.432 7.524q-.36 3.6-1.152 6.768t-2.16 5.868a17.7 17.7 0 0 1-3.492 4.824 7.2 7.2 0 0 0-.9-1.224q-.54-.612-1.152-1.188a7 7 0 0 0-1.152-.9 15.5 15.5 0 0 0 3.132-4.248q1.224-2.376 1.836-5.22.648-2.844.9-6.084.288-3.24.324-6.804.072-3.6.072-7.488m-19.296 2.16h14.148v3.78h-14.148zm-1.188 8.352h15.984v3.924h-15.984zm10.332 7.164 3.492-.936q.648 1.476 1.296 3.24.684 1.728 1.26 3.384a30 30 0 0 1 .864 2.88l-3.744 1.188a36 36 0 0 0-.756-2.916 66 66 0 0 0-1.152-3.492 52 52 0 0 0-1.26-3.348m-8.784 11.592-.432-3.636 1.836-1.368 11.664-2.736q.036.828.216 1.908.216 1.08.396 1.728-3.276.864-5.508 1.476-2.232.576-3.708 1.008-1.44.396-2.304.684t-1.368.504q-.468.18-.792.432m-.036-.036q-.072-.396-.324-1.116-.216-.72-.504-1.44a20 20 0 0 0-.54-1.296q.54-.18.936-.792.432-.612.864-1.584.216-.504.576-1.584.396-1.116.828-2.592.432-1.512.864-3.204.432-1.728.684-3.42l4.248 1.188a48 48 0 0 1-1.296 4.824 67 67 0 0 1-1.728 4.68q-.9 2.232-1.8 4.032v.108l-.432.216a9 9 0 0 0-.972.576 8 8 0 0 0-.972.756q-.432.36-.432.648m35.856-27.144h29.988v3.492h-29.988zm1.296 26.568h27.576v3.528h-27.576zm6.192-21.528h14.688V11.2h-14.688zm0 4.608h14.688v3.024h-14.688zm-9.432 4.644h33.696v3.528h-33.696zm8.208 6.516h17.352v3.42H224.36zM223.064.4h4.32v18.936h-4.32zm15.66.036h4.428v18.936h-4.428zm-7.992 21.24h4.392v10.08h-4.392zm-5.472-3.24 3.636 1.332a20.8 20.8 0 0 1-2.808 3.636 27 27 0 0 1-3.528 3.096 22 22 0 0 1-3.96 2.268 17 17 0 0 0-1.8-2.304 6.2 6.2 0 0 0-.972-.972 23 23 0 0 0 3.708-1.8q1.8-1.08 3.276-2.448 1.512-1.368 2.448-2.808m15.66 0q.972 1.368 2.412 2.664 1.476 1.26 3.24 2.304 1.8 1.044 3.672 1.728a10 10 0 0 0-1.008 1.008q-.54.576-1.044 1.188-.468.612-.792 1.116a19.8 19.8 0 0 1-3.78-2.232 27 27 0 0 1-3.42-3.024 23.3 23.3 0 0 1-2.7-3.456zM268.856 4.54q-1.476 2.052-3.744 4.248A46 46 0 0 1 260.144 13a45 45 0 0 1-5.652 3.6q-.288-.54-.756-1.188a12 12 0 0 0-.972-1.26 15 15 0 0 0-.972-1.08 34 34 0 0 0 5.94-3.636q2.844-2.196 5.076-4.572 2.268-2.376 3.6-4.572h4.5a38.5 38.5 0 0 0 3.24 3.924 34 34 0 0 0 3.78 3.456 38.5 38.5 0 0 0 4.14 2.844 31 31 0 0 0 4.284 2.124 13.4 13.4 0 0 0-1.548 1.872q-.72 1.044-1.332 2.016a49 49 0 0 1-4.176-2.484 55 55 0 0 1-4.032-2.988 54 54 0 0 1-3.6-3.276q-1.656-1.656-2.808-3.24m-9 6.66h18.108v3.78h-18.108zm-4.32 7.344h26.676v3.744h-26.676zm-1.8 10.944h30.6v3.708h-30.6zm12.78-16.776h4.572V31.36h-4.572zm-8.712 10.944 3.456-1.44q.684.9 1.332 1.98.684 1.08 1.224 2.124t.792 1.872l-3.708 1.656q-.216-.828-.72-1.908a32 32 0 0 0-1.116-2.232 23 23 0 0 0-1.26-2.052m18.288-1.404 4.14 1.512A134 134 0 0 1 278 27.076a43 43 0 0 1-2.124 2.772l-3.24-1.368q.612-.864 1.26-1.908.648-1.08 1.224-2.196.576-1.152.972-2.124"/></svg>