<svg xmlns="http://www.w3.org/2000/svg" fill="none" viewBox="0 0 650 27"><path fill="#222" d="M.785 25.028 8.165 1.16h7.92l7.38 23.868-.648.972h-4.32l-1.512-5.04h-9.72L5.753 26h-4.32zm7.884-8.748h6.912L12.413 5.84h-.576zM35.714 26V1.16H47.81q6.048 0 6.048 6.048v4.824q0 6.048-6.048 6.048h-6.912V26zm5.184-12.6h6.696q1.08 0 1.08-1.08v-5.4q0-1.08-1.08-1.08h-6.696zm17.557 6.552V1.16h5.184v19.08q0 1.08 1.08 1.08h7.056q1.08 0 1.08-1.08V1.16h5.184v18.792Q78.039 26 71.99 26h-7.488q-6.048 0-6.048-6.048M83.737 26V1.16h12.096q6.048 0 6.048 6.048v4.104q0 4.5-3.348 5.616l4.068 7.992-.612 1.08h-4.464l-4.392-8.64h-4.212V26zm5.184-13.32h6.696q1.08 0 1.08-1.08V6.92q0-1.08-1.08-1.08h-6.696zM107.081 26V1.16h12.096q6.048 0 6.048 6.048v4.824q0 6.048-6.048 6.048h-6.912V26zm5.184-12.6h6.696q1.08 0 1.08-1.08v-5.4q0-1.08-1.08-1.08h-6.696zm17.413 6.552V7.208q0-6.048 6.048-6.048h8.208q6.048 0 6.048 6.048v12.744q0 6.048-6.048 6.048h-8.208q-6.048 0-6.048-6.048m5.184.288q0 1.08 1.08 1.08h7.776q1.08 0 1.08-1.08V6.92q0-1.08-1.08-1.08h-7.776q-1.08 0-1.08 1.08zm19.584 3.888V21.32h11.16q1.08 0 1.08-1.08v-2.592q0-1.044-.9-1.188l-7.02-1.44q-4.32-.864-4.32-5.796V7.208q0-6.048 6.048-6.048h8.244l2.412 1.872V5.84h-10.44q-1.08 0-1.08 1.08v2.34q0 1.008.9 1.188l7.02 1.404q4.32.864 4.32 5.796v2.304q0 6.048-6.048 6.048h-8.964zM176.69 26V1.16h16.992v4.68h-11.808v5.04h10.728v4.68h-10.728v5.76h11.808V26zm20.215-8.856v-4.248h10.8v4.248zM212.093 26V1.16h9.432q10.152 0 10.152 10.152v4.536Q231.677 26 221.525 26zm5.184-4.68h4.536q4.68 0 4.68-4.68v-6.12q0-4.68-4.68-4.68h-4.536zM236.878 26V1.16h12.096q6.048 0 6.048 6.048v4.104q0 4.5-3.348 5.616l4.068 7.992-.612 1.08h-4.464l-4.392-8.64h-4.212V26zm5.184-13.32h6.696q1.08 0 1.08-1.08V6.92q0-1.08-1.08-1.08h-6.696zM260.222 26V1.16h5.184V26zm8.77-23.868.648-.972h4.572l5.652 20.16h.576l5.688-20.16h4.536l.648.972L284.256 26h-8.208zM294.921 26V1.16h16.992v4.68h-11.808v5.04h10.728v4.68h-10.728v5.76h11.808V26zm21.726 0V1.16h5.616l9.864 16.308V1.16h5.184V26h-5.616l-9.864-16.308V26zm35.227 0V1.16h5.184v20.16h10.728V26zm19.363-6.048V7.208q0-6.048 6.048-6.048h8.208q6.048 0 6.048 6.048v12.744q0 6.048-6.048 6.048h-8.208q-6.048 0-6.048-6.048m5.184.288q0 1.08 1.08 1.08h7.776q1.08 0 1.08-1.08V6.92q0-1.08-1.08-1.08h-7.776q-1.08 0-1.08 1.08zM397.085 26V1.16h5.616l9.864 16.308V1.16h5.184V26h-5.616l-9.864-16.308V26zm26.218-6.048V7.208q0-6.048 6.048-6.048h10.404l2.412 1.872V5.84h-12.6q-1.08 0-1.08 1.08v13.32q0 1.08 1.08 1.08h8.136v-5.76h-4.752v-4.68h9.936V26h-13.536q-6.048 0-6.048-6.048M448.061 26V1.16h16.992v4.68h-11.808v5.04h10.728v4.68h-10.728v5.76h11.808V26zm19.423-23.868.648-.972h4.572l5.652 20.16h.576l5.688-20.16h4.536l.648.972L482.748 26h-8.208zM493.413 26V1.16h5.184V26zm8.986-20.16V1.16h20.304v4.68h-7.56V26h-5.184V5.84zm21.827-3.708.612-.972h4.428l5.4 10.548 5.4-10.548h4.428l.612.972-7.848 15.084V26h-5.184v-8.784zM557.362 26V1.16h16.992v4.68h-11.808v6.12h10.728v4.68h-10.728V26zm20.808-6.048V1.16h5.184v19.08q0 1.08 1.08 1.08h7.056q1.08 0 1.08-1.08V1.16h5.184v18.792q0 6.048-6.048 6.048h-7.488q-6.048 0-6.048-6.048M603.452 26V1.16h5.616l9.864 16.308V1.16h5.184V26H618.5l-9.864-16.308V26zm26.578 0V1.16h9.432q10.152 0 10.152 10.152v4.536Q649.614 26 639.462 26zm5.184-4.68h4.536q4.68 0 4.68-4.68v-6.12q0-4.68-4.68-4.68h-4.536z"/></svg>