<svg xmlns="http://www.w3.org/2000/svg" width="1em" height="1em" fill="none" viewBox="0 0 24 24"><path fill="current" d="M19.95 3.088H4.047c-1.1 0-2.05.95-2.05 2.05v3.45h20v-3.45c0-1.1-.95-2.05-2.049-2.05M4.997 6.886c0 .1-.1.2-.199.2h-.6c-.099 0-.198-.1-.198-.2v-2.1c0-.099.1-.198.199-.198h.6c.099 0 .198.1.198.199zm2.5 0c0 .1-.1.2-.199.2h-.6c-.1 0-.199-.1-.199-.2v-2.1c0-.099.1-.198.2-.198h.6c.099 0 .198.1.198.199zm2.5 0c0 .1-.1.2-.2.2H9.2c-.1 0-.199-.1-.199-.2v-2.1c0-.099.1-.198.2-.198h.599c.1 0 .199.1.199.199zm2.502 0c0 .1-.1.2-.2.2h-.599c-.1 0-.2-.1-.2-.2v-2.1c0-.099.1-.198.2-.198h.598c.1 0 .199.1.199.199v2.1zm2.5 0c0 .1-.1.2-.2.2h-.6c-.099 0-.198-.1-.198-.2v-2.1c0-.099.1-.198.199-.198h.6c.099 0 .198.1.198.199zm2.5 0c0 .1-.1.2-.2.2h-.6c-.1 0-.199-.1-.199-.2v-2.1c0-.099.1-.198.2-.198h.597c.1 0 .2.1.2.199v2.1zm2.499 0c0 .1-.1.2-.2.2H19.2c-.1 0-.199-.1-.199-.2v-2.1c0-.099.1-.198.2-.198h.599c.1 0 .199.1.199.199zm-18 12.15c0 1.1.95 2.05 2.05 2.05h15.898c1.15 0 2.05-.95 2.05-2.05V9.588H1.999zm8.499-5.35c0-.55.4-.75.85-.45l3.3 1.9c.451.252.451.7 0 1l-3.3 1.9c-.45.252-.85.05-.85-.45z"/></svg>