<svg width="1em" height="1em" viewBox="0 0 24 24" fill="current" xmlns="http://www.w3.org/2000/svg"><path d="M14.4883 3.27148V7.22949C14.4886 7.50567 14.5987 7.77053 14.7939 7.96582C14.9892 8.161 15.2542 8.27117 15.5303 8.27148H19.4883L19.499 19.708C19.4987 19.984 19.3894 20.2491 19.1943 20.4443C18.9991 20.6395 18.7341 20.7496 18.458 20.75L5.55273 20.7285C5.2766 20.7282 5.01168 20.6181 4.81641 20.4229C4.62112 20.2276 4.51105 19.9627 4.51074 19.6865L4.5 4.29199C4.50031 4.01593 4.60956 3.75093 4.80469 3.55566C4.99993 3.36041 5.2649 3.25035 5.54102 3.25L14.4883 3.27148ZM14.4766 9.81543C14.1641 9.50304 13.6571 9.50302 13.3447 9.81543L8.25391 14.9072V17.0283H10.375L15.4668 11.9365C15.7786 11.6242 15.7788 11.1179 15.4668 10.8057L14.4766 9.81543ZM15.3828 3.57617L19.1826 7.37695C19.2022 7.39657 19.2215 7.41672 19.2393 7.4375H15.5303C15.4751 7.4375 15.4219 7.41592 15.3828 7.37695C15.3437 7.33788 15.3213 7.28475 15.3213 7.22949V3.52051C15.3421 3.53835 15.3632 3.55651 15.3828 3.57617Z" fill="current"/></svg>
