<svg width="177" height="35" viewBox="0 0 177 35" fill="none" xmlns="http://www.w3.org/2000/svg">
<path d="M162.425 18.8459V22.6536H149.436C147.826 22.6536 146.919 23.4613 146.715 25.1229H162.493V28.1921C162.493 32.7152 160.09 34.9998 155.284 34.9998H143.043V31.169H156.1C157.665 31.169 158.549 30.3152 158.798 28.7459H143.043V25.6536C143.043 21.1306 145.446 18.8459 150.274 18.8459H162.425Z" fill="#C11111"/>
<path d="M139.884 18.8459V34.9998H135.803C131.451 28.9536 127.257 25.0075 123.131 23.4152C122.836 23.3229 122.474 23.1613 122.088 23.0229C122.134 23.5998 122.156 23.9921 122.156 24.1536V34.9998H118.393V18.8459H121.726C126.804 20.5075 131.519 24.2459 135.486 28.6305L136.189 29.3921C136.143 28.9075 136.121 28.5613 136.121 28.3305V18.8459H139.884Z" fill="#C11111"/>
<path d="M111.342 26.8998V22.6536H102.138C98.9643 22.6536 97.9895 23.6459 97.9895 26.969V31.169H107.193C110.299 31.169 111.342 30.2459 111.342 26.8998ZM102.07 18.8459H115.195V26.969C115.195 31.9998 112.316 34.9998 107.284 34.9998H94.1357V26.8998C94.1357 21.9613 97.0601 18.8459 102.07 18.8459Z" fill="#C11111"/>
<path d="M78.3251 18.8459H91.1559V22.6536H78.3931C75.1741 22.6536 74.2447 23.6229 74.2447 27.0382V31.169H87.3928V28.7459H84.5138V25.1229H91.2466V34.9998H70.4136V26.8998C70.4136 21.8459 73.2699 18.8459 78.3251 18.8459Z" fill="#C11111"/>
<path d="M63.3997 25.1921V22.6536H56.4176C51.7931 22.6536 51.045 23.6921 50.7276 25.1921H63.3997ZM67.2762 18.8459V34.9998H63.3997V28.7459H50.4783V34.9998H46.6245V26.8998C46.6245 21.8459 49.5035 18.8459 54.5361 18.8459H67.2762Z" fill="#C11111"/>
<path d="M28.392 28.7459V25.1229H37.4143C38.9785 25.1229 39.8626 24.2459 40.0893 22.6536H26.6011V34.9998H22.7473V18.8459H43.8297V21.9383C43.8297 26.0229 41.8801 28.2613 37.981 28.6767L44.011 34.9998H39.3412L33.2205 28.7459H28.392Z" fill="#C11111"/>
<path d="M16.1632 26.9V22.6539H0V18.8462H20.0169V26.9693C20.0169 32 17.1379 35 12.1054 35H0V25.1231H3.85377V31.1692H12.0147C14.7803 31.1692 16.1632 29.7616 16.1632 26.9Z" fill="#C11111"/>
<path d="M157.006 0H160.86V12.3231H169.134C171.174 12.3231 172.466 11.5154 173.01 9.89998H177C176.32 14.0307 173.486 16.1538 169.202 16.1538H157.006V0Z" fill="#C11111"/>
<path d="M149.779 6.34614V3.80769H142.797C138.172 3.80769 137.424 4.84615 137.107 6.34614H149.779ZM153.655 0V16.1538H149.779V9.89998H136.857V16.1538H133.003V8.05383C133.003 2.99999 135.882 0 140.915 0H153.655Z" fill="#C11111"/>
<path d="M129.974 0V3.80769H122.675V16.1538H118.821V3.80769H116.146C114.469 3.80769 113.562 4.61538 113.426 6.27691H109.776C110.116 2.07692 112.428 0 116.758 0H129.974Z" fill="#C11111"/>
<path d="M91.2152 9.89998V6.27691H100.238C101.802 6.27691 102.686 5.39999 102.913 3.80769H89.4243V16.1538H85.5706V0H106.653V3.0923C106.653 7.17691 104.703 9.41537 100.804 9.83075L106.834 16.1538H102.164L96.0437 9.89998H91.2152Z" fill="#C11111"/>
<path d="M78.4413 8.05383V3.80769H69.2376C66.0639 3.80769 65.0891 4.79999 65.0891 8.12306V12.3231H74.2928C77.3985 12.3231 78.4413 11.4 78.4413 8.05383ZM69.1696 0H82.2951V8.12306C82.2951 13.1538 79.4161 16.1538 74.3835 16.1538H61.2354V8.05383C61.2354 3.11538 64.1597 0 69.1696 0Z" fill="#C11111"/>
<path d="M43.9294 16.1538V5.7923H47.8059V16.1538H43.9294ZM34.2043 16.1538V0H50.1181C54.8333 0 58.0524 3.04615 58.0524 7.40768V16.1538H54.1986V8.07691C54.1986 5.21538 52.8384 3.80769 50.1181 3.80769H38.0354V16.1538H34.2043Z" fill="#C11111"/>
<path d="M16.8533 16.1538V5.7923H20.7297V16.1538H16.8533ZM7.12817 16.1538V0H23.042C27.7572 0 30.9762 3.04615 30.9762 7.40768V16.1538H27.1224V8.07691C27.1224 5.21538 25.7623 3.80769 23.042 3.80769H10.9593V16.1538H7.12817Z" fill="#C11111"/>
<path d="M3.85468 0V16.1538H0.000488281V0H3.85468Z" fill="#C11111"/>
</svg>
