<svg xmlns="http://www.w3.org/2000/svg" width="258" height="42" fill="none" viewBox="0 0 258 42"><path fill="#c11111" d="M243.425 25.846v3.808h-12.989c-1.61 0-2.517.807-2.721 2.469h15.778v3.07c0 4.522-2.403 6.807-7.209 6.807h-12.241v-3.831H237.1c1.565 0 2.449-.854 2.698-2.423h-15.755v-3.092c0-4.523 2.403-6.808 7.231-6.808zM220.884 25.846V42h-4.081c-4.352-6.046-8.546-9.992-12.672-11.585-.295-.092-.657-.254-1.043-.392.046.577.068.97.068 1.13V42h-3.763V25.846h3.333c5.078 1.662 9.793 5.4 13.76 9.784l.703.762a12 12 0 0 1-.068-1.062v-9.484zM192.342 33.9v-4.246h-9.204c-3.174 0-4.148.992-4.148 4.315v4.2h9.203c3.106 0 4.149-.923 4.149-4.27m-9.272-8.054h13.125v8.123c0 5.03-2.879 8.03-7.911 8.03h-13.148v-8.1c0-4.938 2.924-8.053 7.934-8.053M159.325 25.846h12.831v3.808h-12.763c-3.219 0-4.148.969-4.148 4.384v4.131h13.148v-2.423h-2.879v-3.623h6.733V42h-20.833v-8.1c0-5.054 2.856-8.054 7.911-8.054M144.4 32.192v-2.538h-6.982c-4.625 0-5.373 1.038-5.69 2.538zm3.876-6.346V42H144.4v-6.254h-12.922V42h-3.853v-8.1c0-5.054 2.879-8.054 7.911-8.054zM109.392 35.746v-3.623h9.022c1.564 0 2.449-.877 2.675-2.47h-13.488V42h-3.854V25.846h21.083v3.092c0 4.085-1.95 6.323-5.849 6.739l6.03 6.323h-4.67l-6.121-6.254zM97.163 33.9v-4.246H81v-3.808h20.017v8.123c0 5.031-2.88 8.031-7.912 8.031H81v-9.877h3.854v6.046h8.16c2.766 0 4.15-1.407 4.15-4.269M238.006 7h3.854v12.323h8.274q3.06 0 3.876-2.423H258c-.68 4.13-3.514 6.254-7.798 6.254h-12.196zM230.779 13.346v-2.538h-6.982c-4.625 0-5.373 1.038-5.69 2.538zM234.655 7v16.154h-3.876V16.9h-12.922v6.254h-3.854v-8.1C214.003 10 216.882 7 221.915 7zM210.974 7v3.808h-7.299v12.346h-3.854V10.808h-2.675c-1.677 0-2.584.807-2.72 2.469h-3.65c.34-4.2 2.652-6.277 6.982-6.277zM172.215 16.9v-3.623h9.023c1.564 0 2.448-.877 2.675-2.47h-13.489v12.347h-3.853V7h21.082v3.092c0 4.085-1.95 6.323-5.849 6.739l6.03 6.323h-4.67l-6.12-6.254zM159.441 15.054v-4.246h-9.203c-3.174 0-4.149.992-4.149 4.315v4.2h9.204c3.106 0 4.148-.923 4.148-4.27M150.17 7h13.125v8.123c0 5.03-2.879 8.03-7.911 8.03h-13.149v-8.1c0-4.938 2.925-8.053 7.935-8.053M124.929 23.154V12.792h3.877v10.362zm-9.725 0V7h15.914c4.715 0 7.934 3.046 7.934 7.408v8.746h-3.853v-8.077c0-2.862-1.361-4.27-4.081-4.27h-12.083v12.347zM97.853 23.154V12.792h3.877v10.362zm-9.725 0V7h15.914c4.715 0 7.934 3.046 7.934 7.408v8.746h-3.854v-8.077c0-2.862-1.36-4.27-4.08-4.27H91.959v12.347zM84.855 7v16.154H81V7z"/><path fill="url(#a)" d="M66.976 12.832a16.97 16.97 0 0 0-9.147-4.751c-5.163-.867-14.102-.763-14.102-.763 4.539-1.56 9.875-.832 9.875-.832-4.435-1.977-13.27-.59-13.27-.59 4.088-1.11 6.652-1.249 10.463-.798 0 0-4.4-1.977-12.716-.659-.797.104-1.49 1.006-1.94 1.318-1.11.729-1.975 1.04-3.257.555-.624-.243-1.282-.45-2.045-.728.659-.624 1.386-.729 2.183-.624.59.069 1.248 0 1.802-.105.97-.208 1.455-.867 2.703-.936 0 0 2.321 0 4.47-.139 2.147-.104 3.915-1.214 4.642-1.7-3.153-.034-6.029 1.041-9.32 1.007C40.643 2.879 42.514 1.873 44.87 0c-2.321.867-3.707 1.977-6.306 2.012-1.455.034-2.945.381-4.331.659-1.143.208-2.044 1.456-3.118 1.942-1.144.485-2.287.208-3.05-.59-1.004 1.04-1.039 2.254-.207 3.399.311-.416.692-.867 1.178-1.422.311.52.52.763.658.971.97-.52 2.321-.173 2.98.694.45.555 0 .797-.312 1.04-1.282.937-1.94.694-2.53.104l-.45 1.04-1.386-.034 2.53 2.567.103-1.006 1.178-.035c.45-1.04 1.594-1.144 2.391-.798.832.382 1.386 1.353 2.01 2.012.035-.07.07-.277.104-.52.381-1.214 1.282-1.457 2.217-.625l1.42 1.388c.833.797.867 2.15.07 2.982l-9.147 9.156-.07.07-6.86 6.797c-3.811 3.815-10.013 3.815-13.79 0-3.811-3.815-3.811-10.023 0-13.803a9.7 9.7 0 0 1 6.895-2.844c2.495 0 4.99.937 6.895 2.844l5.302 5.306 5.127-5.133-5.3-5.306c-6.653-6.659-17.464-6.659-24.082 0C1.767 16.093 0 20.358 0 24.937c0 4.543 1.767 8.843 4.99 12.069A17 17 0 0 0 17.046 42a17 17 0 0 0 12.058-4.994l12.058-12.07.069-.069 6.826-6.832c3.811-3.815 10.013-3.815 13.79 0 3.811 3.815 3.811 10.023 0 13.803a9.7 9.7 0 0 1-6.895 2.844 9.7 9.7 0 0 1-6.895-2.844l-5.301-5.306-5.128 5.133 5.3 5.306c6.653 6.66 17.464 6.66 24.082 0C70.233 33.746 72 29.48 72 24.901c-.035-4.543-1.802-8.843-5.024-12.069"/><defs><linearGradient id="a" x1="22.759" x2="22.759" y1="41.783" y2="1.205" gradientUnits="userSpaceOnUse"><stop stop-color="#c11111"/><stop offset="1" stop-color="#e63f16"/></linearGradient></defs></svg>