<svg width="100%" height="100%" viewBox="0 0 24 24" fill="none" xmlns="http://www.w3.org/2000/svg">
<path d="M18.3031 2.09998C20.2815 2.10017 21.8998 3.71917 21.8998 5.69763V18.3031C21.8998 20.2626 20.3124 21.8687 18.3607 21.8998H5.63904C3.6867 21.8686 2.09998 20.2618 2.09998 18.3031V5.69763C2.09998 3.71905 3.71905 2.09998 5.69763 2.09998H18.3031ZM12.1713 9.61365C12.1555 9.61396 12.1432 9.62742 12.1429 9.64392V10.7523C12.1429 10.7811 12.1645 10.8047 12.1918 10.8051L12.8041 10.806C12.8321 10.8062 12.846 10.8215 12.8461 10.851V14.3051C12.8461 14.3383 12.8288 14.3549 12.7963 14.3549L11.8744 14.3529C11.8604 14.3524 11.846 14.357 11.8344 14.3646C11.823 14.3722 11.814 14.3831 11.809 14.3959L11.3041 15.5345H15.0697V15.5355L15.0717 14.3969C15.0715 14.369 15.0581 14.355 15.0316 14.3549L14.0541 14.3529C14.0232 14.3528 14.0063 14.3362 14.0062 14.3031V10.851C14.0063 10.8215 14.0212 10.8061 14.0492 10.806H14.6654C14.6965 10.806 14.7123 10.7899 14.7123 10.7582L14.7113 9.66248C14.7112 9.63007 14.6955 9.61365 14.6644 9.61365H12.1713ZM5.73083 9.25232C5.72448 9.25247 5.71813 9.25469 5.71228 9.2572C5.70633 9.25981 5.70017 9.26326 5.69568 9.26794C5.69121 9.27264 5.68727 9.2785 5.68494 9.28455C5.68273 9.29038 5.68191 9.29687 5.68201 9.3031L5.66638 14.3929C5.66675 14.4106 5.66397 14.4283 5.65759 14.4447C5.65115 14.4612 5.64155 14.4768 5.62927 14.4896C5.61701 14.5024 5.60153 14.5118 5.58533 14.5189C5.56927 14.5259 5.55206 14.5302 5.53455 14.5306L4.9574 14.5326C4.95266 14.5327 4.94783 14.5341 4.94373 14.5365C4.93957 14.539 4.9354 14.5421 4.93298 14.5463C4.93035 14.5505 4.9285 14.5559 4.9281 14.5609C4.92781 14.5657 4.92912 14.5711 4.93103 14.5756L5.34021 15.5345H5.7572C6.47483 15.5571 6.79148 15.0906 6.79431 14.4076C6.79855 12.7432 6.79855 11.0496 6.79431 9.32654C6.79355 9.27798 6.7704 9.25243 6.724 9.25232H5.73083ZM9.50525 14.2689C9.47305 14.2606 9.45002 14.2727 9.43591 14.3041L8.95642 15.4008C8.94399 15.428 8.95267 15.4468 8.97986 15.4574L9.17419 15.5345H10.6996L11.1976 14.4027C11.2118 14.3716 11.2025 14.3556 11.1693 14.3549C10.6342 14.3528 10.0283 14.4109 9.50525 14.2689ZM16.1664 9.17126L16.1595 9.56873C16.1595 9.59906 16.1457 9.61358 16.1176 9.61365H15.4603C15.4289 9.61378 15.4145 9.62906 15.4144 9.66052L15.4164 10.7426C15.4164 10.7771 15.4332 10.7952 15.4662 10.7953L16.1 10.7924C16.1159 10.7929 16.1319 10.7995 16.1429 10.8109C16.154 10.8226 16.1598 10.8388 16.1595 10.8549V11.7855C16.1597 11.7991 16.1551 11.8126 16.1459 11.8226C16.1414 11.8275 16.1353 11.8307 16.1293 11.8334C16.1234 11.8359 16.1171 11.8382 16.1107 11.8383L15.0824 11.8363C15.0491 11.8366 15.0318 11.8545 15.0316 11.89L15.0306 12.9662C15.0306 12.979 15.0355 12.9921 15.0443 13.0013C15.0532 13.0105 15.0658 13.0155 15.0785 13.016H16.1185C16.1241 13.0161 16.13 13.0177 16.1351 13.0199C16.1402 13.0222 16.1449 13.0257 16.1488 13.0297C16.1528 13.0338 16.1565 13.039 16.1586 13.0443C16.1605 13.0495 16.1616 13.0553 16.1615 13.0609L16.1644 15.5345H17.2767L17.2816 13.0717C17.2818 13.0417 17.2958 13.0259 17.3236 13.0258C18.1242 13.0173 18.6682 13.0177 18.9554 13.0248C19.2093 13.0318 19.3353 13.1685 19.3353 13.4349C19.3339 13.7311 19.336 14.0277 19.3402 14.3246C19.3409 14.3748 19.3225 14.4234 19.2885 14.4603C19.2545 14.4971 19.2071 14.5189 19.1576 14.5189L18.2699 14.5199C18.2649 14.52 18.2596 14.5204 18.2552 14.5228C18.2509 14.5253 18.2472 14.5293 18.2445 14.5336C18.2418 14.5379 18.24 14.5431 18.2396 14.5482C18.2393 14.5532 18.2406 14.5583 18.2426 14.5629L18.6605 15.5345H19.4799C19.8999 15.4879 20.1912 15.3001 20.3539 14.972C20.431 14.8136 20.4693 14.5654 20.4672 14.226C20.463 13.2531 20.7222 12.0147 19.4095 11.8568C19.3361 11.8476 19.2597 11.8404 19.182 11.8334C19.1556 11.8304 19.1424 11.8153 19.1429 11.7875C19.1543 11.3081 19.1953 10.6969 18.9926 10.2953C18.6517 9.61811 17.9859 9.59678 17.3256 9.61658C17.2956 9.61706 17.2797 9.60131 17.2797 9.5697V9.17126H16.1664ZM3.83337 10.806C3.80887 10.8061 3.79549 10.8201 3.79333 10.8461C3.74455 11.6874 3.68219 12.5282 3.60583 13.3695C3.59395 13.4504 3.56252 13.5273 3.51404 13.5931V13.642L4.07068 14.931C4.08622 14.9662 4.10625 14.9687 4.13025 14.9398C4.50573 14.4837 4.68524 13.7315 4.73474 13.1693C4.80316 12.3951 4.86572 11.6203 4.92126 10.8451C4.92193 10.8352 4.91881 10.8248 4.91248 10.8177C4.90542 10.8101 4.8952 10.806 4.88611 10.806H3.83337ZM7.59021 10.7992C7.5625 10.7995 7.54884 10.8148 7.55017 10.8441C7.59258 11.4993 7.64207 12.1532 7.69861 12.807C7.77214 13.6491 7.89913 14.2029 8.2738 14.8802C8.32963 14.9798 8.38021 14.9775 8.42615 14.8715L8.93494 13.6859C8.94017 13.6743 8.9426 13.6615 8.94275 13.6488C8.94285 13.6362 8.94085 13.6233 8.93591 13.6117C8.88506 13.483 8.85114 13.3204 8.8363 13.1254C8.77833 12.3675 8.72234 11.6072 8.66931 10.8451C8.66713 10.8156 8.65132 10.8002 8.62244 10.8002L7.59021 10.7992ZM10.2738 9.19373C10.2502 9.19397 10.2328 9.20582 10.223 9.22888C9.98053 9.80649 9.7335 10.3821 9.48181 10.9554C9.39345 11.1569 9.24873 11.4453 9.31287 11.6517C9.4191 11.9964 9.90342 11.9225 10.1722 11.9174C10.1764 11.9173 10.1813 11.9183 10.1849 11.9203C10.1885 11.9223 10.1916 11.9256 10.1937 11.9291C10.1959 11.9325 10.1972 11.9367 10.1976 11.9408C10.198 11.945 10.1972 11.9496 10.1957 11.9535L9.66638 13.1888C9.51651 13.5374 9.6116 13.8761 9.99744 13.8939C10.2308 13.9045 10.6402 13.9039 11.225 13.8969C11.2403 13.8972 11.2563 13.8929 11.2689 13.8842C11.2815 13.8754 11.2911 13.8624 11.2963 13.848L11.6683 12.9711C11.6816 12.9387 11.6712 12.9229 11.6381 12.9222L11.0619 12.9183C11.0029 12.9175 10.9676 12.8867 10.9584 12.8256C10.9542 12.7973 10.9655 12.7517 10.9916 12.6918C11.2532 12.0873 11.5157 11.4786 11.7787 10.8656C11.7836 10.855 11.7824 10.8433 11.7767 10.8334C11.7704 10.8246 11.7604 10.8187 11.7494 10.8187H10.8383C10.8214 10.8185 10.8041 10.8143 10.7894 10.806C10.7748 10.7976 10.7621 10.7852 10.7533 10.7709C10.7352 10.74 10.7316 10.7023 10.7455 10.6693L11.3607 9.23181C11.3623 9.22766 11.3632 9.22254 11.3627 9.21814C11.3622 9.21408 11.3609 9.20989 11.3588 9.20642C11.3545 9.19886 11.3463 9.1938 11.3373 9.19373H10.2738ZM17.9388 10.8051C17.9988 10.8051 18.0479 10.8605 18.0482 10.9281L18.0521 11.7933C18.0523 11.8048 18.0482 11.8162 18.0404 11.8246C18.0326 11.833 18.0214 11.8383 18.0101 11.8383L17.3197 11.8392C17.298 11.8391 17.2788 11.821 17.2787 11.7972L17.2748 10.932C17.2743 10.8998 17.2861 10.8686 17.307 10.8441C17.3166 10.8328 17.3288 10.8231 17.3422 10.8168C17.3552 10.8107 17.3697 10.8073 17.3842 10.807L17.9388 10.8051ZM20.0238 10.7719C20.8401 10.5478 20.3575 9.27537 19.6273 9.67615L19.5551 9.72107C19.262 9.92198 19.3252 10.4147 19.3295 10.7328C19.3295 10.7608 19.3421 10.7757 19.3685 10.7787C19.6675 10.8119 19.8866 10.81 20.0238 10.7719Z" fill="black"/>
</svg>
