<svg width="20" height="26" viewBox="0 0 20 26" fill="none" xmlns="http://www.w3.org/2000/svg">
<path d="M0.75 4C0.75 2.20507 2.20507 0.75 4 0.75H16C17.7949 0.75 19.25 2.20507 19.25 4V22C19.25 23.7949 17.7949 25.25 16 25.25H4C2.20507 25.25 0.75 23.7949 0.75 22V4Z" stroke="#222222" stroke-width="1.5"/>
<path d="M9.00024 14C9.00024 13.4477 9.44796 13 10.0002 13C10.5525 13 11.0002 13.4477 11.0002 14V21C11.0002 21.5523 10.5525 22 10.0002 22C9.44796 22 9.00024 21.5523 9.00024 21V14Z" fill="#222222"/>
<path d="M9.26506 13.2708C9.65559 12.8803 10.2888 12.8803 10.6793 13.2708C11.0698 13.6614 11.0698 14.2945 10.6793 14.685L8.12168 17.2426C7.73115 17.6332 7.09799 17.6332 6.70746 17.2426C6.31694 16.8521 6.31694 16.219 6.70746 15.8284L9.26506 13.2708Z" fill="#222222"/>
<path d="M10.682 13.2677C10.2914 12.8771 9.65827 12.8771 9.26775 13.2677C8.87722 13.6582 8.87722 14.2913 9.26775 14.6819L11.8286 17.2428C12.2192 17.6333 12.8523 17.6333 13.2429 17.2428C13.6334 16.8522 13.6334 16.2191 13.2429 15.8285L10.682 13.2677Z" fill="#222222"/>
<path d="M7.5 6C6.94772 6 6.5 5.55228 6.5 5C6.5 4.44772 6.94772 4 7.5 4L12.5 4C13.0523 4 13.5 4.44771 13.5 5C13.5 5.55228 13.0523 6 12.5 6L7.5 6Z" fill="#222222"/>
</svg>
