<svg xmlns="http://www.w3.org/2000/svg" width="20" height="26" fill="none" viewBox="0 0 20 26"><path stroke="#222" stroke-width="1.5" d="M.75 4A3.25 3.25 0 0 1 4 .75h12A3.25 3.25 0 0 1 19.25 4v18A3.25 3.25 0 0 1 16 25.25H4A3.25 3.25 0 0 1 .75 22z"/><path fill="#222" d="M9 14a1 1 0 1 1 2 0v7a1 1 0 1 1-2 0z"/><path fill="#222" d="M9.265 13.27a1 1 0 0 1 1.414 1.415l-2.557 2.558a1 1 0 1 1-1.415-1.415z"/><path fill="#222" d="M10.682 13.268a1 1 0 1 0-1.414 1.414l2.56 2.56a1 1 0 0 0 1.415-1.414zM7.5 6a1 1 0 0 1 0-2h5a1 1 0 1 1 0 2z"/></svg>