<svg xmlns="http://www.w3.org/2000/svg" width="26" height="22" fill="none" viewBox="0 0 26 22"><path fill="#fff" d="M12.862 16.117c.54.94 1.198 1.79 1.803 2.679.35.514.68 1.048 1.048 1.542.528.708 1.278.985 2.009 1.249 1.042.375 2.112.509 3.21.343.957-.145 1.93-.179 2.883-.35.713-.128 1.407-.395 2.185-.622-.789-.123-1.489-.193-2.174-.348-1.33-.299-2.534-.901-3.5-2.06-.353-.424-.757-.79-1.144-1.174-.352-.35-.713-.687-1.07-1.029q.016-.033.028-.066l1.155.454c-1.51-1.805-2.777-3.794-4.117-5.753l4.114-5.703-1.212.44c.068-.093.104-.158.151-.207.59-.604 1.173-1.214 1.771-1.806.43-.427.863-.856 1.323-1.236.754-.623 1.648-.844 2.532-1.053.668-.158 1.35-.229 2.082-.347-.519-.166-.997-.373-1.49-.466-1.054-.198-2.116-.338-3.175-.501-1.077-.167-2.152-.146-3.204.173-.844.257-1.689.553-2.305 1.346-.184.237-.342.502-.512.753-.744 1.104-1.479 2.216-2.235 3.308-.36.516-.693 1.113-1.156 1.463-.733.556-1.564.94-2.357 1.389-.2.113-.415.194-.623.29.249-.399.532-.72.786-1.07.645-.883 1.257-1.8 1.923-2.66.357-.461.815-.815 1.197-1.253.319-.367.596-.782.886-1.182.293-.404.579-.817.9-1.27L9.972 4.62V3.237a.65.65 0 0 0-.155.294c-.302 1.281-.899 2.351-1.79 3.17a21 21 0 0 1-3.929 2.838c-1.106.621-2.224 1.199-3.472 1.32-.21.02-.418.086-.626.13 1.435.14 2.75.679 3.979 1.457 1.264.8 2.507 1.661 3.699 2.597 1.028.806 1.7 1.981 2.088 3.36.05.175.08.355.12.532l.123-.018-.06-1.53 4.596 3.215c-.56-.828-1.122-1.63-1.729-2.381-.388-.48-.876-.851-1.261-1.335-.585-.738-1.117-1.534-1.677-2.3-.333-.455-.677-.9-1.085-1.44.523.3.965.537 1.393.803.963.602 2.016 1.018 2.676 2.168"/></svg>