<svg width="100%" height="100%" viewBox="0 0 24 24" fill="none" xmlns="http://www.w3.org/2000/svg">
<path d="M15.8928 8.4461C16.1459 8.4461 16.3956 8.4649 16.6428 8.49217C15.9693 5.34148 12.6151 3 8.78676 3C4.50642 3 1 5.93064 1 9.65169C1 11.7992 2.16681 13.5631 4.1159 14.9311L3.33722 17.2844L6.05902 15.913C7.03356 16.1064 7.81459 16.3058 8.78676 16.3058C9.03099 16.3058 9.27281 16.2937 9.51348 16.2743C9.36119 15.7519 9.27281 15.2039 9.27281 14.6359C9.27284 11.2192 12.1941 8.4461 15.8928 8.4461ZM11.7068 6.32525C12.2932 6.32525 12.6813 6.71317 12.6813 7.30173C12.6813 7.88786 12.2932 8.28063 11.7068 8.28063C11.1228 8.28063 10.5376 7.88786 10.5376 7.30173C10.5376 6.71317 11.1228 6.32525 11.7068 6.32525ZM6.25726 8.2806C5.67323 8.2806 5.08445 7.88783 5.08445 7.30171C5.08445 6.71314 5.67323 6.32523 6.25726 6.32523C6.84064 6.32523 7.2294 6.71314 7.2294 7.30171C7.2294 7.88786 6.84064 8.2806 6.25726 8.2806ZM23 14.542C23 11.4149 19.8847 8.86615 16.386 8.86615C12.6813 8.86615 9.76368 11.4149 9.76368 14.542C9.76368 17.6736 12.6813 20.2169 16.386 20.2169C17.1611 20.2169 17.9434 20.0217 18.722 19.8253L20.8581 21L20.2722 19.0458C21.8356 17.8675 23 16.3058 23 14.542ZM14.2387 13.5631C13.8512 13.5631 13.46 13.1758 13.46 12.7805C13.46 12.3908 13.8512 11.9986 14.2387 11.9986C14.8275 11.9986 15.2132 12.3908 15.2132 12.7805C15.2132 13.1758 14.8275 13.5631 14.2387 13.5631ZM18.5214 13.5631C18.1369 13.5631 17.7481 13.1758 17.7481 12.7805C17.7481 12.3908 18.1369 11.9986 18.5214 11.9986C19.1054 11.9986 19.4959 12.3908 19.4959 12.7805C19.4959 13.1758 19.1054 13.5631 18.5214 13.5631Z" fill="black"/>
</svg>
