<svg xmlns="http://www.w3.org/2000/svg" fill="current" viewBox="0 0 72 18"><path fill-rule="evenodd" d="M20.83.005a1.5 1.5 0 0 1 1.207.459l.056.072a1.43 1.43 0 0 1 .238 1.136c-.078.372-.214.73-.402 1.06-.522.89-1.14 1.721-1.842 2.478a53.4 53.4 0 0 1-6.96 6.328 53.6 53.6 0 0 1-7.882 5.176c-.904.49-1.859.88-2.848 1.161-.365.099-.744.14-1.123.12a1.42 1.42 0 0 1-1.038-.515 1.2 1.2 0 0 1-.234-.791c.015-.232.066-.46.152-.674.196-.477.446-.93.747-1.348a27 27 0 0 1 2.338-2.79 8.6 8.6 0 0 1-.427-2.674 8.461 8.461 0 0 1 12.956-7.198A20.7 20.7 0 0 1 19.432.274c.45-.158.922-.249 1.399-.27m.033 1.49a3.5 3.5 0 0 0-.95.2c-.986.344-1.94.779-2.847 1.297q.433.407.807.87a53 53 0 0 1-6.328 5.66 53 53 0 0 1-7.072 4.718 9 9 0 0 1-.566-.88 23 23 0 0 0-1.782 2.164q-.34.465-.579.987.248-.02.487-.085a12.6 12.6 0 0 0 2.532-1.038 52.3 52.3 0 0 0 7.638-5.021 52.3 52.3 0 0 0 6.777-6.148 13 13 0 0 0 1.463-1.902l.195-.3q.142-.248.225-.522" clip-rule="evenodd"/><path d="M19.515 7.257a8.502 8.502 0 0 1-8.227 10.441 8.4 8.4 0 0 1-3.968-1 61 61 0 0 0 6.015-4.081l.37-.298a61 61 0 0 0 5.81-5.062M33.272 11.405c-.25 2.442-.589 3.613-2.617 3.93-.405.066-1.645.066-2.16.066h-.207l.136-1.877a78 78 0 0 1 1.396-.025c.61 0 1.022-.063 1.13-.905.056-.44 1.078-9.064 1.186-9.985h2.066zM52.237 8.237l-2.693.016-.161 1.434h5.467l-.184 1.775H49.19v.079c-.054.474-.102.832-.14 1.148-.019.165-.05.3-.05.402-.244 2.113-.772 2.23-1.762 2.269h-2.294l.234-1.712h1.126c.09 0 .179-.024.256-.07a.2.2 0 0 0 .051-.04.8.8 0 0 0 .155-.39s.085-.633.19-1.582v-.098h-5.907l.183-1.775h5.92l.161-1.424-2.952.02.184-1.785h7.875z"/><path fill-rule="evenodd" d="M65.152 7.44h3.86a.87.87 0 0 1 .86.971l-.702 5.844a.873.873 0 0 1-.863.788h-9.774a.86.86 0 0 1-.633-.288.88.88 0 0 1-.225-.67l.605-5.845a.867.867 0 0 1 .864-.8h3.955l.161-1.471 2.05-.016zm-5.667 5.844h2.962l.145-1.3h-2.964zm5.053 0h3l.164-1.3h-3.024zm-4.74-2.75h2.965l.15-1.338h-2.966zm5.034 0h3.057l.17-1.338h-3.084z" clip-rule="evenodd"/><path d="M38.885 9.003c.401 1.722.57 2.358.759 3.095v.04l-1.987.555c-.089-.44-.516-2.37-.722-3.288-.183-.844-.553-2.794-.632-3.211l1.797-.519zM28.842 6.219c-.183.465-.99 2.581-1.265 3.214-.538 1.244-1.247 2.87-1.412 3.247l-1.797-.738c.19-.427 1.057-2.35 1.373-3.116.266-.63 1.098-2.711 1.266-3.136zM49.908 3.34h4.72a.9.9 0 0 1 .36.07l.052.037a.87.87 0 0 1 .468.893l-.24 2.06h-1.75l.12-1.19-.031-.045a.11.11 0 0 0-.082-.038h-9.872l-.038.092-.177 1.25h-1.722l.291-2.351a.87.87 0 0 1 .861-.76h4.828l.18-1.265h2.18zM65.63 3.34h4.822a.9.9 0 0 1 .357.07l.048.037a.87.87 0 0 1 .468.893l-.237 2.06h-1.753l.127-1.225-.035-.048a.11.11 0 0 0-.083-.034h-10.07l-.035.091-.187 1.285h-1.718l.291-2.351a.87.87 0 0 1 .86-.76h4.98l.134-1.265h2.18z"/></svg>