<svg xmlns="http://www.w3.org/2000/svg" width="1em" height="1em" fill="current" viewBox="0 0 24 24"><g clip-path="url(#a)"><path d="M10 16V9l6 3.512zm13.76-8.333s-.235-1.665-.954-2.399c-.913-.963-1.936-.967-2.405-1.023C17.043 4 12.005 4 12.005 4h-.01s-5.038 0-8.396.245c-.47.056-1.492.06-2.406 1.023-.719.734-.953 2.4-.953 2.4S0 9.622 0 11.577v1.835c0 1.956.24 3.912.24 3.912s.234 1.665.953 2.399c.914.963 2.113.932 2.647 1.033C5.76 20.943 12 21 12 21s5.043-.008 8.401-.252c.47-.057 1.492-.061 2.405-1.024.72-.734.954-2.4.954-2.4s.24-1.955.24-3.911v-1.834c0-1.956-.24-3.912-.24-3.912"/></g><defs><clipPath id="a"><path fill="#fff" d="M0 0h24v24H0z"/></clipPath></defs></svg>