<svg width="100%" height="100%" viewBox="0 0 24 24" fill="none" xmlns="http://www.w3.org/2000/svg">
<path d="M19.2603 2.09998C20.7181 2.10006 21.8997 3.28179 21.8999 4.73962V19.2601C21.8998 20.7181 20.7182 21.8997 19.2603 21.8998H4.73975C3.28191 21.8996 2.10018 20.718 2.1001 19.2601V4.73962C2.10029 3.28185 3.28197 2.10017 4.73975 2.09998H19.2603ZM8.50146 5.53552C8.47556 5.53203 7.04876 5.34816 6.57764 7.18787C6.10222 9.04445 5.3999 10.1312 5.3999 10.1312C5.3999 10.1312 7.1213 10.2219 7.52881 8.38806H8.61475V11.6478H6.6001C6.6001 11.6478 5.47929 11.6258 5.479 12.8705H8.46826C8.46826 12.8705 8.41126 15.9789 5.3999 18.3392C5.3999 18.3392 8.68322 19.8213 9.77002 12.8705H12.4868V12.3275C12.4872 12.3217 12.5286 11.6478 11.8071 11.6478H9.8374V8.3656H12.2378V7.73083C12.2391 7.71264 12.2679 7.18787 11.4224 7.18787H7.86768C7.86768 7.18787 8.07154 6.3052 8.50146 5.53552ZM9.4751 14.8851L11.6489 18.2592C12.369 17.1347 11.8815 16.3218 11.8755 16.3119L10.4263 14.2064L9.4751 14.8851ZM12.9399 7.18787V17.0599H14.3208L14.5024 18.2592L16.4038 17.0599H18.6001V7.18787H12.9399ZM17.2642 8.40955V15.8363H16.1323L15.1128 16.5609L14.9546 15.8588H14.1851V8.40955H17.2642Z" fill="black"/>
</svg>
