<svg xmlns="http://www.w3.org/2000/svg" width="335" height="270" fill="none" viewBox="0 0 335 270"><path fill="#bb1212" d="M4.93 46V5.98H20.3q15.66 0 15.66 15.718v8.584Q35.96 46 20.3 46zm7.076-6.438h8.7q8.178 0 8.178-8.178V20.596q0-8.178-8.178-8.178h-8.7zM44.636 46V5.98h7.075V46zm16.355-9.454V15.434q0-9.454 9.454-9.454h16.994l3.422 2.668v3.77H70.619q-2.553 0-2.552 2.494v22.156q0 2.494 2.552 2.494h14.326V28.484h-8.468v-6.438H92.02V46H70.445q-9.454 0-9.454-9.454M100.709 46V5.98h7.076V46zm13.398-33.582V5.98h32.306v6.438h-12.586V46h-7.134V12.418zm31.938 32.19L158.399 5.98h11.02l12.296 38.628-.87 1.392h-5.974l-2.726-8.816h-16.53L152.831 46h-5.858zm11.542-13.862h12.644l-5.8-18.328h-1.102zM187.766 46V5.98h7.076v33.582h18.096V46zM1.392 70.418V63.98h32.306v6.438H21.112V104h-7.134V70.418zm35.407-5.046.986-1.392h5.8l7.134 33.582h.638l7.598-29.522h7.018l7.54 29.522h.696l7.134-33.582h5.8l.986 1.392L79.835 104H68.41l-5.974-23.548L56.52 104H45.151zM94.762 104V63.98h7.076V104zm16.936 0V63.98h7.714l17.748 28.536V63.98h7.076V104h-7.656l-17.806-28.536V104z"/><path fill="#000" d="M4.25 160v-34.5h16.1q8.15 0 8.15 8.15v3.15q0 1.7-1 2.9l-1.75 2.1 2.1 1.75q1.65 1.35 1.65 4v4.3q0 8.15-8.15 8.15zm6.1-5.55H21.2q2.2 0 2.2-2.15v-5.25q0-2.15-2.2-2.15H10.35zm0-15.1h9.85q2.2 0 2.2-2.2v-3.95q0-2.15-2.2-2.15h-9.85zM36.72 160v-34.5h6.1V160zm14.1-8.15v-18.2q0-8.15 8.15-8.15h11.45q8.15 0 8.15 8.15v18.2q0 8.15-8.15 8.15H58.97q-8.15 0-8.15-8.15m6.1.45q0 2.15 2.2 2.15h11.15q2.2 0 2.2-2.15v-19.1q0-2.15-2.2-2.15H59.12q-2.2 0-2.2 2.15zm29.654 7.7v-34.5h7.5l10.35 22.1 10.35-22.1h7.5V160h-6.15v-24.1l-9.1 19.4h-5.25l-9.1-19.4V160zm40.89-1.2 10.65-33.3h9.5l10.6 33.3-.75 1.2h-5.15l-2.35-7.6h-14.25l-2.4 7.6h-5.05zm9.95-11.95h10.9l-5-15.8h-.95zM163.43 160v-34.5h16.6q8.15 0 8.15 8.15v5.65q0 6.3-5 7.65l6 11.75-.75 1.3h-5.2l-6.4-12.6h-7.3V160zm6.1-18.15h10.35q2.2 0 2.2-2.2v-6.45q0-2.15-2.2-2.15h-10.35zM195.656 160v-34.5h6.1v15.1l13.55-15.1h5.7l.6 1.25-11.6 12.95 12.8 19.05-.6 1.25h-5.6l-10.55-15.85-4.3 4.6V160zm32.862 0v-34.5h23.2v5.55h-17.1v8.3h15.6v5.55h-15.6v9.55h17.1V160zm29.931 0v-34.5h16.6q8.15 0 8.15 8.15v5.65q0 6.3-5 7.65l6 11.75-.75 1.3h-5.2l-6.4-12.6h-7.3V160zm6.1-18.15h10.35q2.2 0 2.2-2.2v-6.45q0-2.15-2.2-2.15h-10.35zM.95 176.7l.8-1.2h5.3l8.55 28.95h.95l8.55-28.95h5.35l.75 1.2L21 210h-9.9zM36.379 210v-34.5h6.1V210zm13.1-2.3v-3.25h15.45q2.2 0 2.2-2.15v-3.8q0-1.9-1.7-2.25l-10.15-2.05q-5.8-1.15-5.8-7.8v-2.75q0-8.15 8.15-8.15h11.65l2.95 2.3v3.25h-14.45q-2.2 0-2.2 2.15v3.35q0 1.9 1.7 2.25l10.15 2q5.8 1.2 5.8 7.8v3.25q0 8.15-8.15 8.15h-12.65zm30.448-5.85V175.5h6.1v26.8q0 2.15 2.2 2.15h10.15q2.2 0 2.2-2.15v-26.8h6.1v26.35q0 8.15-8.15 8.15h-10.45q-8.15 0-8.15-8.15m31.668 6.95 10.65-33.3h9.5l10.6 33.3-.75 1.2h-5.15l-2.35-7.6h-14.25l-2.4 7.6h-5.05zm9.95-11.95h10.9l-5-15.8h-.95zM147.561 210v-34.5h6.1v28.95h15.6V210zm27.148 0v-34.5h6.1V210zm12.6 0v-4.75l17.55-24.2h-17.05v-5.55h24.75v4.75l-17.55 24.2h18.05V210zm28.973-1.2 10.65-33.3h9.5l10.6 33.3-.75 1.2h-5.15l-2.35-7.6h-14.25l-2.4 7.6h-5.05zm9.95-11.95h10.9l-5-15.8h-.95zm20.476-15.8v-5.55h27.85v5.55h-10.85V210h-6.15v-28.95zM4.25 260v-34.5h6.1V260zm14.1-8.15v-18.2q0-8.15 8.15-8.15h11.45q8.15 0 8.15 8.15v18.2q0 8.15-8.15 8.15H26.5q-8.15 0-8.15-8.15m6.1.45q0 2.15 2.2 2.15H37.8q2.2 0 2.2-2.15v-19.1q0-2.15-2.2-2.15H26.65q-2.2 0-2.2 2.15zm29.653 7.7v-34.5h6.65l15.3 24.6v-24.6h6.1V260h-6.6l-15.35-24.6V260z"/></svg>