<svg xmlns="http://www.w3.org/2000/svg" width="400" height="160" fill="none" viewBox="0 0 400 160"><mask id="a" fill="#fff"><path fill-rule="evenodd" d="M400 0H34L0 34v126h400z" clip-rule="evenodd"/></mask><path fill="#222" d="M34 0v-1h-.414l-.293.293zm366 0h1v-1h-1zM0 34l-.707-.707-.293.293V34zm0 126h-1v1h1zm400 0v1h1v-1zM34 1h366v-2H34zM.707 34.707l34-34-1.414-1.414-34 34zM1 160V34h-2v126zm399-1H0v2h400zM399 0v160h2V0z" mask="url(#a)"/><path fill="#222" d="M31.56 127.36q0 1.12-.54 2.1-.52.98-1.66 1.58-1.12.6-2.84.6h-2.34V137h-2.8v-13.96h5.14q1.62 0 2.76.56t1.7 1.54q.58.98.58 2.22m-5.16 2.02q1.16 0 1.72-.52.56-.54.56-1.5 0-2.04-2.28-2.04h-2.22v4.06zm9.948-1.74a3.96 3.96 0 0 1 1.4-1.38q.88-.5 2-.5v2.94h-.74q-1.32 0-2 .62-.66.62-.66 2.16V137h-2.8v-11.08h2.8zm10.206 9.54q-1.6 0-2.88-.7a5.25 5.25 0 0 1-2.02-2.02q-.72-1.3-.72-3t.74-3a5.2 5.2 0 0 1 2.06-2q1.3-.72 2.9-.72t2.9.72a5.08 5.08 0 0 1 2.04 2q.76 1.3.76 3t-.78 3a5.3 5.3 0 0 1-2.08 2.02q-1.3.7-2.92.7m0-2.44q.76 0 1.42-.36a2.74 2.74 0 0 0 1.08-1.12q.4-.74.4-1.8 0-1.58-.84-2.42a2.68 2.68 0 0 0-2.02-.86q-1.2 0-2.02.86-.8.84-.8 2.42t.78 2.44q.8.84 2 .84m7.114-3.32q0-1.68.66-2.98.68-1.3 1.84-2a4.9 4.9 0 0 1 2.58-.7q1.08 0 2.06.48.98.46 1.56 1.24v-5.26h2.84V137h-2.84v-1.64q-.52.82-1.46 1.32t-2.18.5q-1.4 0-2.56-.72t-1.84-2.02q-.66-1.32-.66-3.02m8.72.04q0-1.02-.4-1.74a2.74 2.74 0 0 0-1.08-1.12q-.68-.4-1.46-.4t-1.44.38-1.08 1.12q-.4.72-.4 1.72t.4 1.76q.42.74 1.08 1.14.68.4 1.44.4.78 0 1.46-.38.68-.4 1.08-1.12.4-.74.4-1.76m16.015-5.54V137h-2.82v-1.4q-.54.72-1.42 1.14-.86.4-1.88.4-1.3 0-2.3-.54a4 4 0 0 1-1.58-1.62q-.56-1.08-.56-2.56v-6.5h2.8v6.1q0 1.32.66 2.04.66.7 1.8.7 1.16 0 1.82-.7.66-.72.66-2.04v-6.1zm2.042 5.54q0-1.72.7-3a4.9 4.9 0 0 1 1.94-2q1.24-.72 2.84-.72 2.06 0 3.4 1.04 1.36 1.02 1.82 2.88h-3.02a2.14 2.14 0 0 0-.82-1.12q-.56-.42-1.4-.42-1.2 0-1.9.88-.7.86-.7 2.46 0 1.58.7 2.46.7.86 1.9.86 1.7 0 2.22-1.52h3.02q-.46 1.8-1.82 2.86t-3.4 1.06q-1.6 0-2.84-.7a5.1 5.1 0 0 1-1.94-2q-.7-1.3-.7-3.02m16.011-3.24v5.36q0 .56.26.82.28.24.92.24h1.3V137h-1.76q-3.54 0-3.54-3.44v-5.34h-1.32v-2.3h1.32v-2.74h2.82v2.74h2.48v2.3zm16.46 8.78-3.08-5.44h-1.32V137h-2.8v-13.96h5.24q1.62 0 2.76.58 1.14.56 1.7 1.54.58.96.58 2.16 0 1.38-.8 2.5-.8 1.1-2.38 1.52l3.34 5.66zm-4.4-7.54h2.34q1.14 0 1.7-.54.56-.56.56-1.54 0-.96-.56-1.48-.56-.54-1.7-.54h-2.34zm20.312 1.76q0 .6-.08 1.08h-8.1q.1 1.2.84 1.88t1.82.68q1.56 0 2.22-1.34h3.02q-.48 1.6-1.84 2.64-1.36 1.02-3.34 1.02-1.599 0-2.88-.7a5.15 5.15 0 0 1-1.98-2.02q-.7-1.3-.7-3 0-1.72.7-3.02a4.9 4.9 0 0 1 1.96-2q1.26-.7 2.9-.7 1.581 0 2.82.68 1.26.68 1.94 1.94.7 1.24.7 2.86m-2.9-.8q-.02-1.08-.78-1.72-.759-.66-1.86-.66-1.04 0-1.76.64-.7.62-.86 1.74zm9.564 4 2.8-8.5h2.98l-4.1 11.08h-3.4l-4.08-11.08h3zm8.773-9.82q-.74 0-1.24-.46-.48-.48-.48-1.18t.48-1.16q.5-.48 1.24-.48t1.22.48q.5.46.5 1.16t-.5 1.18q-.48.46-1.22.46m1.38 1.32V137h-2.8v-11.08zm13.066 5.3q0 .6-.08 1.08h-8.1q.1 1.2.84 1.88t1.82.68q1.56 0 2.22-1.34h3.02q-.48 1.6-1.84 2.64-1.36 1.02-3.34 1.02-1.599 0-2.88-.7a5.15 5.15 0 0 1-1.98-2.02q-.7-1.3-.7-3 0-1.72.7-3.02a4.9 4.9 0 0 1 1.96-2q1.26-.7 2.9-.7 1.581 0 2.82.68 1.26.68 1.94 1.94.7 1.24.7 2.86m-2.9-.8q-.02-1.08-.78-1.72-.759-.66-1.86-.66-1.04 0-1.76.64-.7.62-.86 1.74zm20.304-4.5-3.24 11.08h-3.02l-2.02-7.74-2.02 7.74h-3.04l-3.26-11.08h2.84l1.96 8.44 2.12-8.44h2.96l2.08 8.42 1.96-8.42z"/><circle cx="297.654" cy="95.707" r="17.654" stroke="#222" stroke-dasharray="2 2"/><path stroke="#222" stroke-dasharray="2 2" d="M315 93h9M315 97h8.5M329.5 69.5l2.5 14M333.5 68.5l2.5 14"/><circle cx="327.692" cy="50.692" r="18.692" stroke="#222" stroke-width="2"/><path stroke="#222" stroke-dasharray="2 2" d="m343.5 60.5 13 10M358.5 66.5l-13-10M345.5 44.5l16-7.5M363 40.5l-16.5 8"/><circle cx="371.038" cy="34.038" r="10.039" stroke="#222" stroke-dasharray="2 2"/><path stroke="#222" stroke-dasharray="2 2" d="m373.5 44-3 18M366.5 61.5 369 44"/><circle cx="367.577" cy="73.206" r="11.423" stroke="#222" stroke-width="2"/><path stroke="#222" stroke-dasharray="2 2" d="M356.5 76.5 345 85M347.5 87.5l11-8M339.5 108.5v10M335 109v9.5M373.5 83l4 16M369.5 84.5l4 16"/><circle cx="377.616" cy="106.615" r="7.615" stroke="#222" transform="rotate(13.35 377.616 106.615)"/><circle cx="337.346" cy="127.571" r="9.346" stroke="#222"/><circle cx="336.77" cy="95.707" r="13.154" stroke="#222" stroke-width="2"/><path stroke="#222" stroke-dasharray="2 2" d="m348 103 22.5 6M370 105l-20.5-5.5"/></svg>