<svg xmlns="http://www.w3.org/2000/svg" width="400" height="160" fill="none" viewBox="0 0 400 160"><mask id="a" fill="#fff"><path fill-rule="evenodd" d="M400 0H34L0 34v126h400z" clip-rule="evenodd"/></mask><path fill="#222" d="M34 0v-1h-.414l-.293.293zm366 0h1v-1h-1zM0 34l-.707-.707-.293.293V34zm0 126h-1v1h1zm400 0v1h1v-1zM34 1h366v-2H34zM.707 34.707l34-34-1.414-1.414-34 34zM1 160V34h-2v126zm399-1H0v2h400zM399 0v160h2V0z" mask="url(#a)"/><path fill="#222" d="m28.58 137-3.08-5.44h-1.32V137h-2.8v-13.96h5.24q1.62 0 2.76.58 1.14.56 1.7 1.54.58.96.58 2.16 0 1.38-.8 2.5-.8 1.1-2.38 1.52l3.34 5.66zm-4.4-7.54h2.34q1.14 0 1.7-.54.56-.56.56-1.54 0-.96-.56-1.48-.56-.54-1.7-.54h-2.34zm20.313 1.76q0 .6-.08 1.08h-8.1q.099 1.2.84 1.88.74.68 1.82.68 1.56 0 2.22-1.34h3.02q-.48 1.6-1.84 2.64-1.36 1.02-3.34 1.02-1.6 0-2.88-.7a5.15 5.15 0 0 1-1.98-2.02q-.7-1.3-.7-3 0-1.72.7-3.02a4.9 4.9 0 0 1 1.96-2q1.26-.7 2.9-.7 1.58 0 2.82.68 1.26.68 1.94 1.94.7 1.24.7 2.86m-2.9-.8q-.021-1.08-.78-1.72-.76-.66-1.86-.66-1.04 0-1.76.64-.7.62-.86 1.74zm7.743-2.9q.54-.76 1.48-1.26.96-.52 2.18-.52 1.42 0 2.56.7 1.16.7 1.82 2 .68 1.28.68 2.98t-.68 3.02q-.66 1.3-1.82 2.02-1.14.72-2.56.72-1.22 0-2.16-.5a4.6 4.6 0 0 1-1.5-1.26v6.86h-2.8v-16.36h2.8zm5.86 3.9q0-1-.42-1.72a2.74 2.74 0 0 0-1.08-1.12 2.84 2.84 0 0 0-1.44-.38q-.759 0-1.44.4-.66.38-1.08 1.12-.4.74-.4 1.74t.4 1.74q.42.74 1.08 1.14.681.38 1.44.38.78 0 1.44-.4a2.9 2.9 0 0 0 1.08-1.14q.42-.74.42-1.76m7.695-9.22V137h-2.8v-14.8zm4.186 2.4q-.74 0-1.24-.46-.48-.48-.48-1.18t.48-1.16q.5-.48 1.24-.48t1.22.48q.5.46.5 1.16t-.5 1.18q-.48.46-1.22.46m1.38 1.32V137h-2.8v-11.08zm2.047 5.54q0-1.72.7-3a4.9 4.9 0 0 1 1.94-2q1.24-.72 2.84-.72 2.06 0 3.4 1.04 1.36 1.02 1.82 2.88h-3.02a2.14 2.14 0 0 0-.82-1.12q-.56-.42-1.4-.42-1.2 0-1.9.88-.7.86-.7 2.46 0 1.58.7 2.46.7.86 1.9.86 1.7 0 2.22-1.52h3.02q-.46 1.8-1.82 2.86t-3.4 1.06q-1.6 0-2.84-.7a5.1 5.1 0 0 1-1.94-2q-.7-1.3-.7-3.02m12.031-.04q0-1.68.66-2.98.68-1.3 1.82-2a4.9 4.9 0 0 1 2.58-.7q1.24 0 2.16.5.94.5 1.5 1.26v-1.58h2.82V137h-2.82v-1.62q-.54.78-1.5 1.3-.94.5-2.18.5-1.4 0-2.56-.72-1.14-.72-1.82-2.02-.66-1.32-.66-3.02m8.72.04q0-1.02-.4-1.74a2.74 2.74 0 0 0-1.08-1.12q-.68-.4-1.46-.4t-1.44.38-1.08 1.12q-.4.72-.4 1.72t.4 1.76q.42.74 1.08 1.14.68.4 1.44.4.78 0 1.46-.38.68-.4 1.08-1.12.4-.74.4-1.76m8.815-3.24v5.36q0 .56.26.82.28.24.92.24h1.3V137h-1.76q-3.54 0-3.54-3.44v-5.34h-1.32v-2.3h1.32v-2.74h2.82v2.74h2.48v2.3zm5.914-3.62q-.74 0-1.24-.46-.48-.48-.48-1.18t.48-1.16q.5-.48 1.24-.48t1.22.48q.5.46.5 1.16t-.5 1.18q-.48.46-1.22.46m1.38 1.32V137h-2.8v-11.08zm7.686 11.26q-1.6 0-2.88-.7a5.25 5.25 0 0 1-2.02-2.02q-.72-1.3-.72-3t.74-3a5.2 5.2 0 0 1 2.06-2q1.3-.72 2.9-.72t2.9.72a5.07 5.07 0 0 1 2.04 2q.76 1.3.76 3t-.78 3a5.3 5.3 0 0 1-2.08 2.02q-1.3.7-2.92.7m0-2.44q.76 0 1.42-.36a2.74 2.74 0 0 0 1.08-1.12q.4-.74.4-1.8 0-1.58-.84-2.42a2.68 2.68 0 0 0-2.02-.86q-1.2 0-2.02.86-.8.84-.8 2.42t.78 2.44q.8.84 2 .84m13.974-8.98q1.98 0 3.2 1.26 1.22 1.24 1.22 3.48v6.5h-2.8v-6.12q0-1.32-.66-2.02-.66-.72-1.8-.72-1.16 0-1.84.72-.66.7-.66 2.02V137h-2.8v-11.08h2.8v1.38a3.8 3.8 0 0 1 1.42-1.12 4.4 4.4 0 0 1 1.92-.42m16.668 11.38q-1.46 0-2.64-.5-1.16-.5-1.84-1.44t-.7-2.22h3q.06.86.6 1.36.56.5 1.52.5.98 0 1.54-.46.56-.48.56-1.24 0-.62-.38-1.02a2.54 2.54 0 0 0-.96-.62q-.56-.24-1.56-.52-1.359-.4-2.22-.78a4.1 4.1 0 0 1-1.46-1.18q-.6-.8-.6-2.12 0-1.24.62-2.16.621-.92 1.74-1.4 1.12-.5 2.56-.5 2.16 0 3.5 1.06 1.36 1.04 1.5 2.92h-3.08a1.56 1.56 0 0 0-.62-1.18q-.56-.48-1.5-.48-.819 0-1.32.42-.48.42-.48 1.22 0 .56.36.94.38.36.92.6.561.22 1.56.52 1.36.4 2.22.8a4 4 0 0 1 1.48 1.2q.62.8.62 2.1 0 1.12-.58 2.08t-1.7 1.54q-1.12.56-2.66.56m10.628-8.92v5.36q0 .56.26.82.28.24.92.24h1.3V137h-1.76q-3.54 0-3.54-3.44v-5.34h-1.32v-2.3h1.32v-2.74h2.82v2.74h2.48v2.3zm14.954-2.3V137h-2.82v-1.4q-.54.72-1.42 1.14a4.4 4.4 0 0 1-1.88.4q-1.3 0-2.3-.54a4 4 0 0 1-1.58-1.62q-.56-1.08-.56-2.56v-6.5h2.8v6.1q0 1.32.66 2.04.66.7 1.8.7 1.16 0 1.82-.7.66-.72.66-2.04v-6.1zm2.042 5.5q0-1.68.66-2.98.68-1.3 1.84-2a4.9 4.9 0 0 1 2.58-.7q1.08 0 2.06.48.981.46 1.56 1.24v-5.26h2.84V137h-2.84v-1.64q-.52.82-1.46 1.32t-2.18.5q-1.4 0-2.56-.72t-1.84-2.02q-.66-1.32-.66-3.02m8.72.04q0-1.02-.4-1.74a2.73 2.73 0 0 0-1.08-1.12q-.68-.4-1.46-.4t-1.44.38-1.08 1.12q-.4.72-.4 1.72t.4 1.76q.42.74 1.08 1.14.681.4 1.44.4.78 0 1.46-.38.681-.4 1.08-1.12.4-.74.4-1.76m16.155-5.54-6.86 16.32h-2.98l2.4-5.52-4.44-10.8h3.14l2.86 7.74 2.9-7.74z"/><ellipse cx="334" cy="37.5" stroke="#222" stroke-width="2" rx="11.971" ry="2.5"/><path stroke="#222" stroke-width="2" d="M345.971 37.5 341.618 48v17c8.222 13.833 24.906 42.8 27.418 48 3.139 6.5 4.485 16-11.661 17-11.799.731-19.755.961-22.981.995V131l-.394-.001-.394.001v-.005c-3.226-.034-11.182-.264-22.981-.995-16.146-1-14.8-10.5-11.661-17 2.512-5.2 19.196-34.167 27.418-48V48l-4.353-10.5"/><path stroke="#222" d="m310.412 106-2.177 4.5M306.603 113.5l-2.177 4c-1.088 2-2.394 5 3.265 5"/><ellipse cx="334" cy="97.5" stroke="#222" stroke-dasharray="2 2" rx="26.118" ry="3.5"/><circle cx="304.5" cy="54.5" r="10" stroke="#222" stroke-dasharray="2 2"/><circle cx="304.5" cy="54.5" r="2.364" stroke="#222" stroke-dasharray="2 2"/><path fill="#efefef" d="M380.89 124.241V72.226h-21.519v52.015c0 5.942 4.817 10.759 10.759 10.759s10.76-4.817 10.76-10.759"/><path stroke="#222" stroke-width=".89" d="M359.371 72.226v52.015c0 5.942 4.817 10.759 10.759 10.759s10.76-4.817 10.76-10.759V72.226"/><path stroke="#222" stroke-width=".89" d="m380.815 72.226-.001.005-.008.021a.4.4 0 0 1-.083.104c-.099.097-.269.212-.528.334-.515.244-1.289.475-2.282.674-1.978.395-4.73.643-7.783.643s-5.805-.248-7.783-.644c-.992-.198-1.767-.43-2.282-.673-.259-.122-.429-.237-.528-.334a.5.5 0 0 1-.083-.104l-.008-.02-.001-.006.001-.005.008-.021a.5.5 0 0 1 .083-.104c.099-.097.269-.212.528-.334.515-.244 1.29-.475 2.282-.674 1.978-.395 4.73-.643 7.783-.643s5.805.248 7.783.644c.993.198 1.767.43 2.282.673.259.122.429.237.528.334a.4.4 0 0 1 .083.104z"/><path stroke="#222" stroke-dasharray="2 2" d="M378.842 87.758c.787.198 1.409.423 1.825.667l-.253.431c.164.097.26.179.31.24a.3.3 0 0 1 .034.048.3.3 0 0 1-.034.049c-.05.06-.146.142-.31.239l.253.43c-.416.245-1.038.47-1.825.668l-.122-.485c-.541.135-1.167.26-1.866.367l.076.494a35 35 0 0 1-1.935.24l-.048-.497q-.917.09-1.921.144l.027.5q-.945.051-1.948.069l-.008-.5a56 56 0 0 1-1.933 0l-.009.5a53 53 0 0 1-1.948-.07l.028-.499a45 45 0 0 1-1.922-.144l-.048.498a35 35 0 0 1-1.935-.24l.076-.495a21 21 0 0 1-1.866-.367l-.122.484c-.787-.197-1.409-.422-1.825-.666l.253-.431a1.2 1.2 0 0 1-.31-.24.2.2 0 0 1-.033-.048.2.2 0 0 1 .033-.049c.051-.06.146-.142.31-.239l-.253-.43c.416-.245 1.038-.47 1.825-.668l.122.485c.541-.135 1.168-.26 1.866-.367l-.076-.494a35 35 0 0 1 1.935-.24l.048.497q.917-.09 1.922-.144l-.028-.5q.945-.051 1.948-.069l.009.5a56 56 0 0 1 1.933 0l.008-.5q1.003.018 1.948.07l-.027.499q1.004.055 1.921.144l.048-.498c.688.067 1.336.148 1.935.24l-.076.495c.699.108 1.325.231 1.866.367zm1.919 1.396v-.003zm0-.02v.002zm-21.262 0v.002zm0 .02v-.003z"/><path stroke="#222" stroke-width=".89" d="M363.823 101.603v2.452M363.823 106.616v6.233M363.823 115.411v4.897c.124 1.188.742 3.74 2.226 4.452"/></svg>