<svg xmlns="http://www.w3.org/2000/svg" width="400" height="160" fill="none" viewBox="0 0 400 160"><mask id="a" fill="#fff"><path fill-rule="evenodd" d="M400 0H34L0 34v126h400z" clip-rule="evenodd"/></mask><path fill="#222" d="M34 0v-1h-.414l-.293.293zm366 0h1v-1h-1zM0 34l-.707-.707-.293.293V34zm0 126h-1v1h1zm400 0v1h1v-1zM34 1h366v-2H34zM.707 34.707l34-34-1.414-1.414-34 34zM1 160V34h-2v126zm399-1H0v2h400zM399 0v160h2V0z" mask="url(#a)"/><path fill="#222" d="M26.2 137.14q-1.46 0-2.64-.5-1.16-.5-1.84-1.44t-.7-2.22h3q.06.86.6 1.36.56.5 1.52.5.98 0 1.54-.46.56-.48.56-1.24 0-.62-.38-1.02a2.54 2.54 0 0 0-.96-.62q-.56-.24-1.56-.52-1.36-.4-2.22-.78a4.1 4.1 0 0 1-1.46-1.18q-.6-.8-.6-2.12 0-1.24.62-2.16t1.74-1.4q1.12-.5 2.56-.5 2.16 0 3.5 1.06 1.36 1.04 1.5 2.92H27.9a1.56 1.56 0 0 0-.62-1.18q-.56-.48-1.5-.48-.82 0-1.32.42-.48.42-.48 1.22 0 .56.36.94.38.36.92.6.56.22 1.56.52 1.36.4 2.22.8a4 4 0 0 1 1.48 1.2q.62.8.62 2.1 0 1.12-.58 2.08t-1.7 1.54q-1.12.56-2.66.56m6.647-5.68q0-1.72.7-3a4.9 4.9 0 0 1 1.94-2q1.24-.72 2.84-.72 2.06 0 3.4 1.04 1.36 1.02 1.82 2.88h-3.02a2.14 2.14 0 0 0-.82-1.12q-.56-.42-1.4-.42-1.2 0-1.9.88-.7.86-.7 2.46 0 1.58.7 2.46.7.86 1.9.86 1.701 0 2.22-1.52h3.02q-.46 1.8-1.82 2.86t-3.4 1.06q-1.6 0-2.84-.7a5.1 5.1 0 0 1-1.94-2q-.7-1.3-.7-3.02m14.172-6.86q-.74 0-1.24-.46-.48-.48-.48-1.18t.48-1.16q.5-.48 1.24-.48t1.22.48q.5.46.5 1.16t-.5 1.18q-.48.46-1.22.46m1.38 1.32V137h-2.8v-11.08zm13.066 5.3q0 .6-.08 1.08h-8.1q.1 1.2.84 1.88t1.82.68q1.56 0 2.22-1.34h3.02q-.48 1.6-1.84 2.64-1.36 1.02-3.34 1.02-1.6 0-2.88-.7a5.15 5.15 0 0 1-1.98-2.02q-.7-1.3-.7-3 0-1.72.7-3.02a4.9 4.9 0 0 1 1.96-2q1.26-.7 2.9-.7 1.58 0 2.82.68a4.7 4.7 0 0 1 1.94 1.94q.7 1.24.7 2.86m-2.9-.8q-.02-1.08-.78-1.72-.759-.66-1.86-.66-1.04 0-1.76.64-.7.62-.86 1.74zm11.084-4.66q1.98 0 3.2 1.26 1.22 1.24 1.22 3.48v6.5h-2.8v-6.12q0-1.32-.66-2.02-.66-.72-1.8-.72-1.16 0-1.84.72-.66.7-.66 2.02V137h-2.8v-11.08h2.8v1.38a3.8 3.8 0 0 1 1.42-1.12 4.4 4.4 0 0 1 1.92-.42m6.363 5.7q0-1.72.7-3a4.9 4.9 0 0 1 1.94-2q1.24-.72 2.84-.72 2.06 0 3.4 1.04 1.36 1.02 1.82 2.88h-3.02a2.14 2.14 0 0 0-.82-1.12q-.56-.42-1.4-.42-1.2 0-1.9.88-.7.86-.7 2.46 0 1.58.7 2.46.7.86 1.9.86 1.7 0 2.22-1.52h3.02q-.46 1.8-1.82 2.86t-3.4 1.06q-1.6 0-2.84-.7a5.1 5.1 0 0 1-1.94-2q-.7-1.3-.7-3.02m23.05-.24q0 .6-.08 1.08h-8.1q.1 1.2.84 1.88t1.82.68q1.56 0 2.22-1.34h3.02q-.479 1.6-1.84 2.64-1.36 1.02-3.34 1.02-1.599 0-2.88-.7a5.15 5.15 0 0 1-1.98-2.02q-.7-1.3-.7-3 0-1.72.7-3.02a4.9 4.9 0 0 1 1.96-2q1.261-.7 2.9-.7 1.581 0 2.82.68 1.26.68 1.94 1.94.701 1.24.7 2.86m-2.9-.8q-.02-1.08-.78-1.72-.759-.66-1.86-.66-1.04 0-1.76.64-.698.62-.86 1.74zm9.03-.42q0-2.06.92-3.68a6.65 6.65 0 0 1 2.54-2.54q1.62-.92 3.62-.92 2.34 0 4.1 1.2 1.761 1.2 2.46 3.32h-3.22q-.48-1-1.36-1.5-.86-.5-2-.5-1.22 0-2.18.58-.94.56-1.48 1.6-.52 1.04-.52 2.44 0 1.38.52 2.44a4.06 4.06 0 0 0 1.48 1.62q.96.56 2.18.56 1.14 0 2-.5.88-.52 1.36-1.52h3.22q-.699 2.14-2.46 3.34-1.74 1.18-4.1 1.18-2 0-3.62-.9a6.83 6.83 0 0 1-2.54-2.54q-.92-1.62-.92-3.68m20.952 7.18q-1.6 0-2.88-.7a5.24 5.24 0 0 1-2.02-2.02q-.72-1.3-.72-3t.74-3a5.2 5.2 0 0 1 2.06-2q1.3-.72 2.9-.72t2.9.72a5.1 5.1 0 0 1 2.04 2q.76 1.3.76 3t-.78 3a5.3 5.3 0 0 1-2.08 2.02q-1.3.7-2.92.7m0-2.44q.76 0 1.42-.36a2.74 2.74 0 0 0 1.08-1.12q.4-.74.4-1.8 0-1.58-.84-2.42a2.68 2.68 0 0 0-2.02-.86q-1.2 0-2.02.86-.8.84-.8 2.42t.78 2.44q.8.84 2 .84m21.594-8.98q2.04 0 3.28 1.26 1.26 1.24 1.26 3.48v6.5h-2.8v-6.12q0-1.3-.66-1.98-.66-.7-1.8-.7t-1.82.7q-.66.68-.66 1.98V137h-2.8v-6.12q0-1.3-.66-1.98-.66-.7-1.8-.7-1.16 0-1.84.7-.66.68-.66 1.98V137h-2.8v-11.08h2.8v1.34q.54-.7 1.38-1.1.86-.4 1.88-.4 1.3 0 2.32.56 1.02.54 1.58 1.56.54-.96 1.56-1.54a4.5 4.5 0 0 1 2.24-.58m20.957 0q2.04 0 3.28 1.26 1.26 1.24 1.26 3.48v6.5h-2.8v-6.12q0-1.3-.66-1.98-.66-.7-1.8-.7t-1.82.7q-.66.68-.66 1.98V137h-2.8v-6.12q0-1.3-.66-1.98-.66-.7-1.8-.7-1.16 0-1.84.7-.66.68-.66 1.98V137h-2.8v-11.08h2.8v1.34q.54-.7 1.38-1.1.86-.4 1.88-.4 1.3 0 2.32.56 1.02.54 1.58 1.56.54-.96 1.56-1.54a4.5 4.5 0 0 1 2.24-.58m17.657.16V137h-2.82v-1.4q-.54.72-1.42 1.14a4.4 4.4 0 0 1-1.88.4q-1.3 0-2.3-.54a4 4 0 0 1-1.58-1.62q-.56-1.08-.56-2.56v-6.5h2.8v6.1q0 1.32.66 2.04.66.7 1.8.7 1.16 0 1.82-.7.66-.72.66-2.04v-6.1zm8.902-.16q1.98 0 3.2 1.26 1.22 1.24 1.22 3.48v6.5h-2.8v-6.12q0-1.32-.66-2.02-.66-.72-1.8-.72-1.16 0-1.84.72-.66.7-.66 2.02V137h-2.8v-11.08h2.8v1.38q.56-.72 1.42-1.12a4.4 4.4 0 0 1 1.92-.42m8.503-1.16q-.74 0-1.24-.46-.48-.48-.48-1.18t.48-1.16q.5-.48 1.24-.48t1.22.48q.5.46.5 1.16t-.5 1.18q-.48.46-1.22.46m1.38 1.32V137h-2.8v-11.08zm2.046 5.54q0-1.72.7-3a4.93 4.93 0 0 1 1.94-2q1.24-.72 2.84-.72 2.06 0 3.4 1.04 1.36 1.02 1.82 2.88h-3.02a2.14 2.14 0 0 0-.82-1.12q-.56-.42-1.4-.42-1.2 0-1.9.88-.7.86-.7 2.46 0 1.58.7 2.46.7.86 1.9.86 1.701 0 2.22-1.52h3.02q-.46 1.8-1.82 2.86t-3.4 1.06q-1.6 0-2.84-.7a5.1 5.1 0 0 1-1.94-2q-.7-1.3-.7-3.02m12.032-.04q0-1.68.66-2.98.68-1.3 1.82-2a4.9 4.9 0 0 1 2.58-.7q1.239 0 2.16.5.939.5 1.5 1.26v-1.58h2.82V137h-2.82v-1.62q-.54.78-1.5 1.3-.94.5-2.18.5-1.4 0-2.56-.72-1.14-.72-1.82-2.02-.66-1.32-.66-3.02m8.72.04q0-1.02-.4-1.74a2.74 2.74 0 0 0-1.08-1.12 2.83 2.83 0 0 0-1.46-.4q-.78 0-1.44.38t-1.08 1.12q-.4.72-.4 1.72t.4 1.76q.42.74 1.08 1.14.68.4 1.44.4a2.95 2.95 0 0 0 1.46-.38q.68-.4 1.08-1.12.4-.74.4-1.76m8.814-3.24v5.36q0 .56.26.82.28.24.92.24h1.3V137h-1.76q-3.54 0-3.54-3.44v-5.34h-1.32v-2.3h1.32v-2.74h2.82v2.74h2.48v2.3zm5.914-3.62q-.74 0-1.24-.46-.48-.48-.48-1.18t.48-1.16q.5-.48 1.24-.48t1.22.48q.5.46.5 1.16t-.5 1.18q-.48.46-1.22.46m1.38 1.32V137h-2.8v-11.08zm7.687 11.26q-1.6 0-2.88-.7a5.24 5.24 0 0 1-2.02-2.02q-.72-1.3-.72-3t.74-3a5.2 5.2 0 0 1 2.06-2q1.3-.72 2.9-.72t2.9.72a5.1 5.1 0 0 1 2.04 2q.76 1.3.76 3t-.78 3a5.3 5.3 0 0 1-2.08 2.02q-1.3.7-2.92.7m0-2.44q.76 0 1.42-.36a2.74 2.74 0 0 0 1.08-1.12q.4-.74.4-1.8 0-1.58-.84-2.42a2.68 2.68 0 0 0-2.02-.86q-1.2 0-2.02.86-.8.84-.8 2.42t.78 2.44q.8.84 2 .84m13.974-8.98q1.98 0 3.2 1.26 1.22 1.24 1.22 3.48v6.5h-2.8v-6.12q0-1.32-.66-2.02-.66-.72-1.8-.72-1.16 0-1.84.72-.66.7-.66 2.02V137h-2.8v-11.08h2.8v1.38q.56-.72 1.42-1.12a4.4 4.4 0 0 1 1.92-.42"/><circle cx="339" cy="64" r="40" stroke="#222" stroke-width="2"/><path stroke="#222" stroke-dasharray="2 2" d="M299.5 64h79M339 115V24.5M346 122h35M297 122h35"/><circle cx="339" cy="122" r="7" stroke="#222"/><path stroke="#222" d="M333 129.708a8.97 8.97 0 0 0 6 2.292 8.96 8.96 0 0 0 5-1.516M331.5 132.047A10.96 10.96 0 0 0 339 135a10.95 10.95 0 0 0 6.5-2.125"/><ellipse cx="339" cy="64" stroke="#222" stroke-dasharray="2 2" rx="21" ry="40"/><path stroke="#222" stroke-dasharray="2 2" d="M309.335 38.5A49.28 49.28 0 0 0 338.5 48a49.3 49.3 0 0 0 30-10.123M309 91.747A49.28 49.28 0 0 1 338.5 82a49.3 49.3 0 0 1 30 10.124"/></svg>