<svg xmlns="http://www.w3.org/2000/svg" width="1em" height="1em" fill="current" viewBox="0 0 24 30"><path d="M2.296 11.662q1.293 1.519 2.577 3.045c.165.195.368.257.582.099a81 81 0 0 0 1.73-1.325c.187-.146.095-.245-.097-.325a23 23 0 0 1-1.021-.442c-1.204-.566-2.179-1.329-2.79-2.422-.683-1.22-.995-2.489-.942-3.857.058-1.488.472-2.88 1.22-4.199.426-.752.936-1.468 1.408-2.2L4.945 0C4.447.506 3.93 1 3.454 1.52 1.499 3.657.605 6.065 1.052 8.799c.168 1.032.517 2.01 1.244 2.864M19.027 14.704c.47-.601.97-1.189 1.511-1.742 1.156-1.182 2.127-2.436 2.439-4.008.237-1.194.26-2.37-.042-3.564-.358-1.42-1.124-2.65-2.146-3.767-.51-.56-1.112-1.056-1.672-1.58l-.068.06c.338.425.691.84 1.01 1.275 1.637 2.223 2.168 4.626 1.442 7.201-.402 1.428-1.205 2.665-2.611 3.532-.7.431-1.457.792-2.274 1.23.645.484 1.288.975 1.944 1.45.16.115.3.127.467-.087M5.432 15.908c.131.509.22.965.371 1.405.186.542.38 1.084.887 1.494.528.427 1.037.873 1.532 1.33.88.814 1.97 1.473 2.55 2.542-.043-.154-.06-.318-.135-.46-.499-.946-.958-1.913-1.532-2.825-.573-.911-.674-1.844-.36-2.804.227-.688.594-1.341.88-1.972-.513-.223-1.121-.458-1.694-.747-.255-.128-.326-.098-.496.098-.616.708-.87 1.695-2.003 1.94M14.223 21.461c.952-.878 1.973-1.7 2.925-2.578.36-.331.697-.723.89-1.14.266-.58.385-1.212.57-1.828-1.316-.312-1.457-1.554-2.235-2.191l-2.161.944c1.28 1.617 1.657 3.313.491 5.136a39 39 0 0 0-1.183 1.97c-.152.272-.225.578-.333.868l.06.008c.322-.4.595-.838.976-1.189M18.338 19.598c-.09-.279-.206-.55-.335-.892-.22.28-.38.472-.527.672a8 8 0 0 1-1.77 1.775c-.521.38-.986.855-1.342 1.359-.679.96-.597 2.092-.753 3.164-.107.727-.194 1.458-.666 2.081-.5.662-.573 1.381-.546 2.117.643-.574 1.281-1.13 1.897-1.704.123-.114.223-.299.223-.451 0-.551-.109-1.105-.069-1.652.128-1.745 1.091-3.057 2.819-3.952.458-.238.905-.497 1.33-.778.102-.067.156-.27.127-.393-.104-.452-.246-.9-.388-1.346M11.074 27.684c-.694-.931-.562-2.07-.718-3.127-.158-1.077-.463-2.07-1.425-2.844A28 28 0 0 1 7 20.023c-.37-.357-.646-.787-.964-1.185l-.136.045c-.162.615-.223 1.27-.516 1.834-.271.526.04.687.413.903.227.132.449.275.689.387 1.282.596 2.258 1.42 2.763 2.64.356.863.577 1.73.354 2.642-.123.507-.072.896.495 1.221.448.258.794.653 1.17 1 .147.135.254.301.41.49.036-.097.064-.134.06-.167-.117-.738-.154-1.467-.663-2.15M4.093 15.179c-.545-.543-1.12-1.064-1.657-1.612C1.222 12.327.413 10.935.38 9.264.38 9.174.35 9.085.332 8.997c-.441 1.191-.415 2.38-.084 3.555.461 1.631 1.337 3.066 2.78 4.22.301.239.59.527.762.844.42.767.631 1.587.58 2.514.062-.089.092-.124.115-.165.51-.952.523-1.967.432-2.978-.059-.661-.308-1.293-.824-1.808M23.822 9.09c-.129.441-.212.884-.336 1.318-.47 1.643-1.622 2.917-2.948 4.097-.667.593-1.222 1.25-1.387 2.096-.054.275-.079.554-.114.83-.11.85.136 1.643.478 2.426.177-1.459.835-2.663 2.054-3.712.694-.596 1.156-1.423 1.612-2.195.497-.84.667-1.77.789-2.717.095-.742-.057-1.433-.148-2.143"/></svg>