<svg xmlns="http://www.w3.org/2000/svg" width="1em" height="1em" fill="current" viewBox="0 0 16 16"><g fill-rule="evenodd" clip-path="url(#a)" clip-rule="evenodd"><path d="m14.124 4.589-2.573-2.573a.5.5 0 0 0-.707 0L8.23 4.63a.5.5 0 0 0-.047.652L7.119 6.346a2 2 0 0 1 .05-2.777L9.783.955a2 2 0 0 1 2.829 0l2.573 2.573a2 2 0 0 1 0 2.828l-2.614 2.615a2 2 0 0 1-2.829 0l-.149-.15 1.06-1.06.15.149a.5.5 0 0 0 .707 0l2.614-2.614a.5.5 0 0 0 0-.707M8.886 5.993l-1.06 1.06zm-2.304.89a2 2 0 0 0-2.796.03L1.17 9.529a2 2 0 0 0 0 2.829l2.574 2.573a2 2 0 0 0 2.828 0l2.614-2.615a2 2 0 0 0 0-2.828l-.13-.13-1.06 1.06.13.13a.5.5 0 0 1 0 .708l-2.615 2.614a.5.5 0 0 1-.707 0l-2.573-2.573a.5.5 0 0 1 0-.707l2.614-2.614a.5.5 0 0 1 .674-.03zM6.23 8.65l1.06-1.06z"/><path d="m12 5-7 7-1.06-1.06 7-7z"/></g><defs><clipPath id="a"><path fill="#fff" d="M0 0h16v16H0z"/></clipPath></defs></svg>