<svg xmlns="http://www.w3.org/2000/svg" width="1em" height="1em" fill="current" viewBox="0 0 24 24"><path fill-rule="evenodd" d="M15.156 8.116c0 1.697-1.407 3.055-3.079 3.055a3.054 3.054 0 1 1 0-6.11 3.054 3.054 0 0 1 3.079 3.055m-3.079 5.808 1.938-2.225c2.015.905 3.459 3.13 3.42 5.77 0 .34-.037.716-.075 1.056-1.14 1.433-3.078 2.376-5.283 2.376-2.204 0-4.142-.943-5.282-2.376a9 9 0 0 1-.076-1.056c0-2.64 1.444-4.865 3.458-5.77zm4.105-5.62v-.188c0-1.169-.494-2.187-1.254-2.941.342-1.17 1.444-2.074 2.736-2.074 1.558 0 2.812 1.282 2.812 2.828a2.795 2.795 0 0 1-2.812 2.79c-.57 0-1.064-.15-1.482-.414m-8.247-.112A2.73 2.73 0 0 1 6.3 8.72c-1.559 0-2.85-1.283-2.85-2.791 0-1.584 1.291-2.828 2.85-2.828 1.368 0 2.508.942 2.774 2.225-.722.716-1.14 1.697-1.14 2.79zm9.729 3.093 1.786-2.074c1.862.83 3.192 2.904 3.192 5.393 0 .308-.03.585-.065.888l-.01.092c-.875 1.094-2.357 1.924-4.029 2.112v-.189c0-2.79-1.406-5.28-3.572-6.486.456-.452.836-1.018 1.026-1.66zM8.087 9.211c.19.679.608 1.32 1.102 1.81-2.166 1.245-3.535 3.696-3.535 6.449v.226c-1.748-.15-3.268-.98-4.218-2.15a8 8 0 0 1-.076-.98c0-2.414 1.33-4.525 3.154-5.355l1.787 2.074z" clip-rule="evenodd"/></svg>