<svg xmlns="http://www.w3.org/2000/svg" width="1em" height="1em" fill="current" viewBox="0 0 22 30"><path d="M16.117 15.16c.94-.623 1.79-1.384 2.679-2.082.514-.403 1.048-.783 1.542-1.209.708-.609.985-1.473 1.249-2.317.375-1.203.509-2.437.343-3.704-.145-1.105-.179-2.227-.35-3.327-.128-.823-.395-1.624-.622-2.521-.123.91-.193 1.718-.348 2.509-.299 1.534-.901 2.923-2.06 4.037-.424.408-.79.874-1.174 1.321-.35.406-.687.823-1.029 1.234l-.066-.032.454-1.332c-1.805 1.742-3.794 3.204-5.753 4.75L5.28 7.74l.44 1.399c-.093-.079-.158-.121-.207-.175-.604-.68-1.214-1.353-1.806-2.043-.427-.497-.856-.996-1.236-1.527-.623-.87-.844-1.901-1.053-2.92C1.259 1.701 1.188.913 1.07.07.904.67.697 1.22.604 1.79.406 3.006.266 4.231.103 5.453-.064 6.696-.043 7.936.276 9.15c.257.974.553 1.948 1.346 2.66.237.211.502.395.753.59 1.104.859 2.216 1.707 3.308 2.58.516.414 1.113.798 1.463 1.333.556.846.94 1.805 1.389 2.72.113.231.194.478.29.718-.399-.287-.72-.613-1.07-.907-.883-.744-1.8-1.45-2.66-2.219-.461-.411-.815-.94-1.253-1.38-.367-.368-.782-.688-1.182-1.022-.404-.339-.817-.668-1.27-1.04l3.23 5.311H3.237c.099.102.194.152.294.18 1.281.348 2.351 1.036 3.17 2.065a24.5 24.5 0 0 1 2.838 4.533c.621 1.276 1.199 2.566 1.32 4.006.02.243.086.482.13.722.14-1.655.679-3.174 1.457-4.59.8-1.46 1.661-2.893 2.597-4.27.806-1.186 1.981-1.961 3.36-2.408.175-.057.355-.093.532-.14l-.018-.14-1.53.067 3.215-5.302c-.828.647-1.63 1.295-2.381 1.995-.48.448-.851 1.012-1.335 1.455-.738.676-1.534 1.289-2.3 1.935-.455.385-.9.782-1.44 1.252.3-.603.537-1.113.803-1.607.602-1.11 1.018-2.326 2.168-3.088"/></svg>