<svg width="20" height="20" viewBox="0 0 20 20" fill="none" xmlns="http://www.w3.org/2000/svg">
<path d="M10.7451 12.552C11.4945 12.552 12.104 13.1496 12.104 13.8852L12.1033 16.5645L15.2652 16.5652C15.6596 16.5652 15.9806 16.8803 15.9806 17.2681V18.2971C15.9806 18.6849 15.6589 19 15.2645 19H6.22647C5.8321 19 5.51038 18.6849 5.51038 18.2971V17.2681C5.51038 16.881 5.83141 16.5652 6.22647 16.5652H9.38629V13.8852C9.38629 13.1496 9.99584 12.552 10.7451 12.552ZM9.96955 11.5943C10.0593 11.5983 10.144 11.636 10.206 11.6997C10.2681 11.7634 10.3027 11.8482 10.3027 11.9363C10.3027 12.0245 10.2681 12.1092 10.206 12.1729C10.144 12.2366 10.0593 12.2743 9.96955 12.2783H8.86738V14.9895C8.86732 15.0477 8.85213 15.105 8.82325 15.1559C8.79437 15.2067 8.75274 15.2495 8.70231 15.2802C8.65189 15.3108 8.59432 15.3284 8.53507 15.3311C8.47582 15.3338 8.41683 15.3217 8.36369 15.2958C7.73849 14.9902 7.18095 14.5664 6.72311 14.0487C6.26527 13.5309 5.91615 12.9295 5.6958 12.2789H4.34871C4.25622 12.2789 4.16753 12.2429 4.10213 12.1787C4.03674 12.1145 4 12.0274 4 11.9366C4 11.8459 4.03674 11.7588 4.10213 11.6946C4.16753 11.6304 4.25622 11.5943 4.34871 11.5943H9.96955ZM11.7463 1.08217L12.8284 1.69546C12.899 1.73521 12.9609 1.78834 13.0104 1.85177C13.06 1.91519 13.0962 1.98765 13.1169 2.06493C13.1382 2.14212 13.1436 2.22269 13.1329 2.30197C13.1222 2.38124 13.0956 2.45765 13.0546 2.52676L12.1206 4.11466C12.4679 4.36527 12.5745 4.83458 12.3558 5.20472L12.0998 5.63939L12.1254 5.64686C13.2413 5.94764 14.2252 6.60054 14.9255 7.50481C15.6257 8.40908 16.0033 9.51444 16 10.6503C16.0021 11.613 15.7301 12.5571 15.2147 13.3762C14.6992 14.1952 13.9609 14.8566 13.083 15.2856C13.0298 15.3115 12.9707 15.3237 12.9113 15.321C12.8519 15.3184 12.7942 15.301 12.7436 15.2704C12.693 15.2399 12.6511 15.1972 12.6219 15.1464C12.5927 15.0956 12.5771 15.0383 12.5766 14.98V12.4182C12.5766 12.3394 12.6042 12.2633 12.6554 12.2022C13.0212 11.7649 13.2201 11.2161 13.2179 10.6503C13.2172 9.9981 12.9529 9.37282 12.4831 8.91165C12.0133 8.45047 11.3763 8.19107 10.7119 8.19035C10.6772 8.19041 10.6427 8.18537 10.6095 8.17541L9.4541 10.1402C9.37995 10.2674 9.27272 10.373 9.14337 10.4461C9.01403 10.5193 8.86721 10.5574 8.71793 10.5566C8.57056 10.5566 8.42596 10.5192 8.2952 10.4452L6.30465 9.31709C6.11019 9.20646 5.96836 9.02465 5.91026 8.81152C5.85215 8.59839 5.88252 8.37135 5.99469 8.18016L8.89782 3.24464C9.0106 3.05176 9.19326 2.91457 9.41189 2.85684C9.59801 2.80794 9.79035 2.8222 9.96401 2.89487L10.9001 1.30494C10.9404 1.2355 10.9944 1.17464 11.0589 1.12589C11.1234 1.07715 11.1971 1.04151 11.2758 1.02104C11.3544 1.0001 11.4365 0.99472 11.5173 1.00521C11.5981 1.01571 11.6759 1.04187 11.7463 1.08217Z" fill="#FF613A"/>
</svg>
