<svg width="1741" height="529" viewBox="0 0 1741 529" fill="none" xmlns="http://www.w3.org/2000/svg">
<path d="M1662.43 125V0.800049H1684.39V105.02H1740.55V125H1662.43Z" fill="black"/>
<path d="M1532.95 120.68L1571.29 0.800049H1605.49L1643.65 120.68L1640.95 125H1622.41L1613.95 97.6401H1562.65L1554.01 125H1535.83L1532.95 120.68ZM1568.77 77.6601H1608.01L1590.01 20.78H1586.59L1568.77 77.6601Z" fill="black"/>
<path d="M1427.94 125V0.800049H1485.9C1505.46 0.800049 1515.24 10.5801 1515.24 30.1401V41.4801C1515.24 45.5601 1514.04 49.0401 1511.64 51.9201L1505.34 59.4801L1512.9 65.7801C1516.86 69.0201 1518.84 73.8201 1518.84 80.1801V95.6601C1518.84 115.22 1509.06 125 1489.5 125H1427.94ZM1449.9 105.02H1488.96C1494.24 105.02 1496.88 102.44 1496.88 97.2801V78.3801C1496.88 73.2201 1494.24 70.6401 1488.96 70.6401H1449.9V105.02ZM1449.9 50.6601H1485.36C1490.64 50.6601 1493.28 48.0201 1493.28 42.7401V28.5201C1493.28 23.3601 1490.64 20.78 1485.36 20.78H1449.9V50.6601Z" fill="black"/>
<path d="M1299.22 95.6601V30.1401C1299.22 10.5801 1309 0.800049 1328.56 0.800049H1369.78C1389.34 0.800049 1399.12 10.5801 1399.12 30.1401V95.6601C1399.12 115.22 1389.34 125 1369.78 125H1328.56C1309 125 1299.22 115.22 1299.22 95.6601ZM1321.18 97.2801C1321.18 102.44 1323.82 105.02 1329.1 105.02H1369.24C1374.52 105.02 1377.16 102.44 1377.16 97.2801V28.5201C1377.16 23.3601 1374.52 20.78 1369.24 20.78H1329.1C1323.82 20.78 1321.18 23.3601 1321.18 28.5201V97.2801Z" fill="black"/>
<path d="M1203.29 125V0.800049H1225.25V105.02H1281.41V125H1203.29Z" fill="black"/>
<path d="M1080.03 95.6601V30.1401C1080.03 10.5801 1089.81 0.800049 1109.37 0.800049H1162.11L1172.73 9.08005V20.78H1109.91C1104.63 20.78 1101.99 23.3601 1101.99 28.5201V97.2801C1101.99 102.44 1104.63 105.02 1109.91 105.02H1154.37V70.6401H1128.09V50.6601H1176.33V125H1109.37C1089.81 125 1080.03 115.22 1080.03 95.6601Z" fill="black"/>
<path d="M915.318 95.6601V30.1401C915.318 10.5801 925.098 0.800049 944.658 0.800049H997.398L1008.02 9.08005V20.78H945.198C939.918 20.78 937.278 23.3601 937.278 28.5201V97.2801C937.278 102.44 939.918 105.02 945.198 105.02H989.658V70.6401H963.378V50.6601H1011.62V125H944.658C925.098 125 915.318 115.22 915.318 95.6601Z" fill="black"/>
<path d="M785.458 125V0.800049H809.398L864.478 89.3601V0.800049H886.438V125H862.678L807.418 36.4401V125H785.458Z" fill="black"/>
<path d="M732.899 125V0.800049H754.859V125H732.899Z" fill="black"/>
<path d="M622.207 116.72V105.02H677.827C683.107 105.02 685.747 102.44 685.747 97.2801V83.6001C685.747 79.0401 683.707 76.3401 679.627 75.5001L643.087 68.1201C629.167 65.3601 622.207 56.0001 622.207 40.0401V30.1401C622.207 10.5801 631.987 0.800049 651.547 0.800049H693.487L704.107 9.08005V20.78H652.087C646.807 20.78 644.167 23.3601 644.167 28.5201V40.5801C644.167 45.1401 646.207 47.8401 650.287 48.6801L686.827 55.8801C700.747 58.7601 707.707 68.1201 707.707 83.9601V95.6601C707.707 115.22 697.927 125 678.367 125H632.827L622.207 116.72Z" fill="black"/>
<path d="M575.048 125V0.800049H597.008V125H575.048Z" fill="black"/>
<path d="M445.57 120.68L483.91 0.800049H518.11L556.27 120.68L553.57 125H535.03L526.57 97.6401H475.27L466.63 125H448.45L445.57 120.68ZM481.39 77.6601H520.63L502.63 20.78H499.21L481.39 77.6601Z" fill="black"/>
<path d="M341.435 125V0.800049H401.195C420.755 0.800049 430.535 10.5801 430.535 30.1401V50.4801C430.535 65.6001 424.535 74.7801 412.535 78.0201L434.135 120.32L431.435 125H412.715L389.675 79.6401H363.395V125H341.435ZM363.395 59.6601H400.655C405.935 59.6601 408.575 57.0201 408.575 51.7401V28.5201C408.575 23.3601 405.935 20.78 400.655 20.78H363.395V59.6601Z" fill="black"/>
<path d="M1449.72 333.96V318.36H1523.88C1530.92 318.36 1534.44 314.92 1534.44 308.04V289.8C1534.44 283.72 1531.72 280.12 1526.28 279L1477.56 269.16C1459 265.48 1449.72 253 1449.72 231.72V218.52C1449.72 192.44 1462.76 179.4 1488.84 179.4H1544.76L1558.92 190.44V206.04H1489.56C1482.52 206.04 1479 209.48 1479 216.36V232.44C1479 238.52 1481.72 242.12 1487.16 243.24L1535.88 252.84C1554.44 256.68 1563.72 269.16 1563.72 290.28V305.88C1563.72 331.96 1550.68 345 1524.6 345H1463.88L1449.72 333.96Z" fill="#BB1212"/>
<path d="M1309.33 333.96V318.36H1383.49C1390.53 318.36 1394.05 314.92 1394.05 308.04V289.8C1394.05 283.72 1391.33 280.12 1385.89 279L1337.17 269.16C1318.61 265.48 1309.33 253 1309.33 231.72V218.52C1309.33 192.44 1322.37 179.4 1348.45 179.4H1404.37L1418.53 190.44V206.04H1349.17C1342.13 206.04 1338.61 209.48 1338.61 216.36V232.44C1338.61 238.52 1341.33 242.12 1346.77 243.24L1395.49 252.84C1414.05 256.68 1423.33 269.16 1423.33 290.28V305.88C1423.33 331.96 1410.29 345 1384.21 345H1323.49L1309.33 333.96Z" fill="#BB1212"/>
<path d="M1172.86 345V179.4H1284.22V206.04H1202.14V245.88H1277.02V272.52H1202.14V318.36H1284.22V345H1172.86Z" fill="#BB1212"/>
<path d="M997.313 345V179.4H1029.23L1102.67 297.48V179.4H1131.95V345H1100.27L1026.59 226.92V345H997.313Z" fill="#BB1212"/>
<path d="M853.642 345V179.4H965.002V206.04H882.922V245.88H957.802V272.52H882.922V318.36H965.002V345H853.642Z" fill="#BB1212"/>
<path d="M698.954 345V179.4H778.634C804.714 179.4 817.754 192.44 817.754 218.52V245.64C817.754 265.8 809.754 278.04 793.754 282.36L822.554 338.76L818.954 345H793.994L763.274 284.52H728.234V345H698.954ZM728.234 257.88H777.914C784.954 257.88 788.474 254.36 788.474 247.32V216.36C788.474 209.48 784.954 206.04 777.914 206.04H728.234V257.88Z" fill="#BB1212"/>
<path d="M526.317 339.24L577.437 179.4H623.037L673.917 339.24L670.317 345H645.597L634.317 308.52H565.917L554.397 345H530.157L526.317 339.24ZM574.077 281.88H626.397L602.397 206.04H597.837L574.077 281.88Z" fill="#BB1212"/>
<path d="M309.577 185.16L313.657 179.4H337.657L367.177 318.36H369.817L401.257 196.2H430.297L461.497 318.36H464.377L493.897 179.4H517.897L521.977 185.16L487.657 345H440.377L415.657 247.56L391.177 345H344.137L309.577 185.16Z" fill="#BB1212"/>
<path d="M157.646 339.24L208.766 179.4H254.366L305.246 339.24L301.646 345H276.926L265.646 308.52H197.246L185.726 345H161.486L157.646 339.24ZM205.406 281.88H257.726L233.726 206.04H229.165L205.406 281.88Z" fill="#BB1212"/>
<path d="M1241.76 409.12L1244.46 404.8H1263.18L1292.52 461.14L1322.04 404.8H1340.94L1343.46 409.12L1303.68 484.36V529H1281.54V484.36L1241.76 409.12Z" fill="black"/>
<path d="M1133.68 424.78V404.8H1233.94V424.78H1194.88V529H1172.74V424.78H1133.68Z" fill="black"/>
<path d="M1092.1 529V404.8H1114.06V529H1092.1Z" fill="black"/>
<path d="M964.557 409.12L967.437 404.8H986.517L1017.3 509.02H1020.72L1051.5 404.8H1070.76L1073.46 409.12L1036.74 529H1001.1L964.557 409.12Z" fill="black"/>
<path d="M868.683 529V404.8H952.203V424.78H890.643V454.66H946.803V474.64H890.643V509.02H952.203V529H868.683Z" fill="black"/>
<path d="M745.418 499.66V434.14C745.418 414.58 755.198 404.8 774.758 404.8H827.498L838.118 413.08V424.78H775.298C770.018 424.78 767.378 427.36 767.378 432.52V501.28C767.378 506.44 770.018 509.02 775.298 509.02H819.758V474.64H793.478V454.66H841.718V529H774.758C755.198 529 745.418 519.22 745.418 499.66Z" fill="black"/>
<path d="M615.558 529V404.8H639.498L694.578 493.36V404.8H716.538V529H692.778L637.518 440.44V529H615.558Z" fill="black"/>
<path d="M486.844 499.66V434.14C486.844 414.58 496.624 404.8 516.184 404.8H557.404C576.964 404.8 586.744 414.58 586.744 434.14V499.66C586.744 519.22 576.964 529 557.404 529H516.184C496.624 529 486.844 519.22 486.844 499.66ZM508.804 501.28C508.804 506.44 511.444 509.02 516.724 509.02H556.864C562.144 509.02 564.784 506.44 564.784 501.28V432.52C564.784 427.36 562.144 424.78 556.864 424.78H516.724C511.444 424.78 508.804 427.36 508.804 432.52V501.28Z" fill="black"/>
<path d="M390.909 529V404.8H412.869V509.02H469.029V529H390.909Z" fill="black"/>
<path d="M231.651 529V404.8H291.411C310.971 404.8 320.751 414.58 320.751 434.14V454.48C320.751 469.6 314.751 478.78 302.751 482.02L324.351 524.32L321.651 529H302.931L279.891 483.64H253.611V529H231.651ZM253.611 463.66H290.871C296.151 463.66 298.791 461.02 298.791 455.74V432.52C298.791 427.36 296.151 424.78 290.871 424.78H253.611V463.66Z" fill="black"/>
<path d="M102.938 499.66V434.14C102.938 414.58 112.717 404.8 132.277 404.8H173.497C193.058 404.8 202.838 414.58 202.838 434.14V499.66C202.838 519.22 193.058 529 173.497 529H132.277C112.717 529 102.938 519.22 102.938 499.66ZM124.898 501.28C124.898 506.44 127.538 509.02 132.818 509.02H172.958C178.238 509.02 180.878 506.44 180.878 501.28V432.52C180.878 427.36 178.238 424.78 172.958 424.78H132.818C127.538 424.78 124.898 427.36 124.898 432.52V501.28Z" fill="black"/>
<path d="M0.499023 529V404.8H84.019V424.78H22.459V460.06H78.619V480.04H22.459V529H0.499023Z" fill="black"/>
</svg>
