<svg xmlns="http://www.w3.org/2000/svg" width="1840" height="431" fill="none" viewBox="0 0 1840 431"><path fill="#000" d="M15.3 401V276.8h21.96v104.22h56.16V401zm95.934-29.34v-65.52q0-29.34 29.34-29.34h41.22q29.34 0 29.34 29.34v65.52q0 29.34-29.34 29.34h-41.22q-29.34 0-29.34-29.34m21.96 1.62q0 7.74 7.92 7.74h40.14q7.92 0 7.92-7.74v-68.76q0-7.74-7.92-7.74h-40.14q-7.92 0-7.92 7.74zM239.948 401V276.8h23.94l55.08 88.56V276.8h21.96V401h-23.76l-55.26-88.56V401zm129.861-29.34v-65.52q0-29.34 29.34-29.34h52.74l10.62 8.28v11.7h-62.82q-7.92 0-7.92 7.74v68.76q0 7.74 7.92 7.74h44.46v-34.38h-26.28v-19.98h48.24V401h-66.96q-29.34 0-29.34-29.34M493.073 401V276.8h83.52v19.98h-61.56v29.88h56.16v19.98h-56.16v34.38h61.56V401zm95.874-119.88 2.88-4.32h19.08l30.78 104.22h3.42l30.78-104.22h19.26l2.7 4.32L661.127 401h-35.64zM716.491 401V276.8h21.96V401zm41.579-104.22V276.8h100.26v19.98h-39.06V401h-22.14V296.78zm108.084-15.66 2.7-4.32h18.72l29.34 56.34 29.52-56.34h18.9l2.52 4.32-39.78 75.24V401h-22.14v-44.64zM1029.73 401V276.8h83.52v19.98h-61.56v35.28h56.16v19.98h-56.16V401zm103.16-29.34V276.8h21.96v96.48q0 7.74 7.92 7.74h36.54q7.92 0 7.92-7.74V276.8h21.96v94.86q0 29.34-29.34 29.34h-37.62q-29.34 0-29.34-29.34M1258.78 401V276.8h23.94l55.08 88.56V276.8h21.96V401H1336l-55.26-88.56V401zm131.66 0V276.8h47.7q48.6 0 48.6 48.78v26.64q0 48.78-48.6 48.78zm21.96-19.98h27q25.38 0 25.38-25.38v-33.48q0-25.38-25.38-25.38h-27z"/><path fill="#bb1212" d="M92.2 121h24.6v-19.8H92.2zm73-19.8h-24.8V121h24.8zm22.8 39h-48.8c-1.6 12.4-5 24.2-11 34.8 18.4 8.8 41.4 14.4 68.4 16.8-5 5.2-11.2 15-14.2 21.2q-40.5-5.1-68.4-21c-9.6 8.8-23.2 16.2-41 21.4-3-5.2-10-14.8-14.8-19.8 16-3.6 27.8-8.8 36.4-15.4-9.8-8.2-17.8-18.4-24.6-29.8l19.4-6c4.8 7.8 11.2 14.6 18.6 20.6 4-7.2 6.2-14.6 7.4-22.8H70.8V81.8h46v-14H66.6V49.4c-3.6 7.6-7.6 15.4-12 23v141.4H32V106.4c-5.4 6.8-10.8 13.2-16.4 18.8-2.2-5.8-8.6-18.6-12.6-24.4 19-18 37.6-46.2 48.4-74.6l22 7.2c-1.8 4.2-3.6 8.4-5.4 12.8h48.8V28h23.6v18.2h53v21.6h-53v14H188zm78.8-8.4h-22.4v30.6h22.4zm22.2-20.6v72h-44.6v16h-21.6v-88zm89.2.2v54.8c0 10.4-1.6 16.4-8.8 20-6.8 3.6-16.4 3.6-29.4 3.6-.6-6.4-3.6-15.2-6-21.4 7.4.2 15.6.2 18 .2 2.6 0 3.4-.8 3.4-3v-33.2h-27.6v81.4h-23.4V111.4zM271 78.4h56.4c-9.8-6.6-18.4-13.8-26.2-21.8-9 7.8-19.4 15.2-30.2 21.8m30.2-55 19 13.6c-1.2 1.6-2.6 3.2-4 4.8 18 17 48 31 79.2 37.4-6 5.4-13.2 15.6-17 22.6-12.6-3.6-25-8.4-36.4-14.6v12.4h-85.6v-13c-12.4 6.6-25.4 12-38.2 16.2-3-7-8.4-16.6-13.8-23 38-8.8 77.6-31.4 96.8-56.4M454 151.6l1.8 17.8c-16.6 3.8-34 7.8-48.4 11.2l-4-18.6c13.4-2.2 31.8-6.2 50.6-10.4m1.2-118h20.4c-1.4 28-3.6 63.2-6.4 85.2h13.6s-.2 6-.4 8.6c-2.4 49.6-5 69.2-11 76-4.2 5.2-8.8 6.8-15.2 7.6-5.2.6-14.6.6-24.4.2 0-5.8-2.4-13.6-5.8-19 8.8.8 17.2 1 21 1 3.2 0 4.8-.4 6.8-2.4 3.6-4 6-18.4 7.8-53.4h-50.8c2.4-18 4.8-47.8 5.6-70.4l20.4 1.2c-.8 16-2.2 35-3.8 50.8h16c2.2-17.2 4.2-42 5.4-64.8h-43.6v-20h44.4zM512 184.8h81.4v21.4H489.8V37H590v21.6h-78v105.2c10.6-11.6 20.4-26.6 29.2-43.2-9-13.8-18.6-27.8-27.4-39.8L530.6 70c6.8 8.8 13.6 18.4 20.8 28.4 4.4-10.6 8.2-21.2 11.2-32.2l21.6 5.4c-5 16.2-11.4 32.6-18.6 47.8 10.4 15.8 19.2 31 24.6 43.2l-19 13c-3.8-9.4-9.8-21.2-17-33.4-7.8 14.2-16.2 27-25 37.4-3.8-4-12-11.4-17.2-15.2zM694.8 42v21h-78.2V42zm51.8 27.8H790s-.2 7.8-.2 10.8c-2 80.6-4.2 109.8-10.8 119-4.8 7-9.4 9-16.6 10.4-6.2 1-16.4 1-26.8.6-.4-6.8-3-16.6-7-23.2 9.4.8 18 .8 22.2.8 3.4 0 5.4-.6 7.4-3.4 4.4-5.6 6.4-29.6 8.2-92.2h-20.6c-2.8 50.2-11.2 92.6-39.4 120.6-3.8-6-11.8-14.4-17.6-18.2 5.8-5.8 10.8-12.4 15-19.2l-19 5.8c-.6-2.8-1.4-6-2.4-9.4-49.4 12.8-58 15.8-63.8 19.4-1.2-4.6-5-15.4-7.6-21.2 3.8-1.4 6.6-6 9.8-13.2 2.6-6 9.6-26.2 14-47.4h-24.6V88.2h88.2v21.6h-39.2c-4.2 17-10.2 35-16.8 50.4l34-7.8c-3-8.6-6-17.2-9-24.8l19-5.2c7 16.2 15 37.2 18.6 51.2 11.6-21.8 16-49.4 17.4-81h-21.6V69.8h22.4c.2-12.6.2-26 .2-39.6H747c0 13.6-.2 26.8-.4 39.6"/></svg>