<svg width="1743" height="520" viewBox="0 0 1743 520" fill="none" xmlns="http://www.w3.org/2000/svg">
<path d="M1652.8 116V0.0800781H1673.3V46.6161H1722.19V0.0800781H1742.68V116H1722.19V65.2641H1673.3V116H1652.8Z" fill="black"/>
<path d="M1547.11 88.6161V27.4641C1547.11 9.20808 1556.24 0.0800781 1574.49 0.0800781H1620.19L1630.1 7.80808V18.7281H1575C1570.07 18.7281 1567.6 21.1361 1567.6 25.9521V90.1281C1567.6 94.9441 1570.07 97.3521 1575 97.3521H1630.1V108.272L1620.19 116H1574.49C1556.24 116 1547.11 106.872 1547.11 88.6161Z" fill="black"/>
<path d="M1448.22 116V0.0800781H1526.17V18.7281H1468.71V46.6161H1521.13V65.2641H1468.71V97.3521H1526.17V116H1448.22Z" fill="black"/>
<path d="M1336.25 18.7281V0.0800781H1429.83V18.7281H1393.37V116H1372.71V18.7281H1336.25Z" fill="black"/>
<path d="M1226.37 88.6161V27.4641C1226.37 9.20808 1235.49 0.0800781 1253.75 0.0800781H1292.22C1310.48 0.0800781 1319.61 9.20808 1319.61 27.4641V88.6161C1319.61 106.872 1310.48 116 1292.22 116H1253.75C1235.49 116 1226.37 106.872 1226.37 88.6161ZM1246.86 90.1281C1246.86 94.9441 1249.33 97.3521 1254.25 97.3521H1291.72C1296.65 97.3521 1299.11 94.9441 1299.11 90.1281V25.9521C1299.11 21.1361 1296.65 18.7281 1291.72 18.7281H1254.25C1249.33 18.7281 1246.86 21.1361 1246.86 25.9521V90.1281Z" fill="black"/>
<path d="M1178.99 116V0.0800781H1199.49V116H1178.99Z" fill="black"/>
<path d="M1069.89 116V0.0800781H1123.99C1142.24 0.0800781 1151.37 9.20808 1151.37 27.4641V38.0481C1151.37 41.8561 1150.25 45.1041 1148.01 47.7921L1142.13 54.8481L1149.19 60.7281C1152.88 63.7521 1154.73 68.2321 1154.73 74.1681V88.6161C1154.73 106.872 1145.6 116 1127.35 116H1069.89ZM1090.39 97.3521H1126.84C1131.77 97.3521 1134.23 94.9441 1134.23 90.1281V72.4881C1134.23 67.6721 1131.77 65.2641 1126.84 65.2641H1090.39V97.3521ZM1090.39 46.6161H1123.48C1128.41 46.6161 1130.87 44.1521 1130.87 39.2241V25.9521C1130.87 21.1361 1128.41 18.7281 1123.48 18.7281H1090.39V46.6161Z" fill="black"/>
<path d="M917.216 4.11209L919.736 0.0800781H937.208L964.592 52.6641L992.144 0.0800781H1009.78L1012.14 4.11209L975.008 74.3361V116H954.344V74.3361L917.216 4.11209Z" fill="black"/>
<path d="M816.337 18.7281V0.0800781H909.913V18.7281H873.457V116H852.793V18.7281H816.337Z" fill="black"/>
<path d="M777.53 116V0.0800781H798.026V116H777.53Z" fill="black"/>
<path d="M658.489 4.11209L661.177 0.0800781H678.985L707.713 97.3521H710.905L739.633 0.0800781H757.609L760.129 4.11209L725.857 116H692.593L658.489 4.11209Z" fill="black"/>
<path d="M569.007 116V0.0800781H646.959V18.7281H589.503V46.6161H641.919V65.2641H589.503V97.3521H646.959V116H569.007Z" fill="black"/>
<path d="M453.959 88.6161V27.4641C453.959 9.20808 463.087 0.0800781 481.343 0.0800781H530.567L540.479 7.80808V18.7281H481.847C476.919 18.7281 474.455 21.1361 474.455 25.9521V90.1281C474.455 94.9441 476.919 97.3521 481.847 97.3521H523.343V65.2641H498.815V46.6161H543.839V116H481.343C463.087 116 453.959 106.872 453.959 88.6161Z" fill="black"/>
<path d="M332.757 116V0.0800781H355.101L406.509 82.7361V0.0800781H427.005V116H404.829L353.253 33.3441V116H332.757Z" fill="black"/>
<path d="M212.624 88.6161V27.4641C212.624 9.20808 221.752 0.0800781 240.008 0.0800781H278.48C296.736 0.0800781 305.864 9.20808 305.864 27.4641V88.6161C305.864 106.872 296.736 116 278.48 116H240.008C221.752 116 212.624 106.872 212.624 88.6161ZM233.12 90.1281C233.12 94.9441 235.584 97.3521 240.512 97.3521H277.976C282.904 97.3521 285.368 94.9441 285.368 90.1281V25.9521C285.368 21.1361 282.904 18.7281 277.976 18.7281H240.512C235.584 18.7281 233.12 21.1361 233.12 25.9521V90.1281Z" fill="black"/>
<path d="M1304.4 333.24L1355.52 173.4H1401.12L1452 333.24L1448.4 339H1423.68L1412.4 302.52H1344L1332.48 339H1308.24L1304.4 333.24ZM1352.16 275.88H1404.48L1380.48 200.04H1375.92L1352.16 275.88Z" fill="#BB1212"/>
<path d="M1114.99 327.96V312.36H1189.15C1196.19 312.36 1199.71 308.92 1199.71 302.04V283.8C1199.71 277.72 1196.99 274.12 1191.55 273L1142.83 263.16C1124.27 259.48 1114.99 247 1114.99 225.72V212.52C1114.99 186.44 1128.03 173.4 1154.11 173.4H1210.03L1224.19 184.44V200.04H1154.83C1147.79 200.04 1144.27 203.48 1144.27 210.36V226.44C1144.27 232.52 1146.99 236.12 1152.43 237.24L1201.15 246.84C1219.71 250.68 1228.99 263.16 1228.99 284.28V299.88C1228.99 325.96 1215.95 339 1189.87 339H1129.15L1114.99 327.96Z" fill="#BB1212"/>
<path d="M978.517 339V173.4H1089.88V200.04H1007.8V239.88H1082.68V266.52H1007.8V312.36H1089.88V339H978.517Z" fill="#BB1212"/>
<path d="M823.83 339V173.4H903.51C929.59 173.4 942.63 186.44 942.63 212.52V239.64C942.63 259.8 934.63 272.04 918.63 276.36L947.43 332.76L943.83 339H918.87L888.15 278.52H853.11V339H823.83ZM853.11 251.88H902.79C909.83 251.88 913.35 248.36 913.35 241.32V210.36C913.35 203.48 909.83 200.04 902.79 200.04H853.11V251.88Z" fill="#BB1212"/>
<path d="M753.751 339V173.4H783.031V339H753.751Z" fill="#BB1212"/>
<path d="M585.905 299.88V173.4H615.185V302.04C615.185 308.92 618.705 312.36 625.745 312.36H674.465C681.505 312.36 685.025 308.92 685.025 302.04V173.4H714.305V299.88C714.305 325.96 701.265 339 675.185 339H625.025C598.945 339 585.905 325.96 585.905 299.88Z" fill="#BB1212"/>
<path d="M415.727 299.88V212.52C415.727 186.44 428.767 173.4 454.847 173.4H509.807C535.887 173.4 548.927 186.44 548.927 212.52V300.12C548.927 322.2 539.407 334.68 520.367 337.56L536.207 368.76L532.607 375H507.407L489.167 339H454.847C428.767 339 415.727 325.96 415.727 299.88ZM445.007 302.04C445.007 308.92 448.527 312.36 455.567 312.36H509.087C516.127 312.36 519.647 308.92 519.647 302.04V210.36C519.647 203.48 516.127 200.04 509.087 200.04H455.567C448.527 200.04 445.007 203.48 445.007 210.36V302.04Z" fill="#BB1212"/>
<path d="M274.455 339V173.4H385.815V200.04H303.735V239.88H378.615V266.52H303.735V312.36H385.815V339H274.455Z" fill="#BB1212"/>
<path d="M119.767 339V173.4H199.447C225.527 173.4 238.567 186.44 238.567 212.52V239.64C238.567 259.8 230.567 272.04 214.567 276.36L243.367 332.76L239.767 339H214.807L184.087 278.52H149.047V339H119.767ZM149.047 251.88H198.727C205.767 251.88 209.287 248.36 209.287 241.32V210.36C209.287 203.48 205.767 200.04 198.727 200.04H149.047V251.88Z" fill="#BB1212"/>
<path d="M1325.32 520V404.08H1403.27V422.728H1345.81V450.616H1398.23V469.264H1345.81V501.352H1403.27V520H1325.32Z" fill="black"/>
<path d="M1234.1 520V404.08H1254.6V501.352H1307.01V520H1234.1Z" fill="black"/>
<path d="M1128.4 492.616V431.464C1128.4 413.208 1137.53 404.08 1155.79 404.08H1201.48L1211.4 411.808V422.728H1156.29C1151.36 422.728 1148.9 425.136 1148.9 429.952V494.128C1148.9 498.944 1151.36 501.352 1156.29 501.352H1211.4V512.272L1201.48 520H1155.79C1137.53 520 1128.4 510.872 1128.4 492.616Z" fill="black"/>
<path d="M1021.8 520V404.08H1077.58C1095.84 404.08 1104.96 413.208 1104.96 431.464V450.448C1104.96 464.56 1099.36 473.128 1088.16 476.152L1108.32 515.632L1105.8 520H1088.33L1066.83 477.664H1042.3V520H1021.8ZM1042.3 459.016H1077.08C1082 459.016 1084.47 456.552 1084.47 451.624V429.952C1084.47 425.136 1082 422.728 1077.08 422.728H1042.3V459.016Z" fill="black"/>
<path d="M972.749 520V404.08H993.245V520H972.749Z" fill="black"/>
<path d="M867.053 492.616V431.464C867.053 413.208 876.181 404.08 894.437 404.08H940.133L950.045 411.808V422.728H894.941C890.013 422.728 887.549 425.136 887.549 429.952V494.128C887.549 498.944 890.013 501.352 894.941 501.352H950.045V512.272L940.133 520H894.437C876.181 520 867.053 510.872 867.053 492.616Z" fill="black"/>
<path d="M725.06 512.272V501.352H776.972C781.9 501.352 784.364 498.944 784.364 494.128V481.36C784.364 477.104 782.46 474.584 778.652 473.8L744.548 466.912C731.556 464.336 725.06 455.6 725.06 440.704V431.464C725.06 413.208 734.188 404.08 752.444 404.08H791.588L801.5 411.808V422.728H752.948C748.02 422.728 745.556 425.136 745.556 429.952V441.208C745.556 445.464 747.46 447.984 751.268 448.768L785.372 455.488C798.364 458.176 804.86 466.912 804.86 481.696V492.616C804.86 510.872 795.732 520 777.476 520H734.972L725.06 512.272Z" fill="black"/>
<path d="M612.608 492.616V404.08H633.104V494.128C633.104 498.944 635.568 501.352 640.496 501.352H674.6C679.528 501.352 681.992 498.944 681.992 494.128V404.08H702.488V492.616C702.488 510.872 693.36 520 675.104 520H639.992C621.736 520 612.608 510.872 612.608 492.616Z" fill="black"/>
<path d="M493.483 492.616V431.464C493.483 413.208 502.611 404.08 520.867 404.08H559.339C577.595 404.08 586.723 413.208 586.723 431.464V492.616C586.723 510.872 577.595 520 559.339 520H520.867C502.611 520 493.483 510.872 493.483 492.616ZM513.979 494.128C513.979 498.944 516.443 501.352 521.371 501.352H558.835C563.763 501.352 566.227 498.944 566.227 494.128V429.952C566.227 425.136 563.763 422.728 558.835 422.728H521.371C516.443 422.728 513.979 425.136 513.979 429.952V494.128Z" fill="black"/>
<path d="M377.67 492.616V404.08H398.166V494.128C398.166 498.944 400.63 501.352 405.558 501.352H439.662C444.59 501.352 447.054 498.944 447.054 494.128V404.08H467.55V492.616C467.55 510.872 458.422 520 440.166 520H405.054C386.798 520 377.67 510.872 377.67 492.616Z" fill="black"/>
<path d="M266.711 422.728V404.08H360.287V422.728H323.831V520H303.167V422.728H266.711Z" fill="black"/>
<path d="M168.678 520V404.08H224.454C242.71 404.08 251.838 413.208 251.838 431.464V450.448C251.838 464.56 246.238 473.128 235.038 476.152L255.198 515.632L252.678 520H235.206L213.702 477.664H189.174V520H168.678ZM189.174 459.016H223.95C228.878 459.016 231.342 456.552 231.342 451.624V429.952C231.342 425.136 228.878 422.728 223.95 422.728H189.174V459.016Z" fill="black"/>
<path d="M119.624 520V404.08H140.12V520H119.624Z" fill="black"/>
<path d="M0.58252 408.112L3.27052 404.08H21.0785L49.8065 501.352H52.9985L81.7265 404.08H99.7025L102.223 408.112L67.9505 520H34.6865L0.58252 408.112Z" fill="black"/>
</svg>
