<svg xmlns="http://www.w3.org/2000/svg" width="1800" height="364" fill="none" viewBox="0 0 1800 364"><path fill="#bb1212" d="M8.292 143.2 50.892 10h38l42.4 133.2-3 4.8h-20.6l-9.4-30.4h-57l-9.6 30.4h-20.2zm39.8-47.8h43.6l-20-63.2h-3.8zm138.911-80.6 3.2-4.8h21.2l34.2 115.8h3.8l34.2-115.8h21.4l3 4.8-40.8 133.2h-39.6zM328.719 148V10h24.4v138zm58.398 0V10h66.4q32.6 0 32.6 32.6v22.6q0 25.2-20 30.6l24 47-3 5.2h-20.8l-25.6-50.4h-29.2V148zm24.4-72.6h41.4q8.8 0 8.8-8.8V40.8q0-8.6-8.8-8.6h-41.4zm92.306-43.2V10h111.4v22.2h-43.4V148h-24.6V32.2zm132.094 83.2V10h24.4v107.2q0 8.6 8.8 8.6h40.6q8.8 0 8.8-8.6V10h24.4v105.4q0 32.6-32.6 32.6h-41.8q-32.6 0-32.6-32.6m137.872 0V42.6q0-32.6 32.6-32.6h45.8q32.6 0 32.6 32.6v72.8q0 32.6-32.6 32.6h-45.8q-32.6 0-32.6-32.6m24.4 1.8q0 8.6 8.8 8.6h44.6q8.8 0 8.8-8.6V40.8q0-8.6-8.8-8.6h-44.6q-8.8 0-8.8 8.6zm117.416-1.8V10h24.4v107.2q0 8.6 8.8 8.6h40.6q8.8 0 8.8-8.6V10h24.395v105.4c0 21.733-10.86 32.6-32.595 32.6h-41.8q-32.6 0-32.6-32.6m133.875 23.4v-13h61.8c5.86 0 8.8-2.867 8.8-8.6V102c0-5.067-2.27-8.067-6.8-9l-40.6-8.2c-15.47-3.067-23.2-13.467-23.2-31.2v-11c0-21.733 10.86-32.6 32.6-32.6h46.6l11.8 9.2v13h-57.8c-5.87 0-8.8 2.867-8.8 8.6v13.4c0 5.067 2.26 8.067 6.8 9l40.6 8c15.46 3.2 23.2 13.6 23.2 31.2v13c0 21.733-10.87 32.6-32.6 32.6h-50.6zm169.04-23.4V42.6c0-21.733 10.86-32.6 32.6-32.6h54.4l11.8 9.2v13h-65.6c-5.87 0-8.8 2.867-8.8 8.6v76.4c0 5.733 2.93 8.6 8.8 8.6h65.6v13l-11.8 9.2h-54.4c-21.74 0-32.6-10.867-32.6-32.6m112.62-100.6 3-4.8h20.8l32.6 62.6 32.8-62.6h21l2.8 4.8-44.2 83.6V148h-24.6V98.4zm131.71 100.6V42.6c0-21.733 10.87-32.6 32.6-32.6h54.4l11.8 9.2v13h-65.6c-5.87 0-8.8 2.867-8.8 8.6v76.4c0 5.733 2.93 8.6 8.8 8.6h65.6v13l-11.8 9.2h-54.4c-21.73 0-32.6-10.867-32.6-32.6m125.83 32.6V10h24.4v115.8h62.4V148zm108.59 0V10h92.8v22.2h-68.4v33.2h62.4v22.2h-62.4v38.2h68.4V148z"/><path fill="#000" d="M351.827 331V215.08h54.096q27.384 0 27.384 27.384v10.584q0 5.712-3.36 9.744l-5.88 7.056 7.056 5.88q5.544 4.536 5.544 13.44v14.448q0 27.384-27.384 27.384zm20.496-18.648h36.456q7.392 0 7.392-7.224v-17.64q0-7.224-7.392-7.224h-36.456zm0-50.736h33.096q7.392 0 7.392-7.392v-13.272q0-7.224-7.392-7.224h-33.096zM460.928 331V215.08h77.952v18.648h-57.456v27.888h52.416v18.648h-52.416v32.088h57.456V331zm100.571 0V215.08h20.496v46.536h48.888V215.08h20.496V331h-20.496v-50.736h-48.888V331zm118.453 0V215.08h20.496V331zm49.055 0V215.08h22.344l51.408 82.656V215.08h20.496V331h-22.176l-51.576-82.656V331zm122.882 0V215.08h44.52q45.36 0 45.36 45.528v24.864q0 45.528-45.36 45.528zm20.496-18.648h25.2q23.688 0 23.688-23.688v-31.248q0-23.688-23.688-23.688h-25.2zm123.784 14.616 35.781-111.888h31.92l35.62 111.888-2.52 4.032h-17.31l-7.89-25.536h-47.88L1015.82 331h-16.963zm33.431-40.152h36.62l-16.8-53.088h-3.19zm86.41 16.8V215.08h20.49v90.048c0 4.816 2.47 7.224 7.39 7.224H1178c4.93 0 7.39-2.408 7.39-7.224V215.08h20.5v88.536q0 27.384-27.39 27.384h-35.11c-18.26 0-27.38-9.128-27.38-27.384M1233.5 331V215.08h44.52q45.36 0 45.36 45.528v24.864q0 45.528-45.36 45.528zm20.49-18.648h25.2c15.8 0 23.69-7.896 23.69-23.688v-31.248c0-15.792-7.89-23.688-23.69-23.688h-25.2zm83.43 14.616 35.78-111.888h31.92l35.62 111.888-2.52 4.032h-17.31l-7.89-25.536h-47.88L1357.07 331h-16.96zm33.43-40.152h36.62l-16.8-53.088h-3.19zm85.73 16.8v-61.152q0-27.384 27.39-27.384h45.69l9.92 7.728v10.92h-55.11c-4.93 0-7.39 2.408-7.39 7.224v64.176c0 4.816 2.46 7.224 7.39 7.224h55.11v10.92l-9.92 7.728h-45.69q-27.39 0-27.39-27.384M1562.28 331V215.08h20.5V331zm38.81-97.272V215.08h93.57v18.648h-36.45V331h-20.67v-97.272zm100.88-14.616 2.52-4.032h17.47l27.38 52.584 27.55-52.584h17.64l2.36 4.032-37.13 70.224V331h-20.67v-41.664z"/></svg>