<svg width="1389" height="693" viewBox="0 0 1389 693" fill="none" xmlns="http://www.w3.org/2000/svg">
<path d="M525.909 289V164.8H547.869V269.02H604.029V289H525.909Z" fill="black"/>
<path d="M396.432 284.68L434.772 164.8H468.972L507.132 284.68L504.432 289H485.892L477.432 261.64H426.132L417.492 289H399.312L396.432 284.68ZM432.252 241.66H471.492L453.492 184.78H450.072L432.252 241.66Z" fill="black"/>
<path d="M292.296 289V164.8H352.056C371.616 164.8 381.396 174.58 381.396 194.14V214.48C381.396 229.6 375.396 238.78 363.396 242.02L384.996 284.32L382.296 289H363.576L340.536 243.64H314.256V289H292.296ZM314.256 223.66H351.516C356.796 223.66 359.436 221.02 359.436 215.74V192.52C359.436 187.36 356.796 184.78 351.516 184.78H314.256V223.66Z" fill="black"/>
<path d="M163.582 259.66V194.14C163.582 174.58 173.362 164.8 192.922 164.8H234.142C253.702 164.8 263.482 174.58 263.482 194.14V259.66C263.482 279.22 253.702 289 234.142 289H192.922C173.362 289 163.582 279.22 163.582 259.66ZM185.542 261.28C185.542 266.44 188.182 269.02 193.462 269.02H233.602C238.882 269.02 241.522 266.44 241.522 261.28V192.52C241.522 187.36 238.882 184.78 233.602 184.78H193.462C188.182 184.78 185.542 187.36 185.542 192.52V261.28Z" fill="black"/>
<path d="M6.2998 289V164.8H33.2998L70.5598 244.36L107.82 164.8H134.82V289H112.68V202.24L79.9198 272.08H61.0198L28.2598 202.24V289H6.2998Z" fill="black"/>
<path d="M1305.15 125V0.800049H1388.67V20.78H1327.11V50.6601H1383.27V70.6401H1327.11V105.02H1388.67V125H1305.15Z" fill="black"/>
<path d="M1178.23 125V0.800049H1200.19V50.6601H1252.57V0.800049H1274.53V125H1252.57V70.6401H1200.19V125H1178.23Z" fill="black"/>
<path d="M1058.27 20.78V0.800049H1158.53V20.78H1119.47V125H1097.33V20.78H1058.27Z" fill="black"/>
<path d="M902.742 95.6601V30.1401C902.742 10.5801 912.522 0.800049 932.082 0.800049H984.822L995.442 9.08005V20.78H932.622C927.342 20.78 924.702 23.3601 924.702 28.5201V97.2801C924.702 102.44 927.342 105.02 932.622 105.02H977.082V70.6401H950.802V50.6601H999.042V125H932.082C912.522 125 902.742 115.22 902.742 95.6601Z" fill="black"/>
<path d="M772.882 125V0.800049H796.822L851.902 89.3601V0.800049H873.862V125H850.102L794.842 36.4401V125H772.882Z" fill="black"/>
<path d="M720.323 125V0.800049H742.283V125H720.323Z" fill="black"/>
<path d="M599.986 5.12006L602.686 0.800049H621.406L650.746 57.1401L680.266 0.800049H699.166L701.686 5.12006L661.906 80.3601V125H639.766V80.3601L599.986 5.12006Z" fill="black"/>
<path d="M507.628 125V0.800049H591.148V20.78H529.588V56.0601H585.748V76.0401H529.588V125H507.628Z" fill="black"/>
<path d="M455.069 125V0.800049H477.029V125H455.069Z" fill="black"/>
<path d="M335.105 20.78V0.800049H435.365V20.78H396.305V125H374.165V20.78H335.105Z" fill="black"/>
<path d="M235.392 116.72V105.02H291.012C296.292 105.02 298.932 102.44 298.932 97.2801V83.6001C298.932 79.0401 296.892 76.3401 292.812 75.5001L256.272 68.1201C242.352 65.3601 235.392 56.0001 235.392 40.0401V30.1401C235.392 10.5801 245.172 0.800049 264.732 0.800049H306.672L317.292 9.08005V20.78H265.272C259.992 20.78 257.352 23.3601 257.352 28.5201V40.5801C257.352 45.1401 259.392 47.8401 263.472 48.6801L300.012 55.8801C313.932 58.7601 320.892 68.1201 320.892 83.9601V95.6601C320.892 115.22 311.112 125 291.552 125H246.012L235.392 116.72Z" fill="black"/>
<path d="M114.907 95.6601V0.800049H136.867V97.2801C136.867 102.44 139.507 105.02 144.787 105.02H181.327C186.607 105.02 189.247 102.44 189.247 97.2801V0.800049H211.207V95.6601C211.207 115.22 201.427 125 181.867 125H144.247C124.687 125 114.907 115.22 114.907 95.6601Z" fill="black"/>
<path d="M0.899902 95.6601V73.5201H22.8599V97.2801C22.8599 102.44 25.4999 105.02 30.7799 105.02H56.5199C61.7999 105.02 64.4399 102.44 64.4399 97.2801V20.78H28.0799V0.800049H86.3999V95.6601C86.3999 115.22 76.6199 125 57.0599 125H30.2399C10.6799 125 0.899902 115.22 0.899902 95.6601Z" fill="black"/>
<path d="M1258.74 509V343.4H1370.1V370.04H1288.02V409.88H1362.9V436.52H1288.02V482.36H1370.1V509H1258.74Z" fill="#BB1212"/>
<path d="M1088.69 349.16L1092.53 343.4H1117.96L1159.01 482.36H1163.57L1204.6 343.4H1230.29L1233.89 349.16L1184.93 509H1137.41L1088.69 349.16Z" fill="#BB1212"/>
<path d="M1034.45 509V343.4H1063.73V509H1034.45Z" fill="#BB1212"/>
<path d="M874.494 370.04V343.4H1008.17V370.04H956.094V509H926.574V370.04H874.494Z" fill="#BB1212"/>
<path d="M728.451 503.24L779.571 343.4H825.171L876.051 503.24L872.451 509H847.731L836.451 472.52H768.051L756.531 509H732.291L728.451 503.24ZM776.211 445.88H828.531L804.531 370.04H799.971L776.211 445.88Z" fill="#BB1212"/>
<path d="M589.603 509V343.4H669.283C695.363 343.4 708.403 356.44 708.403 382.52V409.64C708.403 429.8 700.403 442.04 684.403 446.36L713.203 502.76L709.603 509H684.643L653.923 448.52H618.883V509H589.603ZM618.883 421.88H668.563C675.603 421.88 679.123 418.36 679.123 411.32V380.36C679.123 373.48 675.603 370.04 668.563 370.04H618.883V421.88Z" fill="#BB1212"/>
<path d="M445.931 509V343.4H557.291V370.04H475.211V409.88H550.091V436.52H475.211V482.36H557.291V509H445.931Z" fill="#BB1212"/>
<path d="M293.587 509V343.4H373.267C399.347 343.4 412.387 356.44 412.387 382.52V414.44C412.387 440.36 399.347 453.32 373.267 453.32H322.867V509H293.587ZM322.867 426.68H372.547C379.587 426.68 383.107 423.16 383.107 416.12V380.36C383.107 373.48 379.587 370.04 372.547 370.04H322.867V426.68Z" fill="#BB1212"/>
<path d="M81.478 509V343.4H117.478L167.158 449.48L216.838 343.4H252.838V509H223.318V393.32L179.638 486.44H154.438L110.758 393.32V509H81.478Z" fill="#BB1212"/>
<path d="M11.3999 509V343.4H40.6799V509H11.3999Z" fill="#BB1212"/>
<path d="M1131.55 573.12L1134.25 568.8H1152.97L1182.31 625.14L1211.83 568.8H1230.73L1233.25 573.12L1193.47 648.36V693H1171.33V648.36L1131.55 573.12Z" fill="black"/>
<path d="M1023.46 588.78V568.8H1123.72V588.78H1084.66V693H1062.52V588.78H1023.46Z" fill="black"/>
<path d="M981.886 693V568.8H1003.85V693H981.886Z" fill="black"/>
<path d="M854.342 573.12L857.222 568.8H876.302L907.082 673.02H910.502L941.282 568.8H960.542L963.242 573.12L926.522 693H890.882L854.342 573.12Z" fill="black"/>
<path d="M758.468 693V568.8H841.988V588.78H780.428V618.66H836.588V638.64H780.428V673.02H841.988V693H758.468Z" fill="black"/>
<path d="M635.203 663.66V598.14C635.203 578.58 644.983 568.8 664.543 568.8H717.283L727.903 577.08V588.78H665.083C659.803 588.78 657.163 591.36 657.163 596.52V665.28C657.163 670.44 659.803 673.02 665.083 673.02H709.543V638.64H683.263V618.66H731.503V693H664.543C644.983 693 635.203 683.22 635.203 663.66Z" fill="black"/>
<path d="M505.343 693V568.8H529.283L584.363 657.36V568.8H606.323V693H582.563L527.303 604.44V693H505.343Z" fill="black"/>
<path d="M376.629 663.66V598.14C376.629 578.58 386.409 568.8 405.969 568.8H447.189C466.749 568.8 476.529 578.58 476.529 598.14V663.66C476.529 683.22 466.749 693 447.189 693H405.969C386.409 693 376.629 683.22 376.629 663.66ZM398.589 665.28C398.589 670.44 401.229 673.02 406.509 673.02H446.649C451.929 673.02 454.569 670.44 454.569 665.28V596.52C454.569 591.36 451.929 588.78 446.649 588.78H406.509C401.229 588.78 398.589 591.36 398.589 596.52V665.28Z" fill="black"/>
<path d="M280.694 693V568.8H302.654V673.02H358.814V693H280.694Z" fill="black"/>
<path d="M133.214 693V568.8H216.734V588.78H155.174V624.06H211.334V644.04H155.174V693H133.214Z" fill="black"/>
<path d="M4.5 663.66V598.14C4.5 578.58 14.28 568.8 33.84 568.8H75.06C94.62 568.8 104.4 578.58 104.4 598.14V663.66C104.4 683.22 94.62 693 75.06 693H33.84C14.28 693 4.5 683.22 4.5 663.66ZM26.46 665.28C26.46 670.44 29.1 673.02 34.38 673.02H74.52C79.8 673.02 82.44 670.44 82.44 665.28V596.52C82.44 591.36 79.8 588.78 74.52 588.78H34.38C29.1 588.78 26.46 591.36 26.46 596.52V665.28Z" fill="black"/>
</svg>
