<svg xmlns="http://www.w3.org/2000/svg" width="1788" height="698" fill="none" viewBox="0 0 1788 698"><path fill="#000" d="M14.28 131V15.08h20.496v97.272h52.416V131zm89.539-27.384V42.464q0-27.384 27.384-27.384h38.472q27.384 0 27.384 27.384v61.152q0 27.384-27.384 27.384h-38.472q-27.384 0-27.384-27.384m20.496 1.512q0 7.224 7.392 7.224h37.464q7.392 0 7.392-7.224V40.952q0-7.224-7.392-7.224h-37.464q-7.392 0-7.392 7.224zM223.952 131V15.08h22.344l51.408 82.656V15.08H318.2V131h-22.176l-51.576-82.656V131zm121.203-27.384V42.464q0-27.384 27.384-27.384h49.224l9.912 7.728v10.92h-58.632q-7.392 0-7.392 7.224v64.176q0 7.224 7.392 7.224h41.496V80.264h-24.528V61.616h45.024V131h-62.496q-27.384 0-27.384-27.384M460.202 131V15.08h77.952v18.648h-57.456v27.888h52.416v18.648h-52.416v32.088h57.456V131zm89.482-111.888 2.688-4.032h17.808l28.728 97.272h3.192l28.728-97.272h17.976l2.52 4.032L617.052 131h-33.264zM668.725 131V15.08h20.496V131zm38.807-97.272V15.08h93.576v18.648h-36.456V131h-20.664V33.728zm100.879-14.616 2.52-4.032h17.472l27.384 52.584 27.552-52.584h17.64l2.352 4.032-37.128 70.224V131h-20.664V89.336zM961.085 131V15.08h54.095c18.26 0 27.38 9.128 27.38 27.384v10.584q0 5.712-3.36 9.744l-5.88 7.056 7.06 5.88c3.7 3.024 5.54 7.504 5.54 13.44v14.448c0 18.256-9.12 27.384-27.38 27.384zm20.496-18.648h36.459c4.92 0 7.39-2.408 7.39-7.224v-17.64c0-4.816-2.47-7.224-7.39-7.224h-36.459zm0-50.736h33.099c4.92 0 7.39-2.464 7.39-7.392V40.952c0-4.816-2.47-7.224-7.39-7.224h-33.099zM1070.19 131V15.08h20.49V131zm47.37-27.384V42.464c0-18.256 9.13-27.384 27.38-27.384h38.48c18.25 0 27.38 9.128 27.38 27.384v61.152c0 18.256-9.13 27.384-27.38 27.384h-38.48c-18.25 0-27.38-9.128-27.38-27.384m20.5 1.512c0 4.816 2.46 7.224 7.39 7.224h37.46c4.93 0 7.39-2.408 7.39-7.224V40.952c0-4.816-2.46-7.224-7.39-7.224h-37.46c-4.93 0-7.39 2.408-7.39 7.224zm89.39-71.4V15.08h93.57v18.648h-36.45V131h-20.67V33.728zM1339.41 131V15.08h77.95v18.648h-57.45v27.888h52.41v18.648h-52.41v32.088h57.45V131zm98.89-27.384V42.464q0-27.384 27.39-27.384h45.69l9.92 7.728v10.92h-55.11c-4.93 0-7.39 2.408-7.39 7.224v64.176c0 4.816 2.46 7.224 7.39 7.224h55.11v10.92l-9.92 7.728h-45.69q-27.39 0-27.39-27.384M1544 131V15.08h20.49v46.536h48.89V15.08h20.5V131h-20.5V80.264h-48.89V131zM14.28 295V179.08h20.496V295zm44.015-7.728v-10.92h51.912q7.392 0 7.392-7.224V256.36q0-6.384-5.712-7.56l-34.104-6.888q-19.488-3.864-19.488-26.208v-9.24q0-27.384 27.384-27.384h39.144l9.912 7.728v10.92H86.183q-7.392 0-7.392 7.224v11.256q0 6.384 5.712 7.56l34.104 6.72q19.488 4.032 19.488 26.208v10.92q0 27.384-27.384 27.384H68.207zm132.585 3.696 35.784-111.888h31.92L294.2 290.968 291.68 295h-17.304l-7.896-25.536H218.6L210.536 295h-16.968zm33.432-40.152h36.624l-16.8-53.088h-3.192zM14.28 459V343.08h25.2l34.776 74.256 34.776-74.256h25.2V459h-20.664v-80.976l-30.576 65.184h-17.64l-30.576-65.184V459zm146.797-27.384v-61.152q0-27.384 27.384-27.384h38.472q27.384 0 27.384 27.384v61.152q0 27.384-27.384 27.384h-38.472q-27.384 0-27.384-27.384m20.496 1.512q0 7.224 7.392 7.224h37.464q7.392 0 7.392-7.224v-64.176q0-7.224-7.392-7.224h-37.464q-7.392 0-7.392 7.224zM281.21 459V343.08h55.776q27.384 0 27.384 27.384v18.984q0 21.168-16.8 25.704l20.16 39.48-2.52 4.368h-17.472l-21.504-42.336h-24.528V459zm20.496-60.984h34.776q7.392 0 7.392-7.392v-21.672q0-7.224-7.392-7.224h-34.776zm76.697 56.952 35.784-111.888h31.92l35.616 111.888-2.52 4.032h-17.304l-7.896-25.536h-47.88L398.059 459h-16.968zm33.432-40.152h36.624l-16.8-53.088h-3.192zM499.249 459V343.08h20.496v97.272h52.416V459z"/><path fill="#bb1212" d="M17 666V528h24.4v138zm58.398 0V528h30l41.4 88.4 41.4-88.4h30v138h-24.6v-96.4l-36.4 77.6h-21l-36.4-77.6V666zm176.758 0V528h66.4q32.6 0 32.6 32.6v26.6q0 32.4-32.6 32.4h-42V666zm24.4-68.6h41.4q8.8 0 8.8-8.8v-29.8q0-8.6-8.8-8.6h-41.4zM379.109 666V528h92.8v22.2h-68.4v33.2h62.4v22.2h-62.4v38.2h68.4V666zm119.727 0V528h66.4q32.6 0 32.6 32.6v22.6q0 25.2-20 30.6l24 47-3 5.2h-20.8l-25.6-50.4h-29.2V666zm24.4-72.6h41.4q8.8 0 8.8-8.8v-25.8q0-8.6-8.8-8.6h-41.4zm91.306 67.8 42.6-133.2h38l42.4 133.2-3 4.8h-20.6l-9.4-30.4h-57l-9.6 30.4h-20.2zm39.8-47.8h43.6l-20-63.2h-3.8zm81.903-63.2V528h111.4v22.2h-43.4V666h-24.6V550.2zM869.539 666V528h24.4v138zm45.199-133.2 3.2-4.8h21.2l34.2 115.8h3.8L1011.34 528h21.4l3 4.8L994.938 666h-39.6zM1056.45 666V528h92.8v22.2h-68.4v33.2h62.4v22.2h-62.4v38.2h68.4V666z"/></svg>