<svg width="1625" height="523" viewBox="0 0 1625 523" fill="none" xmlns="http://www.w3.org/2000/svg">
<path d="M1529.83 116V0.0800781H1550.32V46.6161H1599.21V0.0800781H1619.71V116H1599.21V65.2641H1550.32V116H1529.83Z" fill="black"/>
<path d="M1424.13 88.6161V27.4641C1424.13 9.20808 1433.26 0.0800781 1451.52 0.0800781H1497.21L1507.12 7.80808V18.7281H1452.02C1447.09 18.7281 1444.63 21.1361 1444.63 25.9521V90.1281C1444.63 94.9441 1447.09 97.3521 1452.02 97.3521H1507.12V108.272L1497.21 116H1451.52C1433.26 116 1424.13 106.872 1424.13 88.6161Z" fill="black"/>
<path d="M1325.24 116V0.0800781H1403.19V18.7281H1345.74V46.6161H1398.15V65.2641H1345.74V97.3521H1403.19V116H1325.24Z" fill="black"/>
<path d="M1213.27 18.7281V0.0800781H1306.85V18.7281H1270.39V116H1249.73V18.7281H1213.27Z" fill="black"/>
<path d="M1103.39 88.6161V27.4641C1103.39 9.20808 1112.52 0.0800781 1130.77 0.0800781H1169.25C1187.5 0.0800781 1196.63 9.20808 1196.63 27.4641V88.6161C1196.63 106.872 1187.5 116 1169.25 116H1130.77C1112.52 116 1103.39 106.872 1103.39 88.6161ZM1123.89 90.1281C1123.89 94.9441 1126.35 97.3521 1131.28 97.3521H1168.74C1173.67 97.3521 1176.13 94.9441 1176.13 90.1281V25.9521C1176.13 21.1361 1173.67 18.7281 1168.74 18.7281H1131.28C1126.35 18.7281 1123.89 21.1361 1123.89 25.9521V90.1281Z" fill="black"/>
<path d="M1056.01 116V0.0800781H1076.51V116H1056.01Z" fill="black"/>
<path d="M946.913 116V0.0800781H1001.01C1019.27 0.0800781 1028.39 9.20808 1028.39 27.4641V38.0481C1028.39 41.8561 1027.27 45.1041 1025.03 47.7921L1019.15 54.8481L1026.21 60.7281C1029.91 63.7521 1031.75 68.2321 1031.75 74.1681V88.6161C1031.75 106.872 1022.63 116 1004.37 116H946.913ZM967.409 97.3521H1003.87C1008.79 97.3521 1011.26 94.9441 1011.26 90.1281V72.4881C1011.26 67.6721 1008.79 65.2641 1003.87 65.2641H967.409V97.3521ZM967.409 46.6161H1000.51C1005.43 46.6161 1007.9 44.1521 1007.9 39.2241V25.9521C1007.9 21.1361 1005.43 18.7281 1000.51 18.7281H967.409V46.6161Z" fill="black"/>
<path d="M794.239 4.11209L796.759 0.0800781H814.231L841.615 52.6641L869.167 0.0800781H886.807L889.159 4.11209L852.031 74.3361V116H831.367V74.3361L794.239 4.11209Z" fill="black"/>
<path d="M693.36 18.7281V0.0800781H786.936V18.7281H750.48V116H729.816V18.7281H693.36Z" fill="black"/>
<path d="M654.554 116V0.0800781H675.05V116H654.554Z" fill="black"/>
<path d="M535.513 4.11209L538.201 0.0800781H556.009L584.737 97.3521H587.929L616.657 0.0800781H634.633L637.153 4.11209L602.881 116H569.617L535.513 4.11209Z" fill="black"/>
<path d="M446.03 116V0.0800781H523.982V18.7281H466.526V46.6161H518.942V65.2641H466.526V97.3521H523.982V116H446.03Z" fill="black"/>
<path d="M330.983 88.6161V27.4641C330.983 9.20808 340.111 0.0800781 358.367 0.0800781H407.591L417.503 7.80808V18.7281H358.871C353.943 18.7281 351.479 21.1361 351.479 25.9521V90.1281C351.479 94.9441 353.943 97.3521 358.871 97.3521H400.367V65.2641H375.839V46.6161H420.863V116H358.367C340.111 116 330.983 106.872 330.983 88.6161Z" fill="black"/>
<path d="M209.78 116V0.0800781H232.124L283.532 82.7361V0.0800781H304.028V116H281.852L230.276 33.3441V116H209.78Z" fill="black"/>
<path d="M89.6475 88.6161V27.4641C89.6475 9.20808 98.7755 0.0800781 117.031 0.0800781H155.503C173.759 0.0800781 182.887 9.20808 182.887 27.4641V88.6161C182.887 106.872 173.759 116 155.503 116H117.031C98.7755 116 89.6475 106.872 89.6475 88.6161ZM110.143 90.1281C110.143 94.9441 112.607 97.3521 117.535 97.3521H154.999C159.927 97.3521 162.391 94.9441 162.391 90.1281V25.9521C162.391 21.1361 159.927 18.7281 154.999 18.7281H117.535C112.607 18.7281 110.143 21.1361 110.143 25.9521V90.1281Z" fill="black"/>
<path d="M0.108398 116V0.0800781H20.6044V97.3521H73.0204V116H0.108398Z" fill="black"/>
<path d="M1506.81 327.96V312.36H1580.97C1588.01 312.36 1591.53 308.92 1591.53 302.04V283.8C1591.53 277.72 1588.81 274.12 1583.37 273L1534.65 263.16C1516.09 259.48 1506.81 247 1506.81 225.72V212.52C1506.81 186.44 1519.85 173.4 1545.93 173.4H1601.85L1616.01 184.44V200.04H1546.65C1539.61 200.04 1536.09 203.48 1536.09 210.36V226.44C1536.09 232.52 1538.81 236.12 1544.25 237.24L1592.97 246.84C1611.53 250.68 1620.81 263.16 1620.81 284.28V299.88C1620.81 325.96 1607.77 339 1581.69 339H1520.97L1506.81 327.96Z" fill="#BB1212"/>
<path d="M1349.71 339V173.4H1413.31C1456.51 173.4 1478.11 195.08 1478.11 238.44V273.96C1478.11 317.32 1456.51 339 1413.31 339H1349.71ZM1378.99 312.36H1414.99C1437.55 312.36 1448.83 301.08 1448.83 278.52V233.88C1448.83 211.32 1437.55 200.04 1414.99 200.04H1378.99V312.36Z" fill="#BB1212"/>
<path d="M1206.04 339V173.4H1317.4V200.04H1235.32V239.88H1310.2V266.52H1235.32V312.36H1317.4V339H1206.04Z" fill="#BB1212"/>
<path d="M1062.37 339V173.4H1173.73V200.04H1091.65V239.88H1166.53V266.52H1091.65V312.36H1173.73V339H1062.37Z" fill="#BB1212"/>
<path d="M886.822 339V173.4H918.742L992.182 291.48V173.4H1021.46V339H989.782L916.102 220.92V339H886.822Z" fill="#BB1212"/>
<path d="M1538.61 514.72V503.02H1594.23C1599.51 503.02 1602.15 500.44 1602.15 495.28V481.6C1602.15 477.04 1600.11 474.34 1596.03 473.5L1559.49 466.12C1545.57 463.36 1538.61 454 1538.61 438.04V428.14C1538.61 408.58 1548.39 398.8 1567.95 398.8H1609.89L1620.51 407.08V418.78H1568.49C1563.21 418.78 1560.57 421.36 1560.57 426.52V438.58C1560.57 443.14 1562.61 445.84 1566.69 446.68L1603.23 453.88C1617.15 456.76 1624.11 466.12 1624.11 481.96V493.66C1624.11 513.22 1614.33 523 1594.77 523H1549.23L1538.61 514.72Z" fill="black"/>
<path d="M1412.35 523V398.8H1436.29L1491.37 487.36V398.8H1513.33V523H1489.57L1434.31 434.44V523H1412.35Z" fill="black"/>
<path d="M1283.63 493.66V428.14C1283.63 408.58 1293.41 398.8 1312.97 398.8H1354.19C1373.75 398.8 1383.53 408.58 1383.53 428.14V493.66C1383.53 513.22 1373.75 523 1354.19 523H1312.97C1293.41 523 1283.63 513.22 1283.63 493.66ZM1305.59 495.28C1305.59 500.44 1308.23 503.02 1313.51 503.02H1353.65C1358.93 503.02 1361.57 500.44 1361.57 495.28V426.52C1361.57 421.36 1358.93 418.78 1353.65 418.78H1313.51C1308.23 418.78 1305.59 421.36 1305.59 426.52V495.28Z" fill="black"/>
<path d="M1232.87 523V398.8H1254.83V523H1232.87Z" fill="black"/>
<path d="M1118.62 523V398.8H1178.38C1197.94 398.8 1207.72 408.58 1207.72 428.14V452.08C1207.72 471.52 1197.94 481.24 1178.38 481.24H1140.58V523H1118.62ZM1140.58 461.26H1177.84C1183.12 461.26 1185.76 458.62 1185.76 453.34V426.52C1185.76 421.36 1183.12 418.78 1177.84 418.78H1140.58V461.26Z" fill="black"/>
<path d="M959.534 523V398.8H986.534L1023.79 478.36L1061.05 398.8H1088.05V523H1065.91V436.24L1033.15 506.08H1014.25L981.494 436.24V523H959.534Z" fill="black"/>
<path d="M830.057 518.68L868.397 398.8H902.597L940.757 518.68L938.057 523H919.517L911.057 495.64H859.757L851.117 523H832.937L830.057 518.68ZM865.877 475.66H905.117L887.117 418.78H883.697L865.877 475.66Z" fill="black"/>
<path d="M715.022 523V398.8H736.982V448.66H789.362V398.8H811.322V523H789.362V468.64H736.982V523H715.022Z" fill="black"/>
<path d="M601.777 493.66V428.14C601.777 408.58 611.557 398.8 631.117 398.8H680.077L690.697 407.08V418.78H631.657C626.377 418.78 623.737 421.36 623.737 426.52V495.28C623.737 500.44 626.377 503.02 631.657 503.02H690.697V514.72L680.077 523H631.117C611.557 523 601.777 513.22 601.777 493.66Z" fill="black"/>
</svg>
