<svg width="1502" height="514" viewBox="0 0 1502 514" fill="none" xmlns="http://www.w3.org/2000/svg">
<path d="M753.619 166V0.399902H864.979V27.0399H782.899V66.8799H857.779V93.5199H782.899V139.36H864.979V166H753.619Z" fill="#BB1212"/>
<path d="M598.932 166V0.399902H678.612C704.692 0.399902 717.732 13.4399 717.732 39.5199V66.6399C717.732 86.7999 709.732 99.0399 693.732 103.36L722.532 159.76L718.932 166H693.972L663.252 105.52H628.212V166H598.932ZM628.212 78.8799H677.892C684.932 78.8799 688.452 75.3599 688.452 68.3199V37.3599C688.452 30.4799 684.932 27.0399 677.892 27.0399H628.212V78.8799Z" fill="#BB1212"/>
<path d="M426.294 160.24L477.414 0.399902H523.014L573.894 160.24L570.294 166H545.574L534.294 129.52H465.894L454.374 166H430.134L426.294 160.24ZM474.054 102.88H526.374L502.374 27.0399H497.814L474.054 102.88Z" fill="#BB1212"/>
<path d="M240.807 166V0.399902H352.167V27.0399H270.087V66.8799H344.967V93.5199H270.087V139.36H352.167V166H240.807Z" fill="#BB1212"/>
<path d="M0.959961 6.15991L5.03996 0.399902H29.04L58.56 139.36H61.2L92.64 17.1999H121.68L152.88 139.36H155.76L185.28 0.399902H209.28L213.36 6.15991L179.04 166H131.76L107.04 68.5599L82.56 166H35.52L0.959961 6.15991Z" fill="#BB1212"/>
<path d="M1384.44 514V389.8H1432.14C1464.54 389.8 1480.74 406.06 1480.74 438.58V465.22C1480.74 497.74 1464.54 514 1432.14 514H1384.44ZM1406.4 494.02H1433.4C1450.32 494.02 1458.78 485.56 1458.78 468.64V435.16C1458.78 418.24 1450.32 409.78 1433.4 409.78H1406.4V494.02Z" fill="black"/>
<path d="M1252.78 514V389.8H1276.72L1331.8 478.36V389.8H1353.76V514H1330L1274.74 425.44V514H1252.78Z" fill="black"/>
<path d="M1126.89 484.66V389.8H1148.85V486.28C1148.85 491.44 1151.49 494.02 1156.77 494.02H1193.31C1198.59 494.02 1201.23 491.44 1201.23 486.28V389.8H1223.19V484.66C1223.19 504.22 1213.41 514 1193.85 514H1156.23C1136.67 514 1126.89 504.22 1126.89 484.66Z" fill="black"/>
<path d="M1023.73 514V389.8H1107.25V409.78H1045.69V445.06H1101.85V465.04H1045.69V514H1023.73Z" fill="black"/>
<path d="M860.154 394.12L862.854 389.8H881.574L910.914 446.14L940.434 389.8H959.334L961.854 394.12L922.074 469.36V514H899.934V469.36L860.154 394.12Z" fill="black"/>
<path d="M752.07 409.78V389.8H852.33V409.78H813.27V514H791.13V409.78H752.07Z" fill="black"/>
<path d="M710.491 514V389.8H732.451V514H710.491Z" fill="black"/>
<path d="M582.947 394.12L585.827 389.8H604.907L635.687 494.02H639.107L669.887 389.8H689.147L691.847 394.12L655.127 514H619.487L582.947 394.12Z" fill="black"/>
<path d="M487.073 514V389.8H570.593V409.78H509.033V439.66H565.193V459.64H509.033V494.02H570.593V514H487.073Z" fill="black"/>
<path d="M363.809 484.66V419.14C363.809 399.58 373.589 389.8 393.149 389.8H445.889L456.509 398.08V409.78H393.689C388.409 409.78 385.769 412.36 385.769 417.52V486.28C385.769 491.44 388.409 494.02 393.689 494.02H438.149V459.64H411.869V439.66H460.109V514H393.149C373.589 514 363.809 504.22 363.809 484.66Z" fill="black"/>
<path d="M233.948 514V389.8H257.888L312.968 478.36V389.8H334.928V514H311.168L255.908 425.44V514H233.948Z" fill="black"/>
<path d="M105.234 484.66V419.14C105.234 399.58 115.014 389.8 134.574 389.8H175.794C195.354 389.8 205.134 399.58 205.134 419.14V484.66C205.134 504.22 195.354 514 175.794 514H134.574C115.014 514 105.234 504.22 105.234 484.66ZM127.194 486.28C127.194 491.44 129.834 494.02 135.114 494.02H175.254C180.534 494.02 183.174 491.44 183.174 486.28V417.52C183.174 412.36 180.534 409.78 175.254 409.78H135.114C129.834 409.78 127.194 412.36 127.194 417.52V486.28Z" fill="black"/>
<path d="M9.2998 514V389.8H31.2598V494.02H87.4198V514H9.2998Z" fill="black"/>
<path d="M1400.96 350V225.8H1424.9L1479.98 314.36V225.8H1501.94V350H1478.18L1422.92 261.44V350H1400.96Z" fill="black"/>
<path d="M1293.21 350V225.8H1376.73V245.78H1315.17V275.66H1371.33V295.64H1315.17V330.02H1376.73V350H1293.21Z" fill="black"/>
<path d="M1165.66 230.12L1168.54 225.8H1187.62L1218.4 330.02H1221.82L1252.6 225.8H1271.86L1274.56 230.12L1237.84 350H1202.2L1165.66 230.12Z" fill="black"/>
<path d="M1124.98 350V225.8H1146.94V350H1124.98Z" fill="black"/>
<path d="M1008.97 350V225.8H1068.73C1088.29 225.8 1098.07 235.58 1098.07 255.14V275.48C1098.07 290.6 1092.07 299.78 1080.07 303.02L1101.67 345.32L1098.97 350H1080.25L1057.21 304.64H1030.93V350H1008.97ZM1030.93 284.66H1068.19C1073.47 284.66 1076.11 282.02 1076.11 276.74V253.52C1076.11 248.36 1073.47 245.78 1068.19 245.78H1030.93V284.66Z" fill="black"/>
<path d="M885.745 350V225.8H933.445C965.845 225.8 982.045 242.06 982.045 274.58V301.22C982.045 333.74 965.845 350 933.445 350H885.745ZM907.705 330.02H934.705C951.625 330.02 960.085 321.56 960.085 304.64V271.16C960.085 254.24 951.625 245.78 934.705 245.78H907.705V330.02Z" fill="black"/>
<path d="M810.497 304.28V285.92H863.237V304.28H810.497Z" fill="black"/>
<path d="M710.843 350V225.8H794.363V245.78H732.803V275.66H788.963V295.64H732.803V330.02H794.363V350H710.843Z" fill="black"/>
<path d="M600.149 341.72V330.02H655.769C661.049 330.02 663.689 327.44 663.689 322.28V308.6C663.689 304.04 661.649 301.34 657.569 300.5L621.029 293.12C607.109 290.36 600.149 281 600.149 265.04V255.14C600.149 235.58 609.929 225.8 629.489 225.8H671.429L682.049 234.08V245.78H630.029C624.749 245.78 622.109 248.36 622.109 253.52V265.58C622.109 270.14 624.149 272.84 628.229 273.68L664.769 280.88C678.689 283.76 685.649 293.12 685.649 308.96V320.66C685.649 340.22 675.869 350 656.309 350H610.769L600.149 341.72Z" fill="black"/>
<path d="M476.836 320.66V255.14C476.836 235.58 486.616 225.8 506.176 225.8H547.396C566.956 225.8 576.736 235.58 576.736 255.14V320.66C576.736 340.22 566.956 350 547.396 350H506.176C486.616 350 476.836 340.22 476.836 320.66ZM498.796 322.28C498.796 327.44 501.436 330.02 506.716 330.02H546.856C552.136 330.02 554.776 327.44 554.776 322.28V253.52C554.776 248.36 552.136 245.78 546.856 245.78H506.716C501.436 245.78 498.796 248.36 498.796 253.52V322.28Z" fill="black"/>
<path d="M364.378 350V225.8H424.138C443.698 225.8 453.478 235.58 453.478 255.14V279.08C453.478 298.52 443.698 308.24 424.138 308.24H386.338V350H364.378ZM386.338 288.26H423.598C428.878 288.26 431.518 285.62 431.518 280.34V253.52C431.518 248.36 428.878 245.78 423.598 245.78H386.338V288.26Z" fill="black"/>
<path d="M248.362 350V225.8H308.122C327.682 225.8 337.462 235.58 337.462 255.14V275.48C337.462 290.6 331.462 299.78 319.462 303.02L341.062 345.32L338.362 350H319.642L296.602 304.64H270.322V350H248.362ZM270.322 284.66H307.582C312.862 284.66 315.502 282.02 315.502 276.74V253.52C315.502 248.36 312.862 245.78 307.582 245.78H270.322V284.66Z" fill="black"/>
<path d="M122.478 320.66V225.8H144.438V322.28C144.438 327.44 147.078 330.02 152.358 330.02H188.898C194.178 330.02 196.818 327.44 196.818 322.28V225.8H218.778V320.66C218.778 340.22 208.998 350 189.438 350H151.818C132.258 350 122.478 340.22 122.478 320.66Z" fill="black"/>
<path d="M9.2998 350V225.8H69.0598C88.6198 225.8 98.3998 235.58 98.3998 255.14V279.08C98.3998 298.52 88.6198 308.24 69.0598 308.24H31.2598V350H9.2998ZM31.2598 288.26H68.5198C73.7998 288.26 76.4398 285.62 76.4398 280.34V253.52C76.4398 248.36 73.7998 245.78 68.5198 245.78H31.2598V288.26Z" fill="black"/>
</svg>
