<svg width="1760" height="537" viewBox="0 0 1760 537" fill="none" xmlns="http://www.w3.org/2000/svg">
<path d="M1041.59 95.6598V30.1398C1041.59 10.5798 1051.37 0.799805 1070.93 0.799805H1123.67L1134.29 9.07981V20.7798H1071.47C1066.19 20.7798 1063.55 23.3598 1063.55 28.5198V97.2798C1063.55 102.44 1066.19 105.02 1071.47 105.02H1115.93V70.6398H1089.65V50.6598H1137.89V125H1070.93C1051.37 125 1041.59 115.22 1041.59 95.6598Z" fill="black"/>
<path d="M911.726 125V0.799805H935.666L990.746 89.3598V0.799805H1012.71V125H988.946L933.686 36.4398V125H911.726Z" fill="black"/>
<path d="M859.167 125V0.799805H881.127V125H859.167Z" fill="black"/>
<path d="M743.152 125V0.799805H802.912C822.472 0.799805 832.252 10.5798 832.252 30.1398V50.4798C832.252 65.5998 826.252 74.7798 814.252 78.0198L835.852 120.32L833.152 125H814.432L791.392 79.6398H765.112V125H743.152ZM765.112 59.6598H802.372C807.652 59.6598 810.292 57.0198 810.292 51.7398V28.5198C810.292 23.3598 807.652 20.7798 802.372 20.7798H765.112V59.6598Z" fill="black"/>
<path d="M635.398 125V0.799805H718.918V20.7798H657.358V50.6598H713.518V70.6398H657.358V105.02H718.918V125H635.398Z" fill="black"/>
<path d="M507.854 5.11981L510.734 0.799805H529.814L560.594 105.02H564.014L594.794 0.799805H614.054L616.754 5.11981L580.034 125H544.394L507.854 5.11981Z" fill="black"/>
<path d="M391.02 95.6598V30.1398C391.02 10.5798 400.8 0.799805 420.36 0.799805H461.58C481.14 0.799805 490.92 10.5798 490.92 30.1398V95.6598C490.92 115.22 481.14 125 461.58 125H420.36C400.8 125 391.02 115.22 391.02 95.6598ZM412.98 97.2798C412.98 102.44 415.62 105.02 420.9 105.02H461.04C466.32 105.02 468.96 102.44 468.96 97.2798V28.5198C468.96 23.3598 466.32 20.7798 461.04 20.7798H420.9C415.62 20.7798 412.98 23.3598 412.98 28.5198V97.2798Z" fill="black"/>
<path d="M279.574 95.6598V30.1398C279.574 10.5798 289.354 0.799805 308.914 0.799805H357.874L368.494 9.07981V20.7798H309.454C304.174 20.7798 301.534 23.3598 301.534 28.5198V97.2798C301.534 102.44 304.174 105.02 309.454 105.02H368.494V116.72L357.874 125H308.914C289.354 125 279.574 115.22 279.574 95.6598Z" fill="black"/>
<path d="M170.681 116.72V105.02H226.301C231.581 105.02 234.221 102.44 234.221 97.2798V83.5998C234.221 79.0398 232.181 76.3398 228.101 75.4998L191.561 68.1198C177.641 65.3598 170.681 55.9998 170.681 40.0398V30.1398C170.681 10.5798 180.461 0.799805 200.021 0.799805H241.961L252.581 9.07981V20.7798H200.561C195.281 20.7798 192.641 23.3598 192.641 28.5198V40.5798C192.641 45.1398 194.681 47.8398 198.761 48.6798L235.301 55.8798C249.221 58.7598 256.181 68.1198 256.181 83.9598V95.6598C256.181 115.22 246.401 125 226.841 125H181.301L170.681 116.72Z" fill="black"/>
<path d="M123.523 125V0.799805H145.483V125H123.523Z" fill="black"/>
<path d="M0.299988 125V0.799805H48C80.4 0.799805 96.6 17.0598 96.6 49.5798V76.2198C96.6 108.74 80.4 125 48 125H0.299988ZM22.26 105.02H49.26C66.18 105.02 74.64 96.5598 74.64 79.6398V46.1598C74.64 29.2398 66.18 20.7798 49.26 20.7798H22.26V105.02Z" fill="black"/>
<path d="M1252.11 347.96V332.36H1326.27C1333.31 332.36 1336.83 328.92 1336.83 322.04V303.8C1336.83 297.72 1334.11 294.12 1328.67 293L1279.95 283.16C1261.39 279.48 1252.11 267 1252.11 245.72V232.52C1252.11 206.44 1265.15 193.4 1291.23 193.4H1347.15L1361.31 204.44V220.04H1291.95C1284.91 220.04 1281.39 223.48 1281.39 230.36V246.44C1281.39 252.52 1284.11 256.12 1289.55 257.24L1338.27 266.84C1356.83 270.68 1366.11 283.16 1366.11 304.28V319.88C1366.11 345.96 1353.07 359 1326.99 359H1266.27L1252.11 347.96Z" fill="#BB1212"/>
<path d="M1083.76 359V193.4H1115.68L1189.12 311.48V193.4H1218.4V359H1186.72L1113.04 240.92V359H1083.76Z" fill="#BB1212"/>
<path d="M912.141 319.88V232.52C912.141 206.44 925.181 193.4 951.261 193.4H1006.22C1032.3 193.4 1045.34 206.44 1045.34 232.52V319.88C1045.34 345.96 1032.3 359 1006.22 359H951.261C925.181 359 912.141 345.96 912.141 319.88ZM941.421 322.04C941.421 328.92 944.941 332.36 951.981 332.36H1005.5C1012.54 332.36 1016.06 328.92 1016.06 322.04V230.36C1016.06 223.48 1012.54 220.04 1005.5 220.04H951.981C944.941 220.04 941.421 223.48 941.421 230.36V322.04Z" fill="#BB1212"/>
<path d="M844.463 359V193.4H873.742V359H844.463Z" fill="#BB1212"/>
<path d="M692.119 359V193.4H771.799C797.879 193.4 810.919 206.44 810.919 232.52V264.44C810.919 290.36 797.879 303.32 771.799 303.32H721.399V359H692.119ZM721.399 276.68H771.079C778.119 276.68 781.639 273.16 781.639 266.12V230.36C781.639 223.48 778.119 220.04 771.079 220.04H721.399V276.68Z" fill="#BB1212"/>
<path d="M480.009 359V193.4H516.009L565.689 299.48L615.369 193.4H651.369V359H621.849V243.32L578.169 336.44H552.969L509.289 243.32V359H480.009Z" fill="#BB1212"/>
<path d="M307.372 353.24L358.492 193.4H404.092L454.973 353.24L451.372 359H426.652L415.372 322.52H346.973L335.453 359H311.212L307.372 353.24ZM355.133 295.88H407.453L383.453 220.04H378.892L355.133 295.88Z" fill="#BB1212"/>
<path d="M153.994 359V193.4H183.274V259.88H253.114V193.4H282.394V359H253.114V286.52H183.274V359H153.994Z" fill="#BB1212"/>
<path d="M3 319.88V232.52C3 206.44 16.04 193.4 42.12 193.4H107.4L121.56 204.44V220.04H42.84C35.8 220.04 32.28 223.48 32.28 230.36V322.04C32.28 328.92 35.8 332.36 42.84 332.36H121.56V347.96L107.4 359H42.12C16.04 359 3 345.96 3 319.88Z" fill="#BB1212"/>
<path d="M1673.79 537V426.6H1693.31V470.92H1739.87V426.6H1759.39V537H1739.87V488.68H1693.31V537H1673.79Z" fill="black"/>
<path d="M1573.12 510.92V452.68C1573.12 435.293 1581.82 426.6 1599.2 426.6H1642.72L1652.17 433.96V444.36H1599.69C1594.99 444.36 1592.65 446.653 1592.65 451.24V512.36C1592.65 516.946 1594.99 519.24 1599.69 519.24H1652.17V529.64L1642.72 537H1599.2C1581.82 537 1573.12 528.306 1573.12 510.92Z" fill="black"/>
<path d="M1478.94 537V426.6H1553.18V444.36H1498.46V470.92H1548.38V488.68H1498.46V519.24H1553.18V537H1478.94Z" fill="black"/>
<path d="M1372.31 444.36V426.6H1461.43V444.36H1426.71V537H1407.03V444.36H1372.31Z" fill="black"/>
<path d="M1267.66 510.92V452.68C1267.66 435.293 1276.35 426.6 1293.74 426.6H1330.38C1347.76 426.6 1356.46 435.293 1356.46 452.68V510.92C1356.46 528.306 1347.76 537 1330.38 537H1293.74C1276.35 537 1267.66 528.306 1267.66 510.92ZM1287.18 512.36C1287.18 516.946 1289.52 519.24 1294.22 519.24H1329.9C1334.59 519.24 1336.94 516.946 1336.94 512.36V451.24C1336.94 446.653 1334.59 444.36 1329.9 444.36H1294.22C1289.52 444.36 1287.18 446.653 1287.18 451.24V512.36Z" fill="black"/>
<path d="M1222.54 537V426.6H1242.06V537H1222.54Z" fill="black"/>
<path d="M1118.63 537V426.6H1170.15C1187.54 426.6 1196.23 435.293 1196.23 452.68V462.76C1196.23 466.386 1195.16 469.48 1193.03 472.04L1187.43 478.76L1194.15 484.36C1197.67 487.24 1199.43 491.506 1199.43 497.16V510.92C1199.43 528.306 1190.74 537 1173.35 537H1118.63ZM1138.15 519.24H1172.87C1177.56 519.24 1179.91 516.946 1179.91 512.36V495.56C1179.91 490.973 1177.56 488.68 1172.87 488.68H1138.15V519.24ZM1138.15 470.92H1169.67C1174.36 470.92 1176.71 468.573 1176.71 463.88V451.24C1176.71 446.653 1174.36 444.36 1169.67 444.36H1138.15V470.92Z" fill="black"/>
<path d="M973.227 430.44L975.628 426.6H992.268L1018.35 476.68L1044.59 426.6H1061.39L1063.63 430.44L1028.27 497.32V537H1008.59V497.32L973.227 430.44Z" fill="black"/>
<path d="M877.153 444.36V426.6H966.273V444.36H931.552V537H911.872V444.36H877.153Z" fill="black"/>
<path d="M840.194 537V426.6H859.714V537H840.194Z" fill="black"/>
<path d="M726.821 430.44L729.381 426.6H746.341L773.701 519.24H776.741L804.101 426.6H821.221L823.621 430.44L790.981 537H759.301L726.821 430.44Z" fill="black"/>
<path d="M641.6 537V426.6H715.84V444.36H661.12V470.92H711.04V488.68H661.12V519.24H715.84V537H641.6Z" fill="black"/>
<path d="M532.031 510.92V452.68C532.031 435.293 540.725 426.6 558.111 426.6H604.991L614.431 433.96V444.36H558.591C553.898 444.36 551.551 446.653 551.551 451.24V512.36C551.551 516.946 553.898 519.24 558.591 519.24H598.111V488.68H574.751V470.92H617.631V537H558.111C540.725 537 532.031 528.306 532.031 510.92Z" fill="black"/>
<path d="M416.6 537V426.6H437.88L486.84 505.32V426.6H506.36V537H485.24L436.12 458.28V537H416.6Z" fill="black"/>
<path d="M302.188 510.92V452.68C302.188 435.293 310.881 426.6 328.267 426.6H364.908C382.294 426.6 390.988 435.293 390.988 452.68V510.92C390.988 528.306 382.294 537 364.908 537H328.267C310.881 537 302.188 528.306 302.188 510.92ZM321.707 512.36C321.707 516.946 324.054 519.24 328.747 519.24H364.427C369.121 519.24 371.467 516.946 371.467 512.36V451.24C371.467 446.653 369.121 444.36 364.427 444.36H328.747C324.054 444.36 321.707 446.653 321.707 451.24V512.36Z" fill="black"/>
<path d="M216.912 537V426.6H236.432V519.24H286.352V537H216.912Z" fill="black"/>
<path d="M61.4437 537V426.6H82.7237L131.684 505.32V426.6H151.204V537H130.084L80.9637 458.28V537H61.4437Z" fill="black"/>
<path d="M14.725 537V426.6H34.245V537H14.725Z" fill="black"/>
</svg>
