<svg xmlns="http://www.w3.org/2000/svg" width="1524" height="422" fill="none" viewBox="0 0 1524 422"><path fill="#bb1212" d="M781.2 99.6v15.8H866V99.6zM866 65.8h-84.8v14.8H866zm19.2 71 20 15.2c-10 7.8-22.2 15.4-33.2 22 12.6 6.8 27.6 11.8 44.2 14.8C911 194 904 204 901 210.4c-47-11-77.4-35.8-96.2-74.2h-23.6v48.2l44.4-9.8c0 6.8 1.2 16.8 2.4 22.2-56.2 13-65.4 15-71.4 18.2-2.2-5.2-8.8-14.2-12.8-18 5-3.8 12.4-11.4 12.4-22.2V45h56.6c-1.4-5.2-3.2-10.4-5-15l24.6-5.2c2.8 6.2 5.4 13.6 7.2 20.2h50.8v91.2h-60c5.6 9.4 13 17.6 22 25 11.6-7.4 24.4-16.6 32.8-24.4m184 47.6h47.2V207H992v-22.6h53.4v-40h-38.6v-22.2h38.6V89.4h-22c-3 10.4-7 20-11.2 27.6-4.8-3-15.6-8.4-21.2-10.8 2-3.6 4-7.4 6-11.6l-11.4 5.2c-1.2-6-4.2-14.8-7.6-23v136.6h-23.8v-143c-1.2 16.8-4.4 38.8-9 53l-17.6-6.4c4.8-13.2 8.4-35.6 9.8-52l16.8 2.4V26.6H978v37.8l11.6-4.8c4 7.8 8.2 17.4 11 25.2 5-14.6 8.6-31.8 10.6-48.8l23.2 3.2c-1.4 9.4-3 18.8-5 27.8h16V27.8h23.8V67h40.8v22.4h-40.8v32.8h36.6v22.2h-36.6zm246.6-59-12 19.2c-9-7.8-25.6-17.8-41.6-26.6 4.2 42.2 13.4 66.8 30.8 66.6 4.6 0 6.6-12.6 7.2-34 5.4 5.6 12.2 11.8 17.6 15-2.4 33.2-9 44-25.6 44-44.6 0-55.2-57.8-57-148.4h-100V36.4h124.2c-.2 17 0 33 .6 47.6 12-11.2 24.2-24.2 32.4-35.2l21.4 11.6C1301.4 74 1286 88.6 1272 100c16.4 8 34.2 17.8 43.8 25.4m92.8 22 1.2 20.6c-7.2 1.4-14.2 2.8-21.4 4.2v40.4h-20.6v-36.8c-11.8 2.2-23 4.2-32.8 6l-4.8-23c10.2-1.2 23.4-3 37.6-5.2v-22.8h-13.6c-6.4 0-13.8 1.2-15.6 3-.8-4-4.2-13.8-6.8-19 4.2-1.4 6.6-7.2 10-16 1.8-4.2 5-14.8 8.4-28h-18V48.4h23.2c1.4-7.2 2.4-14.6 3.2-21.8l21.6 4c-1 6-2.2 11.8-3.4 17.8h29.4v22.4h-35.4c-4 13.8-8.6 27-13 38.6h10V81h20.6v28.4h17.4l-.2 21.4h-17.2v19.8zm65.2-117-2.4 5.8c10 22.8 28.8 47 47 60.8-5.4 4.2-13.2 12.4-17 18.4-15.4-13.2-30.4-33.6-42.2-55.2-8 14.6-17.8 28.4-30 41.4h18v31.2c12.8-7.6 26.2-16.4 35.6-24.4l16.2 20c-16 10.4-35.6 21.4-51.8 29.2v19.6c0 8 1.4 9.2 9.6 9.2h23.4c7.6 0 8.8-4.4 9.8-27.8 5.2 3.8 15 7.8 21.4 9.4-2.6 30.8-8.8 39.8-29.2 39.8h-28.6c-23.8 0-30-7.2-30-30.4v-70c-3.4 3.4-7.2 6.8-10.8 10-3.6-5.6-11.2-14.2-16.2-18.2 26.2-20.8 43.2-49 52-73.2z"/><path fill="#000" d="M75.827 389V273.08h54.096q27.384 0 27.384 27.384v10.584q0 5.712-3.36 9.744l-5.88 7.056 7.056 5.88q5.544 4.536 5.544 13.44v14.448q0 27.384-27.384 27.384zm20.496-18.648h36.456q7.392 0 7.392-7.224v-17.64q0-7.224-7.392-7.224H96.323zm0-50.736h33.096q7.392 0 7.392-7.392v-13.272q0-7.224-7.392-7.224H96.323zM184.928 389V273.08h77.952v18.648h-57.456v27.888h52.416v18.648h-52.416v32.088h57.456V389zm100.571 0V273.08h20.496v46.536h48.888V273.08h20.496V389h-20.496v-50.736h-48.888V389zm118.453 0V273.08h20.496V389zm49.055 0V273.08h22.344l51.408 82.656V273.08h20.496V389h-22.176l-51.576-82.656V389zm122.882 0V273.08h44.52q45.36 0 45.36 45.528v24.864q0 45.528-45.36 45.528zm20.496-18.648h25.2q23.688 0 23.688-23.688v-31.248q0-23.688-23.688-23.688h-25.2zm123.784 14.616 35.784-111.888h31.92l35.616 111.888-2.52 4.032h-17.304l-7.896-25.536h-47.88L739.825 389h-16.968zm33.432-40.152h36.624l-16.8-53.088h-3.192zm86.405 16.8V273.08h20.496v90.048q0 7.224 7.392 7.224h34.104q7.392 0 7.392-7.224V273.08h20.496v88.536q0 27.384-27.384 27.384H867.39q-27.384 0-27.384-27.384M957.499 389V273.08h44.521q45.36 0 45.36 45.528v24.864q0 45.528-45.36 45.528zm20.496-18.648h25.195c15.8 0 23.69-7.896 23.69-23.688v-31.248c0-15.792-7.89-23.688-23.69-23.688h-25.195zm83.425 14.616 35.78-111.888h31.92l35.62 111.888-2.52 4.032h-17.31l-7.89-25.536h-47.88L1081.07 389h-16.96zm33.43-40.152h36.62l-16.8-53.088h-3.19zm85.73 16.8v-61.152q0-27.384 27.39-27.384h45.69l9.92 7.728v10.92h-55.11c-4.93 0-7.39 2.408-7.39 7.224v64.176c0 4.816 2.46 7.224 7.39 7.224h55.11v10.92l-9.92 7.728h-45.69q-27.39 0-27.39-27.384M1286.28 389V273.08h20.5V389zm38.81-97.272V273.08h93.57v18.648h-36.45V389h-20.67v-97.272zm100.88-14.616 2.52-4.032h17.47l27.38 52.584 27.55-52.584h17.64l2.36 4.032-37.13 70.224V389h-20.67v-41.664z"/></svg>