<svg width="1782" height="321" viewBox="0 0 1782 321" fill="none" xmlns="http://www.w3.org/2000/svg">
<path d="M1689.03 138V0H1781.83V22.2H1713.43V55.4H1775.83V77.6H1713.43V115.8H1781.83V138H1689.03Z" fill="#BB1212"/>
<path d="M1580.43 138V0H1604.83V115.8H1667.23V138H1580.43Z" fill="#BB1212"/>
<path d="M1454.61 105.4V32.6C1454.61 10.8667 1465.47 0 1487.21 0H1541.61L1553.41 9.2V22.2H1487.81C1481.94 22.2 1479.01 25.0667 1479.01 30.8V107.2C1479.01 112.933 1481.94 115.8 1487.81 115.8H1553.41V128.8L1541.61 138H1487.21C1465.47 138 1454.61 127.133 1454.61 105.4Z" fill="#BB1212"/>
<path d="M1322.9 4.80001L1325.9 0H1346.7L1379.3 62.6L1412.1 0H1433.1L1435.9 4.80001L1391.7 88.4V138H1367.1V88.4L1322.9 4.80001Z" fill="#BB1212"/>
<path d="M1210.27 105.4V32.6C1210.27 10.8667 1221.14 0 1242.87 0H1297.27L1309.07 9.2V22.2H1243.47C1237.6 22.2 1234.67 25.0667 1234.67 30.8V107.2C1234.67 112.933 1237.6 115.8 1243.47 115.8H1309.07V128.8L1297.27 138H1242.87C1221.14 138 1210.27 127.133 1210.27 105.4Z" fill="#BB1212"/>
<path d="M1041.23 128.8V115.8H1103.03C1108.9 115.8 1111.83 112.933 1111.83 107.2V92C1111.83 86.9333 1109.56 83.9333 1105.03 83L1064.43 74.8C1048.96 71.7333 1041.23 61.3333 1041.23 43.6V32.6C1041.23 10.8667 1052.1 0 1073.83 0H1120.43L1132.23 9.2V22.2H1074.43C1068.56 22.2 1065.63 25.0667 1065.63 30.8V44.2C1065.63 49.2667 1067.9 52.2667 1072.43 53.2L1113.03 61.2C1128.5 64.4 1136.23 74.8 1136.23 92.4V105.4C1136.23 127.133 1125.36 138 1103.63 138H1053.03L1041.23 128.8Z" fill="#BB1212"/>
<path d="M907.358 105.4V0H931.758V107.2C931.758 112.933 934.692 115.8 940.558 115.8H981.158C987.025 115.8 989.958 112.933 989.958 107.2V0H1014.36V105.4C1014.36 127.133 1003.49 138 981.758 138H939.958C918.225 138 907.358 127.133 907.358 105.4Z" fill="#BB1212"/>
<path d="M765.543 105.4V32.6C765.543 10.8667 776.41 0 798.143 0H843.943C865.676 0 876.543 10.8667 876.543 32.6V105.4C876.543 127.133 865.676 138 843.943 138H798.143C776.41 138 765.543 127.133 765.543 105.4ZM789.943 107.2C789.943 112.933 792.876 115.8 798.743 115.8H843.343C849.21 115.8 852.143 112.933 852.143 107.2V30.8C852.143 25.0667 849.21 22.2 843.343 22.2H798.743C792.876 22.2 789.943 25.0667 789.943 30.8V107.2Z" fill="#BB1212"/>
<path d="M627.671 105.4V0H652.071V107.2C652.071 112.933 655.004 115.8 660.871 115.8H701.471C707.338 115.8 710.271 112.933 710.271 107.2V0H734.671V105.4C734.671 127.133 723.804 138 702.071 138H660.271C638.538 138 627.671 127.133 627.671 105.4Z" fill="#BB1212"/>
<path d="M495.577 22.2V0H606.977V22.2H563.577V138H538.977V22.2H495.577Z" fill="#BB1212"/>
<path d="M378.871 138V0H445.271C467.004 0 477.871 10.8667 477.871 32.6V55.2C477.871 72 471.204 82.2 457.871 85.8L481.871 132.8L478.871 138H458.071L432.471 87.6H403.271V138H378.871ZM403.271 65.4H444.671C450.538 65.4 453.471 62.4667 453.471 56.6V30.8C453.471 25.0667 450.538 22.2 444.671 22.2H403.271V65.4Z" fill="#BB1212"/>
<path d="M320.473 138V0H344.873V138H320.473Z" fill="#BB1212"/>
<path d="M178.757 4.80001L181.957 0H203.157L237.357 115.8H241.157L275.357 0H296.757L299.757 4.80001L258.957 138H219.357L178.757 4.80001Z" fill="#BB1212"/>
<path d="M0.0458984 133.2L42.6459 0H80.6459L123.046 133.2L120.046 138H99.4459L90.0459 107.6H33.0459L23.4459 138H3.2459L0.0458984 133.2ZM39.8459 85.4H83.4459L63.4459 22.2H59.6459L39.8459 85.4Z" fill="#BB1212"/>
<path d="M1522.19 209.112L1524.71 205.08H1542.18L1569.57 257.664L1597.12 205.08H1614.76L1617.11 209.112L1579.98 279.336V321H1559.32V279.336L1522.19 209.112Z" fill="black"/>
<path d="M1421.31 223.728V205.08H1514.89V223.728H1478.43V321H1457.77V223.728H1421.31Z" fill="black"/>
<path d="M1382.51 321V205.08H1403V321H1382.51Z" fill="black"/>
<path d="M1276.81 293.616V232.464C1276.81 214.208 1285.94 205.08 1304.19 205.08H1349.89L1359.8 212.808V223.728H1304.7C1299.77 223.728 1297.31 226.136 1297.31 230.952V295.128C1297.31 299.944 1299.77 302.352 1304.7 302.352H1359.8V313.272L1349.89 321H1304.19C1285.94 321 1276.81 311.872 1276.81 293.616Z" fill="black"/>
<path d="M1157.65 316.968L1193.43 205.08H1225.35L1260.96 316.968L1258.44 321H1241.14L1233.24 295.464H1185.36L1177.3 321H1160.33L1157.65 316.968ZM1191.08 276.816H1227.7L1210.9 223.728H1207.71L1191.08 276.816Z" fill="black"/>
<path d="M1053.73 321V205.08H1098.25C1128.49 205.08 1143.61 220.256 1143.61 250.608V275.472C1143.61 305.824 1128.49 321 1098.25 321H1053.73ZM1074.22 302.352H1099.42C1115.21 302.352 1123.11 294.456 1123.11 278.664V247.416C1123.11 231.624 1115.21 223.728 1099.42 223.728H1074.22V302.352Z" fill="black"/>
<path d="M936.232 293.616V205.08H956.728V295.128C956.728 299.944 959.192 302.352 964.12 302.352H998.224C1003.15 302.352 1005.62 299.944 1005.62 295.128V205.08H1026.11V293.616C1026.11 311.872 1016.98 321 998.728 321H963.616C945.36 321 936.232 311.872 936.232 293.616Z" fill="black"/>
<path d="M816.395 316.968L852.179 205.08H884.099L919.715 316.968L917.195 321H899.891L891.995 295.464H844.115L836.051 321H819.083L816.395 316.968ZM849.827 276.816H886.451L869.651 223.728H866.459L849.827 276.816Z" fill="black"/>
<path d="M672.116 321V205.08H716.636C746.876 205.08 761.996 220.256 761.996 250.608V275.472C761.996 305.824 746.876 321 716.636 321H672.116ZM692.612 302.352H717.812C733.604 302.352 741.5 294.456 741.5 278.664V247.416C741.5 231.624 733.604 223.728 717.812 223.728H692.612V302.352Z" fill="black"/>
<path d="M549.233 321V205.08H571.577L622.985 287.736V205.08H643.481V321H621.305L569.729 238.344V321H549.233Z" fill="black"/>
<path d="M500.178 321V205.08H520.674V321H500.178Z" fill="black"/>
<path d="M381.725 321V205.08H402.221V251.616H451.109V205.08H471.605V321H451.109V270.264H402.221V321H381.725Z" fill="black"/>
<path d="M281.155 321V205.08H359.107V223.728H301.651V251.616H354.067V270.264H301.651V302.352H359.107V321H281.155Z" fill="black"/>
<path d="M172.053 321V205.08H226.149C244.405 205.08 253.533 214.208 253.533 232.464V243.048C253.533 246.856 252.413 250.104 250.173 252.792L244.293 259.848L251.349 265.728C255.045 268.752 256.893 273.232 256.893 279.168V293.616C256.893 311.872 247.765 321 229.509 321H172.053ZM192.549 302.352H229.005C233.933 302.352 236.397 299.944 236.397 295.128V277.488C236.397 272.672 233.933 270.264 229.005 270.264H192.549V302.352ZM192.549 251.616H225.645C230.573 251.616 233.037 249.152 233.037 244.224V230.952C233.037 226.136 230.573 223.728 225.645 223.728H192.549V251.616Z" fill="black"/>
</svg>
