<svg xmlns="http://www.w3.org/2000/svg" width="1840" height="728" fill="none" viewBox="0 0 1840 728"><path fill="#000" d="M14.28 131V15.08h20.496v97.272h52.416V131zm89.539-27.384V42.464q0-27.384 27.384-27.384h38.472q27.384 0 27.384 27.384v61.152q0 27.384-27.384 27.384h-38.472q-27.384 0-27.384-27.384m20.496 1.512q0 7.224 7.392 7.224h37.464q7.392 0 7.392-7.224V40.952q0-7.224-7.392-7.224h-37.464q-7.392 0-7.392 7.224zM223.952 131V15.08h22.344l51.408 82.656V15.08H318.2V131h-22.176l-51.576-82.656V131zm121.203-27.384V42.464q0-27.384 27.384-27.384h49.224l9.912 7.728v10.92h-58.632q-7.392 0-7.392 7.224v64.176q0 7.224 7.392 7.224h41.496V80.264h-24.528V61.616h45.024V131h-62.496q-27.384 0-27.384-27.384M460.202 131V15.08h77.952v18.648h-57.456v27.888h52.416v18.648h-52.416v32.088h57.456V131zm89.482-111.888 2.688-4.032h17.808l28.728 97.272h3.192l28.728-97.272h17.976l2.52 4.032L617.052 131h-33.264zM668.725 131V15.08h20.496V131zm38.807-97.272V15.08h93.576v18.648h-36.456V131h-20.664V33.728zm100.879-14.616 2.52-4.032h17.472l27.384 52.584 27.552-52.584h17.64l2.352 4.032-37.128 70.224V131h-20.664V89.336zM961.085 131V15.08h54.095c18.26 0 27.38 9.128 27.38 27.384v10.584q0 5.712-3.36 9.744l-5.88 7.056 7.06 5.88c3.7 3.024 5.54 7.504 5.54 13.44v14.448c0 18.256-9.12 27.384-27.38 27.384zm20.496-18.648h36.459c4.92 0 7.39-2.408 7.39-7.224v-17.64c0-4.816-2.47-7.224-7.39-7.224h-36.459zm0-50.736h33.099c4.92 0 7.39-2.464 7.39-7.392V40.952c0-4.816-2.47-7.224-7.39-7.224h-33.099zM1070.19 131V15.08h20.49V131zm47.37-27.384V42.464c0-18.256 9.13-27.384 27.38-27.384h38.48c18.25 0 27.38 9.128 27.38 27.384v61.152c0 18.256-9.13 27.384-27.38 27.384h-38.48c-18.25 0-27.38-9.128-27.38-27.384m20.5 1.512c0 4.816 2.46 7.224 7.39 7.224h37.46c4.93 0 7.39-2.408 7.39-7.224V40.952c0-4.816-2.46-7.224-7.39-7.224h-37.46c-4.93 0-7.39 2.408-7.39 7.224zm89.39-71.4V15.08h93.57v18.648h-36.45V131h-20.67V33.728zM1339.41 131V15.08h77.95v18.648h-57.45v27.888h52.41v18.648h-52.41v32.088h57.45V131zm98.89-27.384V42.464q0-27.384 27.39-27.384h45.69l9.92 7.728v10.92h-55.11c-4.93 0-7.39 2.408-7.39 7.224v64.176c0 4.816 2.46 7.224 7.39 7.224h55.11v10.92l-9.92 7.728h-45.69q-27.39 0-27.39-27.384M1544 131V15.08h20.49v46.536h48.89V15.08h20.5V131h-20.5V80.264h-48.89V131zM14.28 295V179.08h20.496V295zm44.015-7.728v-10.92h51.912q7.392 0 7.392-7.224V256.36q0-6.384-5.712-7.56l-34.104-6.888q-19.488-3.864-19.488-26.208v-9.24q0-27.384 27.384-27.384h39.144l9.912 7.728v10.92H86.183q-7.392 0-7.392 7.224v11.256q0 6.384 5.712 7.56l34.104 6.72q19.488 4.032 19.488 26.208v10.92q0 27.384-27.384 27.384H68.207zm132.585 3.696 35.784-111.888h31.92L294.2 290.968 291.68 295h-17.304l-7.896-25.536H218.6L210.536 295h-16.968zm33.432-40.152h36.624l-16.8-53.088h-3.192zM14.28 459V343.08h25.2l34.776 74.256 34.776-74.256h25.2V459h-20.664v-80.976l-30.576 65.184h-17.64l-30.576-65.184V459zm146.797-27.384v-61.152q0-27.384 27.384-27.384h38.472q27.384 0 27.384 27.384v61.152q0 27.384-27.384 27.384h-38.472q-27.384 0-27.384-27.384m20.496 1.512q0 7.224 7.392 7.224h37.464q7.392 0 7.392-7.224v-64.176q0-7.224-7.392-7.224h-37.464q-7.392 0-7.392 7.224zM281.21 459V343.08h55.776q27.384 0 27.384 27.384v18.984q0 21.168-16.8 25.704l20.16 39.48-2.52 4.368h-17.472l-21.504-42.336h-24.528V459zm20.496-60.984h34.776q7.392 0 7.392-7.392v-21.672q0-7.224-7.392-7.224h-34.776zm76.697 56.952 35.784-111.888h31.92l35.616 111.888-2.52 4.032h-17.304l-7.896-25.536h-47.88L398.059 459h-16.968zm33.432-40.152h36.624l-16.8-53.088h-3.192zM499.249 459V343.08h20.496v97.272h52.416V459z"/><path fill="#bb1212" d="m123.4 548.4-15.6 19.4c-11.6-9.6-32-25.2-47.6-36l15.4-17.4c16.2 10.4 36.4 25.2 47.8 34M26 568.6l22.6 5.8C44.4 598 38 626 28 643.2l-23-8.6c9.8-17.2 17.4-42.6 21-66m69 106.8h30.4c10.2 0 11.8-5.8 13.4-34 5.8 4.2 16.4 8.4 23.4 10-3.2 36-10.2 47.8-34.8 47.8h-35c-24.6 0-33-6.8-34.4-28.8-11.6 8-24.2 15.2-37 21.4-3.6-5.4-10.8-14.2-15.6-18.8 18.6-8.4 36.2-19.2 52.4-31.6v-81.8h25.4V620c30.2-28.4 54.2-61.6 69.4-93.6l24 9.4c-21.8 41.8-53.2 83-93.4 115.8v12.2c0 10.2 1.6 11.6 11.8 11.6m48.2-83.2 21.4-10.2c12.6 18.8 25.2 43.2 30.2 59.6L172 653.2c-4.6-16.6-17-42.2-28.8-61m245.6-49.4-18.2 10.6c-3.2-7.4-10.8-18.8-17.8-27l17.2-9.6c7.2 8 15.2 18.8 18.8 26M228.6 702.2l-22.6-9.4c8-9.2 18-25.2 24.6-39l22.4 5.8c-6.4 14.4-16.2 31.4-24.4 42.6m36.8-40.6 22-2.4c2.6 12 5 27.6 5.2 37.4l-23.4 3.4c0-9.8-1.6-26-3.8-38.4m123.4-85.4h-36.4c7.4 25.2 20 46 40.4 56.4-5.2 4.8-12.2 13.6-15.6 20-15.8-9.8-27-24.8-35.2-43.4-7.8 17-22.2 33.2-46.6 46-3.8-5.4-11.2-12.2-16.6-16.6 34.6-17.8 45.8-40.8 49.2-62.4h-25.4V562c-14.6 45.6-41.6 74.2-75.8 89.2-3.4-5.2-11.4-14.4-16.6-18.2 14.6-5.8 27.6-13.6 38.6-24-6-5-13.2-10.2-19.4-14.2l12.8-12.2c6 3.6 13 8.2 19 12.6 2.8-3.8 5.6-8 8-12.2-6.2-4.2-13.8-8.8-20.4-12.2l10.4-13.2c5.4 2.2 12 5.8 17.8 9.4 2.2-5.4 3.8-11 5.4-17h-25.6c-10 17.8-22.2 34.4-36.4 46.6-3.6-4.6-11-11.6-15.8-15.2 20.4-16.6 36.8-45.2 44.2-68.6l22.6 5.8q-2.4 6-5.4 12.6h24.2l4.2-.6 14.8 5.6c-1.2 6-2.6 12-4.2 17.6h24.2v-36.4h22.6v36.4h37zm-83 85 22.2-3.8c5 11.6 10 27.4 11.8 37.2l-23.6 4.6c-1.2-9.8-5.8-25.8-10.4-38m40.8-.4 21-8.8c9.2 12.2 20.2 28.8 25.2 39.8L370.4 702c-4.4-10.8-14.8-28.4-23.8-41.2"/></svg>