<svg width="1620" height="684" viewBox="0 0 1620 684" fill="none" xmlns="http://www.w3.org/2000/svg">
<path d="M1530 116V0.0800781H1550.49V46.6161H1599.38V0.0800781H1619.88V116H1599.38V65.2641H1550.49V116H1530Z" fill="black"/>
<path d="M1424.3 88.6161V27.4641C1424.3 9.20808 1433.43 0.0800781 1451.69 0.0800781H1497.38L1507.29 7.80808V18.7281H1452.19C1447.26 18.7281 1444.8 21.1361 1444.8 25.9521V90.1281C1444.8 94.9441 1447.26 97.3521 1452.19 97.3521H1507.29V108.272L1497.38 116H1451.69C1433.43 116 1424.3 106.872 1424.3 88.6161Z" fill="black"/>
<path d="M1325.41 116V0.0800781H1403.36V18.7281H1345.91V46.6161H1398.32V65.2641H1345.91V97.3521H1403.36V116H1325.41Z" fill="black"/>
<path d="M1213.45 18.7281V0.0800781H1307.02V18.7281H1270.57V116H1249.9V18.7281H1213.45Z" fill="black"/>
<path d="M1103.56 88.6161V27.4641C1103.56 9.20808 1112.69 0.0800781 1130.94 0.0800781H1169.42C1187.67 0.0800781 1196.8 9.20808 1196.8 27.4641V88.6161C1196.8 106.872 1187.67 116 1169.42 116H1130.94C1112.69 116 1103.56 106.872 1103.56 88.6161ZM1124.06 90.1281C1124.06 94.9441 1126.52 97.3521 1131.45 97.3521H1168.91C1173.84 97.3521 1176.3 94.9441 1176.3 90.1281V25.9521C1176.3 21.1361 1173.84 18.7281 1168.91 18.7281H1131.45C1126.52 18.7281 1124.06 21.1361 1124.06 25.9521V90.1281Z" fill="black"/>
<path d="M1056.19 116V0.0800781H1076.68V116H1056.19Z" fill="black"/>
<path d="M947.084 116V0.0800781H1001.18C1019.44 0.0800781 1028.56 9.20808 1028.56 27.4641V38.0481C1028.56 41.8561 1027.44 45.1041 1025.2 47.7921L1019.32 54.8481L1026.38 60.7281C1030.08 63.7521 1031.92 68.2321 1031.92 74.1681V88.6161C1031.92 106.872 1022.8 116 1004.54 116H947.084ZM967.58 97.3521H1004.04C1008.96 97.3521 1011.43 94.9441 1011.43 90.1281V72.4881C1011.43 67.6721 1008.96 65.2641 1004.04 65.2641H967.58V97.3521ZM967.58 46.6161H1000.68C1005.6 46.6161 1008.07 44.1521 1008.07 39.2241V25.9521C1008.07 21.1361 1005.6 18.7281 1000.68 18.7281H967.58V46.6161Z" fill="black"/>
<path d="M794.411 4.11209L796.931 0.0800781H814.403L841.787 52.6641L869.339 0.0800781H886.979L889.331 4.11209L852.203 74.3361V116H831.539V74.3361L794.411 4.11209Z" fill="black"/>
<path d="M693.532 18.7281V0.0800781H787.108V18.7281H750.652V116H729.988V18.7281H693.532Z" fill="black"/>
<path d="M654.725 116V0.0800781H675.221V116H654.725Z" fill="black"/>
<path d="M535.684 4.11209L538.372 0.0800781H556.18L584.908 97.3521H588.1L616.828 0.0800781H634.804L637.324 4.11209L603.052 116H569.788L535.684 4.11209Z" fill="black"/>
<path d="M446.202 116V0.0800781H524.154V18.7281H466.698V46.6161H519.114V65.2641H466.698V97.3521H524.154V116H446.202Z" fill="black"/>
<path d="M331.154 88.6161V27.4641C331.154 9.20808 340.282 0.0800781 358.538 0.0800781H407.762L417.674 7.80808V18.7281H359.042C354.114 18.7281 351.65 21.1361 351.65 25.9521V90.1281C351.65 94.9441 354.114 97.3521 359.042 97.3521H400.538V65.2641H376.01V46.6161H421.034V116H358.538C340.282 116 331.154 106.872 331.154 88.6161Z" fill="black"/>
<path d="M209.952 116V0.0800781H232.296L283.704 82.7361V0.0800781H304.2V116H282.024L230.448 33.3441V116H209.952Z" fill="black"/>
<path d="M89.8184 88.6161V27.4641C89.8184 9.20808 98.9464 0.0800781 117.202 0.0800781H155.674C173.93 0.0800781 183.058 9.20808 183.058 27.4641V88.6161C183.058 106.872 173.93 116 155.674 116H117.202C98.9464 116 89.8184 106.872 89.8184 88.6161ZM110.314 90.1281C110.314 94.9441 112.778 97.3521 117.706 97.3521H155.17C160.098 97.3521 162.562 94.9441 162.562 90.1281V25.9521C162.562 21.1361 160.098 18.7281 155.17 18.7281H117.706C112.778 18.7281 110.314 21.1361 110.314 25.9521V90.1281Z" fill="black"/>
<path d="M0.279785 116V0.0800781H20.7758V97.3521H73.1918V116H0.279785Z" fill="black"/>
<path d="M873.42 684V568.08H951.372V586.728H893.916V614.616H946.332V633.264H893.916V665.352H951.372V684H873.42Z" fill="black"/>
<path d="M754.379 572.112L757.067 568.08H774.875L803.603 665.352H806.795L835.523 568.08H853.499L856.019 572.112L821.747 684H788.483L754.379 572.112Z" fill="black"/>
<path d="M716.413 684V568.08H736.909V684H716.413Z" fill="black"/>
<path d="M604.446 586.728V568.08H698.022V586.728H661.566V684H640.902V586.728H604.446Z" fill="black"/>
<path d="M502.215 679.968L537.999 568.08H569.919L605.535 679.968L603.015 684H585.711L577.815 658.464H529.935L521.871 684H504.903L502.215 679.968ZM535.647 639.816H572.271L555.471 586.728H552.279L535.647 639.816Z" fill="black"/>
<path d="M405.022 684V568.08H460.798C479.054 568.08 488.182 577.208 488.182 595.464V614.448C488.182 628.56 482.582 637.128 471.382 640.152L491.542 679.632L489.022 684H471.55L450.046 641.664H425.518V684H405.022ZM425.518 623.016H460.294C465.222 623.016 467.686 620.552 467.686 615.624V593.952C467.686 589.136 465.222 586.728 460.294 586.728H425.518V623.016Z" fill="black"/>
<path d="M304.452 684V568.08H382.404V586.728H324.948V614.616H377.364V633.264H324.948V665.352H382.404V684H304.452Z" fill="black"/>
<path d="M197.811 684V568.08H253.587C271.843 568.08 280.971 577.208 280.971 595.464V617.808C280.971 635.952 271.843 645.024 253.587 645.024H218.307V684H197.811ZM218.307 626.376H253.083C258.011 626.376 260.475 623.912 260.475 618.984V593.952C260.475 589.136 258.011 586.728 253.083 586.728H218.307V626.376Z" fill="black"/>
<path d="M49.3345 684V568.08H74.5345L109.31 642.336L144.086 568.08H169.286V684H148.622V603.024L118.046 668.208H100.406L69.8305 603.024V684H49.3345Z" fill="black"/>
<path d="M0.279785 684V568.08H20.7758V684H0.279785Z" fill="black"/>
<path d="M485.249 520V404.08H505.745V501.352H558.161V520H485.249Z" fill="black"/>
<path d="M364.403 515.968L400.187 404.08H432.107L467.723 515.968L465.203 520H447.899L440.003 494.464H392.123L384.059 520H367.091L364.403 515.968ZM397.835 475.816H434.459L417.659 422.728H414.467L397.835 475.816Z" fill="black"/>
<path d="M267.209 520V404.08H322.985C341.241 404.08 350.369 413.208 350.369 431.464V450.448C350.369 464.56 344.769 473.128 333.569 476.152L353.729 515.632L351.209 520H333.737L312.233 477.664H287.705V520H267.209ZM287.705 459.016H322.481C327.409 459.016 329.873 456.552 329.873 451.624V429.952C329.873 425.136 327.409 422.728 322.481 422.728H287.705V459.016Z" fill="black"/>
<path d="M147.076 492.616V431.464C147.076 413.208 156.204 404.08 174.46 404.08H212.932C231.188 404.08 240.316 413.208 240.316 431.464V492.616C240.316 510.872 231.188 520 212.932 520H174.46C156.204 520 147.076 510.872 147.076 492.616ZM167.572 494.128C167.572 498.944 170.036 501.352 174.964 501.352H212.428C217.356 501.352 219.82 498.944 219.82 494.128V429.952C219.82 425.136 217.356 422.728 212.428 422.728H174.964C170.036 422.728 167.572 425.136 167.572 429.952V494.128Z" fill="black"/>
<path d="M0.279785 520V404.08H25.4798L60.2558 478.336L95.0318 404.08H120.232V520H99.5678V439.024L68.9918 504.208H51.3518L20.7758 439.024V520H0.279785Z" fill="black"/>
<path d="M258.685 333.24L309.805 173.4H355.405L406.285 333.24L402.685 339H377.965L366.685 302.52H298.285L286.765 339H262.525L258.685 333.24ZM306.445 275.88H358.765L334.765 200.04H330.205L306.445 275.88Z" fill="#BB1212"/>
<path d="M69.2778 327.96V312.36H143.438C150.478 312.36 153.998 308.92 153.998 302.04V283.8C153.998 277.72 151.278 274.12 145.838 273L97.1178 263.16C78.5578 259.48 69.2778 247 69.2778 225.72V212.52C69.2778 186.44 82.3178 173.4 108.398 173.4H164.318L178.478 184.44V200.04H109.118C102.078 200.04 98.5578 203.48 98.5578 210.36V226.44C98.5578 232.52 101.278 236.12 106.718 237.24L155.438 246.84C173.998 250.68 183.278 263.16 183.278 284.28V299.88C183.278 325.96 170.238 339 144.158 339H83.4378L69.2778 327.96Z" fill="#BB1212"/>
<path d="M6.3999 339V173.4H35.6799V339H6.3999Z" fill="#BB1212"/>
</svg>
