<svg width="1334" height="678" viewBox="0 0 1334 678" fill="none" xmlns="http://www.w3.org/2000/svg">
<path d="M806.784 678V553.8H828.744V658.02H884.904V678H806.784Z" fill="black"/>
<path d="M699.03 678V553.8H782.55V573.78H720.99V603.66H777.15V623.64H720.99V658.02H782.55V678H699.03Z" fill="black"/>
<path d="M591.276 678V553.8H674.796V573.78H613.236V603.66H669.396V623.64H613.236V658.02H674.796V678H591.276Z" fill="black"/>
<path d="M464.362 678V553.8H486.322V603.66H538.702V553.8H560.662V678H538.702V623.64H486.322V678H464.362Z" fill="black"/>
<path d="M284.478 558.12L287.538 553.8H305.538L327.678 658.02H329.658L353.238 566.4H375.018L398.418 658.02H400.578L422.718 553.8H440.718L443.778 558.12L418.038 678H382.578L364.038 604.92L345.678 678H310.398L284.478 558.12Z" fill="black"/>
<path d="M174.221 558.12L176.921 553.8H195.641L224.981 610.14L254.501 553.8H273.401L275.921 558.12L236.141 633.36V678H214.001V633.36L174.221 558.12Z" fill="black"/>
<path d="M104.538 678V553.8H126.498V658.02H182.658V678H104.538Z" fill="black"/>
<path d="M0.299805 678V553.8H83.8198V573.78H22.2598V609.06H78.4198V629.04H22.2598V678H0.299805Z" fill="black"/>
<path d="M1233.5 409.78V389.8H1333.76V409.78H1294.7V514H1272.56V409.78H1233.5Z" fill="black"/>
<path d="M1112.82 514V389.8H1136.76L1191.84 478.36V389.8H1213.8V514H1190.04L1134.78 425.44V514H1112.82Z" fill="black"/>
<path d="M1005.07 514V389.8H1088.59V409.78H1027.03V439.66H1083.19V459.64H1027.03V494.02H1088.59V514H1005.07Z" fill="black"/>
<path d="M845.983 514V389.8H872.983L910.243 469.36L947.503 389.8H974.503V514H952.363V427.24L919.603 497.08H900.703L867.943 427.24V514H845.983Z" fill="black"/>
<path d="M726.019 409.78V389.8H826.279V409.78H787.219V514H765.079V409.78H726.019Z" fill="black"/>
<path d="M626.306 505.72V494.02H681.926C687.206 494.02 689.846 491.44 689.846 486.28V472.6C689.846 468.04 687.806 465.34 683.726 464.5L647.186 457.12C633.266 454.36 626.306 445 626.306 429.04V419.14C626.306 399.58 636.086 389.8 655.646 389.8H697.586L708.206 398.08V409.78H656.186C650.906 409.78 648.266 412.36 648.266 417.52V429.58C648.266 434.14 650.306 436.84 654.386 437.68L690.926 444.88C704.846 447.76 711.806 457.12 711.806 472.96V484.66C711.806 504.22 702.026 514 682.466 514H636.926L626.306 505.72Z" fill="black"/>
<path d="M523.952 514V389.8H607.472V409.78H545.912V439.66H602.072V459.64H545.912V494.02H607.472V514H523.952Z" fill="black"/>
<path d="M396.408 394.12L399.288 389.8H418.368L449.148 494.02H452.568L483.348 389.8H502.608L505.308 394.12L468.588 514H432.948L396.408 394.12Z" fill="black"/>
<path d="M276.628 514V389.8H300.568L355.648 478.36V389.8H377.608V514H353.848L298.588 425.44V514H276.628Z" fill="black"/>
<path d="M224.069 514V389.8H246.029V514H224.069Z" fill="black"/>
<path d="M116.315 514V389.8H199.835V409.78H138.275V439.66H194.435V459.64H138.275V494.02H199.835V514H116.315Z" fill="black"/>
<path d="M0.299805 514V389.8H60.0598C79.6198 389.8 89.3998 399.58 89.3998 419.14V439.48C89.3998 454.6 83.3998 463.78 71.3998 467.02L92.9998 509.32L90.2998 514H71.5798L48.5398 468.64H22.2598V514H0.299805ZM22.2598 448.66H59.5198C64.7998 448.66 67.4398 446.02 67.4398 440.74V417.52C67.4398 412.36 64.7998 409.78 59.5198 409.78H22.2598V448.66Z" fill="black"/>
<path d="M851.154 230.12L853.854 225.8H872.574L901.914 282.14L931.434 225.8H950.334L952.854 230.12L913.074 305.36V350H890.934V305.36L851.154 230.12Z" fill="black"/>
<path d="M743.07 245.78V225.8H843.33V245.78H804.27V350H782.13V245.78H743.07Z" fill="black"/>
<path d="M701.491 350V225.8H723.451V350H701.491Z" fill="black"/>
<path d="M573.947 230.12L576.827 225.8H595.907L626.687 330.02H630.107L660.887 225.8H680.147L682.847 230.12L646.127 350H610.487L573.947 230.12Z" fill="black"/>
<path d="M478.073 350V225.8H561.593V245.78H500.033V275.66H556.193V295.64H500.033V330.02H561.593V350H478.073Z" fill="black"/>
<path d="M354.809 320.66V255.14C354.809 235.58 364.589 225.8 384.149 225.8H436.889L447.509 234.08V245.78H384.689C379.409 245.78 376.769 248.36 376.769 253.52V322.28C376.769 327.44 379.409 330.02 384.689 330.02H429.149V295.64H402.869V275.66H451.109V350H384.149C364.589 350 354.809 340.22 354.809 320.66Z" fill="black"/>
<path d="M224.948 350V225.8H248.888L303.968 314.36V225.8H325.928V350H302.168L246.908 261.44V350H224.948Z" fill="black"/>
<path d="M96.2344 320.66V255.14C96.2344 235.58 106.014 225.8 125.574 225.8H166.794C186.354 225.8 196.134 235.58 196.134 255.14V320.66C196.134 340.22 186.354 350 166.794 350H125.574C106.014 350 96.2344 340.22 96.2344 320.66ZM118.194 322.28C118.194 327.44 120.834 330.02 126.114 330.02H166.254C171.534 330.02 174.174 327.44 174.174 322.28V253.52C174.174 248.36 171.534 245.78 166.254 245.78H126.114C120.834 245.78 118.194 248.36 118.194 253.52V322.28Z" fill="black"/>
<path d="M0.299805 350V225.8H22.2598V330.02H78.4198V350H0.299805Z" fill="black"/>
<path d="M935.578 126.88V39.5199C935.578 13.4399 948.618 0.399902 974.698 0.399902H1045.02L1059.18 11.4399V27.0399H975.418C968.378 27.0399 964.858 30.4799 964.858 37.3599V129.04C964.858 135.92 968.378 139.36 975.418 139.36H1034.7V93.5199H999.658V66.8799H1063.98V166H974.698C948.618 166 935.578 152.96 935.578 126.88Z" fill="#BB1212"/>
<path d="M762.431 166V0.399902H794.351L867.791 118.48V0.399902H897.071V166H865.391L791.711 47.9199V166H762.431Z" fill="#BB1212"/>
<path d="M692.353 166V0.399902H721.633V166H692.353Z" fill="#BB1212"/>
<path d="M528.056 166V0.399902H591.656C634.856 0.399902 656.456 22.0799 656.456 65.4399V100.96C656.456 144.32 634.856 166 591.656 166H528.056ZM557.336 139.36H593.336C615.896 139.36 627.176 128.08 627.176 105.52V60.8799C627.176 38.3199 615.896 27.0399 593.336 27.0399H557.336V139.36Z" fill="#BB1212"/>
<path d="M397.744 166V0.399902H427.024V139.36H501.904V166H397.744Z" fill="#BB1212"/>
<path d="M327.666 166V0.399902H356.946V166H327.666Z" fill="#BB1212"/>
<path d="M159.819 126.88V0.399902H189.099V129.04C189.099 135.92 192.619 139.36 199.659 139.36H248.379C255.419 139.36 258.939 135.92 258.939 129.04V0.399902H288.219V126.88C288.219 152.96 275.179 166 249.099 166H198.939C172.859 166 159.819 152.96 159.819 126.88Z" fill="#BB1212"/>
<path d="M5.3999 166V0.399902H82.6799C108.76 0.399902 121.8 13.4399 121.8 39.5199V54.6399C121.8 60.0799 120.2 64.7199 117 68.5599L108.6 78.6399L118.68 87.0399C123.96 91.3599 126.6 97.7599 126.6 106.24V126.88C126.6 152.96 113.56 166 87.4799 166H5.3999ZM34.6799 139.36H86.7599C93.7999 139.36 97.3199 135.92 97.3199 129.04V103.84C97.3199 96.9599 93.7999 93.5199 86.7599 93.5199H34.6799V139.36ZM34.6799 66.8799H81.9599C88.9999 66.8799 92.5199 63.3599 92.5199 56.3199V37.3599C92.5199 30.4799 88.9999 27.0399 81.9599 27.0399H34.6799V66.8799Z" fill="#BB1212"/>
</svg>
