<svg width="1620" height="686" viewBox="0 0 1620 686" fill="none" xmlns="http://www.w3.org/2000/svg">
<path d="M1530 116V0.0800781H1550.49V46.6161H1599.38V0.0800781H1619.88V116H1599.38V65.2641H1550.49V116H1530Z" fill="black"/>
<path d="M1424.3 88.6161V27.4641C1424.3 9.20808 1433.43 0.0800781 1451.69 0.0800781H1497.38L1507.3 7.80808V18.7281H1452.19C1447.26 18.7281 1444.8 21.1361 1444.8 25.9521V90.1281C1444.8 94.9441 1447.26 97.3521 1452.19 97.3521H1507.3V108.272L1497.38 116H1451.69C1433.43 116 1424.3 106.872 1424.3 88.6161Z" fill="black"/>
<path d="M1325.41 116V0.0800781H1403.37V18.7281H1345.91V46.6161H1398.33V65.2641H1345.91V97.3521H1403.37V116H1325.41Z" fill="black"/>
<path d="M1213.45 18.7281V0.0800781H1307.02V18.7281H1270.57V116H1249.9V18.7281H1213.45Z" fill="black"/>
<path d="M1103.56 88.6161V27.4641C1103.56 9.20808 1112.69 0.0800781 1130.95 0.0800781H1169.42C1187.67 0.0800781 1196.8 9.20808 1196.8 27.4641V88.6161C1196.8 106.872 1187.67 116 1169.42 116H1130.95C1112.69 116 1103.56 106.872 1103.56 88.6161ZM1124.06 90.1281C1124.06 94.9441 1126.52 97.3521 1131.45 97.3521H1168.91C1173.84 97.3521 1176.31 94.9441 1176.31 90.1281V25.9521C1176.31 21.1361 1173.84 18.7281 1168.91 18.7281H1131.45C1126.52 18.7281 1124.06 21.1361 1124.06 25.9521V90.1281Z" fill="black"/>
<path d="M1056.19 116V0.0800781H1076.68V116H1056.19Z" fill="black"/>
<path d="M947.085 116V0.0800781H1001.18C1019.44 0.0800781 1028.56 9.20808 1028.56 27.4641V38.0481C1028.56 41.8561 1027.44 45.1041 1025.2 47.7921L1019.32 54.8481L1026.38 60.7281C1030.08 63.7521 1031.92 68.2321 1031.92 74.1681V88.6161C1031.92 106.872 1022.8 116 1004.54 116H947.085ZM967.581 97.3521H1004.04C1008.96 97.3521 1011.43 94.9441 1011.43 90.1281V72.4881C1011.43 67.6721 1008.96 65.2641 1004.04 65.2641H967.581V97.3521ZM967.581 46.6161H1000.68C1005.6 46.6161 1008.07 44.1521 1008.07 39.2241V25.9521C1008.07 21.1361 1005.6 18.7281 1000.68 18.7281H967.581V46.6161Z" fill="black"/>
<path d="M794.411 4.11209L796.931 0.0800781H814.403L841.787 52.6641L869.339 0.0800781H886.979L889.331 4.11209L852.203 74.3361V116H831.539V74.3361L794.411 4.11209Z" fill="black"/>
<path d="M693.532 18.7281V0.0800781H787.108V18.7281H750.652V116H729.988V18.7281H693.532Z" fill="black"/>
<path d="M654.725 116V0.0800781H675.221V116H654.725Z" fill="black"/>
<path d="M535.684 4.11209L538.372 0.0800781H556.18L584.908 97.3521H588.1L616.828 0.0800781H634.804L637.324 4.11209L603.052 116H569.788L535.684 4.11209Z" fill="black"/>
<path d="M446.202 116V0.0800781H524.154V18.7281H466.698V46.6161H519.114V65.2641H466.698V97.3521H524.154V116H446.202Z" fill="black"/>
<path d="M331.155 88.6161V27.4641C331.155 9.20808 340.283 0.0800781 358.539 0.0800781H407.763L417.675 7.80808V18.7281H359.043C354.115 18.7281 351.651 21.1361 351.651 25.9521V90.1281C351.651 94.9441 354.115 97.3521 359.043 97.3521H400.539V65.2641H376.011V46.6161H421.035V116H358.539C340.283 116 331.155 106.872 331.155 88.6161Z" fill="black"/>
<path d="M209.952 116V0.0800781H232.296L283.704 82.7361V0.0800781H304.2V116H282.024L230.448 33.3441V116H209.952Z" fill="black"/>
<path d="M89.8188 88.6161V27.4641C89.8188 9.20808 98.9468 0.0800781 117.203 0.0800781H155.675C173.931 0.0800781 183.059 9.20808 183.059 27.4641V88.6161C183.059 106.872 173.931 116 155.675 116H117.203C98.9468 116 89.8188 106.872 89.8188 88.6161ZM110.315 90.1281C110.315 94.9441 112.779 97.3521 117.707 97.3521H155.171C160.099 97.3521 162.563 94.9441 162.563 90.1281V25.9521C162.563 21.1361 160.099 18.7281 155.171 18.7281H117.707C112.779 18.7281 110.315 21.1361 110.315 25.9521V90.1281Z" fill="black"/>
<path d="M0.280029 116V0.0800781H20.776V97.3521H73.192V116H0.280029Z" fill="black"/>
<path d="M1042.45 686V548H1135.25V570.2H1066.85V603.4H1129.25V625.6H1066.85V663.8H1135.25V686H1042.45Z" fill="#BB1212"/>
<path d="M900.738 552.8L903.938 548H925.138L959.338 663.8H963.138L997.338 548H1018.74L1021.74 552.8L980.938 686H941.338L900.738 552.8Z" fill="#BB1212"/>
<path d="M855.539 686V548H879.939V686H855.539Z" fill="#BB1212"/>
<path d="M722.245 570.2V548H833.645V570.2H790.245V686H765.645V570.2H722.245Z" fill="#BB1212"/>
<path d="M600.542 681.2L643.142 548H681.142L723.542 681.2L720.542 686H699.942L690.542 655.6H633.542L623.942 686H603.742L600.542 681.2ZM640.342 633.4H683.942L663.942 570.2H660.142L640.342 633.4Z" fill="#BB1212"/>
<path d="M484.836 686V548H551.236C572.969 548 583.836 558.867 583.836 580.6V603.2C583.836 620 577.169 630.2 563.836 633.8L587.836 680.8L584.836 686H564.036L538.436 635.6H509.236V686H484.836ZM509.236 613.4H550.636C556.503 613.4 559.436 610.467 559.436 604.6V578.8C559.436 573.067 556.503 570.2 550.636 570.2H509.236V613.4Z" fill="#BB1212"/>
<path d="M365.109 686V548H457.909V570.2H389.509V603.4H451.909V625.6H389.509V663.8H457.909V686H365.109Z" fill="#BB1212"/>
<path d="M238.156 686V548H304.556C326.29 548 337.156 558.867 337.156 580.6V607.2C337.156 628.8 326.29 639.6 304.556 639.6H262.556V686H238.156ZM262.556 617.4H303.956C309.823 617.4 312.756 614.467 312.756 608.6V578.8C312.756 573.067 309.823 570.2 303.956 570.2H262.556V617.4Z" fill="#BB1212"/>
<path d="M61.3984 686V548H91.3984L132.798 636.4L174.198 548H204.198V686H179.598V589.6L143.198 667.2H122.198L85.7984 589.6V686H61.3984Z" fill="#BB1212"/>
<path d="M3 686V548H27.4V686H3Z" fill="#BB1212"/>
<path d="M580.344 506V368H604.744V483.8H667.144V506H580.344Z" fill="#BB1212"/>
<path d="M436.48 501.2L479.08 368H517.08L559.48 501.2L556.48 506H535.88L526.48 475.6H469.48L459.88 506H439.68L436.48 501.2ZM476.28 453.4H519.88L499.88 390.2H496.08L476.28 453.4Z" fill="#BB1212"/>
<path d="M320.773 506V368H387.173C408.907 368 419.773 378.867 419.773 400.6V423.2C419.773 440 413.107 450.2 399.773 453.8L423.773 500.8L420.773 506H399.973L374.373 455.6H345.173V506H320.773ZM345.173 433.4H386.573C392.44 433.4 395.373 430.467 395.373 424.6V398.8C395.373 393.067 392.44 390.2 386.573 390.2H345.173V433.4Z" fill="#BB1212"/>
<path d="M177.758 473.4V400.6C177.758 378.867 188.624 368 210.358 368H256.158C277.891 368 288.758 378.867 288.758 400.6V473.4C288.758 495.133 277.891 506 256.158 506H210.358C188.624 506 177.758 495.133 177.758 473.4ZM202.158 475.2C202.158 480.933 205.091 483.8 210.958 483.8H255.558C261.424 483.8 264.358 480.933 264.358 475.2V398.8C264.358 393.067 261.424 390.2 255.558 390.2H210.958C205.091 390.2 202.158 393.067 202.158 398.8V475.2Z" fill="#BB1212"/>
<path d="M3 506V368H33L74.4 456.4L115.8 368H145.8V506H121.2V409.6L84.8 487.2H63.8L27.4 409.6V506H3Z" fill="#BB1212"/>
<path d="M176.88 295.968L212.664 184.08H244.584L280.2 295.968L277.68 300H260.376L252.48 274.464H204.6L196.536 300H179.568L176.88 295.968ZM210.312 255.816H246.936L230.136 202.728H226.944L210.312 255.816Z" fill="black"/>
<path d="M44.2947 292.272V281.352H96.2067C101.135 281.352 103.599 278.944 103.599 274.128V261.36C103.599 257.104 101.695 254.584 97.8867 253.8L63.7827 246.912C50.7907 244.336 44.2947 235.6 44.2947 220.704V211.464C44.2947 193.208 53.4227 184.08 71.6787 184.08H110.823L120.735 191.808V202.728H72.1827C67.2547 202.728 64.7907 205.136 64.7907 209.952V221.208C64.7907 225.464 66.6947 227.984 70.5027 228.768L104.607 235.488C117.599 238.176 124.095 246.912 124.095 261.696V272.616C124.095 290.872 114.967 300 96.7107 300H54.2067L44.2947 292.272Z" fill="black"/>
<path d="M0.280029 300V184.08H20.776V300H0.280029Z" fill="black"/>
</svg>
