<svg width="1387" height="350" viewBox="0 0 1387 350" fill="none" xmlns="http://www.w3.org/2000/svg">
<path d="M1122.07 27.0399V0.399902H1255.75V27.0399H1203.67V166H1174.15V27.0399H1122.07Z" fill="#BB1212"/>
<path d="M985.719 126.88V39.5199C985.719 13.4399 998.759 0.399902 1024.84 0.399902H1090.12L1104.28 11.4399V27.0399H1025.56C1018.52 27.0399 1015 30.4799 1015 37.3599V129.04C1015 135.92 1018.52 139.36 1025.56 139.36H1104.28V154.96L1090.12 166H1024.84C998.759 166 985.719 152.96 985.719 126.88Z" fill="#BB1212"/>
<path d="M815.481 160.24L866.601 0.399902H912.201L963.081 160.24L959.481 166H934.761L923.481 129.52H855.081L843.561 166H819.321L815.481 160.24ZM863.241 102.88H915.561L891.561 27.0399H887.001L863.241 102.88Z" fill="#BB1212"/>
<path d="M688.587 166V0.399902H768.267C794.347 0.399902 807.387 13.4399 807.387 39.5199V71.4399C807.387 97.3599 794.347 110.32 768.267 110.32H717.867V166H688.587ZM717.867 83.6799H767.547C774.587 83.6799 778.107 80.1599 778.107 73.1199V37.3599C778.107 30.4799 774.587 27.0399 767.547 27.0399H717.867V83.6799Z" fill="#BB1212"/>
<path d="M476.478 166V0.399902H512.478L562.158 106.48L611.838 0.399902H647.838V166H618.318V50.3199L574.638 143.44H549.438L505.758 50.3199V166H476.478Z" fill="#BB1212"/>
<path d="M406.399 166V0.399902H435.679V166H406.399Z" fill="#BB1212"/>
<path d="M173.196 166V0.399902H205.116L278.556 118.48V0.399902H307.836V166H276.156L202.476 47.9199V166H173.196Z" fill="#BB1212"/>
<path d="M0.55957 160.24L51.6796 0.399902H97.2796L148.16 160.24L144.56 166H119.84L108.56 129.52H40.1596L28.6396 166H4.39957L0.55957 160.24ZM48.3196 102.88H100.64L76.6396 27.0399H72.0796L48.3196 102.88Z" fill="#BB1212"/>
<path d="M1290.11 350V225.8H1337.81C1370.21 225.8 1386.41 242.06 1386.41 274.58V301.22C1386.41 333.74 1370.21 350 1337.81 350H1290.11ZM1312.07 330.02H1339.07C1355.99 330.02 1364.45 321.56 1364.45 304.64V271.16C1364.45 254.24 1355.99 245.78 1339.07 245.78H1312.07V330.02Z" fill="black"/>
<path d="M1158.45 350V225.8H1182.39L1237.47 314.36V225.8H1259.43V350H1235.67L1180.41 261.44V350H1158.45Z" fill="black"/>
<path d="M1032.56 320.66V225.8H1054.52V322.28C1054.52 327.44 1057.16 330.02 1062.44 330.02H1098.98C1104.26 330.02 1106.9 327.44 1106.9 322.28V225.8H1128.86V320.66C1128.86 340.22 1119.08 350 1099.52 350H1061.9C1042.34 350 1032.56 340.22 1032.56 320.66Z" fill="black"/>
<path d="M929.405 350V225.8H1012.93V245.78H951.365V281.06H1007.53V301.04H951.365V350H929.405Z" fill="black"/>
<path d="M762.94 350V225.8H810.64C843.04 225.8 859.24 242.06 859.24 274.58V301.22C859.24 333.74 843.04 350 810.64 350H762.94ZM784.9 330.02H811.9C828.82 330.02 837.28 321.56 837.28 304.64V271.16C837.28 254.24 828.82 245.78 811.9 245.78H784.9V330.02Z" fill="black"/>
<path d="M655.187 350V225.8H738.707V245.78H677.147V275.66H733.307V295.64H677.147V330.02H738.707V350H655.187Z" fill="black"/>
<path d="M535.223 245.78V225.8H635.483V245.78H596.423V350H574.283V245.78H535.223Z" fill="black"/>
<path d="M414.542 350V225.8H438.482L493.562 314.36V225.8H515.522V350H491.762L436.502 261.44V350H414.542Z" fill="black"/>
<path d="M306.788 350V225.8H390.308V245.78H328.748V275.66H384.908V295.64H328.748V330.02H390.308V350H306.788Z" fill="black"/>
<path d="M254.229 350V225.8H276.19V350H254.229Z" fill="black"/>
<path d="M138.214 350V225.8H197.974C217.534 225.8 227.314 235.58 227.314 255.14V275.48C227.314 290.6 221.314 299.78 209.314 303.02L230.914 345.32L228.214 350H209.494L186.454 304.64H160.174V350H138.214ZM160.174 284.66H197.434C202.714 284.66 205.354 282.02 205.354 276.74V253.52C205.354 248.36 202.714 245.78 197.434 245.78H160.174V284.66Z" fill="black"/>
<path d="M9.5 320.66V255.14C9.5 235.58 19.28 225.8 38.84 225.8H80.06C99.62 225.8 109.4 235.58 109.4 255.14V320.66C109.4 340.22 99.62 350 80.06 350H38.84C19.28 350 9.5 340.22 9.5 320.66ZM31.46 322.28C31.46 327.44 34.1 330.02 39.38 330.02H79.52C84.8 330.02 87.44 327.44 87.44 322.28V253.52C87.44 248.36 84.8 245.78 79.52 245.78H39.38C34.1 245.78 31.46 248.36 31.46 253.52V322.28Z" fill="black"/>
</svg>
