<svg xmlns="http://www.w3.org/2000/svg" width="1788" height="582" fill="none" viewBox="0 0 1788 582"><path fill="#000" d="M15.3 134V9.8H63q48.6 0 48.6 48.78v26.64Q111.6 134 63 134zm21.96-19.98h27q25.38 0 25.38-25.38V55.16q0-25.38-25.38-25.38h-27zM138.523 134V9.8h21.96V134zm47.158-8.28v-11.7h55.62q7.92 0 7.92-7.74V92.6q0-6.84-6.12-8.1l-36.54-7.38q-20.88-4.14-20.88-28.08v-9.9q0-29.34 29.34-29.34h41.94l10.62 8.28v11.7h-52.02q-7.92 0-7.92 7.74v12.06q0 6.84 6.12 8.1l36.54 7.2q20.88 4.32 20.88 28.08v11.7q0 29.34-29.34 29.34h-45.54zm108.893-21.06V39.14q0-29.34 29.34-29.34h48.96l10.62 8.28v11.7h-59.04q-7.92 0-7.92 7.74v68.76q0 7.74 7.92 7.74h59.04v11.7l-10.62 8.28h-48.96q-29.34 0-29.34-29.34m111.446 0V39.14q0-29.34 29.34-29.34h41.22q29.34 0 29.34 29.34v65.52q0 29.34-29.34 29.34h-41.22q-29.34 0-29.34-29.34m21.96 1.62q0 7.74 7.92 7.74h40.14q7.92 0 7.92-7.74V37.52q0-7.74-7.92-7.74H435.9q-7.92 0-7.92 7.74zm94.874-92.16 2.88-4.32h19.08l30.78 104.22h3.42L609.794 9.8h19.26l2.7 4.32L595.034 134h-35.64zM650.398 134V9.8h83.52v19.98h-61.56v29.88h56.16v19.98h-56.16v34.38h61.56V134zm107.754 0V9.8h59.76q29.34 0 29.34 29.34v20.34q0 22.68-18 27.54l21.6 42.3-2.7 4.68h-18.72l-23.04-45.36h-26.28V134zm21.96-65.34h37.26q7.92 0 7.92-7.92V37.52q0-7.74-7.92-7.74h-37.26zM874.167 134V9.8h21.96V134zm52.559 0V9.8h23.94l55.084 88.56V9.8h21.96V134h-23.76l-55.264-88.56V134zm129.864-29.34V39.14q0-29.34 29.34-29.34h52.74l10.62 8.28v11.7h-62.82q-7.92 0-7.92 7.74v68.76q0 7.74 7.92 7.74h44.46V79.64h-26.28V59.66h48.24V134h-66.96q-29.34 0-29.34-29.34"/><path fill="#bb1212" d="M119.52 183h110.64v24.96H119.52zm44.4 17.28 25.2 5.76c-5.28 13.2-10.56 26.64-15.12 35.76l-22.32-5.76c4.32-9.84 9.6-25.2 12.24-35.76M124.8 228.6h100.08v112.08h-26.64v-91.2h-48v92.16H124.8zm38.16 29.04h23.52c-.72 84.72-4.56 121.2-65.52 140.64-2.16-5.76-8.88-15.36-13.68-19.92 54.24-16.08 55.2-43.44 55.68-120.72m8.88 98.4 17.28-15.12c14.4 11.52 34.32 28.08 43.68 38.88l-18.48 17.04c-8.88-10.8-28.08-28.32-42.48-40.8M61.44 170.52l24.48 7.44C72.24 213 50.16 246.12 23.76 269.4c-4.08-5.28-13.44-14.64-19.2-18.96C29.04 231 50.4 199.08 61.44 170.52M24.96 341.4l19.2-14.64c16.8 15.36 39.36 36.96 49.92 51.36l-20.64 16.8c-9.84-14.4-31.44-37.2-48.48-53.52m-.48-64.32h72.24v24.72H24.48zm22.08-30.72 17.76-11.04c9.36 8.4 19.92 19.68 25.44 26.88l-18.24 13.2c-5.52-7.68-16.32-20.16-24.96-29.04m41.28 30.72h3.84l4.32-1.44 18.48 11.28c-10.8 27.36-30.48 58.8-44.64 79.44-4.8-4.08-14.4-10.56-20.4-13.68 12.72-17.04 30.96-48.96 38.4-69.84zm-30-72.24 16.32-17.04c16.8 16.08 39.36 38.88 49.68 53.28L106.08 261c-9.6-15.36-31.44-39.12-48.24-56.16m198-25.2h208.08v55.68h-29.04V204.6h-151.2v30.72h-27.84zm27.12 53.52h153.36v24.48H282.96zm-24.72 102.72h204.48v26.4H258.24zm96.24-69.36h28.8v129.84h-28.8zM291.6 316.2c-1.44-5.52-6.24-19.44-9.6-26.88 5.28-1.44 9.6-6.72 14.64-14.88s20.64-39.84 28.8-69.6l29.52 8.88c-11.76 31.68-29.76 64.8-46.08 87.36v.72s-17.28 9.36-17.28 14.4m0 0v-20.64l14.4-8.16h137.76l-.24 25.2H317.28c-12.48 0-23.52 1.44-25.68 3.6"/><path fill="#000" d="M29.725 546V435.6h19.52V546zm46.719 0V435.6h21.28l48.96 78.72V435.6h19.52V546h-21.12l-49.12-78.72V546zm155.469 0V435.6h19.52v92.64h49.92V546zm85.275-26.08v-58.24q0-26.08 26.08-26.08h36.64q26.08 0 26.08 26.08v58.24q0 26.08-26.08 26.08h-36.64q-26.08 0-26.08-26.08m19.52 1.44q0 6.88 7.04 6.88h35.68q7.04 0 7.04-6.88v-61.12q0-6.88-7.04-6.88h-35.68q-7.04 0-7.04 6.88zM431.6 546V435.6h21.28l48.96 78.72V435.6h19.52V546h-21.12l-49.12-78.72V546zm115.431-26.08v-58.24q0-26.08 26.08-26.08h46.88l9.44 7.36v10.4h-55.84q-7.04 0-7.04 6.88v61.12q0 6.88 7.04 6.88h39.52v-30.56h-23.36v-17.76h42.88V546h-59.52q-26.08 0-26.08-26.08M656.6 546V435.6h74.24v17.76h-54.72v26.56h49.92v17.76h-49.92v30.56h54.72V546zm85.221-106.56 2.56-3.84h16.96l27.36 92.64h3.04l27.36-92.64h17.12l2.4 3.84L805.981 546h-31.68zM855.194 546V435.6h19.52V546zm36.959-92.64V435.6h89.12v17.76h-34.72V546h-19.68v-92.64zm96.075-13.92 2.4-3.84h16.642l26.08 50.08 26.24-50.08h16.8l2.24 3.84-35.36 66.88V546h-19.68v-39.68zM1133.63 546V435.6h51.52c17.39 0 26.08 8.693 26.08 26.08v10.08c0 3.627-1.07 6.72-3.2 9.28l-5.6 6.72 6.72 5.6q5.28 4.32 5.28 12.8v13.76c0 17.387-8.69 26.08-26.08 26.08zm19.52-17.76h34.72c4.69 0 7.04-2.293 7.04-6.88v-16.8c0-4.587-2.35-6.88-7.04-6.88h-34.72zm0-48.32h31.52c4.69 0 7.04-2.347 7.04-7.04v-12.64c0-4.587-2.35-6.88-7.04-6.88h-31.52zm84.39 66.08V435.6h19.52V546zm45.12-26.08v-58.24c0-17.387 8.69-26.08 26.08-26.08h36.64c17.38 0 26.08 8.693 26.08 26.08v58.24c0 17.387-8.7 26.08-26.08 26.08h-36.64c-17.39 0-26.08-8.693-26.08-26.08m19.52 1.44c0 4.587 2.34 6.88 7.04 6.88h35.68c4.69 0 7.04-2.293 7.04-6.88v-61.12c0-4.587-2.35-6.88-7.04-6.88h-35.68c-4.7 0-7.04 2.293-7.04 6.88zm85.13-68V435.6h89.12v17.76h-34.72V546h-19.68v-92.64zM1493.94 546V435.6h74.24v17.76h-54.72v26.56h49.92v17.76h-49.92v30.56h54.72V546zm94.19-26.08v-58.24c0-17.387 8.69-26.08 26.08-26.08h43.52l9.44 7.36v10.4h-52.48c-4.7 0-7.04 2.293-7.04 6.88v61.12c0 4.587 2.34 6.88 7.04 6.88h52.48v10.4l-9.44 7.36h-43.52c-17.39 0-26.08-8.693-26.08-26.08M1688.79 546V435.6h19.52v44.32h46.56V435.6h19.52V546h-19.52v-48.32h-46.56V546z"/></svg>