<svg width="1759" height="325" viewBox="0 0 1759 325" fill="none" xmlns="http://www.w3.org/2000/svg">
<path d="M1651.54 132V0.899902H1676.81L1734.95 94.3799V0.899902H1758.13V132H1733.05L1674.72 38.5199V132H1651.54Z" fill="#BB1212"/>
<path d="M1537.8 132V0.899902H1625.96V21.9899H1560.98V53.5299H1620.26V74.6199H1560.98V110.91H1625.96V132H1537.8Z" fill="#BB1212"/>
<path d="M1403.17 5.45991L1406.21 0.899902H1426.35L1458.84 110.91H1462.45L1494.94 0.899902H1515.27L1518.12 5.45991L1479.36 132H1441.74L1403.17 5.45991Z" fill="#BB1212"/>
<path d="M1360.23 132V0.899902H1383.41V132H1360.23Z" fill="#BB1212"/>
<path d="M1237.77 132V0.899902H1300.85C1321.49 0.899902 1331.82 11.2232 1331.82 31.8699V53.3399C1331.82 69.2999 1325.48 78.9899 1312.82 82.4099L1335.62 127.06L1332.77 132H1313.01L1288.69 84.1199H1260.95V132H1237.77ZM1260.95 63.0299H1300.28C1305.85 63.0299 1308.64 60.2432 1308.64 54.6699V30.1599C1308.64 24.7132 1305.85 21.9899 1300.28 21.9899H1260.95V63.0299Z" fill="#BB1212"/>
<path d="M1107.7 132V0.899902H1158.05C1192.25 0.899902 1209.35 18.0632 1209.35 52.3899V80.5099C1209.35 114.837 1192.25 132 1158.05 132H1107.7ZM1130.88 110.91H1159.38C1177.24 110.91 1186.17 101.98 1186.17 84.1199V48.7799C1186.17 30.9199 1177.24 21.9899 1159.38 21.9899H1130.88V110.91Z" fill="#BB1212"/>
<path d="M1028.27 83.7399V64.3599H1083.94V83.7399H1028.27Z" fill="#BB1212"/>
<path d="M923.081 132V0.899902H1011.24V21.9899H946.261V53.5299H1005.54V74.6199H946.261V110.91H1011.24V132H923.081Z" fill="#BB1212"/>
<path d="M806.238 123.26V110.91H864.948C870.521 110.91 873.308 108.187 873.308 102.74V88.2999C873.308 83.4866 871.155 80.6366 866.848 79.7499L828.278 71.9599C813.585 69.0466 806.238 59.1666 806.238 42.3199V31.8699C806.238 11.2232 816.561 0.899902 837.208 0.899902H881.478L892.688 9.6399V21.9899H837.778C832.205 21.9899 829.418 24.7132 829.418 30.1599V42.8899C829.418 47.7032 831.571 50.5532 835.878 51.4399L874.448 59.0399C889.141 62.0799 896.488 71.9599 896.488 88.6799V101.03C896.488 121.677 886.165 132 865.518 132H817.448L806.238 123.26Z" fill="#BB1212"/>
<path d="M676.073 101.03V31.8699C676.073 11.2232 686.397 0.899902 707.043 0.899902H750.553C771.2 0.899902 781.523 11.2232 781.523 31.8699V101.03C781.523 121.677 771.2 132 750.553 132H707.043C686.397 132 676.073 121.677 676.073 101.03ZM699.253 102.74C699.253 108.187 702.04 110.91 707.613 110.91H749.983C755.557 110.91 758.343 108.187 758.343 102.74V30.1599C758.343 24.7132 755.557 21.9899 749.983 21.9899H707.613C702.04 21.9899 699.253 24.7132 699.253 30.1599V102.74Z" fill="#BB1212"/>
<path d="M557.368 132V0.899902H620.448C641.094 0.899902 651.418 11.2232 651.418 31.8699V57.1399C651.418 77.6599 641.094 87.9199 620.448 87.9199H580.548V132H557.368ZM580.548 66.8299H619.878C625.451 66.8299 628.238 64.0432 628.238 58.4699V30.1599C628.238 24.7132 625.451 21.9899 619.878 21.9899H580.548V66.8299Z" fill="#BB1212"/>
<path d="M434.907 132V0.899902H497.987C518.633 0.899902 528.957 11.2232 528.957 31.8699V53.3399C528.957 69.2999 522.623 78.9899 509.957 82.4099L532.757 127.06L529.907 132H510.147L485.827 84.1199H458.087V132H434.907ZM458.087 63.0299H497.417C502.99 63.0299 505.777 60.2432 505.777 54.6699V30.1599C505.777 24.7132 502.99 21.9899 497.417 21.9899H458.087V63.0299Z" fill="#BB1212"/>
<path d="M302.029 101.03V0.899902H325.209V102.74C325.209 108.187 327.995 110.91 333.569 110.91H372.139C377.712 110.91 380.499 108.187 380.499 102.74V0.899902H403.679V101.03C403.679 121.677 393.355 132 372.709 132H332.999C312.352 132 302.029 121.677 302.029 101.03Z" fill="#BB1212"/>
<path d="M182.563 132V0.899902H245.643C266.29 0.899902 276.613 11.2232 276.613 31.8699V57.1399C276.613 77.6599 266.29 87.9199 245.643 87.9199H205.743V132H182.563ZM205.743 66.8299H245.073C250.646 66.8299 253.433 64.0432 253.433 58.4699V30.1599C253.433 24.7132 250.646 21.9899 245.073 21.9899H205.743V66.8299Z" fill="#BB1212"/>
<path d="M0.247681 127.44L40.7177 0.899902H76.8177L117.098 127.44L114.248 132H94.6777L85.7477 103.12H31.5977L22.4777 132H3.28768L0.247681 127.44ZM38.0577 82.0299H79.4777L60.4777 21.9899H56.8677L38.0577 82.0299Z" fill="#BB1212"/>
<path d="M1526.26 325V200.8H1573.96C1606.36 200.8 1622.56 217.06 1622.56 249.58V276.22C1622.56 308.74 1606.36 325 1573.96 325H1526.26ZM1548.22 305.02H1575.22C1592.14 305.02 1600.6 296.56 1600.6 279.64V246.16C1600.6 229.24 1592.14 220.78 1575.22 220.78H1548.22V305.02Z" fill="black"/>
<path d="M1394.6 325V200.8H1418.54L1473.62 289.36V200.8H1495.58V325H1471.82L1416.56 236.44V325H1394.6Z" fill="black"/>
<path d="M1268.71 295.66V200.8H1290.67V297.28C1290.67 302.44 1293.31 305.02 1298.59 305.02H1335.13C1340.41 305.02 1343.05 302.44 1343.05 297.28V200.8H1365.01V295.66C1365.01 315.22 1355.23 325 1335.67 325H1298.05C1278.49 325 1268.71 315.22 1268.71 295.66Z" fill="black"/>
<path d="M1165.55 325V200.8H1249.07V220.78H1187.51V256.06H1243.67V276.04H1187.51V325H1165.55Z" fill="black"/>
<path d="M1001.97 205.12L1004.67 200.8H1023.39L1052.73 257.14L1082.25 200.8H1101.15L1103.67 205.12L1063.89 280.36V325H1041.75V280.36L1001.97 205.12Z" fill="black"/>
<path d="M893.89 220.78V200.8H994.15V220.78H955.09V325H932.95V220.78H893.89Z" fill="black"/>
<path d="M852.312 325V200.8H874.272V325H852.312Z" fill="black"/>
<path d="M724.768 205.12L727.648 200.8H746.728L777.508 305.02H780.928L811.708 200.8H830.968L833.668 205.12L796.948 325H761.308L724.768 205.12Z" fill="black"/>
<path d="M628.894 325V200.8H712.414V220.78H650.854V250.66H707.014V270.64H650.854V305.02H712.414V325H628.894Z" fill="black"/>
<path d="M505.629 295.66V230.14C505.629 210.58 515.409 200.8 534.969 200.8H587.709L598.329 209.08V220.78H535.509C530.229 220.78 527.589 223.36 527.589 228.52V297.28C527.589 302.44 530.229 305.02 535.509 305.02H579.969V270.64H553.689V250.66H601.929V325H534.969C515.409 325 505.629 315.22 505.629 295.66Z" fill="black"/>
<path d="M375.769 325V200.8H399.709L454.789 289.36V200.8H476.749V325H452.989L397.729 236.44V325H375.769Z" fill="black"/>
<path d="M247.055 295.66V230.14C247.055 210.58 256.835 200.8 276.395 200.8H317.615C337.175 200.8 346.955 210.58 346.955 230.14V295.66C346.955 315.22 337.175 325 317.615 325H276.395C256.835 325 247.055 315.22 247.055 295.66ZM269.015 297.28C269.015 302.44 271.655 305.02 276.935 305.02H317.075C322.355 305.02 324.995 302.44 324.995 297.28V228.52C324.995 223.36 322.355 220.78 317.075 220.78H276.935C271.655 220.78 269.015 223.36 269.015 228.52V297.28Z" fill="black"/>
<path d="M151.12 325V200.8H173.08V305.02H229.24V325H151.12Z" fill="black"/>
</svg>
