<svg xmlns="http://www.w3.org/2000/svg" width="1840" height="368" fill="none" viewBox="0 0 1840 368"><path fill="#000" d="M15.3 338V213.8h21.96v104.22h56.16V338zm95.934-29.34v-65.52q0-29.34 29.34-29.34h41.22q29.34 0 29.34 29.34v65.52q0 29.34-29.34 29.34h-41.22q-29.34 0-29.34-29.34m21.96 1.62q0 7.74 7.92 7.74h40.14q7.92 0 7.92-7.74v-68.76q0-7.74-7.92-7.74h-40.14q-7.92 0-7.92 7.74zM239.948 338V213.8h23.94l55.08 88.56V213.8h21.96V338h-23.76l-55.26-88.56V338zm129.861-29.34v-65.52q0-29.34 29.34-29.34h52.74l10.62 8.28v11.7h-62.82q-7.92 0-7.92 7.74v68.76q0 7.74 7.92 7.74h44.46v-34.38h-26.28v-19.98h48.24V338h-66.96q-29.34 0-29.34-29.34M493.073 338V213.8h83.52v19.98h-61.56v29.88h56.16v19.98h-56.16v34.38h61.56V338zm95.874-119.88 2.88-4.32h19.08l30.78 104.22h3.42l30.78-104.22h19.26l2.7 4.32L661.127 338h-35.64zM716.491 338V213.8h21.96V338zm41.579-104.22V213.8h100.26v19.98h-39.06V338h-22.14V233.78zm108.084-15.66 2.7-4.32h18.72l29.34 56.34 29.52-56.34h18.9l2.52 4.32-39.78 75.24V338h-22.14v-44.64zM1029.73 338V213.8h83.52v19.98h-61.56v35.28h56.16v19.98h-56.16V338zm103.16-29.34V213.8h21.96v96.48q0 7.74 7.92 7.74h36.54q7.92 0 7.92-7.74V213.8h21.96v94.86q0 29.34-29.34 29.34h-37.62q-29.34 0-29.34-29.34M1258.78 338V213.8h23.94l55.08 88.56V213.8h21.96V338H1336l-55.26-88.56V338zm131.66 0V213.8h47.7q48.6 0 48.6 48.78v26.64q0 48.78-48.6 48.78zm21.96-19.98h27q25.38 0 25.38-25.38v-33.48q0-25.38-25.38-25.38h-27z"/><path fill="#bb1212" d="M3.61 140.44 44.08 13.9h36.1l40.28 126.54-2.85 4.56H98.04l-8.93-28.88H34.96L25.84 145H6.65zm37.81-45.41h41.42l-19-60.04h-3.61zM185.925 145V13.9h63.08q30.97 0 30.97 30.97v25.27q0 30.78-30.97 30.78h-39.9V145zm23.18-65.17h39.33q8.36 0 8.36-8.36V43.16q0-8.17-8.36-8.17h-39.33zm96.286 34.2V13.9h23.18v101.84q0 8.17 8.36 8.17h38.57q8.36 0 8.36-8.17V13.9h23.18v100.13q0 30.97-30.97 30.97h-39.71q-30.97 0-30.97-30.97M438.269 145V13.9h63.08q30.97 0 30.97 30.97v21.47q0 23.94-19 29.07l22.8 44.65-2.85 4.94h-19.76l-24.32-47.88h-27.74V145zm23.18-68.97h39.33q8.36 0 8.36-8.36V43.16q0-8.17-8.36-8.17h-39.33zM560.73 145V13.9h63.08q30.97 0 30.97 30.97v25.27q0 30.78-30.97 30.78h-39.9V145zm23.18-65.17h39.33q8.36 0 8.36-8.36V43.16q0-8.17-8.36-8.17h-39.33zm95.526 34.2V44.87q0-30.97 30.97-30.97h43.51q30.97 0 30.97 30.97v69.16q0 30.97-30.97 30.97h-43.51q-30.97 0-30.97-30.97m23.18 1.71q0 8.17 8.36 8.17h42.37q8.36 0 8.36-8.17V43.16q0-8.17-8.36-8.17h-42.37q-8.36 0-8.36 8.17zM809.6 136.26v-12.35h58.71q8.36 0 8.36-8.17V101.3q0-7.22-6.46-8.55l-38.57-7.79q-22.04-4.37-22.04-29.64V44.87q0-30.97 30.97-30.97h44.27l11.21 8.74v12.35h-54.91q-8.36 0-8.36 8.17v12.73q0 7.22 6.46 8.55l38.57 7.6q22.04 4.56 22.04 29.64v12.35q0 30.97-30.97 30.97h-48.07zM926.443 145V13.9h88.157v21.09h-64.977v31.54h59.277v21.09h-59.277v36.29h64.977V145zm105.187-48.26V77.36h55.67v19.38zm79.43 48.26V13.9h50.35q51.3 0 51.3 51.49v28.12q0 51.49-51.3 51.49zm23.18-21.09h28.5q26.79 0 26.79-26.79V61.78q0-26.79-26.79-26.79h-28.5zM1241.13 145V13.9h63.08c20.65 0 30.97 10.323 30.97 30.97v21.47c0 15.96-6.33 25.65-19 29.07l22.8 44.65-2.85 4.94h-19.76l-24.32-47.88h-27.74V145zm23.18-68.97h39.33c5.57 0 8.36-2.787 8.36-8.36V43.16c0-5.447-2.79-8.17-8.36-8.17h-39.33zm99.28 68.97V13.9h23.18V145zm42.94-126.54 3.04-4.56h20.14l32.49 110.01h3.61L1498.3 13.9h20.33l2.85 4.56L1482.72 145h-37.62zM1541.16 145V13.9h88.16v21.09h-64.98v31.54h59.28v21.09h-59.28v36.29h64.98V145zm113.74 0V13.9h25.27l58.14 93.48V13.9h23.18V145h-25.08l-58.33-93.48V145z"/></svg>