<svg width="1748" height="537" viewBox="0 0 1748 537" fill="none" xmlns="http://www.w3.org/2000/svg">
<path d="M1651.04 95.6598V30.1398C1651.04 10.5798 1660.82 0.799805 1680.38 0.799805H1733.12L1743.74 9.07981V20.7798H1680.92C1675.64 20.7798 1673 23.3598 1673 28.5198V97.2798C1673 102.44 1675.64 105.02 1680.92 105.02H1725.38V70.6398H1699.1V50.6598H1747.34V125H1680.38C1660.82 125 1651.04 115.22 1651.04 95.6598Z" fill="black"/>
<path d="M1521.18 125V0.799805H1545.11L1600.2 89.3598V0.799805H1622.16V125H1598.4L1543.14 36.4398V125H1521.18Z" fill="black"/>
<path d="M1468.62 125V0.799805H1490.58V125H1468.62Z" fill="black"/>
<path d="M1352.6 125V0.799805H1412.36C1431.92 0.799805 1441.7 10.5798 1441.7 30.1398V50.4798C1441.7 65.5998 1435.7 74.7798 1423.7 78.0198L1445.3 120.32L1442.6 125H1423.88L1400.84 79.6398H1374.56V125H1352.6ZM1374.56 59.6598H1411.82C1417.1 59.6598 1419.74 57.0198 1419.74 51.7398V28.5198C1419.74 23.3598 1417.1 20.7798 1411.82 20.7798H1374.56V59.6598Z" fill="black"/>
<path d="M1244.85 125V0.799805H1328.37V20.7798H1266.81V50.6598H1322.97V70.6398H1266.81V105.02H1328.37V125H1244.85Z" fill="black"/>
<path d="M1117.3 5.11981L1120.18 0.799805H1139.26L1170.04 105.02H1173.46L1204.24 0.799805H1223.5L1226.2 5.11981L1189.48 125H1153.84L1117.3 5.11981Z" fill="black"/>
<path d="M1000.47 95.6598V30.1398C1000.47 10.5798 1010.25 0.799805 1029.81 0.799805H1071.03C1090.59 0.799805 1100.37 10.5798 1100.37 30.1398V95.6598C1100.37 115.22 1090.59 125 1071.03 125H1029.81C1010.25 125 1000.47 115.22 1000.47 95.6598ZM1022.43 97.2798C1022.43 102.44 1025.07 105.02 1030.35 105.02H1070.49C1075.77 105.02 1078.41 102.44 1078.41 97.2798V28.5198C1078.41 23.3598 1075.77 20.7798 1070.49 20.7798H1030.35C1025.07 20.7798 1022.43 23.3598 1022.43 28.5198V97.2798Z" fill="black"/>
<path d="M889.023 95.6598V30.1398C889.023 10.5798 898.803 0.799805 918.363 0.799805H967.323L977.943 9.07981V20.7798H918.903C913.623 20.7798 910.983 23.3598 910.983 28.5198V97.2798C910.983 102.44 913.623 105.02 918.903 105.02H977.943V116.72L967.323 125H918.363C898.803 125 889.023 115.22 889.023 95.6598Z" fill="black"/>
<path d="M780.131 116.72V105.02H835.751C841.031 105.02 843.671 102.44 843.671 97.2798V83.5998C843.671 79.0398 841.631 76.3398 837.551 75.4998L801.011 68.1198C787.091 65.3598 780.131 55.9998 780.131 40.0398V30.1398C780.131 10.5798 789.911 0.799805 809.471 0.799805H851.411L862.031 9.07981V20.7798H810.011C804.731 20.7798 802.091 23.3598 802.091 28.5198V40.5798C802.091 45.1398 804.131 47.8398 808.211 48.6798L844.751 55.8798C858.671 58.7598 865.631 68.1198 865.631 83.9598V95.6598C865.631 115.22 855.851 125 836.291 125H790.751L780.131 116.72Z" fill="black"/>
<path d="M732.972 125V0.799805H754.932V125H732.972Z" fill="black"/>
<path d="M609.749 125V0.799805H657.449C689.849 0.799805 706.049 17.0598 706.049 49.5798V76.2198C706.049 108.74 689.849 125 657.449 125H609.749ZM631.709 105.02H658.709C675.629 105.02 684.089 96.5598 684.089 79.6398V46.1598C684.089 29.2398 675.629 20.7798 658.709 20.7798H631.709V105.02Z" fill="black"/>
<path d="M1631.81 347.96V332.36H1705.97C1713.01 332.36 1716.53 328.92 1716.53 322.04V303.8C1716.53 297.72 1713.81 294.12 1708.37 293L1659.65 283.16C1641.09 279.48 1631.81 267 1631.81 245.72V232.52C1631.81 206.44 1644.85 193.4 1670.93 193.4H1726.85L1741.01 204.44V220.04H1671.65C1664.61 220.04 1661.09 223.48 1661.09 230.36V246.44C1661.09 252.52 1663.81 256.12 1669.25 257.24L1717.97 266.84C1736.53 270.68 1745.81 283.16 1745.81 304.28V319.88C1745.81 345.96 1732.77 359 1706.69 359H1645.97L1631.81 347.96Z" fill="#BB1212"/>
<path d="M1463.46 359V193.4H1495.38L1568.82 311.48V193.4H1598.1V359H1566.42L1492.74 240.92V359H1463.46Z" fill="#BB1212"/>
<path d="M1291.84 319.88V232.52C1291.84 206.44 1304.88 193.4 1330.96 193.4H1385.92C1412 193.4 1425.04 206.44 1425.04 232.52V319.88C1425.04 345.96 1412 359 1385.92 359H1330.96C1304.88 359 1291.84 345.96 1291.84 319.88ZM1321.12 322.04C1321.12 328.92 1324.64 332.36 1331.68 332.36H1385.2C1392.24 332.36 1395.76 328.92 1395.76 322.04V230.36C1395.76 223.48 1392.24 220.04 1385.2 220.04H1331.68C1324.64 220.04 1321.12 223.48 1321.12 230.36V322.04Z" fill="#BB1212"/>
<path d="M1224.17 359V193.4H1253.45V359H1224.17Z" fill="#BB1212"/>
<path d="M1071.82 359V193.4H1151.5C1177.58 193.4 1190.62 206.44 1190.62 232.52V264.44C1190.62 290.36 1177.58 303.32 1151.5 303.32H1101.1V359H1071.82ZM1101.1 276.68H1150.78C1157.82 276.68 1161.34 273.16 1161.34 266.12V230.36C1161.34 223.48 1157.82 220.04 1150.78 220.04H1101.1V276.68Z" fill="#BB1212"/>
<path d="M859.713 359V193.4H895.713L945.393 299.48L995.073 193.4H1031.07V359H1001.55V243.32L957.872 336.44H932.672L888.992 243.32V359H859.713Z" fill="#BB1212"/>
<path d="M687.076 353.24L738.196 193.4H783.796L834.676 353.24L831.076 359H806.356L795.076 322.52H726.676L715.156 359H690.916L687.076 353.24ZM734.836 295.88H787.156L763.156 220.04H758.596L734.836 295.88Z" fill="#BB1212"/>
<path d="M533.697 359V193.4H562.977V259.88H632.817V193.4H662.097V359H632.817V286.52H562.977V359H533.697Z" fill="#BB1212"/>
<path d="M382.703 319.88V232.52C382.703 206.44 395.743 193.4 421.823 193.4H487.103L501.263 204.44V220.04H422.543C415.503 220.04 411.983 223.48 411.983 230.36V322.04C411.983 328.92 415.503 332.36 422.543 332.36H501.263V347.96L487.103 359H421.823C395.743 359 382.703 345.96 382.703 319.88Z" fill="#BB1212"/>
<path d="M1659.79 537V426.6H1679.31V470.92H1725.87V426.6H1745.39V537H1725.87V488.68H1679.31V537H1659.79Z" fill="black"/>
<path d="M1559.12 510.92V452.68C1559.12 435.293 1567.82 426.6 1585.2 426.6H1628.72L1638.17 433.96V444.36H1585.69C1580.99 444.36 1578.65 446.653 1578.65 451.24V512.36C1578.65 516.946 1580.99 519.24 1585.69 519.24H1638.17V529.64L1628.72 537H1585.2C1567.82 537 1559.12 528.306 1559.12 510.92Z" fill="black"/>
<path d="M1464.94 537V426.6H1539.18V444.36H1484.46V470.92H1534.38V488.68H1484.46V519.24H1539.18V537H1464.94Z" fill="black"/>
<path d="M1358.31 444.36V426.6H1447.43V444.36H1412.71V537H1393.03V444.36H1358.31Z" fill="black"/>
<path d="M1253.66 510.92V452.68C1253.66 435.293 1262.35 426.6 1279.74 426.6H1316.38C1333.76 426.6 1342.46 435.293 1342.46 452.68V510.92C1342.46 528.306 1333.76 537 1316.38 537H1279.74C1262.35 537 1253.66 528.306 1253.66 510.92ZM1273.18 512.36C1273.18 516.946 1275.52 519.24 1280.22 519.24H1315.9C1320.59 519.24 1322.94 516.946 1322.94 512.36V451.24C1322.94 446.653 1320.59 444.36 1315.9 444.36H1280.22C1275.52 444.36 1273.18 446.653 1273.18 451.24V512.36Z" fill="black"/>
<path d="M1208.54 537V426.6H1228.06V537H1208.54Z" fill="black"/>
<path d="M1104.63 537V426.6H1156.15C1173.54 426.6 1182.23 435.293 1182.23 452.68V462.76C1182.23 466.386 1181.16 469.48 1179.03 472.04L1173.43 478.76L1180.15 484.36C1183.67 487.24 1185.43 491.506 1185.43 497.16V510.92C1185.43 528.306 1176.74 537 1159.35 537H1104.63ZM1124.15 519.24H1158.87C1163.56 519.24 1165.91 516.946 1165.91 512.36V495.56C1165.91 490.973 1163.56 488.68 1158.87 488.68H1124.15V519.24ZM1124.15 470.92H1155.67C1160.36 470.92 1162.71 468.573 1162.71 463.88V451.24C1162.71 446.653 1160.36 444.36 1155.67 444.36H1124.15V470.92Z" fill="black"/>
<path d="M959.228 430.44L961.628 426.6H978.268L1004.35 476.68L1030.59 426.6H1047.39L1049.63 430.44L1014.27 497.32V537H994.588V497.32L959.228 430.44Z" fill="black"/>
<path d="M863.153 444.36V426.6H952.273V444.36H917.553V537H897.873V444.36H863.153Z" fill="black"/>
<path d="M826.194 537V426.6H845.714V537H826.194Z" fill="black"/>
<path d="M712.821 430.44L715.381 426.6H732.341L759.701 519.24H762.741L790.101 426.6H807.221L809.621 430.44L776.981 537H745.301L712.821 430.44Z" fill="black"/>
<path d="M627.6 537V426.6H701.84V444.36H647.12V470.92H697.04V488.68H647.12V519.24H701.84V537H627.6Z" fill="black"/>
<path d="M518.031 510.92V452.68C518.031 435.293 526.725 426.6 544.111 426.6H590.991L600.431 433.96V444.36H544.591C539.898 444.36 537.551 446.653 537.551 451.24V512.36C537.551 516.946 539.898 519.24 544.591 519.24H584.111V488.68H560.751V470.92H603.631V537H544.111C526.725 537 518.031 528.306 518.031 510.92Z" fill="black"/>
<path d="M402.6 537V426.6H423.88L472.84 505.32V426.6H492.36V537H471.24L422.12 458.28V537H402.6Z" fill="black"/>
<path d="M288.188 510.92V452.68C288.188 435.293 296.881 426.6 314.267 426.6H350.908C368.294 426.6 376.988 435.293 376.988 452.68V510.92C376.988 528.306 368.294 537 350.908 537H314.267C296.881 537 288.188 528.306 288.188 510.92ZM307.707 512.36C307.707 516.946 310.054 519.24 314.747 519.24H350.427C355.121 519.24 357.467 516.946 357.467 512.36V451.24C357.467 446.653 355.121 444.36 350.427 444.36H314.747C310.054 444.36 307.707 446.653 307.707 451.24V512.36Z" fill="black"/>
<path d="M202.912 537V426.6H222.432V519.24H272.352V537H202.912Z" fill="black"/>
<path d="M47.4437 537V426.6H68.7237L117.684 505.32V426.6H137.204V537H116.084L66.9637 458.28V537H47.4437Z" fill="black"/>
<path d="M0.724976 537V426.6H20.245V537H0.724976Z" fill="black"/>
</svg>
