<svg viewBox="0 0 20 24" fill="current" xmlns="http://www.w3.org/2000/svg">
<path d="M10.7524 21.4979C10.7229 21.4423 10.695 21.3904 10.6675 21.339C10.6422 21.3427 10.6169 21.3468 10.5921 21.3505C10.4129 22.2319 10.2341 23.1139 10.0548 23.9953C10.0395 23.9969 10.0248 23.9984 10.0095 24C9.83285 23.1191 9.65621 22.2381 9.47429 21.3297C9.39784 21.3759 9.35091 21.4039 9.31083 21.4278C9.16478 20.822 9.01872 20.2183 8.87319 19.6146C8.84946 19.6156 8.82626 19.6172 8.80253 19.6182C8.76668 19.6904 8.73082 19.7625 8.67704 19.8705C8.57263 19.5673 8.49143 19.2901 8.38176 19.0249C8.25943 18.7295 8.11864 18.4409 7.96889 18.1585C7.92724 18.0796 7.82547 18.0318 7.71052 18.0007C7.62563 17.7743 7.53862 17.549 7.45637 17.3217C7.2676 16.7989 6.78091 16.5414 6.40812 16.1832C6.38228 16.1583 6.30846 16.163 6.2647 16.177C5.90773 16.2876 5.69523 16.6017 5.73952 16.9713C5.84181 17.8273 6.23359 18.5691 6.70762 19.2719C6.94279 19.6203 7.21645 19.9432 7.43317 20.3211C6.94648 19.9058 6.43818 19.5123 5.97944 19.069C5.46639 18.5737 4.99499 18.037 4.51358 17.5106C4.45241 17.4436 4.39705 17.3211 4.4155 17.2417C4.60585 16.4366 4.28368 15.811 3.69206 15.3075C3.44002 15.0931 3.3488 14.9145 3.46059 14.5917C3.59821 14.1919 3.56182 13.7787 3.43211 13.3686C2.9971 11.9899 2.33272 10.7362 1.38835 9.62793C1.03876 9.21783 0.639599 8.92142 0 9.0377C0.737147 5.28609 2.95755 2.52339 5.62141 0.0301085C5.64197 0.0410098 5.66254 0.0524302 5.68363 0.0633315C5.63354 0.157809 5.5845 0.252806 5.53335 0.346765C4.78302 1.73902 4.28948 3.20031 4.2705 4.79502C4.25837 5.82337 4.48563 6.79722 5.03823 7.66414C5.55022 8.4672 6.12971 9.22925 6.70077 9.99338C6.82995 10.1662 7.03032 10.3121 7.23016 10.403C7.58186 10.5628 7.7933 10.3786 7.73688 9.99805C7.7295 9.94822 7.71896 9.89839 7.74638 9.82675C7.81545 9.90981 7.8898 9.98871 7.95254 10.0759C8.79568 11.2569 9.33773 12.576 9.73847 13.9521C9.86238 14.3778 9.92354 14.8304 9.94253 15.2743C9.99051 16.379 9.99789 17.4857 10.078 18.5919C10.078 18.3183 10.0749 18.0448 10.0786 17.7712C10.0896 16.9588 10.1118 16.1464 10.1123 15.334C10.1128 14.8284 10.1777 14.3414 10.3348 13.8566C10.7667 12.5272 11.2639 11.2294 12.0749 10.0702C12.1376 9.9804 12.2104 9.89787 12.3185 9.8309C12.3127 9.87606 12.2958 9.9233 12.3037 9.96639C12.3296 10.1112 12.3185 10.3225 12.4076 10.3817C12.5167 10.4538 12.7277 10.4362 12.8684 10.3863C13.0166 10.3334 13.1664 10.2197 13.2602 10.0931C13.875 9.26403 14.5315 8.45837 15.0662 7.58108C15.9251 6.1717 15.9151 4.63617 15.5249 3.08455C15.2855 2.1325 14.9228 1.22562 14.4461 0.363896C14.3918 0.265784 14.3433 0.164558 14.2937 0.0643699C14.2916 0.060217 14.3011 0.0503537 14.3306 0C16.9908 2.52703 19.1959 5.3053 20 8.98683C19.8692 8.99773 19.7922 9.00915 19.7153 9.01019C19.41 9.01486 19.1458 9.11972 18.9396 9.34034C17.739 10.6246 16.889 12.0984 16.5305 13.8166C16.4682 14.1151 16.5426 14.4541 16.6106 14.7624C16.6554 14.9659 16.6053 15.0703 16.4614 15.2021C16.251 15.3947 16.0538 15.6086 15.8877 15.8386C15.6008 16.2367 15.5165 16.6878 15.6019 17.1722C15.6177 17.262 15.6072 17.3871 15.5539 17.4535C14.7371 18.4777 13.8271 19.4095 12.7472 20.171C12.7208 20.1897 12.6907 20.2022 12.5964 20.2536C12.8415 19.9411 13.0488 19.6904 13.2407 19.4292C13.7764 18.6994 14.184 17.9119 14.3158 17.0076C14.3501 16.7719 14.3533 16.5461 14.1403 16.3665C13.8075 16.0851 13.7406 16.0966 13.3931 16.3525C12.8558 16.7486 12.4962 17.2443 12.3754 17.8994C12.3707 17.9243 12.367 17.9602 12.3501 17.9711C11.7733 18.3334 11.7337 18.9797 11.5022 19.5242C11.4627 19.6172 11.4342 19.7142 11.3862 19.8502C11.3361 19.7402 11.3066 19.6748 11.2771 19.6094C11.2523 19.6068 11.2281 19.6042 11.2033 19.6016C11.0567 20.2162 10.9106 20.8314 10.7524 21.4979ZM8.59109 16.3229C8.59425 15.797 8.54311 15.3667 8.13393 15.0381C7.61983 14.6249 7.13578 14.1758 6.62958 13.7523C6.47034 13.6194 6.28368 13.5187 6.10809 13.405C5.94253 13.298 5.7759 13.1932 5.66465 13.1226C6.10335 13.7658 6.56051 14.4463 7.03296 15.116C7.09728 15.2073 7.23332 15.2738 7.3488 15.3013C7.86871 15.4248 8.34484 15.5915 8.49829 16.1775C8.50725 16.2092 8.53414 16.2352 8.59109 16.3229ZM14.2832 13.1169C13.4506 13.6272 12.6438 14.2605 11.9167 15.0101C11.5502 15.3885 11.4674 15.7955 11.4669 16.3125C11.5149 16.2352 11.5534 16.1973 11.5634 16.1531C11.6731 15.6714 12.0438 15.4861 12.474 15.3662C12.5584 15.3428 12.6486 15.3304 12.725 15.2919C12.8062 15.2509 12.8964 15.199 12.9449 15.1274C13.4042 14.4473 13.8555 13.7616 14.2832 13.1169Z" fill="current"/>
</svg>
