<svg viewBox="0 0 24 24" fill="current" xmlns="http://www.w3.org/2000/svg">
<path d="M21.5077 21.2689L21.5119 20.8492C21.5119 10.8832 13.4325 2.8042 3.46604 2.8042L3.04639 2.80839V5.74175C11.6222 5.74175 18.5742 12.6935 18.5742 21.2689H21.5077ZM14.7888 21.2689L14.7971 20.8492C14.7971 14.5914 9.72412 9.51864 3.46604 9.51864L3.04639 9.527V12.4562C7.91374 12.4562 11.8595 16.4017 11.8595 21.2689H14.7888L14.7888 21.2689ZM3.04639 18.7509C3.04639 20.1416 4.1737 21.2689 5.56439 21.2689C6.95513 21.2689 8.08239 20.1416 8.08239 18.7509C8.08239 17.3604 6.95513 16.2331 5.56439 16.2331C4.1737 16.2331 3.04639 17.3604 3.04639 18.7509Z" fill="current"/>
</svg>
